<?xml version="1.0" standalone="no"?>
<!DOCTYPE svg PUBLIC "-//W3C//DTD SVG 1.1//EN" "http://www.w3.org/Graphics/SVG/1.1/DTD/svg11.dtd" >
<svg xmlns="http://www.w3.org/2000/svg" xmlns:xlink="http://www.w3.org/1999/xlink" version="1.1">
<metadata>
Created by FontForge 20201107 at Wed Jun 18 20:41:10 2025
 By 
Copyright (c) 1985, 1987, 1989, 1990, 1997, 1998, 1999, 2002 Adobe Systems Incorporated.  All Rights Reserved. (c) 1981, 1999, 2002 Heidelberger Druckmaschinen AG. All rights reserved.
</metadata>
<defs>
<font id="HelveticaLTStd-Roman" horiz-adv-x="1138" >
  <font-face 
    font-family="Helvetica LT Std"
    font-weight="400"
    font-stretch="normal"
    units-per-em="2048"
    panose-1="2 11 5 4 2 2 2 2 2 4"
    ascent="1470"
    descent="-578"
    x-height="1071"
    cap-height="1470"
    bbox="-340 -461 2048 1907"
    underline-thickness="102"
    underline-position="-204"
    unicode-range="U+0020-FB02"
  />
<missing-glyph horiz-adv-x="1024" 
d="M0 0v1434h1024v-1434h-1024zM512 809l348 522h-696zM573 717l349 -522v1044zM164 102h696l-348 523zM102 1239v-1044l349 522z" />
    <glyph glyph-name=".notdef" horiz-adv-x="1024" 
d="M0 0v1434h1024v-1434h-1024zM512 809l348 522h-696zM573 717l349 -522v1044zM164 102h696l-348 523zM102 1239v-1044l349 522z" />
    <glyph glyph-name=".null" horiz-adv-x="0" 
 />
    <glyph glyph-name="nonmarkingreturn" horiz-adv-x="682" 
 />
    <glyph glyph-name="space" unicode=" " horiz-adv-x="569" 
 />
    <glyph glyph-name="exclam" unicode="!" horiz-adv-x="569" 
d="M383 209v-209h-199v209h199zM334 350h-101l-49 635v485h199v-485z" />
    <glyph glyph-name="quotedbl" unicode="&#x22;" horiz-adv-x="727" 
d="M143 948v522h150v-522h-150zM434 948v522h150v-522h-150z" />
    <glyph glyph-name="numbersign" unicode="#" 
d="M795 430l-60 -430h-135l59 430h-256l-59 -430h-135l59 430h-211l19 129h211l39 291h-211l18 129h211l59 430h138l-60 -430h254l60 430h137l-60 -430h211l-18 -129h-211l-41 -291h211l-18 -129h-211zM717 850h-254l-41 -291h256z" />
    <glyph glyph-name="dollar" unicode="$" 
d="M518 838v469q-113 0 -178.5 -69.5t-65.5 -168.5q0 -69 36.5 -119.5t88.5 -75.5t119 -36zM614 631v-520q129 0 200 75.5t71 182.5q0 83 -46 144.5t-114 82.5zM1030 1067h-174q-12 97 -62.5 156.5t-179.5 83.5v-490q195 -57 266 -92q120 -61 160 -164q25 -66 25 -160
q0 -100 -31 -179t-79 -126.5t-110 -79t-119 -43.5t-112 -12v-197h-96v197q-80 4 -145 20.5t-123.5 51t-98 87t-62.5 132.5t-23 184h180q9 -166 64.5 -233t207.5 -92v542q-52 12 -90 23t-85 29t-80.5 38.5t-67 51t-54.5 67t-34 86.5t-13 109q0 167 121.5 283t302.5 116v131
h96v-131q49 -4 93 -12.5t105 -34.5t104.5 -65t77 -111t36.5 -166z" />
    <glyph glyph-name="percent" unicode="%" horiz-adv-x="1820" 
d="M80 1077q0 146 102.5 246t247.5 100q143 0 245.5 -101t102.5 -245q0 -145 -101.5 -247.5t-246.5 -102.5t-247.5 101.5t-102.5 248.5zM223 1077q0 -92 60 -149.5t145 -57.5q88 0 147.5 60.5t59.5 146.5t-60 144.5t-145 58.5q-87 0 -147 -59.5t-60 -143.5zM1042 336
q0 145 102.5 245.5t248.5 100.5q143 0 245.5 -101t102.5 -245q0 -145 -101.5 -247.5t-246.5 -102.5q-146 0 -248.5 101.5t-102.5 248.5zM1186 336q0 -92 60 -149.5t145 -57.5q88 0 147 60.5t59 146.5t-59.5 144.5t-144.5 58.5q-87 0 -147 -59.5t-60 -143.5zM1370 1440
l-811 -1479h-110l808 1479h113z" />
    <glyph glyph-name="ampersand" unicode="&#x26;" horiz-adv-x="1366" 
d="M854 289l-332 405q-56 -36 -88 -58t-68 -53.5t-54 -60t-30 -68t-12 -85.5q0 -52 20 -95.5t49.5 -70t66.5 -45t69.5 -26t59.5 -7.5q198 0 319 164zM586 899q30 21 50 35.5t48 40.5t44.5 50t29 58t12.5 70q0 46 -16 80t-41.5 50.5t-50.5 24t-50 7.5q-53 0 -90 -17.5
t-53.5 -45t-22.5 -51t-6 -46.5q0 -110 146 -256zM1059 317l262 -317h-234l-137 168q-85 -98 -182 -148.5t-246 -50.5q-76 0 -139.5 15.5t-107 41t-77.5 60t-54 69.5t-32.5 73.5t-17 68.5t-4.5 57q0 79 13.5 136t50.5 112.5t101 106t167 108.5q-90 111 -123 174.5t-33 151.5
q0 135 93.5 231t254.5 96q83 0 148.5 -26.5t104 -70.5t58 -96.5t19.5 -109.5q0 -59 -18.5 -113t-41.5 -89.5t-65.5 -75.5t-67.5 -58t-71 -49l268 -319q26 70 36.5 110t23.5 119h170q-15 -184 -119 -375z" />
    <glyph glyph-name="quotesingle" unicode="'" horiz-adv-x="391" 
d="M121 948v522h149v-522h-149z" />
    <glyph glyph-name="parenleft" unicode="(" horiz-adv-x="681" 
d="M485 1501h125q-48 -91 -71 -135.5t-59.5 -121.5t-53 -127t-39 -127t-32 -147.5t-16.5 -162t-7 -195.5q0 -122 19 -234.5t61.5 -230t84.5 -209.5t115 -235h-120q-90 134 -147 233.5t-108 219t-74.5 243t-23.5 263.5q0 259 86 488.5t260 477.5z" />
    <glyph glyph-name="parenright" unicode=")" horiz-adv-x="681" 
d="M197 -424h-125q48 91 71 135.5t59.5 121.5t53 127t39 127t32 147.5t16.5 162t7 195.5q0 122 -19 234.5t-61.5 230t-84.5 209.5t-115 235h120q71 -107 119.5 -186.5t96 -177t75.5 -185t45 -192.5t17 -217q0 -259 -86 -489t-260 -478z" />
    <glyph glyph-name="asterisk" unicode="*" horiz-adv-x="796" 
d="M80 1210l41 113l215 -78v225h123v-225l215 78l41 -113l-221 -69l137 -189l-101 -69l-133 192l-133 -192l-100 69l137 189z" />
    <glyph glyph-name="plus" unicode="+" horiz-adv-x="1196" 
d="M524 592v442h150v-442h442v-150h-442v-442h-150v442h-444v150h444z" />
    <glyph glyph-name="comma" unicode="," horiz-adv-x="569" 
d="M178 0v217h213v-201q0 -79 -19 -139.5t-43.5 -91.5t-59 -52t-53 -26t-38.5 -8v94q41 4 66.5 37t34 75t8.5 95h-109z" />
    <glyph glyph-name="hyphen" unicode="-" horiz-adv-x="681" 
d="M592 659v-184h-502v184h502z" />
    <glyph glyph-name="period" unicode="." horiz-adv-x="569" 
d="M391 217v-217h-213v217h213z" />
    <glyph glyph-name="slash" unicode="/" horiz-adv-x="569" 
d="M604 1509l-502 -1548h-137l504 1548h135z" />
    <glyph glyph-name="zero" unicode="0" 
d="M870 700q0 277 -74.5 427.5t-226.5 150.5t-226.5 -150.5t-74.5 -427.5t74.5 -427t226.5 -150t226.5 150t74.5 427zM1063 700q0 -69 -5.5 -135.5t-20.5 -141.5t-38 -139.5t-62 -125.5t-89 -103.5t-121.5 -68t-157.5 -25.5t-157.5 25.5t-121.5 68t-88.5 103.5t-62 125.5
t-38 139.5t-20 141.5t-5.5 135.5t5.5 135.5t20 142t38 140t62 125t88.5 103.5t121.5 68.5t157.5 25.5t157.5 -25.5t121.5 -68.5t89 -103.5t62 -125.5t38 -140t20.5 -141.5t5.5 -135.5z" />
    <glyph glyph-name="one" unicode="1" 
d="M735 1440v-1440h-192v1022h-336v143q56 4 92 8t76 12t65 20.5t50.5 32t43 47.5t33 66t27.5 89h141z" />
    <glyph glyph-name="two" unicode="2" 
d="M270 924h-180q0 97 20 176t51 131.5t76 92t89 61t95.5 35t89.5 17t77 3.5q193 0 321.5 -117t128.5 -313q0 -75 -20.5 -138.5t-51.5 -109t-86 -90t-103 -74.5t-124 -70l-149 -82q-69 -38 -119.5 -80t-76 -79.5t-37 -64.5t-15.5 -52h782v-170h-985q7 211 93.5 345
t244.5 226l191 111q46 26 64.5 37t54.5 34.5t51 39t37.5 41.5t32 51t17 59t7.5 74q0 46 -15.5 89.5t-47.5 83t-89.5 63.5t-132.5 24q-44 0 -81.5 -9.5t-64.5 -23.5t-49 -37.5t-36.5 -44t-25.5 -51.5t-16.5 -51.5t-9.5 -52t-5 -45.5t-3 -39z" />
    <glyph glyph-name="three" unicode="3" 
d="M459 664v155q62 -4 94 -4q44 0 82 7t74 24.5t61.5 43.5t41 67.5t15.5 93.5q0 28 -6.5 56.5t-25.5 60t-47.5 55.5t-76.5 39.5t-110 15.5q-53 0 -95.5 -12.5t-70.5 -30.5t-49 -48t-32 -53.5t-18.5 -60t-10 -55t-4.5 -49.5h-177q0 69 11.5 130.5t43.5 126t82 110t134.5 75
t193.5 29.5q205 0 325 -105.5t120 -273.5q0 -65 -17.5 -119.5t-46 -89.5t-59 -56.5t-62.5 -31.5v-4q240 -78 240 -336q0 -92 -30 -172.5t-90.5 -147t-162.5 -105t-235 -38.5q-145 0 -266 64q-58 30 -99 75.5t-64.5 102.5t-35 113t-16.5 124h186q2 -48 8 -85.5t25.5 -83.5
t51 -76t88.5 -51t134 -21q139 0 226.5 77t87.5 201q0 265 -336 265q-13 0 -41 -1t-41 -1z" />
    <glyph glyph-name="four" unicode="4" 
d="M1071 350h-211v-350h-180v350h-629v176l660 914h149v-934h211v-156zM676 1159l-459 -653h463v653h-4z" />
    <glyph glyph-name="five" unicode="5" 
d="M362 1233l-61 -395q117 90 279 90q89 0 172.5 -31t151 -87.5t108.5 -146t41 -196.5q0 -38 -5 -78.5t-20 -91.5t-38.5 -96.5t-64.5 -90.5t-94 -77t-130.5 -52t-170.5 -20q-61 0 -117.5 10t-116.5 37.5t-106 70.5t-80 114.5t-44 164.5h186q13 -121 95 -181t210 -60
q136 0 219.5 95t83.5 234q0 150 -90 235t-229 85q-161 0 -267 -137l-155 8l108 772h746v-176h-611z" />
    <glyph glyph-name="six" unicode="6" 
d="M1030 1057h-176q-40 221 -248 221q-68 0 -123.5 -28.5t-91.5 -76.5t-62 -104t-39.5 -118.5t-19.5 -112.5t-6 -93l4 -4q42 73 125.5 125t216.5 52q56 0 114.5 -14t120 -48.5t109 -84.5t77.5 -130.5t30 -179.5q0 -111 -32 -196.5t-105 -164.5q-42 -46 -84 -74t-112.5 -46.5
t-168.5 -18.5q-61 0 -123 17.5t-131 67t-117 124.5q-110 173 -110 500q0 85 10 167t32 172t63 165t97.5 136t141 95.5t188.5 34.5q53 0 106 -11.5t108 -39.5t98 -70t73 -110t35 -152zM289 442q0 -60 18 -115.5t53.5 -101.5t95.5 -74t136 -28q128 0 205 91.5t77 238.5
q0 52 -14.5 101.5t-46 96.5t-91 76t-138.5 29q-143 0 -219 -89.5t-76 -224.5z" />
    <glyph glyph-name="seven" unicode="7" 
d="M76 1233v176h995v-158q-50 -53 -107 -126t-133 -194.5t-140.5 -255t-123 -313t-88.5 -362.5h-198q36 288 204.5 636t382.5 597h-792z" />
    <glyph glyph-name="eight" unicode="8" 
d="M1008 1069q0 -59 -14 -108t-31.5 -78t-48 -55.5t-47 -36.5t-44.5 -25q69 -29 118.5 -73t73.5 -93t34 -93.5t10 -90.5q0 -71 -18 -136t-56.5 -123.5t-94.5 -102t-138 -68.5t-181 -25q-78 0 -173.5 25.5t-172.5 85.5q-51 41 -84 90t-45 101.5t-15 81.5t-3 69q0 252 244 350
q-93 36 -144 108t-51 172q0 49 12 99t43 104.5t78.5 96.5t125.5 69t177 27q114 0 203 -34t140 -89t76.5 -118.5t25.5 -129.5zM567 676q-143 0 -220 -78.5t-77 -187.5q0 -38 7.5 -74.5t29 -76t54.5 -69t89 -48.5t128 -19q43 0 80.5 6.5t77 25t67.5 47.5t45.5 78.5t17.5 114.5
q0 139 -84 210t-215 71zM565 831q115 0 185.5 66t70.5 166q0 36 -13 71t-41.5 69t-83.5 54.5t-130 20.5q-69 0 -118.5 -21.5t-74.5 -57t-36 -71.5t-11 -75q0 -99 74.5 -160.5t177.5 -61.5z" />
    <glyph glyph-name="nine" unicode="9" 
d="M539 481q-202 0 -327.5 126t-125.5 339q0 99 30.5 187.5t87 157.5t146 109t199.5 40q95 0 172 -25.5t128.5 -65.5t90 -99t59.5 -116.5t34 -127.5t16.5 -123t3.5 -111q0 -33 -1.5 -68.5t-7.5 -95.5t-16 -115.5t-30 -122t-46 -122.5t-66.5 -110.5t-89.5 -92.5t-117.5 -61
t-148.5 -23q-97 0 -174 27t-123 68t-77 94.5t-42.5 101.5t-11.5 94h181q8 -110 71 -172.5t172 -62.5q147 0 229.5 128.5t116.5 409.5l-4 4q-38 -80 -131 -126t-198 -46zM565 643q33 0 65.5 6.5t72.5 27.5t69 55t49.5 96t20.5 143q0 134 -72.5 220.5t-218.5 86.5
q-126 0 -202.5 -89.5t-76.5 -234.5q0 -79 19.5 -138t48 -91t70.5 -51.5t77.5 -25t77.5 -5.5z" />
    <glyph glyph-name="colon" unicode=":" horiz-adv-x="569" 
d="M391 217v-217h-213v217h213zM391 1057v-217h-213v217h213z" />
    <glyph glyph-name="semicolon" unicode=";" horiz-adv-x="569" 
d="M178 0v217h213v-201q0 -79 -19 -139.5t-43.5 -91.5t-59 -52t-53 -26t-38.5 -8v94q41 4 66.5 37t34 75t8.5 95h-109zM391 840h-213v217h213v-217z" />
    <glyph glyph-name="less" unicode="&#x3c;" horiz-adv-x="1196" 
d="M1098 186v-163l-1000 423v144l1000 424v-164l-799 -332z" />
    <glyph glyph-name="equal" unicode="=" horiz-adv-x="1196" 
d="M1116 799v-150h-1036v150h1036zM1116 385v-149h-1036v149h1036z" />
    <glyph glyph-name="greater" unicode="&#x3e;" horiz-adv-x="1196" 
d="M98 850v164l1000 -424v-144l-1000 -423v163l799 332z" />
    <glyph glyph-name="question" unicode="?" 
d="M295 1010h-180q2 47 3.5 70t7 64.5t16 68t27.5 61t44 64t63 57.5q122 94 297 94q87 0 165 -26.5t138.5 -76t96 -127t35.5 -172.5q0 -67 -21 -120t-58.5 -98.5t-113.5 -118.5q-44 -42 -59.5 -58t-43.5 -48.5t-37 -53t-21.5 -55t-15 -72t-1.5 -88.5h-180q0 70 7.5 122
t18.5 90t39 78t53 69t76 81q62 63 84.5 88t46 61t28.5 63.5t5 72.5q0 28 -6.5 57.5t-24 61.5t-44 57t-71.5 41t-102 16q-54 0 -97.5 -13.5t-71 -34.5t-48 -52t-31 -58.5t-16.5 -62.5t-7 -56t-1 -46zM651 209v-209h-198v209h198z" />
    <glyph glyph-name="at" unicode="@" horiz-adv-x="2078" 
d="M1251 836q0 75 -50.5 131.5t-117.5 56.5q-86 0 -159.5 -65t-111.5 -156t-38 -178q0 -88 48 -143.5t124 -55.5q82 0 154.5 69t111.5 163t39 178zM1315 1012l41 127h139q-29 -107 -79 -277t-77.5 -268.5t-27.5 -122.5q0 -31 9.5 -45t33.5 -14q68 0 136 64t111.5 168
t43.5 210q0 159 -79 281t-208 184.5t-285 62.5q-179 0 -322 -88t-221.5 -237.5t-78.5 -329.5q0 -178 84 -325t229.5 -230.5t322.5 -83.5q142 0 276 63t222 171h137q-100 -167 -271.5 -264t-367.5 -97q-216 0 -395.5 103t-283 281.5t-103.5 393.5q0 210 104.5 387.5t282 280
t385.5 102.5q189 0 350 -81t258 -228.5t97 -329.5q0 -107 -33.5 -203.5t-87 -165.5t-118.5 -120.5t-130 -76.5t-121 -25q-55 0 -91.5 33t-39.5 96l-4 -2q-50 -54 -114.5 -90.5t-131.5 -36.5q-130 0 -215.5 95.5t-85.5 231.5q0 104 34.5 205t94.5 181t150.5 129.5t193.5 49.5
q163 0 236 -159z" />
    <glyph glyph-name="A" unicode="A" horiz-adv-x="1366" 
d="M977 428h-590l-154 -428h-204l553 1470h225l532 -1470h-217zM449 604h456l-217 647h-4z" />
    <glyph glyph-name="B" unicode="B" horiz-adv-x="1366" 
d="M350 1300v-452h359q151 0 229 54t78 183q0 106 -72 160.5t-233 54.5h-361zM152 0v1470h647q197 0 306 -105.5t109 -264.5q0 -56 -14 -106.5t-60 -108t-122 -92.5q29 -12 45.5 -19t48.5 -25t51.5 -34.5t45 -45.5t40 -60.5t25 -77t10.5 -97.5q0 -89 -33 -167.5t-94.5 -138
t-157.5 -94t-215 -34.5h-632zM350 686v-516h424q152 0 231.5 71t79.5 197q0 248 -344 248h-391z" />
    <glyph glyph-name="C" unicode="C" horiz-adv-x="1478" 
d="M1380 1028h-192q-16 74 -51 130.5t-77 88.5t-94.5 52.5t-97.5 27t-92 6.5q-101 0 -187.5 -37.5t-152.5 -108.5t-103.5 -183.5t-37.5 -253.5q0 -107 15.5 -197t51 -168t91 -132t139 -85t190.5 -31q44 0 87 8.5t96.5 35.5t97 69.5t82 117.5t57.5 173h193
q-17 -114 -56.5 -206.5t-87 -151.5t-109.5 -103t-115.5 -66t-113.5 -35t-94 -15.5t-67 -2.5q-103 0 -197 26.5t-180 86.5t-148.5 149t-99.5 222.5t-37 297.5q0 226 81.5 399t238 270t366.5 97q137 0 249 -40t185 -108.5t116 -153t54 -179.5z" />
    <glyph glyph-name="D" unicode="D" horiz-adv-x="1478" 
d="M166 0v1470h596q284 0 451 -196.5t167 -517.5q0 -105 -18 -205.5t-64 -202.5t-114.5 -177.5t-179.5 -123t-250 -47.5h-588zM365 1300v-1130h385q197 0 311.5 149.5t114.5 423.5q0 273 -117 415t-324 142h-370z" />
    <glyph glyph-name="E" unicode="E" horiz-adv-x="1366" 
d="M1262 176v-176h-1086v1470h1071v-176h-872v-450h805v-176h-805v-492h887z" />
    <glyph glyph-name="F" unicode="F" horiz-adv-x="1251" 
d="M375 668v-668h-199v1470h1018v-176h-819v-450h721v-176h-721z" />
    <glyph glyph-name="G" unicode="G" horiz-adv-x="1593" 
d="M797 616v170h645v-786h-129l-47 190q-76 -105 -206 -167t-280 -62q-90 0 -164.5 14.5t-128.5 41.5t-88.5 52t-68.5 58q-54 51 -95 107.5t-65.5 114.5t-40 108.5t-21.5 109t-8 95t-2 86.5q0 110 26 217t82 205.5t136 173.5t197 120t256 45q106 0 207.5 -30t189.5 -88
t148.5 -153t76.5 -214h-192q-18 74 -55 130.5t-80.5 89.5t-98.5 53.5t-104.5 28t-102.5 7.5q-100 0 -187 -39.5t-152.5 -113.5t-103.5 -188t-38 -255q0 -96 13 -178.5t47.5 -163.5t88 -137.5t141 -91.5t200.5 -35q182 0 301 94q91 72 126 166.5t35 224.5h-458z" />
    <glyph glyph-name="H" unicode="H" horiz-adv-x="1478" 
d="M1124 862v608h199v-1470h-199v686h-768v-686h-198v1470h198v-608h768z" />
    <glyph glyph-name="I" unicode="I" horiz-adv-x="569" 
d="M385 1470v-1470h-199v1470h199z" />
    <glyph glyph-name="J" unicode="J" horiz-adv-x="1024" 
d="M35 473h186v-102q0 -127 56.5 -183.5t164.5 -56.5q129 0 182.5 67.5t53.5 186.5v1085h199v-1073q0 -99 -25.5 -177t-66 -125.5t-97.5 -78.5t-114 -43t-121 -12q-98 0 -174.5 25.5t-121 64t-73.5 89.5t-39 96.5t-10 91.5v145z" />
    <glyph glyph-name="K" unicode="K" horiz-adv-x="1366" 
d="M354 516v-516h-198v1470h198v-712l713 712h274l-612 -593l629 -877h-258l-514 737z" />
    <glyph glyph-name="L" unicode="L" 
d="M354 1470v-1294h746v-176h-944v1470h198z" />
    <glyph glyph-name="M" unicode="M" horiz-adv-x="1705" 
d="M1559 0h-193v868q0 10 2 148.5t2 218.5h-4l-414 -1235h-196l-414 1233h-4q0 -79 2 -217t2 -148v-868h-192v1470h284l420 -1243h4l418 1243h283v-1470z" />
    <glyph glyph-name="N" unicode="N" horiz-adv-x="1478" 
d="M1130 283v1187h193v-1470h-223l-748 1188h-4v-1188h-192v1470h235l735 -1187h4z" />
    <glyph glyph-name="O" unicode="O" horiz-adv-x="1593" 
d="M1309 735q0 264 -138.5 431t-373.5 167t-373.5 -167t-138.5 -431t138.5 -431t373.5 -167t373.5 167t138.5 431zM1513 735q0 -71 -10.5 -143t-35.5 -149t-62.5 -146t-95.5 -131t-130 -107t-170 -71.5t-212 -26.5q-158 0 -284.5 50.5t-205.5 130t-132 184.5t-74 206.5
t-21 202.5t21 202.5t74 206.5t132 184.5t205.5 130t284.5 50.5q114 0 212 -26.5t170 -71.5t130 -107t95.5 -131t62.5 -146t35.5 -149t10.5 -143z" />
    <glyph glyph-name="P" unicode="P" horiz-adv-x="1366" 
d="M375 1300v-509h395q143 0 221 61t78 203q0 245 -291 245h-403zM375 621v-621h-199v1470h662q200 0 318 -115.5t118 -297.5q0 -64 -14.5 -124.5t-47.5 -117.5t-82 -99.5t-124.5 -68.5t-167.5 -26h-463z" />
    <glyph glyph-name="Q" unicode="Q" horiz-adv-x="1593" 
d="M860 303l101 123l186 -145q78 78 120 195.5t42 258.5q0 264 -138.5 431t-373.5 167t-373.5 -167t-138.5 -431t138.5 -431t373.5 -167q125 0 217 47zM1501 4l-100 -119l-225 174q-154 -98 -379 -98q-158 0 -284.5 50.5t-205.5 130t-132 184.5t-74 206.5t-21 202.5
t21 202.5t74 206.5t132 184.5t205.5 130t284.5 50.5q114 0 212 -26.5t170 -71.5t130 -107t95.5 -131t62.5 -146t35.5 -149t10.5 -143q0 -155 -52 -309.5t-161 -265.5z" />
    <glyph glyph-name="R" unicode="R" horiz-adv-x="1478" 
d="M379 631v-631h-199v1470h680q77 0 143.5 -11t130.5 -39t109 -71.5t72.5 -113.5t27.5 -160q0 -62 -13 -114.5t-31 -87t-48 -65.5t-54 -48t-58 -37q33 -14 51 -23t44.5 -30.5t40.5 -48t26 -71.5t14 -104l12 -266q2 -63 15.5 -92t58.5 -55v-33h-244q-19 58 -27 175.5
t-8 193.5q0 42 -4 74t-20 69.5t-43 61.5t-76.5 40.5t-118.5 16.5h-481zM379 1300v-499h461q48 0 87 5.5t80 22t69 43.5t45.5 73.5t17.5 109.5q0 65 -19 112.5t-45.5 72t-65.5 39t-69 18t-66 3.5h-495z" />
    <glyph glyph-name="S" unicode="S" horiz-adv-x="1366" 
d="M1229 1040h-187q-4 81 -37 141.5t-87 93.5t-114 48.5t-126 15.5q-43 0 -83.5 -5t-88.5 -22t-82.5 -43.5t-58 -75t-23.5 -112.5q0 -85 48 -126.5t126 -59.5l420 -96q154 -36 244 -132t90 -261q0 -84 -25 -153.5t-69 -117t-99.5 -82.5t-121.5 -54.5t-130.5 -28.5t-130.5 -9
q-96 0 -172.5 12.5t-129 36.5t-81.5 44t-61 48q-87 79 -118.5 168t-31.5 205h187q0 -77 24.5 -137.5t64 -98.5t93.5 -63t108.5 -35t114.5 -10q49 0 95.5 5t101 21.5t94.5 42.5t67 72.5t27 106.5q0 78 -29 124.5t-93.5 76t-190.5 59.5l-301 70q-313 75 -313 346q0 70 18 135
t57.5 123.5t97.5 101.5t143 68.5t189 25.5q106 0 193 -18t144.5 -46t101.5 -70t68 -82t39.5 -90t20.5 -85.5t7 -77.5z" />
    <glyph glyph-name="T" unicode="T" horiz-adv-x="1251" 
d="M29 1294v176h1194v-176h-498v-1294h-199v1294h-497z" />
    <glyph glyph-name="U" unicode="U" horiz-adv-x="1478" 
d="M1120 1470h199v-954q0 -115 -36.5 -214t-107.5 -176t-186 -121t-262 -44q-143 0 -254 43.5t-177.5 118.5t-100 167.5t-33.5 198.5v981h198v-925q0 -92 22 -164.5t57.5 -117.5t85.5 -74t100.5 -40.5t107.5 -11.5q74 0 138 19t122.5 62.5t92.5 126t34 196.5v929z" />
    <glyph glyph-name="V" unicode="V" horiz-adv-x="1366" 
d="M686 217l416 1253h223l-537 -1470h-210l-537 1470h221l420 -1253h4z" />
    <glyph glyph-name="W" unicode="W" horiz-adv-x="1933" 
d="M965 1219l-340 -1219h-209l-383 1470h215l274 -1196h4l330 1196h217l330 -1196h4l274 1196h220l-388 -1470h-208l-336 1219h-4z" />
    <glyph glyph-name="X" unicode="X" horiz-adv-x="1366" 
d="M811 754l516 -754h-246l-395 604l-407 -604h-240l526 754l-493 716h250l372 -563l373 563h238z" />
    <glyph glyph-name="Y" unicode="Y" horiz-adv-x="1366" 
d="M782 592v-592h-198v592l-555 878h231l422 -706l422 706h233z" />
    <glyph glyph-name="Z" unicode="Z" horiz-adv-x="1251" 
d="M1204 176v-176h-1157v166l901 1128h-833v176h1089v-172l-905 -1122h905z" />
    <glyph glyph-name="bracketleft" unicode="[" horiz-adv-x="569" 
d="M291 1333v-1589h221v-145h-383v1880h383v-146h-221z" />
    <glyph glyph-name="backslash" unicode="\" horiz-adv-x="569" 
d="M467 -39l-502 1548h135l504 -1548h-137z" />
    <glyph glyph-name="bracketright" unicode="]" horiz-adv-x="569" 
d="M279 -256v1589h-222v146h383v-1880h-383v145h222z" />
    <glyph glyph-name="asciicircum" unicode="^" horiz-adv-x="960" 
d="M989 541h-158l-350 704l-350 -704h-160l437 868h147z" />
    <glyph glyph-name="underscore" unicode="_" 
d="M1139 -256h-1139v102h1139v-102z" />
    <glyph glyph-name="grave" unicode="`" horiz-adv-x="681" 
d="M295 1214l-266 289h221l182 -289h-137z" />
    <glyph glyph-name="a" unicode="a" 
d="M293 745h-166q11 357 442 357q28 0 60 -3.5t81 -13t91 -30.5t81 -52t62 -83t23 -117v-617q0 -63 59 -63q19 0 59 8v-131q-5 -1 -27 -8t-37 -9.5t-34 -2.5q-57 0 -95.5 13t-57.5 38.5t-26.5 50.5t-10.5 61q-32 -35 -62 -60.5t-77.5 -54t-110.5 -44t-137 -15.5
q-148 0 -242 86t-94 224q0 34 4.5 66.5t24 79t52.5 82t96 66t148 41.5l297 37q42 4 68.5 30t26.5 97q0 174 -252 174q-59 0 -103 -14.5t-68.5 -34t-41.5 -51t-22.5 -54t-10.5 -53.5zM786 371v176q-24 -19 -82 -33.5t-215 -34.5q-33 -5 -58 -10t-59.5 -17.5t-57 -30
t-38.5 -47.5t-16 -69q0 -186 195 -186q129 0 230 73.5t101 178.5z" />
    <glyph glyph-name="b" unicode="b" 
d="M289 0h-170v1470h180v-534h4q112 163 309 166q139 0 241.5 -71.5t154 -191.5t51.5 -272q0 -82 -13.5 -161t-47.5 -159.5t-86 -141t-135.5 -98.5t-188.5 -38q-52 0 -97 12t-74.5 28t-56 41t-40 42.5t-27.5 40.5h-4v-133zM872 539q0 37 -1.5 66t-8 73t-17.5 77t-33 69.5
t-52 60.5t-76 39.5t-104 15.5q-289 0 -289 -455q0 -101 29 -175.5t75.5 -112.5t93.5 -55t95 -17q142 0 215 114t73 300z" />
    <glyph glyph-name="c" unicode="c" horiz-adv-x="1024" 
d="M977 711h-174q-37 229 -254 229q-80 0 -139.5 -35.5t-92 -95.5t-48 -128t-15.5 -144q0 -412 293 -412q93 0 163 67t93 187h174q-6 -55 -22 -108t-49.5 -109t-80.5 -98t-120.5 -68.5t-163.5 -26.5q-221 0 -350.5 150t-129.5 387q0 127 31 233.5t92.5 188.5t161.5 128
t229 46q81 0 148 -23t111.5 -61t76 -89.5t47 -105.5t19.5 -112z" />
    <glyph glyph-name="d" unicode="d" 
d="M1022 1470v-1470h-170v147h-4q-96 -178 -305 -178q-105 0 -188.5 38t-135.5 98.5t-86 141t-47.5 159.5t-13.5 161q0 152 51 272t153.5 191.5t241.5 71.5q56 0 105 -14t79 -31t61.5 -47.5t43 -46t31.5 -43.5l4 14v536h180zM258 539q0 -186 73.5 -300t215.5 -114
q48 0 95 17t93.5 55t75.5 112.5t29 175.5q0 455 -289 455q-58 0 -104 -15.5t-76 -39.5t-52 -60.5t-33.5 -70t-18 -77t-8 -72.5t-1.5 -66z" />
    <glyph glyph-name="e" unicode="e" 
d="M862 336h180q-4 -33 -21 -79t-62 -109.5t-107 -104.5q-32 -21 -59.5 -34.5t-89.5 -26.5t-142 -13q-221 0 -350 150t-129 387q0 127 31 233.5t92.5 188.5t161.5 128t229 46q226 0 343.5 -166.5t117.5 -458.5h-783q0 -169 79 -260.5t233 -91.5q116 0 193.5 70t82.5 141z
M274 621h596q-4 66 -20.5 120.5t-50 100.5t-91.5 72t-137 26q-123 0 -210 -96t-87 -223z" />
    <glyph glyph-name="f" unicode="f" horiz-adv-x="569" 
d="M537 922h-181v-922h-180v922h-147v149h147v184q0 119 72 177.5t207 58.5q24 0 82 -4v-162q-46 4 -74 4q-58 0 -82.5 -29.5t-24.5 -95.5v-133h181v-149z" />
    <glyph glyph-name="g" unicode="g" 
d="M268 539q0 -186 73.5 -300t215.5 -114q48 0 95 17t93.5 55t75.5 112.5t29 175.5q0 455 -289 455q-58 0 -104 -15.5t-76 -39.5t-52 -60.5t-33.5 -70t-18 -77t-8 -72.5t-1.5 -66zM1022 1071v-983q0 -36 -0.5 -59.5t-5 -70t-13 -79.5t-26 -78.5t-41.5 -78t-62.5 -67.5
t-86.5 -56.5t-115.5 -35.5t-147.5 -14q-46 0 -89 5.5t-99 25.5t-99 53t-77.5 94t-44.5 142h180q33 -170 242 -170q87 0 148.5 28t91 63t45.5 95t18 94t2 90v7v45h-4v-8q-39 -63 -111.5 -103.5t-173.5 -40.5q-105 0 -188.5 38t-135.5 98.5t-86 141t-47.5 159.5t-13.5 161
q0 152 51 272t153.5 191.5t241.5 71.5q56 0 105 -14t79 -31t61.5 -47.5t43 -46t31.5 -43.5h4v151h170z" />
    <glyph glyph-name="h" unicode="h" 
d="M1006 729v-729h-181v700q0 119 -46 179.5t-167 60.5q-59 0 -109.5 -18.5t-94.5 -57.5t-69.5 -111t-25.5 -169v-584h-180v1470h180v-542h4q24 33 47.5 57t62.5 54t91 46.5t113 16.5q54 0 103 -9t100 -34.5t88 -66t60.5 -108t23.5 -155.5z" />
    <glyph glyph-name="i" unicode="i" horiz-adv-x="454" 
d="M317 1071v-1071h-180v1071h180zM317 1266h-180v204h180v-204z" />
    <glyph glyph-name="j" unicode="j" horiz-adv-x="454" 
d="M317 1071v-1229q0 -26 -1 -44.5t-7 -49t-16 -52.5t-30.5 -47.5t-48.5 -41.5t-72 -26.5t-99 -10.5q-35 0 -76 6v156h37q44 0 66 3.5t39.5 17t22.5 39t5 71.5v1208h180zM317 1470v-204h-180v204h180z" />
    <glyph glyph-name="k" unicode="k" horiz-adv-x="1024" 
d="M592 672l434 -672h-231l-334 541l-150 -135v-406h-174v1470h174v-852l461 453h229z" />
    <glyph glyph-name="l" unicode="l" horiz-adv-x="454" 
d="M317 1470v-1470h-180v1470h180z" />
    <glyph glyph-name="m" unicode="m" horiz-adv-x="1705" 
d="M133 0v1071h170v-151h4q125 182 324 182q55 0 101 -14t73 -30t52.5 -45.5t34 -43.5t23.5 -41q41 46 67.5 71t66.5 52.5t87 39t107 11.5q39 0 79 -8t87 -32.5t82.5 -63t59.5 -105t24 -152.5v-741h-180v692q0 119 -45 183.5t-154 64.5q-110 0 -181 -87t-71 -200v-653h-180
v741q0 37 -8 69.5t-26 63t-52.5 48.5t-81.5 18q-34 0 -69 -8.5t-74.5 -33.5t-69.5 -63t-50 -103t-20 -148v-584h-180z" />
    <glyph glyph-name="n" unicode="n" 
d="M1006 729v-729h-181v659q0 146 -51 213.5t-178 67.5q-34 0 -69 -8.5t-74.5 -33.5t-69.5 -63t-50 -103t-20 -148v-584h-180v1071h170v-151h4q125 182 324 182q54 0 103 -9t100 -34.5t88 -66t60.5 -108t23.5 -155.5z" />
    <glyph glyph-name="o" unicode="o" 
d="M72 537q0 85 18.5 165t58.5 153t97 127.5t140.5 87t182.5 32.5q123 0 221 -49t157 -130.5t89.5 -180t30.5 -205.5q0 -85 -18.5 -165t-58.5 -153.5t-97.5 -128t-141 -87t-182.5 -32.5t-182.5 32.5t-140.5 87t-97 128t-58.5 153.5t-18.5 165zM258 537q0 -48 7 -98
t28.5 -108t54.5 -101.5t90 -73t131 -29.5t131.5 29.5t90.5 73.5t54 101.5t28.5 107.5t7.5 98t-7.5 98t-28.5 107.5t-54 101t-90.5 73t-131.5 29.5t-131 -29.5t-90 -73t-54.5 -101.5t-28.5 -107.5t-7 -97.5z" />
    <glyph glyph-name="p" unicode="p" 
d="M291 485q0 -101 29 -175.5t75.5 -112.5t93.5 -55t95 -17q142 0 215 114t73 300q0 37 -1.5 66t-8 73t-17.5 77t-33 69.5t-52 60.5t-76 39.5t-104 15.5q-289 0 -289 -455zM119 -424v1495h170v-151h4q20 29 31.5 43.5t42.5 45.5t61 47.5t79 31t105 14.5q139 0 241.5 -71.5
t154 -191.5t51.5 -272q0 -82 -13.5 -161t-47.5 -159.5t-86 -141t-135.5 -98.5t-188.5 -38q-101 0 -173.5 40.5t-111.5 103.5h-4v-537h-180z" />
    <glyph glyph-name="q" unicode="q" 
d="M1012 1071v-1495h-181v537h-4q-39 -63 -111.5 -103.5t-172.5 -40.5q-105 0 -188.5 38t-135.5 98.5t-86 141t-47.5 159.5t-13.5 161q0 152 51 272t153.5 191.5t241.5 71.5q56 0 105 -14t79 -31t61.5 -47.5t43 -46t31.5 -43.5h4v151h170zM840 485q0 455 -289 455
q-58 0 -104 -15.5t-76 -39.5t-52 -60.5t-33.5 -70t-18 -77t-8 -72.5t-1.5 -66q0 -186 73.5 -300t215.5 -114q48 0 95 17t93.5 55t75.5 112.5t29 175.5z" />
    <glyph glyph-name="r" unicode="r" horiz-adv-x="681" 
d="M338 623v-623h-180v1071h170v-178h4q120 209 301 209q26 0 47 -6v-187h-68q-123 0 -198.5 -83t-75.5 -203z" />
    <glyph glyph-name="s" unicode="s" horiz-adv-x="1024" 
d="M915 766h-174q-5 180 -254 180q-27 0 -57.5 -5.5t-68.5 -19.5t-62.5 -47t-24.5 -79q0 -62 40.5 -88.5t154.5 -55.5l180 -45q165 -41 233 -106t68 -176q0 -163 -119.5 -259t-304.5 -96q-88 0 -158.5 14.5t-117 36.5t-81.5 56.5t-53.5 65.5t-30 72t-14.5 68t-5 62h174
q2 -26 6 -46t13.5 -47.5t29.5 -48t49.5 -39t77 -28.5t108.5 -10q105 0 175.5 43t70.5 127q0 62 -45.5 92.5t-167.5 61.5l-209 51q-248 61 -248 260q0 86 33.5 152.5t91 107.5t129 61.5t152.5 20.5q79 0 143 -16t105.5 -41t73 -59t47.5 -65t25.5 -65.5t12 -54t2.5 -35.5z" />
    <glyph glyph-name="t" unicode="t" horiz-adv-x="569" 
d="M526 922h-172v-697q0 -24 8.5 -41t19 -25t28 -12.5t27.5 -5t26 -0.5h63v-141q-27 -2 -58.5 -6t-50 -6t-26.5 -2q-65 0 -109 17t-67 50t-32 71.5t-9 90.5v707h-145v149h145v299h180v-299h172v-149z" />
    <glyph glyph-name="u" unicode="u" 
d="M1001 0h-170v156l-4 4q-60 -98 -138 -144.5t-202 -46.5q-50 0 -97 9.5t-93.5 34t-80.5 61t-55.5 95t-21.5 132.5v770h180v-711q0 -235 207 -235q81 0 141 33t92 87.5t47 113.5t15 122v590h180v-1071z" />
    <glyph glyph-name="v" unicode="v" horiz-adv-x="1024" 
d="M508 199l303 872h197l-408 -1071h-192l-392 1071h209l279 -872h4z" />
    <glyph glyph-name="w" unicode="w" horiz-adv-x="1478" 
d="M733 829l-209 -829h-186l-309 1071h196l205 -842h4l207 842h201l209 -842h4l217 842h180l-311 -1071h-187l-217 829h-4z" />
    <glyph glyph-name="x" unicode="x" horiz-adv-x="1024" 
d="M627 551l377 -551h-230l-266 403l-258 -403h-227l376 551l-358 520h231l248 -377l248 377h221z" />
    <glyph glyph-name="y" unicode="y" horiz-adv-x="1024" 
d="M516 199l287 872h198q-275 -770 -385 -1051q-37 -94 -57.5 -145.5t-47.5 -108.5t-41.5 -82.5t-40 -54.5t-43 -37.5t-50.5 -18t-61.5 -10.5t-77.5 -1q-18 0 -76 16v164q52 -18 108 -18q19 0 31.5 1t26 7.5t21.5 11t20 22t18.5 29.5t20.5 44.5t23.5 56.5t29.5 75l-397 1100
h204l285 -872h4z" />
    <glyph glyph-name="z" unicode="z" horiz-adv-x="1024" 
d="M942 924l-639 -774h658v-150h-898v141l646 781h-596v149h829v-147z" />
    <glyph glyph-name="braceleft" unicode="{" horiz-adv-x="684" 
d="M86 479v123q71 0 118.5 74t47.5 186v352q0 120 63 192.5t146 72.5h137v-133h-90q-94 0 -94 -168v-349q-3 -57 -19.5 -105.5t-37.5 -79.5t-46 -54t-44.5 -33t-33.5 -14v-4q20 -6 44.5 -22t56 -48t54 -90.5t26.5 -132.5v-346q0 -168 94 -168h90v-133h-137q-83 0 -146 72
t-63 192v350q0 115 -47.5 190.5t-118.5 75.5z" />
    <glyph glyph-name="bar" unicode="|" horiz-adv-x="532" 
d="M193 -39v1548h149v-1548h-149z" />
    <glyph glyph-name="braceright" unicode="}" horiz-adv-x="684" 
d="M598 602v-123q-71 0 -118.5 -75.5t-47.5 -190.5v-350q0 -120 -63 -192t-146 -72h-137v133h90q94 0 94 168v346q4 74 26.5 132.5t54 90.5t56 48t44.5 22v4q-14 4 -33.5 14t-44.5 33t-46 54t-37.5 79.5t-19.5 105.5v349q0 168 -94 168h-90v133h137q83 0 146 -72.5
t63 -192.5v-352q0 -112 47.5 -186t118.5 -74z" />
    <glyph glyph-name="asciitilde" unicode="~" horiz-adv-x="1196" 
d="M997 668l74 -115q-110 -176 -256 -176q-86 0 -209 67q-128 72 -235 72q-105 0 -172 -147l-74 114q92 176 256 176q82 0 227 -65q161 -74 209 -74q29 0 55 11.5t49.5 36.5t38 45t37.5 55z" />
    <glyph glyph-name="uni00A0" unicode="&#xa0;" horiz-adv-x="569" 
 />
    <glyph glyph-name="exclamdown" unicode="&#xa1;" horiz-adv-x="681" 
d="M242 862v209h198v-209h-198zM291 721h100l49 -635v-485h-198v485z" />
    <glyph glyph-name="cent" unicode="&#xa2;" 
d="M434 160l221 780q-16 6 -59 6q-139 0 -225 -111t-86 -333q0 -110 41.5 -205.5t107.5 -136.5zM1042 707h-168q-8 34 -15.5 57.5t-23 56.5t-41 57t-59.5 37l-225 -790q27 -8 72 -8q51 0 92.5 10.5t82.5 37.5t71.5 79.5t48.5 130.5h174q-6 -50 -22.5 -101t-52 -109t-85 -102
t-128.5 -73t-175 -29q-34 0 -123 14l-64 -211h-84l70 234q-127 61 -205 188.5t-78 315.5q0 287 132.5 443.5t371.5 156.5q58 0 88 -12l54 186h79l-51 -205q25 -7 53.5 -21.5t64 -44t64.5 -68t52 -99t30 -131.5z" />
    <glyph glyph-name="sterling" unicode="&#xa3;" 
d="M418 778h342v-129h-283q19 -74 19 -135q0 -93 -63 -195.5t-183 -183.5l2 -2q134 76 268 76q69 0 187.5 -36t156.5 -36q40 0 85.5 19.5t70.5 44.5l84 -135q-67 -51 -127.5 -75t-132.5 -24q-58 0 -203 46t-225 46q-107 0 -240 -82l-100 142q75 50 128 108t77.5 111t34.5 92
t10 72q0 55 -39 147h-219v129h141q-2 5 -11 23l-12.5 25t-12 25t-12 27t-10.5 26.5t-10 29t-7.5 28.5t-7 30.5t-4 29.5t-1.5 31q0 55 14 109t50.5 111t92 99.5t146 70t203.5 27.5q111 0 198 -37.5t138.5 -101t77.5 -139t26 -158.5v-30h-180v18q0 128 -78 210.5t-203 82.5
q-64 0 -116.5 -18.5t-84.5 -46.5t-53.5 -63t-30 -66t-8.5 -58q0 -57 25 -121t80 -164z" />
    <glyph glyph-name="currency" unicode="&#xa4;" 
d="M983 1235l98 -98l-112 -111q102 -117 102 -307q0 -184 -102 -309l110 -115l-92 -92l-113 119q-122 -113 -305 -113t-305 113l-112 -119l-93 92l111 115q-102 125 -102 309q0 190 102 307l-113 111l99 98l116 -115q58 50 136 77.5t161 27.5t161 -27.5t136 -77.5zM217 719
q0 -149 103 -258t249 -109t249.5 109t103.5 258q0 146 -104 254t-249 108t-248.5 -108t-103.5 -254z" />
    <glyph glyph-name="yen" unicode="&#xa5;" 
d="M86 670v116h315l-395 623h205l358 -604l359 604h205l-396 -623h318v-116h-396v-174h396v-117h-396v-379h-180v379h-393v117h393v174h-393z" />
    <glyph glyph-name="brokenbar" unicode="&#xa6;" horiz-adv-x="532" 
d="M193 -39v602h149v-602h-149zM193 942v567h149v-567h-149z" />
    <glyph glyph-name="section" unicode="&#xa7;" 
d="M942 1135h-174q-2 30 -4.5 49.5t-14.5 55t-31.5 57.5t-59 39.5t-93.5 17.5q-44 0 -84.5 -15t-72 -54t-31.5 -97q0 -54 37 -96.5t112 -87.5l299 -177q109 -64 166.5 -137.5t57.5 -189.5q0 -62 -17.5 -113.5t-50 -91.5t-65.5 -67t-78 -56q53 -58 79.5 -110t26.5 -123
q0 -100 -57 -177.5t-140.5 -115t-173.5 -37.5q-88 0 -160 22.5t-127 67.5t-85.5 120.5t-30.5 174.5h180q0 -26 2.5 -50.5t14.5 -59t32 -59.5t59 -43t91 -18q34 0 66.5 6.5t68.5 23t58 52.5t22 88q0 50 -27.5 87t-85.5 75l-430 287q-51 34 -83 84.5t-41 89.5t-9 76
q0 121 51.5 192t153.5 131q-54 58 -75 102t-21 103q0 48 12 95t40.5 93t70 81.5t105 57t140.5 21.5q53 0 102.5 -9.5t101 -35.5t88.5 -66t61 -108t24 -155zM752 657l-357 220q-137 -70 -137 -199q0 -119 92 -174l387 -250q70 46 106 91t36 116q0 118 -127 196z" />
    <glyph glyph-name="dieresis" unicode="&#xa8;" horiz-adv-x="681" 
d="M268 1446v-209h-186v209h186zM600 1446v-209h-186v209h186z" />
    <glyph glyph-name="copyright" unicode="&#xa9;" horiz-adv-x="1509" 
d="M758 -39q-158 0 -302.5 58.5t-251 160.5t-170 247t-63.5 310q0 163 63.5 307.5t170 245.5t251 160t302.5 59q156 0 299.5 -59t250 -160t169.5 -245.5t63 -307.5q0 -132 -40.5 -252.5t-113.5 -215t-170 -164.5t-215 -107t-243 -37zM127 737q0 -137 49 -258t133.5 -206
t201 -134t247.5 -49q130 0 245.5 49t199 134t132.5 206t49 258q0 135 -49 255t-132.5 204.5t-199.5 134t-245 49.5q-175 0 -319.5 -83.5t-228 -231.5t-83.5 -328zM1026 592h139q-29 -151 -134 -240.5t-247 -89.5q-205 0 -330.5 136t-125.5 341q0 208 121.5 340.5
t326.5 132.5q153 0 259.5 -84.5t127.5 -236.5h-137q-19 85 -85.5 135.5t-162.5 50.5q-140 0 -217.5 -94t-77.5 -242q0 -143 83 -243.5t218 -100.5q96 0 162 54t80 141z" />
    <glyph glyph-name="ordfeminine" unicode="&#xaa;" horiz-adv-x="757" 
d="M709 930v-90q-55 -11 -66 -11q-70 0 -94.5 27t-28.5 78q-105 -105 -252 -105q-96 0 -157.5 52t-61.5 135q0 23 3.5 43.5t17 49t37 50t68 40.5t104.5 26l180 20q23 4 36 19.5t13 58.5q0 35 -38.5 57.5t-117.5 22.5q-49 0 -82.5 -11.5t-48 -31.5t-19.5 -34t-7 -32h-111
q8 215 289 215q18 0 38.5 -2t52.5 -7.5t60 -18.5t53.5 -31.5t40.5 -49.5t15 -71v-364q0 -39 37 -39q11 0 39 4zM297 936q86 0 150.5 44t60.5 107v80q-20 -20 -189 -41q-141 -15 -141 -88q0 -102 119 -102zM72 721h606v-98h-606v98z" />
    <glyph glyph-name="guillemotleft" unicode="&#xab;" 
d="M520 401v-180l-321 252v189l321 251v-180l-215 -166zM940 401v-180l-322 252v189l322 251v-180l-215 -166z" />
    <glyph glyph-name="logicalnot" unicode="&#xac;" horiz-adv-x="1196" 
d="M967 221v428h-887v150h1036v-578h-149z" />
    <glyph glyph-name="uni00AD" unicode="&#xad;" horiz-adv-x="681" 
d="M592 659v-184h-502v184h502z" />
    <glyph glyph-name="registered" unicode="&#xae;" horiz-adv-x="1509" 
d="M758 -39q-158 0 -302.5 58.5t-251 160.5t-170 247t-63.5 310q0 163 63.5 307.5t170 245.5t251 160t302.5 59q156 0 299.5 -59t250 -160t169.5 -245.5t63 -307.5q0 -132 -40.5 -252.5t-113.5 -215t-170 -164.5t-215 -107t-243 -37zM127 737q0 -137 49 -258t133.5 -206
t201 -134t247.5 -49q130 0 245.5 49t199 134t132.5 206t49 258q0 135 -49 255t-132.5 204.5t-199.5 134t-245 49.5q-175 0 -319.5 -83.5t-228 -231.5t-83.5 -328zM594 676v-387h-135v893h340q160 0 237.5 -61.5t77.5 -192.5q0 -114 -62.5 -173.5t-168.5 -72.5l254 -393h-152
l-235 387h-156zM594 791h162q41 0 67.5 2t58 10t49 23t30 42.5t12.5 67.5q0 131 -195 131h-184v-276z" />
    <glyph glyph-name="macron" unicode="&#xaf;" horiz-adv-x="681" 
d="M662 1401v-117h-642v117h642z" />
    <glyph glyph-name="degree" unicode="&#xb0;" horiz-adv-x="819" 
d="M410 1352q-81 0 -141 -64t-60 -147t60 -147t141 -64t140.5 64t59.5 147t-59.5 147t-140.5 64zM709 1141q0 -127 -85.5 -213t-213.5 -86t-213.5 86t-85.5 213t85.5 213t213.5 86t213.5 -86t85.5 -213z" />
    <glyph glyph-name="plusminus" unicode="&#xb1;" horiz-adv-x="1196" 
d="M524 707v329h150v-329h442v-150h-442v-330h-150v330h-444v150h444zM80 0v150h1036v-150h-1036z" />
    <glyph glyph-name="two.superior" unicode="&#xb2;" horiz-adv-x="681" 
d="M162 1130h-123q0 80 24.5 139.5t59.5 91t83 50.5t83.5 24t72.5 5q129 0 214.5 -70.5t85.5 -187.5q0 -45 -13 -83.5t-33 -66t-54.5 -54.5t-65.5 -45t-78 -42l-92 -47q-112 -59 -164 -144h500v-125h-654q6 127 61 208t152 135l123 67q94 50 120 73q54 47 54 128
q5 53 -36.5 94t-135.5 41q-49 0 -84.5 -16t-53.5 -35.5t-29 -51.5t-13 -47t-4 -41z" />
    <glyph glyph-name="three.superior" unicode="&#xb3;" horiz-adv-x="681" 
d="M10 840h140q1 -26 4.5 -45.5t15 -44t29 -40.5t50.5 -27t77 -11q92 0 144 36t52 109q0 35 -9.5 61.5t-28 41.5t-37 25t-46.5 14t-45.5 5t-44.5 1h-47v104h55q168 0 168 137q0 19 -6 36.5t-22 36.5t-50.5 30.5t-84.5 11.5q-157 0 -166 -164h-125q0 41 8 78.5t30 75.5
t55.5 66t89 45.5t126.5 17.5q133 0 211 -64t78 -164q0 -75 -37 -120t-84 -58v-4q156 -42 156 -199q0 -117 -85.5 -197.5t-256.5 -80.5q-96 0 -172 39q-127 60 -142 248z" />
    <glyph glyph-name="acute" unicode="&#xb4;" horiz-adv-x="681" 
d="M653 1503l-266 -289h-137l182 289h221z" />
    <glyph glyph-name="mu" unicode="&#xb5;" horiz-adv-x="1183" 
d="M1001 0h-170v156l-4 4q-60 -98 -138 -144.5t-202 -46.5q-109 0 -163 70h-5v-463h-180v725v770h180v-711q0 -235 207 -235q81 0 141 33t92 87.5t47 113.5t15 122v590h180v-1071z" />
    <glyph glyph-name="paragraph" unicode="&#xb6;" horiz-adv-x="1099" 
d="M475 -354v1059q-194 0 -316 107t-122 269q0 196 125 292.5t348 96.5h508v-1824h-150v1702h-243v-1702h-150z" />
    <glyph glyph-name="periodcentered" unicode="&#xb7;" horiz-adv-x="569" 
d="M287 645q49 0 88 -37.5t39 -91.5q0 -51 -37.5 -89t-91.5 -38q-52 0 -89.5 38t-37.5 89q0 56 38.5 92.5t90.5 36.5z" />
    <glyph glyph-name="cedilla" unicode="&#xb8;" horiz-adv-x="681" 
d="M162 -176l131 176h96l-94 -127q46 8 63 8q90 0 131 -46.5t41 -106.5q0 -82 -65 -135.5t-176 -53.5q-93 0 -197 45l35 82q79 -31 133 -31q26 0 48.5 5t44.5 25.5t22 55.5q0 41 -33.5 60.5t-65.5 19.5q-22 0 -79 -16z" />
    <glyph glyph-name="one.superior" unicode="&#xb9;" horiz-adv-x="681" 
d="M309 1182h-221v94q52 3 82 7.5t61 14t49 27t33.5 45.5t26.5 70h115v-865h-146v607z" />
    <glyph glyph-name="ordmasculine" unicode="&#xba;" horiz-adv-x="747" 
d="M698 1169q0 -95 -28.5 -164.5t-77 -106t-102 -53t-115.5 -16.5t-115.5 16.5t-102.5 53t-77.5 106t-28.5 164.5t28.5 164.5t77.5 106t102.5 53t115.5 16.5t115.5 -16.5t102 -53t77 -106t28.5 -164.5zM561 1169q0 38 -7 73t-25 74.5t-57.5 63t-96.5 23.5q-39 0 -70 -11
t-50.5 -31t-33.5 -43t-20.5 -51t-9.5 -51t-3 -47q0 -29 3.5 -57t15.5 -61t31.5 -57.5t55 -41t81.5 -16.5q57 0 96.5 23.5t57.5 62.5t25 74t7 73zM72 721h606v-98h-606v98z" />
    <glyph glyph-name="guillemotright" unicode="&#xbb;" 
d="M520 473l-321 -252v180l215 166l-215 166v180l321 -251v-189zM940 473l-322 -252v180l216 166l-216 166v180l322 -251v-189z" />
    <glyph glyph-name="onequarter" unicode="&#xbc;" horiz-adv-x="1708" 
d="M858 193v122l422 549h131v-553h137v-118h-137v-193h-131v193h-422zM1280 311v383h-4l-291 -383h295zM1337 1440l-905 -1479h-117l906 1479h116zM371 1188h-221v88q52 3 81.5 7.5t61 14t49 27t33 45.5t26.5 70h109v-865h-139v613z" />
    <glyph glyph-name="onehalf" unicode="&#xbd;" horiz-adv-x="1708" 
d="M1264 1440l-906 -1479h-116l905 1479h117zM309 1182h-221v94q52 3 82 7.5t61 14t49 27t33.5 45.5t26.5 70h115v-865h-146v607zM1083 555h-122q0 80 24.5 139.5t59.5 91t83 50.5t83.5 23.5t72.5 4.5q129 0 214 -70.5t85 -187.5q0 -45 -13 -83.5t-33 -66t-54.5 -54.5
t-65.5 -45t-78 -42l-92 -47q-113 -60 -164 -143h500v-125h-653q6 127 61 207.5t152 134.5l123 68q94 50 119 72q55 47 55 128q5 53 -36.5 94t-135.5 41q-49 0 -85 -16t-53.5 -35t-29 -51t-13.5 -47.5t-4 -40.5z" />
    <glyph glyph-name="threequarters" unicode="&#xbe;" horiz-adv-x="1708" 
d="M969 193v122l422 549h131v-553h137v-118h-137v-193h-131v193h-422zM1386 694l-290 -383h295v383h-5zM1458 1440l-905 -1479h-117l905 1479h117zM92 840h139q2 -33 8.5 -57.5t23.5 -52.5t53.5 -43t91.5 -15q92 0 144 36t52 109q0 35 -9.5 61.5t-28 41.5t-37 25t-46.5 14
t-45.5 5t-44.5 1h-47v104h55q168 0 168 137q0 19 -6 36.5t-22 36.5t-50.5 30.5t-84.5 11.5q-157 0 -166 -164h-125q0 41 8 78.5t30 75.5t55.5 66t89 45.5t126.5 17.5q133 0 211 -64t78 -164q0 -75 -37 -120t-84 -58v-4q156 -42 156 -199q0 -117 -85.5 -197.5t-256.5 -80.5
q-97 0 -173 39q-126 59 -141 248z" />
    <glyph glyph-name="questiondown" unicode="&#xbf;" horiz-adv-x="1251" 
d="M899 68h180q-2 -47 -3.5 -70t-7 -64.5t-16 -68t-27.5 -61t-44 -64t-63 -57.5q-124 -95 -297 -95q-87 0 -165 26.5t-138.5 76t-96 127t-35.5 172.5q0 96 41 164t152 174q39 38 51.5 50.5t40 42t35 44t22.5 43t19 54t7.5 61t2.5 79.5h180q0 -70 -7.5 -122t-18.5 -90
t-39 -78t-53 -69t-76 -81q-62 -63 -84.5 -88t-46 -61t-28.5 -63.5t-5 -72.5q0 -28 6.5 -57.5t24 -61.5t44 -57t71.5 -41t102 -16q54 0 97.5 14t71 34.5t48 51.5t31 59t16.5 63t7 56t1 46zM543 866v209h198v-209h-198z" />
    <glyph glyph-name="Agrave" unicode="&#xc0;" horiz-adv-x="1366" 
d="M977 428h-590l-154 -428h-204l553 1470h225l532 -1470h-217zM449 604h456l-217 647h-4zM637 1614l-266 289h221l182 -289h-137z" />
    <glyph glyph-name="Aacute" unicode="&#xc1;" horiz-adv-x="1366" 
d="M977 428h-590l-154 -428h-204l553 1470h225l532 -1470h-217zM449 604h456l-217 647h-4zM995 1903l-266 -289h-137l182 289h221z" />
    <glyph glyph-name="Acircumflex" unicode="&#xc2;" horiz-adv-x="1366" 
d="M977 428h-590l-154 -428h-204l553 1470h225l532 -1470h-217zM449 604h456l-217 647h-4zM682 1804l-135 -190h-162l203 289h190l203 -289h-164z" />
    <glyph glyph-name="Atilde" unicode="&#xc3;" horiz-adv-x="1366" 
d="M977 428h-590l-154 -428h-204l553 1470h225l532 -1470h-217zM449 604h456l-217 647h-4zM930 1878h102q-11 -96 -65.5 -159.5t-139.5 -63.5q-41 0 -120 26l-54 19q-89 31 -125 31q-69 0 -96 -91h-98q13 99 64.5 159.5t148.5 60.5q56 0 139 -31l45 -19q63 -26 96 -26
q29 0 49 8.5t30.5 25t15 28.5t8.5 32z" />
    <glyph glyph-name="Adieresis" unicode="&#xc4;" horiz-adv-x="1366" 
d="M977 428h-590l-154 -428h-204l553 1470h225l532 -1470h-217zM449 604h456l-217 647h-4zM610 1845v-209h-186v209h186zM942 1845v-209h-186v209h186z" />
    <glyph glyph-name="Aring" unicode="&#xc5;" horiz-adv-x="1366" 
d="M977 428h-590l-154 -428h-204l553 1470h225l532 -1470h-217zM449 604h456l-217 647h-4zM684 1907q82 0 135 -53.5t53 -135.5t-53 -135t-135 -53t-135 53t-53 135t53 135.5t135 53.5zM578 1718q0 -44 31 -75t75 -31t75.5 31t31.5 75t-31.5 75.5t-75.5 31.5t-75 -31.5
t-31 -75.5z" />
    <glyph glyph-name="AE" unicode="&#xc6;" horiz-adv-x="2048" 
d="M393 428l-162 -428h-215l598 1470h1319v-176h-798v-450h729v-176h-729v-492h813v-176h-1012v428h-543zM936 604v690h-199l-272 -690h471z" />
    <glyph glyph-name="Ccedilla" unicode="&#xc7;" horiz-adv-x="1478" 
d="M543 -416l35 82q79 -31 133 -31q18 0 35 3t36 11t31 26.5t12 45.5q0 41 -33 60.5t-65 19.5q-23 0 -80 -16l-35 39l105 141q-99 3 -188 31.5t-170 89.5t-140 149t-94 218.5t-35 289.5q0 226 81.5 399t238 270t366.5 97q137 0 249 -40t185 -108.5t116 -153t54 -179.5h-192
q-16 74 -51 130.5t-77 88.5t-94.5 52.5t-97.5 27t-92 6.5q-101 0 -187.5 -37.5t-152.5 -108.5t-103.5 -183.5t-37.5 -253.5q0 -107 15.5 -197t51 -168t91 -132t139 -85t190.5 -31q44 0 87 8.5t96.5 35.5t97 69.5t82 117.5t57.5 173h193q-15 -99 -47 -182.5t-71.5 -140.5
t-90 -102t-98.5 -71t-101.5 -44.5t-93.5 -25.5t-80 -10l-68 -92q46 8 64 8q90 0 131 -46.5t41 -106.5q0 -82 -65.5 -135.5t-176.5 -53.5q-92 0 -196 45z" />
    <glyph glyph-name="Egrave" unicode="&#xc8;" horiz-adv-x="1366" 
d="M1262 176v-176h-1086v1470h1071v-176h-872v-450h805v-176h-805v-492h887zM637 1614l-266 289h221l182 -289h-137z" />
    <glyph glyph-name="Eacute" unicode="&#xc9;" horiz-adv-x="1366" 
d="M1262 176v-176h-1086v1470h1071v-176h-872v-450h805v-176h-805v-492h887zM995 1903l-266 -289h-137l182 289h221z" />
    <glyph glyph-name="Ecircumflex" unicode="&#xca;" horiz-adv-x="1366" 
d="M1262 176v-176h-1086v1470h1071v-176h-872v-450h805v-176h-805v-492h887zM682 1804l-135 -190h-162l203 289h190l203 -289h-164z" />
    <glyph glyph-name="Edieresis" unicode="&#xcb;" horiz-adv-x="1366" 
d="M1262 176v-176h-1086v1470h1071v-176h-872v-450h805v-176h-805v-492h887zM610 1845v-209h-186v209h186zM942 1845v-209h-186v209h186z" />
    <glyph glyph-name="Igrave" unicode="&#xcc;" horiz-adv-x="569" 
d="M385 1470v-1470h-199v1470h199zM240 1614l-267 289h222l182 -289h-137z" />
    <glyph glyph-name="Iacute" unicode="&#xcd;" horiz-adv-x="569" 
d="M385 1470v-1470h-199v1470h199zM598 1903l-266 -289h-137l182 289h221z" />
    <glyph glyph-name="Icircumflex" unicode="&#xce;" horiz-adv-x="569" 
d="M385 1470v-1470h-199v1470h199zM285 1804l-135 -190h-162l202 289h191l203 -289h-164z" />
    <glyph glyph-name="Idieresis" unicode="&#xcf;" horiz-adv-x="569" 
d="M385 1470v-1470h-199v1470h199zM213 1845v-209h-186v209h186zM545 1845v-209h-187v209h187z" />
    <glyph glyph-name="Eth" unicode="&#xd0;" horiz-adv-x="1478" 
d="M758 844v-176h-393v-498h385q197 0 311.5 149.5t114.5 423.5q0 273 -117 415t-324 142h-370v-456h393zM0 668v176h166v626h596q284 0 451 -196.5t167 -517.5q0 -28 -1.5 -59.5t-9 -86t-19.5 -106.5t-35 -114.5t-54.5 -116t-79.5 -105t-107.5 -88t-141.5 -58.5t-178 -22
h-588v668h-166z" />
    <glyph glyph-name="Ntilde" unicode="&#xd1;" horiz-adv-x="1478" 
d="M1130 283v1187h193v-1470h-223l-748 1188h-4v-1188h-192v1470h235l735 -1187h4zM1008 1878h102q-11 -96 -65.5 -159.5t-139.5 -63.5q-42 0 -121 26l-53 19q-89 31 -125 31q-69 0 -96 -91h-98q13 99 64.5 159.5t148.5 60.5q56 0 139 -31l45 -19q63 -26 96 -26q29 0 49 8.5
t30.5 25t15 28.5t8.5 32z" />
    <glyph glyph-name="Ograve" unicode="&#xd2;" horiz-adv-x="1593" 
d="M1309 735q0 264 -138.5 431t-373.5 167t-373.5 -167t-138.5 -431t138.5 -431t373.5 -167t373.5 167t138.5 431zM1513 735q0 -71 -10.5 -143t-35.5 -149t-62.5 -146t-95.5 -131t-130 -107t-170 -71.5t-212 -26.5q-158 0 -284.5 50.5t-205.5 130t-132 184.5t-74 206.5
t-21 202.5t21 202.5t74 206.5t132 184.5t205.5 130t284.5 50.5q114 0 212 -26.5t170 -71.5t130 -107t95.5 -131t62.5 -146t35.5 -149t10.5 -143zM752 1614l-267 289h222l182 -289h-137z" />
    <glyph glyph-name="Oacute" unicode="&#xd3;" horiz-adv-x="1593" 
d="M1309 735q0 264 -138.5 431t-373.5 167t-373.5 -167t-138.5 -431t138.5 -431t373.5 -167t373.5 167t138.5 431zM1513 735q0 -71 -10.5 -143t-35.5 -149t-62.5 -146t-95.5 -131t-130 -107t-170 -71.5t-212 -26.5q-158 0 -284.5 50.5t-205.5 130t-132 184.5t-74 206.5
t-21 202.5t21 202.5t74 206.5t132 184.5t205.5 130t284.5 50.5q114 0 212 -26.5t170 -71.5t130 -107t95.5 -131t62.5 -146t35.5 -149t10.5 -143zM1110 1903l-266 -289h-137l182 289h221z" />
    <glyph glyph-name="Ocircumflex" unicode="&#xd4;" horiz-adv-x="1593" 
d="M1309 735q0 264 -138.5 431t-373.5 167t-373.5 -167t-138.5 -431t138.5 -431t373.5 -167t373.5 167t138.5 431zM1513 735q0 -71 -10.5 -143t-35.5 -149t-62.5 -146t-95.5 -131t-130 -107t-170 -71.5t-212 -26.5q-158 0 -284.5 50.5t-205.5 130t-132 184.5t-74 206.5
t-21 202.5t21 202.5t74 206.5t132 184.5t205.5 130t284.5 50.5q114 0 212 -26.5t170 -71.5t130 -107t95.5 -131t62.5 -146t35.5 -149t10.5 -143zM797 1804l-135 -190h-162l202 289h191l203 -289h-164z" />
    <glyph glyph-name="Otilde" unicode="&#xd5;" horiz-adv-x="1593" 
d="M1309 735q0 264 -138.5 431t-373.5 167t-373.5 -167t-138.5 -431t138.5 -431t373.5 -167t373.5 167t138.5 431zM1513 735q0 -71 -10.5 -143t-35.5 -149t-62.5 -146t-95.5 -131t-130 -107t-170 -71.5t-212 -26.5q-158 0 -284.5 50.5t-205.5 130t-132 184.5t-74 206.5
t-21 202.5t21 202.5t74 206.5t132 184.5t205.5 130t284.5 50.5q114 0 212 -26.5t170 -71.5t130 -107t95.5 -131t62.5 -146t35.5 -149t10.5 -143zM1044 1878h103q-11 -96 -65.5 -159.5t-139.5 -63.5q-42 0 -121 26l-53 19q-89 31 -125 31q-69 0 -96 -91h-98q13 99 64.5 159.5
t148.5 60.5q56 0 139 -31l45 -19q63 -26 96 -26q29 0 49 8.5t30.5 25t14.5 28.5t8 32z" />
    <glyph glyph-name="Odieresis" unicode="&#xd6;" horiz-adv-x="1593" 
d="M1309 735q0 264 -138.5 431t-373.5 167t-373.5 -167t-138.5 -431t138.5 -431t373.5 -167t373.5 167t138.5 431zM1513 735q0 -71 -10.5 -143t-35.5 -149t-62.5 -146t-95.5 -131t-130 -107t-170 -71.5t-212 -26.5q-158 0 -284.5 50.5t-205.5 130t-132 184.5t-74 206.5
t-21 202.5t21 202.5t74 206.5t132 184.5t205.5 130t284.5 50.5q114 0 212 -26.5t170 -71.5t130 -107t95.5 -131t62.5 -146t35.5 -149t10.5 -143zM725 1845v-209h-186v209h186zM1057 1845v-209h-187v209h187z" />
    <glyph glyph-name="multiply" unicode="&#xd7;" horiz-adv-x="1196" 
d="M494 518l-414 414l106 104l412 -411l414 411l104 -104l-411 -414l411 -414l-104 -104l-414 412l-414 -412l-104 104z" />
    <glyph glyph-name="Oslash" unicode="&#xd8;" horiz-adv-x="1593" 
d="M1208 1112l-764 -829q136 -146 353 -146q235 0 373.5 167t138.5 431q0 227 -101 377zM389 350l766 834q-136 149 -358 149q-235 0 -373.5 -167t-138.5 -431q0 -226 104 -385zM1516 1448l-170 -186q86 -111 126.5 -250.5t40.5 -276.5q0 -71 -10.5 -143t-35.5 -149
t-62.5 -146t-95.5 -131t-130 -107t-170 -71.5t-212 -26.5q-298 0 -484 178l-163 -178l-66 57l170 185q-89 111 -131.5 252.5t-42.5 279.5q0 101 21 202.5t74 206.5t132 184.5t205.5 130t284.5 50.5q307 0 489 -182l166 182z" />
    <glyph glyph-name="Ugrave" unicode="&#xd9;" horiz-adv-x="1478" 
d="M1120 1470h199v-954q0 -115 -36.5 -214t-107.5 -176t-186 -121t-262 -44q-143 0 -254 43.5t-177.5 118.5t-100 167.5t-33.5 198.5v981h198v-925q0 -92 22 -164.5t57.5 -117.5t85.5 -74t100.5 -40.5t107.5 -11.5q74 0 138 19t122.5 62.5t92.5 126t34 196.5v929zM694 1614
l-266 289h221l182 -289h-137z" />
    <glyph glyph-name="Uacute" unicode="&#xda;" horiz-adv-x="1478" 
d="M1120 1470h199v-954q0 -115 -36.5 -214t-107.5 -176t-186 -121t-262 -44q-143 0 -254 43.5t-177.5 118.5t-100 167.5t-33.5 198.5v981h198v-925q0 -92 22 -164.5t57.5 -117.5t85.5 -74t100.5 -40.5t107.5 -11.5q74 0 138 19t122.5 62.5t92.5 126t34 196.5v929zM1053 1903
l-267 -289h-137l182 289h222z" />
    <glyph glyph-name="Ucircumflex" unicode="&#xdb;" horiz-adv-x="1478" 
d="M1120 1470h199v-954q0 -115 -36.5 -214t-107.5 -176t-186 -121t-262 -44q-143 0 -254 43.5t-177.5 118.5t-100 167.5t-33.5 198.5v981h198v-925q0 -92 22 -164.5t57.5 -117.5t85.5 -74t100.5 -40.5t107.5 -11.5q74 0 138 19t122.5 62.5t92.5 126t34 196.5v929zM739 1804
l-135 -190h-162l203 289h191l202 -289h-164z" />
    <glyph glyph-name="Udieresis" unicode="&#xdc;" horiz-adv-x="1478" 
d="M1120 1470h199v-954q0 -115 -36.5 -214t-107.5 -176t-186 -121t-262 -44q-143 0 -254 43.5t-177.5 118.5t-100 167.5t-33.5 198.5v981h198v-925q0 -92 22 -164.5t57.5 -117.5t85.5 -74t100.5 -40.5t107.5 -11.5q74 0 138 19t122.5 62.5t92.5 126t34 196.5v929zM668 1845
v-209h-187v209h187zM999 1845v-209h-186v209h186z" />
    <glyph glyph-name="Yacute" unicode="&#xdd;" horiz-adv-x="1366" 
d="M782 592v-592h-198v592l-555 878h231l422 -706l422 706h233zM995 1903l-266 -289h-137l182 289h221z" />
    <glyph glyph-name="Thorn" unicode="&#xde;" horiz-adv-x="1366" 
d="M375 1057v-510h395q143 0 221 61t78 203q0 246 -291 246h-403zM176 0v1470h199v-243h463q200 0 318 -116t118 -298q0 -64 -14.5 -124.5t-47.5 -117.5t-82 -99.5t-124.5 -68.5t-167.5 -26h-463v-377h-199z" />
    <glyph glyph-name="germandbls" unicode="&#xdf;" horiz-adv-x="1251" 
d="M137 0v1090q0 181 124 291t349 110q226 0 358 -100.5t132 -268.5q0 -41 -7.5 -78t-17 -63t-27.5 -52t-29.5 -40t-33.5 -31.5t-28 -22t-25 -16.5q72 -19 128 -76.5t82.5 -125t26.5 -130.5q0 -132 -39 -233t-109.5 -162.5t-163 -92t-204.5 -30.5q-21 0 -38.5 1.5t-26.5 3.5
t-23 5.5t-20 4.5v153q47 -6 90 -6q169 0 258.5 77t89.5 230q0 154 -90.5 220.5t-257.5 66.5q-47 0 -80 -8v162q45 -5 47 -5q89 0 153 19t99 52.5t50.5 73t15.5 87.5q0 102 -81 165.5t-231 63.5q-84 0 -142.5 -20.5t-90 -60.5t-45 -90.5t-13.5 -119.5v-1044h-180z" />
    <glyph glyph-name="agrave" unicode="&#xe0;" 
d="M293 745h-166q11 357 442 357q28 0 60 -3.5t81 -13t91 -30.5t81 -52t62 -83t23 -117v-617q0 -63 59 -63q19 0 59 8v-131q-5 -1 -27 -8t-37 -9.5t-34 -2.5q-57 0 -95.5 13t-57.5 38.5t-26.5 50.5t-10.5 61q-32 -35 -62 -60.5t-77.5 -54t-110.5 -44t-137 -15.5
q-148 0 -242 86t-94 224q0 34 4.5 66.5t24 79t52.5 82t96 66t148 41.5l297 37q42 4 68.5 30t26.5 97q0 174 -252 174q-59 0 -103 -14.5t-68.5 -34t-41.5 -51t-22.5 -54t-10.5 -53.5zM786 371v176q-24 -19 -82 -33.5t-215 -34.5q-33 -5 -58 -10t-59.5 -17.5t-57 -30
t-38.5 -47.5t-16 -69q0 -186 195 -186q129 0 230 73.5t101 178.5zM524 1214l-266 289h221l183 -289h-138z" />
    <glyph glyph-name="aacute" unicode="&#xe1;" 
d="M293 745h-166q11 357 442 357q28 0 60 -3.5t81 -13t91 -30.5t81 -52t62 -83t23 -117v-617q0 -63 59 -63q19 0 59 8v-131q-5 -1 -27 -8t-37 -9.5t-34 -2.5q-57 0 -95.5 13t-57.5 38.5t-26.5 50.5t-10.5 61q-32 -35 -62 -60.5t-77.5 -54t-110.5 -44t-137 -15.5
q-148 0 -242 86t-94 224q0 34 4.5 66.5t24 79t52.5 82t96 66t148 41.5l297 37q42 4 68.5 30t26.5 97q0 174 -252 174q-59 0 -103 -14.5t-68.5 -34t-41.5 -51t-22.5 -54t-10.5 -53.5zM786 371v176q-24 -19 -82 -33.5t-215 -34.5q-33 -5 -58 -10t-59.5 -17.5t-57 -30
t-38.5 -47.5t-16 -69q0 -186 195 -186q129 0 230 73.5t101 178.5zM883 1503l-267 -289h-137l183 289h221z" />
    <glyph glyph-name="acircumflex" unicode="&#xe2;" 
d="M293 745h-166q11 357 442 357q28 0 60 -3.5t81 -13t91 -30.5t81 -52t62 -83t23 -117v-617q0 -63 59 -63q19 0 59 8v-131q-5 -1 -27 -8t-37 -9.5t-34 -2.5q-57 0 -95.5 13t-57.5 38.5t-26.5 50.5t-10.5 61q-32 -35 -62 -60.5t-77.5 -54t-110.5 -44t-137 -15.5
q-148 0 -242 86t-94 224q0 34 4.5 66.5t24 79t52.5 82t96 66t148 41.5l297 37q42 4 68.5 30t26.5 97q0 174 -252 174q-59 0 -103 -14.5t-68.5 -34t-41.5 -51t-22.5 -54t-10.5 -53.5zM786 371v176q-24 -19 -82 -33.5t-215 -34.5q-33 -5 -58 -10t-59.5 -17.5t-57 -30
t-38.5 -47.5t-16 -69q0 -186 195 -186q129 0 230 73.5t101 178.5zM569 1405l-135 -191h-162l203 289h191l202 -289h-163z" />
    <glyph glyph-name="atilde" unicode="&#xe3;" 
d="M293 745h-166q11 357 442 357q28 0 60 -3.5t81 -13t91 -30.5t81 -52t62 -83t23 -117v-617q0 -63 59 -63q19 0 59 8v-131q-5 -1 -27 -8t-37 -9.5t-34 -2.5q-57 0 -95.5 13t-57.5 38.5t-26.5 50.5t-10.5 61q-32 -35 -62 -60.5t-77.5 -54t-110.5 -44t-137 -15.5
q-148 0 -242 86t-94 224q0 34 4.5 66.5t24 79t52.5 82t96 66t148 41.5l297 37q42 4 68.5 30t26.5 97q0 174 -252 174q-59 0 -103 -14.5t-68.5 -34t-41.5 -51t-22.5 -54t-10.5 -53.5zM786 371v176q-24 -19 -82 -33.5t-215 -34.5q-33 -5 -58 -10t-59.5 -17.5t-57 -30
t-38.5 -47.5t-16 -69q0 -186 195 -186q129 0 230 73.5t101 178.5zM797 1479h102q-11 -97 -65.5 -160.5t-139.5 -63.5q-38 0 -121 27l-53 18q-89 31 -125 31q-39 0 -61 -23t-35 -67h-98q13 99 64.5 159t148.5 60q58 0 139 -30l45 -19q66 -27 96 -27q29 0 49 8.5t30.5 25.5
t15 29t8.5 32z" />
    <glyph glyph-name="adieresis" unicode="&#xe4;" 
d="M293 745h-166q11 357 442 357q28 0 60 -3.5t81 -13t91 -30.5t81 -52t62 -83t23 -117v-617q0 -63 59 -63q19 0 59 8v-131q-5 -1 -27 -8t-37 -9.5t-34 -2.5q-57 0 -95.5 13t-57.5 38.5t-26.5 50.5t-10.5 61q-32 -35 -62 -60.5t-77.5 -54t-110.5 -44t-137 -15.5
q-148 0 -242 86t-94 224q0 34 4.5 66.5t24 79t52.5 82t96 66t148 41.5l297 37q42 4 68.5 30t26.5 97q0 174 -252 174q-59 0 -103 -14.5t-68.5 -34t-41.5 -51t-22.5 -54t-10.5 -53.5zM786 371v176q-24 -19 -82 -33.5t-215 -34.5q-33 -5 -58 -10t-59.5 -17.5t-57 -30
t-38.5 -47.5t-16 -69q0 -186 195 -186q129 0 230 73.5t101 178.5zM498 1446v-209h-187v209h187zM829 1446v-209h-186v209h186z" />
    <glyph glyph-name="aring" unicode="&#xe5;" 
d="M293 745h-166q11 357 442 357q28 0 60 -3.5t81 -13t91 -30.5t81 -52t62 -83t23 -117v-617q0 -63 59 -63q19 0 59 8v-131q-5 -1 -27 -8t-37 -9.5t-34 -2.5q-57 0 -95.5 13t-57.5 38.5t-26.5 50.5t-10.5 61q-32 -35 -62 -60.5t-77.5 -54t-110.5 -44t-137 -15.5
q-148 0 -242 86t-94 224q0 34 4.5 66.5t24 79t52.5 82t96 66t148 41.5l297 37q42 4 68.5 30t26.5 97q0 174 -252 174q-59 0 -103 -14.5t-68.5 -34t-41.5 -51t-22.5 -54t-10.5 -53.5zM786 371v176q-24 -19 -82 -33.5t-215 -34.5q-33 -5 -58 -10t-59.5 -17.5t-57 -30
t-38.5 -47.5t-16 -69q0 -186 195 -186q129 0 230 73.5t101 178.5zM571 1548q82 0 135.5 -53t53.5 -135t-53.5 -135.5t-135.5 -53.5t-135 53.5t-53 135.5t53 135t135 53zM465 1360q0 -44 31 -75.5t75 -31.5t75.5 31.5t31.5 75.5t-31.5 75t-75.5 31t-75 -31t-31 -75z" />
    <glyph glyph-name="ae" unicode="&#xe6;" horiz-adv-x="1820" 
d="M952 621h596q-4 66 -20.5 120.5t-50 100.5t-91.5 72t-137 26q-123 0 -210 -96t-87 -223zM1540 336h180q-4 -33 -21 -79t-62 -109.5t-107 -104.5q-32 -21 -59.5 -34.5t-89.5 -26.5t-142 -13q-269 0 -393 224q-77 -117 -183 -170.5t-253 -53.5q-148 0 -242 86t-94 224
q0 34 4.5 66.5t24 79t52.5 82t96 66t148 41.5l297 37q42 4 68.5 30t26.5 97q0 174 -252 174q-59 0 -103 -14.5t-68.5 -34t-41.5 -51t-22.5 -54t-10.5 -53.5h-166q11 357 442 357q73 0 128 -11t97 -36.5t64 -45t60 -59.5q60 58 89 78q106 74 267 74q226 0 343.5 -166.5
t117.5 -458.5h-783q0 -169 79 -260.5t233 -91.5q116 0 193.5 70t82.5 141zM786 371v176q-24 -19 -82 -33.5t-215 -34.5q-33 -5 -58 -10t-59.5 -17.5t-57 -30t-38.5 -47.5t-16 -69q0 -186 195 -186q129 0 230 73.5t101 178.5z" />
    <glyph glyph-name="ccedilla" unicode="&#xe7;" horiz-adv-x="1024" 
d="M317 -416l35 82q79 -31 133 -31q26 0 48.5 5t44.5 25.5t22 55.5q0 41 -33 60.5t-65 19.5q-23 0 -80 -16l-35 39l111 149q-203 15 -320 162t-117 371q0 127 31 233.5t92.5 188.5t161.5 128t229 46q81 0 148 -23t111.5 -61t76 -89.5t47 -105.5t19.5 -112h-174
q-37 229 -254 229q-80 0 -139.5 -35.5t-92 -95.5t-48 -128t-15.5 -144q0 -412 293 -412q93 0 163 67t93 187h174q-5 -52 -19.5 -102t-44 -102.5t-71 -93.5t-105 -70t-141.5 -36l-76 -102q46 8 64 8q90 0 131 -46.5t41 -106.5q0 -82 -65.5 -135.5t-176.5 -53.5q-93 0 -197 45
z" />
    <glyph glyph-name="egrave" unicode="&#xe8;" 
d="M862 336h180q-4 -33 -21 -79t-62 -109.5t-107 -104.5q-32 -21 -59.5 -34.5t-89.5 -26.5t-142 -13q-221 0 -350 150t-129 387q0 127 31 233.5t92.5 188.5t161.5 128t229 46q226 0 343.5 -166.5t117.5 -458.5h-783q0 -169 79 -260.5t233 -91.5q116 0 193.5 70t82.5 141z
M274 621h596q-4 66 -20.5 120.5t-50 100.5t-91.5 72t-137 26q-123 0 -210 -96t-87 -223zM524 1214l-266 289h221l183 -289h-138z" />
    <glyph glyph-name="eacute" unicode="&#xe9;" 
d="M862 336h180q-4 -33 -21 -79t-62 -109.5t-107 -104.5q-32 -21 -59.5 -34.5t-89.5 -26.5t-142 -13q-221 0 -350 150t-129 387q0 127 31 233.5t92.5 188.5t161.5 128t229 46q226 0 343.5 -166.5t117.5 -458.5h-783q0 -169 79 -260.5t233 -91.5q116 0 193.5 70t82.5 141z
M274 621h596q-4 66 -20.5 120.5t-50 100.5t-91.5 72t-137 26q-123 0 -210 -96t-87 -223zM883 1503l-267 -289h-137l183 289h221z" />
    <glyph glyph-name="ecircumflex" unicode="&#xea;" 
d="M862 336h180q-4 -33 -21 -79t-62 -109.5t-107 -104.5q-32 -21 -59.5 -34.5t-89.5 -26.5t-142 -13q-221 0 -350 150t-129 387q0 127 31 233.5t92.5 188.5t161.5 128t229 46q226 0 343.5 -166.5t117.5 -458.5h-783q0 -169 79 -260.5t233 -91.5q116 0 193.5 70t82.5 141z
M274 621h596q-4 66 -20.5 120.5t-50 100.5t-91.5 72t-137 26q-123 0 -210 -96t-87 -223zM569 1405l-135 -191h-162l203 289h191l202 -289h-163z" />
    <glyph glyph-name="edieresis" unicode="&#xeb;" 
d="M862 336h180q-4 -33 -21 -79t-62 -109.5t-107 -104.5q-32 -21 -59.5 -34.5t-89.5 -26.5t-142 -13q-221 0 -350 150t-129 387q0 127 31 233.5t92.5 188.5t161.5 128t229 46q226 0 343.5 -166.5t117.5 -458.5h-783q0 -169 79 -260.5t233 -91.5q116 0 193.5 70t82.5 141z
M274 621h596q-4 66 -20.5 120.5t-50 100.5t-91.5 72t-137 26q-123 0 -210 -96t-87 -223zM498 1446v-209h-187v209h187zM829 1446v-209h-186v209h186z" />
    <glyph glyph-name="igrave" unicode="&#xec;" horiz-adv-x="569" 
d="M375 1071v-1071h-180v1071h180zM240 1214l-267 289h222l182 -289h-137z" />
    <glyph glyph-name="iacute" unicode="&#xed;" horiz-adv-x="569" 
d="M375 1071v-1071h-180v1071h180zM598 1503l-266 -289h-137l182 289h221z" />
    <glyph glyph-name="icircumflex" unicode="&#xee;" horiz-adv-x="569" 
d="M375 1071v-1071h-180v1071h180zM285 1405l-135 -191h-162l202 289h191l203 -289h-164z" />
    <glyph glyph-name="idieresis" unicode="&#xef;" horiz-adv-x="569" 
d="M375 1071v-1071h-180v1071h180zM213 1446v-209h-186v209h186zM545 1446v-209h-187v209h187z" />
    <glyph glyph-name="eth" unicode="&#xf0;" 
d="M258 520q0 -32 5 -69t17 -83.5t35.5 -88t56 -77t83.5 -56.5t114 -21t114 21t83.5 56.5t56.5 77t36 88t17 83.5t5 69t-5 69t-17 83.5t-36 88t-56.5 77t-83.5 56.5t-114 21t-114 -21t-83.5 -56.5t-56 -77t-35.5 -88t-17 -83.5t-5 -69zM961 1427l-220 -104
q157 -145 242.5 -331t85.5 -382q0 -119 -21 -218t-57.5 -167.5t-83.5 -119.5t-102.5 -80t-109.5 -42.5t-109 -13.5q-104 0 -190.5 31.5t-145.5 84.5t-100 124.5t-59.5 149.5t-18.5 161q0 103 31 200.5t88.5 176t148.5 126.5t201 48q168 0 272 -113l4 5q-63 156 -227 290
l-254 -127l-86 86l242 117q-81 63 -183 107l152 73q108 -43 186 -104l217 104z" />
    <glyph glyph-name="ntilde" unicode="&#xf1;" 
d="M1006 729v-729h-181v659q0 146 -51 213.5t-178 67.5q-34 0 -69 -8.5t-74.5 -33.5t-69.5 -63t-50 -103t-20 -148v-584h-180v1071h170v-151h4q125 182 324 182q54 0 103 -9t100 -34.5t88 -66t60.5 -108t23.5 -155.5zM797 1479h102q-11 -97 -65.5 -160.5t-139.5 -63.5
q-38 0 -121 27l-53 18q-89 31 -125 31q-39 0 -61 -23t-35 -67h-98q13 99 64.5 159t148.5 60q58 0 139 -30l45 -19q66 -27 96 -27q29 0 49 8.5t30.5 25.5t15 29t8.5 32z" />
    <glyph glyph-name="ograve" unicode="&#xf2;" 
d="M72 537q0 85 18.5 165t58.5 153t97 127.5t140.5 87t182.5 32.5q123 0 221 -49t157 -130.5t89.5 -180t30.5 -205.5q0 -85 -18.5 -165t-58.5 -153.5t-97.5 -128t-141 -87t-182.5 -32.5t-182.5 32.5t-140.5 87t-97 128t-58.5 153.5t-18.5 165zM258 537q0 -48 7 -98
t28.5 -108t54.5 -101.5t90 -73t131 -29.5t131.5 29.5t90.5 73.5t54 101.5t28.5 107.5t7.5 98t-7.5 98t-28.5 107.5t-54 101t-90.5 73t-131.5 29.5t-131 -29.5t-90 -73t-54.5 -101.5t-28.5 -107.5t-7 -97.5zM524 1214l-266 289h221l183 -289h-138z" />
    <glyph glyph-name="oacute" unicode="&#xf3;" 
d="M72 537q0 85 18.5 165t58.5 153t97 127.5t140.5 87t182.5 32.5q123 0 221 -49t157 -130.5t89.5 -180t30.5 -205.5q0 -85 -18.5 -165t-58.5 -153.5t-97.5 -128t-141 -87t-182.5 -32.5t-182.5 32.5t-140.5 87t-97 128t-58.5 153.5t-18.5 165zM258 537q0 -48 7 -98
t28.5 -108t54.5 -101.5t90 -73t131 -29.5t131.5 29.5t90.5 73.5t54 101.5t28.5 107.5t7.5 98t-7.5 98t-28.5 107.5t-54 101t-90.5 73t-131.5 29.5t-131 -29.5t-90 -73t-54.5 -101.5t-28.5 -107.5t-7 -97.5zM883 1503l-267 -289h-137l183 289h221z" />
    <glyph glyph-name="ocircumflex" unicode="&#xf4;" 
d="M72 537q0 85 18.5 165t58.5 153t97 127.5t140.5 87t182.5 32.5q123 0 221 -49t157 -130.5t89.5 -180t30.5 -205.5q0 -85 -18.5 -165t-58.5 -153.5t-97.5 -128t-141 -87t-182.5 -32.5t-182.5 32.5t-140.5 87t-97 128t-58.5 153.5t-18.5 165zM258 537q0 -48 7 -98
t28.5 -108t54.5 -101.5t90 -73t131 -29.5t131.5 29.5t90.5 73.5t54 101.5t28.5 107.5t7.5 98t-7.5 98t-28.5 107.5t-54 101t-90.5 73t-131.5 29.5t-131 -29.5t-90 -73t-54.5 -101.5t-28.5 -107.5t-7 -97.5zM569 1405l-135 -191h-162l203 289h191l202 -289h-163z" />
    <glyph glyph-name="otilde" unicode="&#xf5;" 
d="M72 537q0 85 18.5 165t58.5 153t97 127.5t140.5 87t182.5 32.5q123 0 221 -49t157 -130.5t89.5 -180t30.5 -205.5q0 -85 -18.5 -165t-58.5 -153.5t-97.5 -128t-141 -87t-182.5 -32.5t-182.5 32.5t-140.5 87t-97 128t-58.5 153.5t-18.5 165zM258 537q0 -48 7 -98
t28.5 -108t54.5 -101.5t90 -73t131 -29.5t131.5 29.5t90.5 73.5t54 101.5t28.5 107.5t7.5 98t-7.5 98t-28.5 107.5t-54 101t-90.5 73t-131.5 29.5t-131 -29.5t-90 -73t-54.5 -101.5t-28.5 -107.5t-7 -97.5zM817 1479h103q-11 -97 -65.5 -160.5t-139.5 -63.5q-39 0 -121 27
l-53 18q-89 31 -125 31q-70 0 -97 -90h-98q13 99 64.5 159t148.5 60q58 0 139 -30l45 -19q66 -27 97 -27q29 0 49 8.5t30.5 25.5t14.5 29t8 32z" />
    <glyph glyph-name="odieresis" unicode="&#xf6;" 
d="M72 537q0 85 18.5 165t58.5 153t97 127.5t140.5 87t182.5 32.5q123 0 221 -49t157 -130.5t89.5 -180t30.5 -205.5q0 -85 -18.5 -165t-58.5 -153.5t-97.5 -128t-141 -87t-182.5 -32.5t-182.5 32.5t-140.5 87t-97 128t-58.5 153.5t-18.5 165zM258 537q0 -48 7 -98
t28.5 -108t54.5 -101.5t90 -73t131 -29.5t131.5 29.5t90.5 73.5t54 101.5t28.5 107.5t7.5 98t-7.5 98t-28.5 107.5t-54 101t-90.5 73t-131.5 29.5t-131 -29.5t-90 -73t-54.5 -101.5t-28.5 -107.5t-7 -97.5zM498 1446v-209h-187v209h187zM829 1446v-209h-186v209h186z" />
    <glyph glyph-name="divide" unicode="&#xf7;" horiz-adv-x="1196" 
d="M1116 442h-1036v150h1036v-150zM459 934q0 58 41.5 98.5t97.5 40.5q57 0 98 -41t41 -98q0 -54 -41.5 -96.5t-97.5 -42.5t-97.5 41t-41.5 98zM459 100q0 58 41.5 99t97.5 41q57 0 98 -41.5t41 -98.5q0 -54 -41.5 -96.5t-97.5 -42.5t-97.5 41t-41.5 98z" />
    <glyph glyph-name="oslash" unicode="&#xf8;" horiz-adv-x="1251" 
d="M1100 1063l-142 -160q109 -150 109 -366q0 -85 -18.5 -165t-58.5 -153.5t-97.5 -128t-141 -87t-182.5 -32.5q-199 0 -325 123l-123 -139l-64 53l131 148q-116 155 -116 381q0 85 18.5 165t58.5 153t97 127.5t140.5 87t182.5 32.5q206 0 336 -133l131 147zM309 293
l484 547q-82 106 -224 106q-74 0 -131 -29.5t-90 -73t-54.5 -101.5t-28.5 -107.5t-7 -97.5q0 -137 51 -244zM836 764l-480 -543q77 -94 213 -94q74 0 131.5 29.5t90.5 73.5t54 101.5t28.5 107.5t7.5 98q0 129 -45 227z" />
    <glyph glyph-name="ugrave" unicode="&#xf9;" 
d="M1001 0h-170v156l-4 4q-60 -98 -138 -144.5t-202 -46.5q-50 0 -97 9.5t-93.5 34t-80.5 61t-55.5 95t-21.5 132.5v770h180v-711q0 -235 207 -235q81 0 141 33t92 87.5t47 113.5t15 122v590h180v-1071zM524 1214l-266 289h221l183 -289h-138z" />
    <glyph glyph-name="uacute" unicode="&#xfa;" 
d="M1001 0h-170v156l-4 4q-60 -98 -138 -144.5t-202 -46.5q-50 0 -97 9.5t-93.5 34t-80.5 61t-55.5 95t-21.5 132.5v770h180v-711q0 -235 207 -235q81 0 141 33t92 87.5t47 113.5t15 122v590h180v-1071zM883 1503l-267 -289h-137l183 289h221z" />
    <glyph glyph-name="ucircumflex" unicode="&#xfb;" 
d="M1001 0h-170v156l-4 4q-60 -98 -138 -144.5t-202 -46.5q-50 0 -97 9.5t-93.5 34t-80.5 61t-55.5 95t-21.5 132.5v770h180v-711q0 -235 207 -235q81 0 141 33t92 87.5t47 113.5t15 122v590h180v-1071zM569 1405l-135 -191h-162l203 289h191l202 -289h-163z" />
    <glyph glyph-name="udieresis" unicode="&#xfc;" 
d="M1001 0h-170v156l-4 4q-60 -98 -138 -144.5t-202 -46.5q-50 0 -97 9.5t-93.5 34t-80.5 61t-55.5 95t-21.5 132.5v770h180v-711q0 -235 207 -235q81 0 141 33t92 87.5t47 113.5t15 122v590h180v-1071zM498 1446v-209h-187v209h187zM829 1446v-209h-186v209h186z" />
    <glyph glyph-name="yacute" unicode="&#xfd;" horiz-adv-x="1024" 
d="M516 199l287 872h198q-275 -770 -385 -1051q-37 -94 -57.5 -145.5t-47.5 -108.5t-41.5 -82.5t-40 -54.5t-43 -37.5t-50.5 -18t-61.5 -10.5t-77.5 -1q-18 0 -76 16v164q52 -18 108 -18q19 0 31.5 1t26 7.5t21.5 11t20 22t18.5 29.5t20.5 44.5t23.5 56.5t29.5 75l-397 1100
h204l285 -872h4zM825 1503l-266 -289h-137l182 289h221z" />
    <glyph glyph-name="thorn" unicode="&#xfe;" 
d="M291 485q0 -101 29 -175.5t75.5 -112.5t93.5 -55t95 -17q142 0 215 114t73 300q0 37 -1.5 66t-8 73t-17.5 77t-33 69.5t-52 60.5t-76 39.5t-104 15.5q-289 0 -289 -455zM119 -424v1894h180v-546h4q17 26 28 41.5t40 45t59 46.5t78.5 31t103.5 14q139 0 241.5 -71.5
t154 -191.5t51.5 -272q0 -82 -13.5 -161t-47.5 -159.5t-86 -141t-135.5 -98.5t-188.5 -38q-101 0 -173.5 40.5t-111.5 103.5h-4v-537h-180z" />
    <glyph glyph-name="ydieresis" unicode="&#xff;" horiz-adv-x="1024" 
d="M516 199l287 872h198q-275 -770 -385 -1051q-37 -94 -57.5 -145.5t-47.5 -108.5t-41.5 -82.5t-40 -54.5t-43 -37.5t-50.5 -18t-61.5 -10.5t-77.5 -1q-18 0 -76 16v164q52 -18 108 -18q19 0 31.5 1t26 7.5t21.5 11t20 22t18.5 29.5t20.5 44.5t23.5 56.5t29.5 75l-397 1100
h204l285 -872h4zM440 1446v-209h-186v209h186zM772 1446v-209h-186v209h186z" />
    <glyph glyph-name="dotlessi" unicode="&#x131;" horiz-adv-x="569" 
d="M375 1071v-1071h-180v1071h180z" />
    <glyph glyph-name="Lslash" unicode="&#x141;" 
d="M596 1065v-119l-242 -137v-633h746v-176h-944v705l-197 -113v119l197 112v647h198v-542z" />
    <glyph glyph-name="lslash" unicode="&#x142;" horiz-adv-x="454" 
d="M496 891l-179 -103v-788h-180v694l-178 -102v119l178 102v657h180v-563l179 103v-119z" />
    <glyph glyph-name="OE" unicode="&#x152;" horiz-adv-x="2048" 
d="M1059 471v537q0 152 -98.5 241.5t-255.5 89.5q-82 0 -148 -26t-109.5 -66.5t-76 -99.5t-49.5 -115t-27.5 -123.5t-13 -115t-2.5 -99.5q0 -179 51 -307q55 -133 145 -194.5t256 -61.5q42 0 85.5 11t87.5 37.5t78 64.5t55.5 97t21.5 130zM1071 1321v149h901v-176h-715v-450
h682v-176h-682v-492h719v-176h-907v154h-4q-29 -38 -44 -55.5t-51.5 -49t-72 -47t-94 -28.5t-129.5 -13q-142 0 -256.5 57.5t-189 160.5t-114.5 242.5t-40 305.5q0 66 7.5 134t27.5 146.5t50 148.5t80 135.5t113.5 113t153.5 76t196 28.5q251 0 365 -188h4z" />
    <glyph glyph-name="oe" unicode="&#x153;" horiz-adv-x="1933" 
d="M1063 621h598q-4 66 -20.5 120.5t-50 100.5t-91.5 72t-137 26q-123 0 -211 -96.5t-88 -222.5zM1653 336h180q-4 -32 -21 -78.5t-62.5 -110t-107.5 -104.5q-32 -22 -59.5 -35t-89 -26t-141.5 -13q-257 0 -398 207q-28 -54 -70.5 -94t-83.5 -61t-88.5 -33t-80 -15t-62.5 -2
q-99 0 -182.5 32.5t-140.5 87t-97 128t-58.5 153.5t-18.5 165t18.5 165t58.5 153t97 127.5t140.5 87t182.5 32.5q130 -2 233.5 -56t168.5 -161q74 114 174 165.5t241 51.5q226 0 343.5 -166.5t117.5 -458.5h-784q0 -169 79.5 -260.5t233.5 -91.5q60 0 113.5 21.5t87 54
t54 68.5t22.5 67zM258 537q0 -48 7 -98t28.5 -108t54.5 -101.5t90 -73t131 -29.5t131.5 29.5t90.5 73.5t54 101.5t28.5 107.5t7.5 98t-7.5 98t-28.5 107.5t-54 101t-90.5 73t-131.5 29.5t-131 -29.5t-90 -73t-54.5 -101.5t-28.5 -107.5t-7 -97.5z" />
    <glyph glyph-name="Scaron" unicode="&#x160;" horiz-adv-x="1366" 
d="M1229 1040h-187q-4 81 -37 141.5t-87 93.5t-114 48.5t-126 15.5q-43 0 -83.5 -5t-88.5 -22t-82.5 -43.5t-58 -75t-23.5 -112.5q0 -85 48 -126.5t126 -59.5l420 -96q154 -36 244 -132t90 -261q0 -84 -25 -153.5t-69 -117t-99.5 -82.5t-121.5 -54.5t-130.5 -28.5t-130.5 -9
q-96 0 -172.5 12.5t-129 36.5t-81.5 44t-61 48q-87 79 -118.5 168t-31.5 205h187q0 -77 24.5 -137.5t64 -98.5t93.5 -63t108.5 -35t114.5 -10q49 0 95.5 5t101 21.5t94.5 42.5t67 72.5t27 106.5q0 78 -29 124.5t-93.5 76t-190.5 59.5l-301 70q-313 75 -313 346q0 70 18 135
t57.5 123.5t97.5 101.5t143 68.5t189 25.5q106 0 193 -18t144.5 -46t101.5 -70t68 -82t39.5 -90t20.5 -85.5t7 -77.5zM547 1903l135 -191l135 191h164l-203 -289h-190l-203 289h162z" />
    <glyph glyph-name="scaron" unicode="&#x161;" horiz-adv-x="1024" 
d="M915 766h-174q-5 180 -254 180q-27 0 -57.5 -5.5t-68.5 -19.5t-62.5 -47t-24.5 -79q0 -62 40.5 -88.5t154.5 -55.5l180 -45q165 -41 233 -106t68 -176q0 -163 -119.5 -259t-304.5 -96q-88 0 -158.5 14.5t-117 36.5t-81.5 56.5t-53.5 65.5t-30 72t-14.5 68t-5 62h174
q2 -26 6 -46t13.5 -47.5t29.5 -48t49.5 -39t77 -28.5t108.5 -10q105 0 175.5 43t70.5 127q0 62 -45.5 92.5t-167.5 61.5l-209 51q-248 61 -248 260q0 86 33.5 152.5t91 107.5t129 61.5t152.5 20.5q79 0 143 -16t105.5 -41t73 -59t47.5 -65t25.5 -65.5t12 -54t2.5 -35.5z
M377 1503l135 -190l135 190h164l-203 -289h-190l-203 289h162z" />
    <glyph glyph-name="Ydieresis" unicode="&#x178;" horiz-adv-x="1366" 
d="M782 592v-592h-198v592l-555 878h231l422 -706l422 706h233zM610 1845v-209h-186v209h186zM942 1845v-209h-186v209h186z" />
    <glyph glyph-name="Zcaron" unicode="&#x17d;" horiz-adv-x="1251" 
d="M1204 176v-176h-1157v166l901 1128h-833v176h1089v-172l-905 -1122h905zM489 1903l136 -191l135 191h164l-203 -289h-191l-202 289h161z" />
    <glyph glyph-name="zcaron" unicode="&#x17e;" horiz-adv-x="1024" 
d="M942 924l-639 -774h658v-150h-898v141l646 781h-596v149h829v-147zM377 1503l135 -190l135 190h164l-203 -289h-190l-203 289h162z" />
    <glyph glyph-name="florin" unicode="&#x192;" 
d="M1026 1479l-31 -160q-8 3 -25 10t-25 10t-20.5 7.5t-23.5 6t-22 1.5q-125 0 -166 -199l-41 -211h233v-143h-260l-123 -670q-28 -153 -69 -261.5t-95 -172.5t-116 -92.5t-138 -28.5q-72 0 -127 25l31 166q60 -29 105 -29q40 0 70.5 17t51 43.5t38 75.5t28.5 97t25 123
l131 707h-224v143h252l58 254q13 57 40 110.5t66.5 99t96 73.5t120.5 28q39 0 71 -5t45 -9.5t44 -15.5z" />
    <glyph glyph-name="circumflex" unicode="&#x2c6;" horiz-adv-x="681" 
d="M340 1405l-135 -191h-162l203 289h190l203 -289h-164z" />
    <glyph glyph-name="caron" unicode="&#x2c7;" horiz-adv-x="681" 
d="M205 1503l135 -190l135 190h164l-203 -289h-190l-203 289h162z" />
    <glyph glyph-name="uni02C9" unicode="&#x2c9;" horiz-adv-x="681" 
d="M662 1401v-117h-642v117h642z" />
    <glyph glyph-name="breve" unicode="&#x2d8;" horiz-adv-x="681" 
d="M559 1497h98q-32 -278 -325 -278q-56 0 -101.5 12t-75.5 30t-53.5 45.5t-36 50.5t-21.5 54t-12 47.5t-5 38.5h100q22 -70 49 -98q57 -64 172 -64q47 0 83.5 11.5t56.5 26.5t36 41t21.5 41.5t13.5 41.5z" />
    <glyph glyph-name="dotaccent" unicode="&#x2d9;" horiz-adv-x="681" 
d="M434 1446v-209h-186v209h186z" />
    <glyph glyph-name="ring" unicode="&#x2da;" horiz-adv-x="681" 
d="M342 1548q82 0 135 -53t53 -135t-53 -135.5t-135 -53.5t-135 53.5t-53 135.5t53 135t135 53zM236 1360q0 -44 31 -75.5t75 -31.5t75.5 31.5t31.5 75.5t-31.5 75t-75.5 31t-75 -31t-31 -75z" />
    <glyph glyph-name="ogonek" unicode="&#x2db;" horiz-adv-x="681" 
d="M553 -334l35 -82q-109 -45 -197 -45q-111 0 -176 53.5t-65 135.5q0 31 8.5 64.5t30 75.5t69 77.5t115.5 54.5h137v-8q-122 -67 -163.5 -121t-41.5 -133q0 -32 12 -54.5t31.5 -32t36.5 -13t35 -3.5q54 0 133 31z" />
    <glyph glyph-name="tilde" unicode="&#x2dc;" horiz-adv-x="681" 
d="M588 1479h102q-11 -97 -65.5 -160.5t-139.5 -63.5q-38 0 -120 27l-54 18q-89 31 -125 31q-39 0 -61 -23t-35 -67h-98q13 99 64.5 159t148.5 60q58 0 139 -30l45 -19q66 -27 96 -27q29 0 49 8.5t30.5 25.5t15 29t8.5 32z" />
    <glyph glyph-name="hungarumlaut" unicode="&#x2dd;" horiz-adv-x="681" 
d="M469 1503l-268 -289h-138l183 289h223zM838 1503l-269 -289h-137l182 289h224z" />
    <glyph glyph-name="uni03A9" unicode="&#x3a9;" horiz-adv-x="1470" 
d="M397 141v4q-118 106 -195 266.5t-77 358.5q0 194 79.5 349t220 242t314.5 87q136 0 251 -56t190.5 -149t118 -213.5t42.5 -249.5q0 -205 -80 -371t-196 -264v-4h305v-141h-500v104q126 81 211.5 247.5t85.5 396.5q0 101 -28 198.5t-79.5 178.5t-135 130.5t-185.5 49.5
q-131 0 -232 -76t-154.5 -203.5t-53.5 -284.5q0 -216 87 -388.5t210 -248.5v-104h-500v141h301z" />
    <glyph glyph-name="uni03BC" unicode="&#x3bc;" horiz-adv-x="1183" 
d="M1001 0h-170v156l-4 4q-60 -98 -138 -144.5t-202 -46.5q-109 0 -163 70h-5v-463h-180v725v770h180v-711q0 -235 207 -235q81 0 141 33t92 87.5t47 113.5t15 122v590h180v-1071z" />
    <glyph glyph-name="pi" unicode="&#x3c0;" horiz-adv-x="1177" 
d="M1124 915h-161v-614q0 -191 28 -301h-166q-34 60 -34 289v626h-355q-10 -217 -52 -497.5t-95 -417.5h-168q54 160 95.5 431.5t49.5 483.5q-151 0 -225 -24l-25 113q83 57 301 57h824z" />
    <glyph glyph-name="afii10023" unicode="&#x401;" horiz-adv-x="1366" 
d="M152 0v1470h1073v-172h-877v-454h809v-172h-809v-500h891v-172h-1087zM426 1567v209h184v-209h-184zM754 1567v209h184v-209h-184z" />
    <glyph glyph-name="afii10051" unicode="&#x402;" horiz-adv-x="1558" 
d="M1149 1470v-174h-510v-495q191 78 334 78q95 0 186.5 -30.5t159.5 -94.5q156 -146 156 -430q0 -178 -60.5 -333.5t-185.5 -256.5q-60 -48 -124 -79.5t-128.5 -45.5t-102.5 -19t-94 -8v174q51 4 89.5 10.5t106 33.5t122.5 71q93 76 137.5 191.5t44.5 250.5
q0 185 -88 289.5t-246 104.5q-55 0 -115 -12t-92.5 -22.5t-99.5 -35.5v-637h-197v1296h-415v174h1122z" />
    <glyph glyph-name="afii10052" unicode="&#x403;" horiz-adv-x="1062" 
d="M152 0v1470h864v-172h-668v-1298h-196zM473 1567l182 295h224l-269 -295h-137z" />
    <glyph glyph-name="afii10053" unicode="&#x404;" horiz-adv-x="1478" 
d="M1188 526h190q-11 -100 -54.5 -196.5t-117.5 -180t-190.5 -135t-255.5 -51.5q-61 0 -122.5 9.5t-129.5 34t-128.5 62t-116 97.5t-95.5 136t-64 182.5t-24 232.5q0 173 41 311t107.5 226t157.5 146.5t185 82.5t195 24q116 0 214.5 -29.5t166.5 -77.5t117.5 -110.5t74 -127
t29.5 -128.5h-192q-37 141 -145 221t-259 80q-95 0 -175 -30t-134 -78.5t-92.5 -113.5t-58 -132t-23.5 -137h526v-172h-526q3 -116 34 -210t79 -153.5t110.5 -100t124 -57t123.5 -16.5q90 0 167.5 33.5t130 90t86 125t44.5 142.5z" />
    <glyph glyph-name="afii10054" unicode="&#x405;" horiz-adv-x="1366" 
d="M1223 1038h-185q-8 132 -98 214.5t-262 82.5q-174 0 -260 -66t-86 -190q0 -77 62 -124t188 -78l292 -72q202 -50 297 -144.5t95 -248.5q0 -101 -34.5 -180.5t-91 -129t-135 -82t-160 -45t-173.5 -12.5q-114 0 -209 25.5t-161.5 71t-113 107t-68.5 134t-22 152.5v24h185
q0 -108 54.5 -187t142 -117t196.5 -38q81 0 150.5 14.5t124.5 43t86.5 77t31.5 111.5q0 102 -63.5 157.5t-221.5 92.5l-262 65q-196 49 -285.5 138.5t-89.5 234.5q0 91 33 170t96.5 139t164 94.5t227.5 34.5q253 0 404 -121.5t151 -347.5z" />
    <glyph glyph-name="afii10055" unicode="&#x406;" horiz-adv-x="569" 
d="M186 0v1470h197v-1470h-197z" />
    <glyph glyph-name="afii10056" unicode="&#x407;" horiz-adv-x="569" 
d="M186 0v1470h197v-1470h-197zM29 1567v209h184v-209h-184zM356 1567v209h185v-209h-185z" />
    <glyph glyph-name="afii10057" unicode="&#x408;" horiz-adv-x="1024" 
d="M676 403v1067h196v-1056q0 -107 -24.5 -187.5t-64.5 -130t-99 -80t-119.5 -42t-134.5 -11.5q-78 0 -147 22.5t-125.5 68t-89.5 123t-33 179.5v117h184v-102q0 -118 51.5 -177t169.5 -59q114 0 175 60.5t61 207.5z" />
    <glyph glyph-name="afii10058" unicode="&#x409;" horiz-adv-x="2048" 
d="M981 1298h-449l-30 -784q-2 -72 -4.5 -113.5t-10.5 -107.5t-20.5 -105.5t-36.5 -87.5t-56.5 -74t-82.5 -44.5t-113 -18.5q-75 0 -135 25v172q41 -25 102 -25q57 0 87.5 26t49 110t23.5 249l31 950h842v-606h276q258 0 386 -113.5t128 -318.5q0 -198 -123 -315t-342 -117
h-522v1298zM1178 692v-520h299q282 0 282 260q0 140 -82.5 200t-242.5 60h-256z" />
    <glyph glyph-name="afii10059" unicode="&#x40a;" horiz-adv-x="2048" 
d="M1182 692v-520h264q283 0 283 260q0 140 -82.5 200t-243.5 60h-221zM152 0v1470h196v-606h637v606h197v-606h241q258 0 386 -113.5t128 -318.5q0 -198 -123 -315t-341 -117h-488v692h-637v-692h-196z" />
    <glyph glyph-name="afii10060" unicode="&#x40b;" horiz-adv-x="1593" 
d="M449 0v1298h-371v172h1087v-172h-520v-454h375q448 0 448 -389v-455h-196v426q0 121 -64 183.5t-209 62.5h-354v-672h-196z" />
    <glyph glyph-name="afii10061" unicode="&#x40c;" horiz-adv-x="1366" 
d="M543 1567l182 295h223l-268 -295h-137zM152 0v1470h196v-716l717 716h274l-612 -593l629 -877h-252l-518 741l-238 -229v-512h-196z" />
    <glyph glyph-name="afii10062" unicode="&#x40e;" horiz-adv-x="1366" 
d="M256 -8v203q68 -35 158 -35q96 0 140 35.5t44 93.5q0 30 -8.5 58t-38.5 89l-504 1034h229l457 -983l397 983h222l-482 -1099q-42 -97 -73 -156t-71 -113t-84 -81t-103 -42.5t-138 -15.5q-71 0 -145 29zM367 1849h100q35 -159 215 -159t215 159h100q-13 -124 -91.5 -203
t-223.5 -79t-223.5 79t-91.5 203z" />
    <glyph glyph-name="afii10145" unicode="&#x40f;" horiz-adv-x="1478" 
d="M152 0v1470h208v-1298h758v1298h209v-1470h-489v-315h-197v315h-489z" />
    <glyph glyph-name="afii10017" unicode="&#x410;" horiz-adv-x="1366" 
d="M1126 0l-157 444h-574l-157 -444h-211l553 1470h225l532 -1470h-211zM913 604l-229 645h-4l-229 -645h462z" />
    <glyph glyph-name="afii10018" unicode="&#x411;" horiz-adv-x="1366" 
d="M152 0v1470h976v-172h-780v-434h430q252 0 379 -113.5t127 -318.5q0 -198 -123 -315t-342 -117h-667zM348 692v-520h445q282 0 282 260q0 140 -82.5 200t-242.5 60h-402z" />
    <glyph glyph-name="afii10019" unicode="&#x412;" horiz-adv-x="1366" 
d="M152 0v1470h526q183 0 274 -24q115 -31 188.5 -120t73.5 -226q0 -55 -17 -110.5t-63.5 -111.5t-115.5 -85q39 -14 73.5 -32t71 -48t62.5 -67.5t42.5 -92.5t16.5 -119q0 -61 -16.5 -120t-55 -116.5t-96 -101t-146.5 -70t-198 -26.5h-620zM348 172h395q183 0 263.5 66.5
t80.5 189.5t-80.5 189.5t-263.5 66.5h-395v-512zM348 844h367q93 0 155.5 17.5t93.5 52t42.5 73t11.5 92.5q0 108 -70.5 163.5t-232.5 55.5h-367v-454z" />
    <glyph glyph-name="afii10020" unicode="&#x413;" horiz-adv-x="1062" 
d="M152 0v1470h864v-172h-668v-1298h-196z" />
    <glyph glyph-name="afii10021" unicode="&#x414;" horiz-adv-x="1366" 
d="M221 -315h-184v487h133q47 104 75.5 220t51.5 325q36 308 43 753h874v-1298h146v-487h-184v315h-955v-315zM1012 1298h-488q0 -200 -39 -571q-22 -216 -44.5 -325t-65.5 -230h637v1126z" />
    <glyph glyph-name="afii10022" unicode="&#x415;" horiz-adv-x="1366" 
d="M152 0v1470h1073v-172h-877v-454h809v-172h-809v-500h891v-172h-1087z" />
    <glyph glyph-name="afii10024" unicode="&#x416;" horiz-adv-x="2052" 
d="M1124 1470v-630h62l567 630h279l-662 -700l662 -770h-279l-567 674h-62v-674h-196v674h-62l-569 -674h-277l674 762l-665 708h264l573 -630h62v630h196z" />
    <glyph glyph-name="afii10025" unicode="&#x417;" horiz-adv-x="1251" 
d="M547 694v160h155q118 0 181 67t63 160q0 87 -45 146t-111 83.5t-147 24.5q-158 0 -247.5 -92t-104.5 -233h-185q9 111 44 198t86 142.5t119.5 91.5t140.5 50.5t153 14.5q100 0 186.5 -26t152.5 -75.5t104 -127t38 -174.5q0 -118 -46.5 -195.5t-151.5 -115.5v-5
q121 -34 190.5 -126.5t69.5 -245.5q0 -87 -31.5 -161.5t-84.5 -127.5t-123.5 -90.5t-148.5 -55.5t-159 -18q-118 0 -216 25.5t-177.5 79t-129.5 144t-63 212.5h193q19 -132 108.5 -210.5t266.5 -78.5q107 0 187 28t130.5 95t50.5 168q0 121 -77.5 194.5t-227.5 73.5h-143z
" />
    <glyph glyph-name="afii10026" unicode="&#x418;" horiz-adv-x="1478" 
d="M152 0v1470h196v-1189h4l748 1189h227v-1470h-197v1196h-4l-747 -1196h-227z" />
    <glyph glyph-name="afii10027" unicode="&#x419;" horiz-adv-x="1478" 
d="M424 1849h100q35 -159 215 -159t215 159h101q-13 -124 -92 -203t-224 -79t-223.5 79t-91.5 203zM152 0v1470h196v-1189h4l748 1189h227v-1470h-197v1196h-4l-747 -1196h-227z" />
    <glyph glyph-name="afii10028" unicode="&#x41a;" horiz-adv-x="1366" 
d="M152 0v1470h196v-716l717 716h274l-612 -593l629 -877h-252l-518 741l-238 -229v-512h-196z" />
    <glyph glyph-name="afii10029" unicode="&#x41b;" horiz-adv-x="1327" 
d="M987 0v1298h-455q-4 -86 -11 -248.5t-11.5 -263.5t-13 -240t-19.5 -255q-6 -64 -22.5 -118t-49.5 -103.5t-91.5 -78t-137.5 -28.5q-81 0 -139 25v172q42 -25 104 -25q89 0 118 82.5t40 341.5q26 604 31 911h854v-1470h-197z" />
    <glyph glyph-name="afii10030" unicode="&#x41c;" horiz-adv-x="1705" 
d="M152 0v1470h282l416 -1237h4l416 1237h282v-1470h-184v1237h-4l-414 -1237h-196l-414 1237h-4v-1237h-184z" />
    <glyph glyph-name="afii10031" unicode="&#x41d;" horiz-adv-x="1478" 
d="M152 0v1470h196v-606h782v606h197v-1470h-197v692h-782v-692h-196z" />
    <glyph glyph-name="afii10032" unicode="&#x41e;" horiz-adv-x="1593" 
d="M1513 735q0 -116 -27 -226.5t-85 -210t-140.5 -173.5t-202 -118t-261.5 -44t-261.5 44t-202.5 118t-141 173.5t-85 210t-27 226.5q0 229 84 402.5t247 271.5t386 98t386 -98t246.5 -271.5t83.5 -402.5zM1317 735q0 176 -60.5 310.5t-179 212t-280.5 77.5
q-122 0 -220.5 -44.5t-164 -124t-101 -190t-35.5 -241.5q0 -182 56.5 -315t175 -209t289.5 -76q255 0 387.5 161.5t132.5 438.5z" />
    <glyph glyph-name="afii10033" unicode="&#x41f;" horiz-adv-x="1478" 
d="M152 0v1470h1175v-1470h-197v1298h-782v-1298h-196z" />
    <glyph glyph-name="afii10034" unicode="&#x420;" horiz-adv-x="1366" 
d="M348 782h402q153 0 223.5 64.5t70.5 193.5t-70.5 193.5t-223.5 64.5h-402v-516zM152 0v1470h618q234 0 352.5 -115t118.5 -315t-118.5 -315t-352.5 -115h-422v-610h-196z" />
    <glyph glyph-name="afii10035" unicode="&#x421;" horiz-adv-x="1478" 
d="M276 737q0 -275 133 -438.5t351 -163.5q90 0 167.5 33.5t130 90t86 125t44.5 142.5h190q-11 -100 -54.5 -196.5t-117.5 -180t-190.5 -135t-255.5 -51.5q-61 0 -122.5 9.5t-129.5 34t-128.5 62t-116 97.5t-95.5 136t-64 182.5t-24 232.5q0 173 41 311t107.5 226
t157.5 146.5t185 82.5t195 24q116 0 214.5 -29.5t166.5 -77.5t117.5 -110.5t74 -127t29.5 -128.5h-192q-37 141 -145 221t-259 80q-226 0 -361 -162.5t-135 -435.5z" />
    <glyph glyph-name="afii10036" unicode="&#x422;" horiz-adv-x="1251" 
d="M29 1298v172h1196v-172h-500v-1298h-197v1298h-499z" />
    <glyph glyph-name="afii10037" unicode="&#x423;" horiz-adv-x="1366" 
d="M256 -8v203q68 -35 158 -35q96 0 140 35.5t44 93.5q0 30 -8.5 58t-38.5 89l-504 1034h229l457 -983l397 983h222l-482 -1099q-42 -97 -73 -156t-71 -113t-84 -81t-103 -42.5t-138 -15.5q-71 0 -145 29z" />
    <glyph glyph-name="afii10038" unicode="&#x424;" horiz-adv-x="1593" 
d="M1343 735q0 195 -120 304.5t-328 109.5v-827q209 0 328.5 109t119.5 304zM698 0v174q-130 0 -243.5 36t-200.5 104t-137.5 176.5t-50.5 244.5t50.5 244.5t137.5 176.5t200.5 104t243.5 36v174h197v-174q130 0 243.5 -36t201 -104t138 -176.5t50.5 -244.5t-50.5 -244.5
t-138 -176.5t-201 -104t-243.5 -36v-174h-197zM250 735q0 -195 119.5 -304t328.5 -109v827q-208 0 -328 -109.5t-120 -304.5z" />
    <glyph glyph-name="afii10039" unicode="&#x425;" horiz-adv-x="1366" 
d="M281 0h-244l522 754l-493 716h243l373 -563l373 563h243l-493 -716l522 -754h-244l-401 604z" />
    <glyph glyph-name="afii10040" unicode="&#x426;" horiz-adv-x="1478" 
d="M152 0v1470h196v-1298h782v1298h197v-1298h121v-487h-184v315h-1112z" />
    <glyph glyph-name="afii10041" unicode="&#x427;" horiz-adv-x="1327" 
d="M985 0v606q-67 -24 -177 -40.5t-220 -16.5q-89 0 -159 11t-134 40.5t-106.5 77.5t-67.5 125t-25 180v487h197v-466q0 -72 13.5 -122.5t38 -82t67.5 -49t92.5 -23.5t122.5 -6q92 0 195 17t163 40v692h197v-1470h-197z" />
    <glyph glyph-name="afii10042" unicode="&#x428;" horiz-adv-x="1933" 
d="M152 0v1470h196v-1298h520v1298h197v-1298h520v1298h197v-1470h-1630z" />
    <glyph glyph-name="afii10043" unicode="&#x429;" horiz-adv-x="1933" 
d="M152 0v1470h196v-1298h520v1298h197v-1298h520v1298h197v-1298h121v-487h-185v315h-1566z" />
    <glyph glyph-name="afii10044" unicode="&#x42a;" horiz-adv-x="1705" 
d="M524 0v1298h-495v172h692v-606h391q258 0 386 -113.5t128 -318.5q0 -198 -123 -315t-342 -117h-637zM721 692v-520h414q282 0 282 260q0 140 -82.5 200t-242.5 60h-371z" />
    <glyph glyph-name="afii10045" unicode="&#x42b;" horiz-adv-x="1820" 
d="M186 0v1470h197v-606h391q258 0 386 -113.5t128 -318.5q0 -198 -123 -315t-342 -117h-637zM383 172h414q282 0 282 260q0 140 -82.5 200t-242.5 60h-371v-520zM1487 0v1470h196v-1470h-196z" />
    <glyph glyph-name="afii10046" unicode="&#x42c;" horiz-adv-x="1366" 
d="M182 0v1470h197v-606h391q258 0 386 -113.5t128 -318.5q0 -198 -123 -315t-342 -117h-637zM379 172h414q282 0 282 260q0 140 -82.5 200t-242.5 60h-371v-520z" />
    <glyph glyph-name="afii10047" unicode="&#x42d;" horiz-adv-x="1478" 
d="M664 672v172h526q-4 70 -22 137t-55 132t-89 113.5t-131 78.5t-174 30q-151 0 -259 -80t-145 -221h-192q5 64 29.5 128.5t74 127t117.5 110.5t166.5 77.5t214.5 29.5q100 0 194 -25t182 -83.5t153.5 -144t105 -217t39.5 -292.5q0 -177 -45.5 -317.5t-116.5 -225.5
t-165.5 -141t-183 -77t-179.5 -21q-136 0 -250 51.5t-187.5 135t-117 180t-54.5 196.5h191q11 -74 44.5 -142.5t86 -125t130 -90t167.5 -33.5q62 0 123.5 16.5t124 57t110.5 100t79 153.5t34 210h-526z" />
    <glyph glyph-name="afii10048" unicode="&#x42e;" horiz-adv-x="2048" 
d="M152 0v1470h196v-647h191q24 312 212 498t500 186q223 0 386 -98t247 -271.5t84 -402.5q0 -116 -27 -226.5t-85 -210t-141 -173.5t-202.5 -118t-261.5 -44q-132 0 -244.5 37.5t-193.5 102.5t-140.5 153t-92 187.5t-41.5 207.5h-191v-651h-196zM1772 735
q0 131 -35.5 241.5t-101 190t-164 124t-220.5 44.5q-162 0 -280.5 -77.5t-179 -212t-60.5 -310.5q0 -277 132.5 -438.5t387.5 -161.5q171 0 289.5 76t175 209t56.5 315z" />
    <glyph glyph-name="afii10049" unicode="&#x42f;" horiz-adv-x="1482" 
d="M1311 1470v-1470h-197v625h-366q-124 0 -175.5 -7.5t-87.5 -31.5q-33 -22 -51.5 -48t-31.5 -74.5t-19 -127.5l-10 -160q-8 -107 -41 -176h-226q59 66 70 195l17 200q3 35 5.5 56.5t9 52t15.5 50.5t25 44.5t37 41.5t51.5 33.5t69.5 28.5q-37 14 -60 24t-64 39t-65 63
t-43.5 94t-19.5 135q0 131 53 221t133 135q100 57 362 57h609zM1114 791v505h-450q-49 0 -74 -1t-65.5 -8.5t-65.5 -22.5q-56 -32 -83.5 -93t-27.5 -129q0 -134 92 -202q48 -35 99 -43t151 -6h424z" />
    <glyph glyph-name="afii10065" unicode="&#x430;" 
d="M305 750h-172q11 354 440 354q64 0 122 -10t111 -33t91.5 -56.5t61 -84t22.5 -113.5v-623q0 -28 15 -45.5t44 -17.5q20 0 60 8v-127q-62 -16 -99 -16q-97 0 -142 35t-52 120q-77 -84 -167 -129t-226 -45q-85 0 -158 34t-121.5 106t-48.5 169q0 80 27.5 143t74 102
t102 61.5t118.5 29.5l301 37q92 10 92 125q0 182 -246 182q-120 0 -181 -51t-69 -155zM797 373v172q-14 -10 -35 -19t-39.5 -14t-51.5 -11t-52.5 -8.5t-60.5 -8t-58 -7.5q-230 -31 -230 -174q0 -90 53 -139t142 -49q35 0 76.5 9t87.5 29.5t83 49t61 73t24 97.5z" />
    <glyph glyph-name="afii10066" unicode="&#x431;" 
d="M827 1483h140q-12 -119 -93 -176q-32 -22 -61.5 -27t-134.5 -10l-76 -4q-153 -6 -227.5 -87.5t-104.5 -265.5q26 28 47.5 47t64 47.5t100.5 44t126 15.5q94 0 176.5 -34t146 -98t100 -165t36.5 -227q0 -41 -4 -84t-17.5 -101.5t-34.5 -110.5t-59.5 -104.5t-88.5 -90.5
t-125.5 -61.5t-166.5 -23.5q-260 0 -389 183q-50 72 -80 171t-30 273q0 158 31 330.5t100 279.5q41 62 87 103.5t100.5 64t109.5 32.5t131 13l65 2q71 3 95.5 13.5t35.5 50.5zM256 516q0 -30 2 -60t10 -71.5t21 -77t37 -72t56 -62t80 -42t107 -16.5q65 0 116.5 20t83.5 48.5
t55.5 73t34.5 79.5t17 82.5t6.5 68t0.5 48.5q0 61 -10 116t-33.5 105t-58.5 86.5t-88 58t-118 21.5q-106 0 -180 -56.5t-106.5 -146t-32.5 -203.5z" />
    <glyph glyph-name="afii10067" unicode="&#x432;" 
d="M152 0v1071h456q195 0 293 -73t98 -212q0 -129 -131 -215q185 -70 185 -247q0 -155 -103.5 -239.5t-312.5 -84.5h-485zM336 483v-336h280q139 0 195.5 42.5t56.5 125.5t-56.5 125.5t-195.5 42.5h-280zM336 924v-306h278q95 0 148 38t53 114q0 81 -50.5 117.5t-125.5 36.5
h-303z" />
    <glyph glyph-name="afii10068" unicode="&#x433;" horiz-adv-x="794" 
d="M135 0v1071h625v-160h-441v-911h-184z" />
    <glyph glyph-name="afii10069" unicode="&#x434;" horiz-adv-x="1251" 
d="M1038 -262v262h-788v-262h-172v422h141q162 400 162 911h698v-911h131v-422h-172zM406 160h489v751h-348q-20 -252 -58 -436q-41 -206 -83 -315z" />
    <glyph glyph-name="afii10070" unicode="&#x435;" 
d="M868 342h179q-11 -71 -48.5 -137.5t-96 -119.5t-142.5 -85.5t-180 -32.5q-109 0 -199.5 36t-158 105.5t-105 180.5t-37.5 254q0 113 30.5 208t80 159t113.5 108.5t129.5 65t129.5 20.5q228 0 362 -137.5t134 -403.5v-92h-783q2 -158 82.5 -251t219.5 -93q55 0 99.5 13.5
t74 33.5t53.5 50.5t37 57t26 60.5zM276 618h598q-3 155 -82.5 240.5t-213.5 85.5q-125 0 -209 -92t-93 -234z" />
    <glyph glyph-name="afii10072" unicode="&#x436;" horiz-adv-x="1597" 
d="M893 1071v-438h53l391 438h222l-461 -508l477 -563h-227l-402 487h-53v-487h-184v487h-54l-405 -487h-227l481 563l-459 508h223l387 -438h54v438h184z" />
    <glyph glyph-name="afii10073" unicode="&#x437;" horiz-adv-x="1024" 
d="M412 485v154h73q42 0 80.5 6t78 20.5t63.5 44.5t24 72q0 68 -56 115t-157 47q-33 0 -67.5 -8.5t-73 -28.5t-66.5 -62.5t-35 -101.5h-172q8 83 38.5 147.5t73 104t97.5 65t106.5 35t104.5 9.5q58 0 113.5 -11.5t106 -37t88.5 -61.5t60.5 -88.5t22.5 -114.5
q0 -88 -46.5 -135t-129.5 -76v-5q32 -6 66 -23t68.5 -46t56.5 -78t22 -109q0 -86 -38 -155.5t-101 -111t-139.5 -63.5t-157.5 -22q-202 0 -326.5 99t-138.5 264h185q7 -56 33.5 -97t66 -63.5t83.5 -32.5t95 -10q124 0 189 50t65 138q0 78 -63 127.5t-189 49.5q-43 0 -104 -7
z" />
    <glyph glyph-name="afii10074" unicode="&#x438;" 
d="M127 0v1071h184v-801h4l486 801h211v-1071h-185v801h-4l-485 -801h-211z" />
    <glyph glyph-name="afii10075" unicode="&#x439;" 
d="M127 0v1071h184v-801h4l486 801h211v-1071h-185v801h-4l-485 -801h-211zM254 1507h100q35 -159 215 -159t215 159h101q-13 -124 -92 -203t-224 -79t-223.5 79t-91.5 203z" />
    <glyph glyph-name="afii10076" unicode="&#x43a;" 
d="M152 0v1071h184v-508l541 508h241l-469 -432l477 -639h-237l-373 516l-180 -168v-348h-184z" />
    <glyph glyph-name="afii10077" unicode="&#x43b;" horiz-adv-x="1175" 
d="M856 0v911h-420l-16 -514q-8 -216 -74 -323t-205 -107q-75 0 -114 33v145q49 -18 77 -18q41 0 66 24t41.5 92t19.5 187l23 641h786v-1071h-184z" />
    <glyph glyph-name="afii10078" unicode="&#x43c;" horiz-adv-x="1363" 
d="M135 0v1071h268l283 -878h4l287 878h252v-1071h-172v862h-4l-283 -862h-176l-283 862h-4v-862h-172z" />
    <glyph glyph-name="afii10079" unicode="&#x43d;" 
d="M135 0v1071h184v-432h500v432h185v-1071h-185v479h-500v-479h-184z" />
    <glyph glyph-name="afii10080" unicode="&#x43e;" 
d="M883 537q0 184 -82 295.5t-232 111.5t-231.5 -111.5t-81.5 -295.5q0 -185 81.5 -297.5t231.5 -112.5t232 112.5t82 297.5zM1067 537q0 -264 -133 -417t-365 -153t-364.5 153t-132.5 417q0 262 132.5 414.5t364.5 152.5t365 -152.5t133 -414.5z" />
    <glyph glyph-name="afii10081" unicode="&#x43f;" 
d="M819 0v911h-500v-911h-184v1071h869v-1071h-185z" />
    <glyph glyph-name="afii10082" unicode="&#x440;" 
d="M125 -422v1493h184v-147h4q88 180 316 180q87 0 165 -34t139.5 -98t97.5 -166.5t36 -230.5q0 -608 -471 -608q-98 0 -175.5 47.5t-107.5 106.5h-4v-543h-184zM305 530q0 -182 72 -292.5t213 -110.5q146 0 219.5 110.5t73.5 292.5q0 190 -73 302t-220 112
q-141 0 -213 -112.5t-72 -301.5z" />
    <glyph glyph-name="afii10083" unicode="&#x441;" horiz-adv-x="1024" 
d="M805 377h172q-5 -53 -20 -104t-49 -108t-83 -99.5t-128.5 -70.5t-178.5 -28q-61 0 -120 16.5t-119 58t-105 103.5t-73.5 161.5t-28.5 223.5q0 129 38 238.5t101.5 182t148 113t177.5 40.5q97 0 174 -25.5t124 -65t79 -93.5t45.5 -104.5t17.5 -104.5h-172q-14 111 -77 172
t-171 61q-148 0 -224.5 -114.5t-76.5 -309.5q0 -405 289 -405q98 0 169 69.5t91 192.5z" />
    <glyph glyph-name="afii10084" unicode="&#x442;" horiz-adv-x="1024" 
d="M420 0v911h-369v160h922v-160h-369v-911h-184z" />
    <glyph glyph-name="afii10085" unicode="&#x443;" horiz-adv-x="1024" 
d="M420 -29l-397 1100h202l285 -872h4l285 872h202l-409 -1114q-33 -90 -57 -147t-51 -104t-50 -71.5t-56.5 -41.5t-68 -22t-86.5 -5q-56 0 -102 12v166q56 -18 108 -18q94 0 131 94z" />
    <glyph glyph-name="afii10086" unicode="&#x444;" horiz-adv-x="1703" 
d="M760 428v201q0 146 -67.5 230.5t-164.5 84.5q-95 0 -158 -56.5t-89.5 -145t-26.5 -205.5q1 -75 13.5 -143t41 -134t84 -105.5t131.5 -39.5q114 0 175 81.5t61 231.5zM760 -422v551h-4q-53 -94 -119.5 -128t-155.5 -34q-80 0 -153 38t-131 108t-92.5 181.5t-34.5 248.5
q0 85 14 164.5t46 152t78.5 126.5t116 86t154.5 32q163 0 277 -160h4v526h184v-526h4q114 160 277 160q85 0 154.5 -32t116 -86t78.5 -126.5t46 -152t14 -164.5q0 -137 -34.5 -248.5t-92.5 -181.5t-131 -108t-153 -38q-89 0 -155.5 34t-119.5 128h-4v-551h-184zM1176 115
q53 0 96.5 18.5t73 51.5t50.5 73.5t32.5 89.5t16.5 95t5 94q0 117 -26.5 205.5t-89.5 145t-158 56.5q-97 0 -164.5 -84.5t-67.5 -230.5v-201q0 -149 61 -231t171 -82z" />
    <glyph glyph-name="afii10087" unicode="&#x445;" horiz-adv-x="1024" 
d="M772 0l-272 399l-252 -399h-228l375 549l-356 522h231l254 -373l242 373h221l-362 -522l379 -549h-232z" />
    <glyph glyph-name="afii10088" unicode="&#x446;" 
d="M135 0v1071h184v-911h500v911h185v-911h102v-422h-172v262h-799z" />
    <glyph glyph-name="afii10089" unicode="&#x447;" horiz-adv-x="1101" 
d="M780 0v432q-147 -24 -266 -24q-219 0 -320.5 76.5t-101.5 252.5v334h184v-297q0 -121 62 -170t219 -49q140 0 223 29v487h185v-1071h-185z" />
    <glyph glyph-name="afii10090" unicode="&#x448;" horiz-adv-x="1593" 
d="M135 0v1071h184v-911h386v911h184v-911h385v911h184v-1071h-1323z" />
    <glyph glyph-name="afii10091" unicode="&#x449;" horiz-adv-x="1593" 
d="M1389 -262v262h-1254v1071h184v-911h386v911h184v-911h385v911h184v-911h103v-422h-172z" />
    <glyph glyph-name="afii10092" unicode="&#x44a;" horiz-adv-x="1251" 
d="M362 0v911h-335v160h520v-403h280q186 0 288 -89.5t102 -244.5q0 -156 -99.5 -245t-273.5 -89h-482zM547 520v-373h260q103 0 164 45.5t61 141.5q0 186 -241 186h-244z" />
    <glyph glyph-name="afii10093" unicode="&#x44b;" horiz-adv-x="1478" 
d="M1159 0v1071h184v-1071h-184zM135 0v1071h184v-403h322q174 0 273.5 -90t99.5 -244q0 -156 -99.5 -245t-273.5 -89h-506zM319 520v-373h285q103 0 164 45.5t61 141.5q0 186 -241 186h-269z" />
    <glyph glyph-name="afii10094" unicode="&#x44c;" horiz-adv-x="1024" 
d="M135 0v1071h184v-403h297q174 0 273.5 -90t99.5 -244q0 -156 -99.5 -245t-273.5 -89h-481zM319 520v-373h261q103 0 164 45.5t61 141.5q0 186 -242 186h-244z" />
    <glyph glyph-name="afii10095" unicode="&#x44d;" horiz-adv-x="1024" 
d="M387 457v147h369q-11 163 -84 251.5t-201 88.5q-111 0 -173.5 -60t-82.5 -149h-176q10 74 40 136t73 104.5t96.5 72t110.5 43t116 13.5q150 0 259 -72.5t163.5 -199t54.5 -293.5q0 -259 -125.5 -415.5t-351.5 -156.5q-174 0 -291.5 96t-156.5 287h188q11 -99 81.5 -161
t172.5 -62q70 0 126.5 30t90 79t51.5 106t19 115h-369z" />
    <glyph glyph-name="afii10096" unicode="&#x44e;" horiz-adv-x="1593" 
d="M1337 537q0 184 -81.5 295.5t-231.5 111.5t-231.5 -111.5t-81.5 -295.5q0 -185 81.5 -297.5t231.5 -112.5t231.5 112.5t81.5 297.5zM135 0v1071h184v-453h207q22 227 153.5 356.5t344.5 129.5q232 0 365 -152.5t133 -414.5q0 -264 -133 -417t-365 -153
q-218 0 -350.5 134.5t-147.5 369.5h-207v-471h-184z" />
    <glyph glyph-name="afii10097" unicode="&#x44f;" horiz-adv-x="1142" 
d="M1006 1071v-1071h-185v424h-237q-41 0 -60.5 -0.5t-50.5 -2.5t-45.5 -6t-35.5 -12t-30.5 -20t-21 -29.5t-16.5 -42t-7 -55.5l-8 -115q0 -2 -2 -20t-4.5 -36t-7.5 -42.5t-12 -42.5h-203q13 16 19 26.5t15 44.5t15 87l12 137q10 104 37 142.5t105 68.5q-172 62 -172 254
q0 89 40 155t97 103q39 24 95.5 37t92.5 14.5t94 1.5h476zM821 571v338h-280q-60 0 -81.5 -0.5t-47 -6t-47.5 -17.5q-33 -20 -52.5 -59t-19.5 -83q0 -35 10.5 -63.5t25 -46t39 -30.5t43.5 -19t48 -9t43.5 -3.5t38.5 -0.5h280z" />
    <glyph glyph-name="afii10071" unicode="&#x451;" 
d="M868 342h179q-11 -71 -48.5 -137.5t-96 -119.5t-142.5 -85.5t-180 -32.5q-109 0 -199.5 36t-158 105.5t-105 180.5t-37.5 254q0 113 30.5 208t80 159t113.5 108.5t129.5 65t129.5 20.5q228 0 362 -137.5t134 -403.5v-92h-783q2 -158 82.5 -251t219.5 -93q55 0 99.5 13.5
t74 33.5t53.5 50.5t37 57t26 60.5zM276 618h598q-3 155 -82.5 240.5t-213.5 85.5q-125 0 -209 -92t-93 -234zM313 1249v209h185v-209h-185zM641 1249v209h184v-209h-184z" />
    <glyph glyph-name="afii10099" unicode="&#x452;" 
d="M225 0v1028h-198v160h198v282h185v-282h469v-160h-469v-280q136 90 266 90q74 0 133.5 -24t97.5 -60.5t66 -91t41.5 -102t21.5 -108t9.5 -96t1.5 -77.5q0 -672 -457 -701v160q66 11 114.5 43t78.5 76.5t48 110t24.5 134.5t6.5 158q0 48 -1.5 85t-6.5 82.5t-14.5 79
t-26.5 67.5t-40 55.5t-57.5 35t-78.5 13.5q-113 0 -227 -92v-586h-185z" />
    <glyph glyph-name="afii10100" unicode="&#x453;" horiz-adv-x="794" 
d="M135 0v1071h625v-160h-441v-911h-184zM258 1212l182 295h224l-269 -295h-137z" />
    <glyph glyph-name="afii10101" unicode="&#x454;" horiz-adv-x="1024" 
d="M809 350h188q-39 -191 -156.5 -287t-291.5 -96q-226 0 -351.5 156.5t-125.5 415.5q0 167 54.5 293.5t163.5 199t259 72.5q59 0 116 -13.5t110.5 -43t96.5 -72t73 -104.5t40 -136h-176q-20 89 -82.5 149t-173.5 60q-128 0 -201 -88.5t-84 -251.5h369v-147h-369
q1 -58 19 -115t51.5 -106t90 -79t126.5 -30q102 0 172.5 62t81.5 161z" />
    <glyph glyph-name="afii10102" unicode="&#x455;" horiz-adv-x="1024" 
d="M72 338h172q11 -223 282 -223q121 0 187.5 49t66.5 127q0 48 -37 81t-96.5 51t-131.5 34t-144 37t-131.5 51t-96.5 85t-37 132q0 162 112.5 252t287.5 90q192 0 302 -94.5t112 -241.5h-172q-16 188 -252 188q-103 0 -160 -43t-57 -116q0 -50 37 -83.5t96.5 -51.5
t131.5 -33t143.5 -35t131 -49t96.5 -83.5t37 -131.5q0 -74 -27 -139t-78.5 -115.5t-134.5 -79.5t-188 -29q-208 0 -327 91t-125 280z" />
    <glyph glyph-name="afii10103" unicode="&#x456;" horiz-adv-x="454" 
d="M135 1249v209h184v-209h-184zM135 0v1071h184v-1071h-184z" />
    <glyph glyph-name="afii10104" unicode="&#x457;" horiz-adv-x="454" 
d="M135 0v1071h184v-1071h-184zM-29 1249v209h185v-209h-185zM299 1249v209h184v-209h-184z" />
    <glyph glyph-name="afii10105" unicode="&#x458;" horiz-adv-x="454" 
d="M-35 -416v154h35q86 0 110.5 25.5t24.5 97.5v1210h184v-1221q0 -64 -12.5 -110t-43 -84.5t-88 -58t-142.5 -19.5q-33 0 -68 6zM135 1249v209h184v-209h-184z" />
    <glyph glyph-name="afii10106" unicode="&#x459;" horiz-adv-x="1730" 
d="M842 0v911h-406l-16 -514q-6 -213 -71 -321.5t-208 -108.5q-68 0 -114 33v145q52 -18 79 -18q40 0 65 23.5t41.5 92t20.5 187.5l21 641h772v-403h246q185 0 287 -89t102 -245t-99.5 -245t-273.5 -89h-446zM1026 520v-373h221q103 0 164.5 45.5t61.5 141.5q0 186 -242 186
h-205z" />
    <glyph glyph-name="afii10107" unicode="&#x45a;" horiz-adv-x="1691" 
d="M817 0v520h-498v-520h-184v1071h184v-403h498v403h184v-403h236q185 0 287 -89t102 -245t-99.5 -245t-273.5 -89h-436zM1001 520v-373h216q103 0 164 45.5t61 141.5q0 186 -242 186h-199z" />
    <glyph glyph-name="afii10108" unicode="&#x45b;" 
d="M846 0v504q0 79 -37 121q-53 61 -137 61q-121 0 -262 -113v-573h-185v1028h-198v160h198v282h185v-282h469v-160h-469v-293q143 105 292 105q156 0 242 -77.5t86 -238.5v-524h-184z" />
    <glyph glyph-name="afii10109" unicode="&#x45c;" 
d="M152 0v1071h184v-508l541 508h241l-469 -432l477 -639h-237l-373 516l-180 -168v-348h-184zM471 1212l182 295h224l-269 -295h-137z" />
    <glyph glyph-name="afii10110" unicode="&#x45e;" horiz-adv-x="1024" 
d="M420 -29l-397 1100h202l285 -872h4l285 872h202l-409 -1114q-33 -90 -57 -147t-51 -104t-50 -71.5t-56.5 -41.5t-68 -22t-86.5 -5q-56 0 -102 12v166q56 -18 108 -18q94 0 131 94zM197 1507h100q35 -159 215 -159t215 159h100q-13 -124 -91.5 -203t-223.5 -79t-223.5 79
t-91.5 203z" />
    <glyph glyph-name="afii10193" unicode="&#x45f;" 
d="M135 0v1071h184v-911h500v911h185v-1071h-342v-262h-185v262h-342z" />
    <glyph glyph-name="afii10146" unicode="&#x462;" horiz-adv-x="1644" 
d="M463 0v1071h-434v172h434v227h196v-227h558v-172h-558v-207h392q258 0 386 -113.5t128 -318.5q0 -198 -123 -315t-342 -117h-637zM659 692v-520h414q283 0 283 260q0 140 -82.5 200t-243.5 60h-371z" />
    <glyph glyph-name="afii10194" unicode="&#x463;" horiz-adv-x="1251" 
d="M362 0v911h-335v160h335v399h185v-399h336v-160h-336v-243h297q174 0 273.5 -90t99.5 -244q0 -156 -99.5 -245t-273.5 -89h-482zM821 520h-274v-373h274q94 0 152.5 45.5t58.5 141.5q0 94 -59 140t-152 46z" />
    <glyph glyph-name="afii10147" unicode="&#x472;" horiz-adv-x="1593" 
d="M1513 735q0 -116 -27 -226.5t-85 -210t-140.5 -173.5t-202 -118t-261.5 -44t-261.5 44t-202.5 118t-141 173.5t-85 210t-27 226.5q0 229 84 402.5t247 271.5t386 98t386 -98t246.5 -271.5t83.5 -402.5zM1317 672h-1041q14 -249 147.5 -393t373.5 -144t373 143.5
t147 393.5zM281 844h1032q-25 223 -162 357t-354 134t-354 -134t-162 -357z" />
    <glyph glyph-name="afii10195" unicode="&#x473;" 
d="M879 457h-619q18 -152 97 -241t212 -89t212.5 89t97.5 241zM260 604h619q-14 156 -94.5 248t-215.5 92t-215 -92t-94 -248zM1067 537q0 -264 -133 -417t-365 -153t-364.5 153t-132.5 417q0 262 132.5 414.5t364.5 152.5t365 -152.5t133 -414.5z" />
    <glyph glyph-name="afii10148" unicode="&#x474;" horiz-adv-x="1366" 
d="M555 0l-518 1470h246l381 -1249h4l333 998q25 74 49 122.5t60 88.5t85.5 58.5t117.5 18.5q83 0 123 -30v-174q-42 32 -97 32q-68 0 -103.5 -50.5t-86.5 -199.5l-373 -1085h-221z" />
    <glyph glyph-name="afii10196" unicode="&#x475;" horiz-adv-x="1024" 
d="M375 0l-371 1071h191l282 -887h4l230 713q35 108 92.5 157.5t142.5 49.5q72 0 123 -23v-147q-37 22 -82 22q-48 0 -78.5 -35t-54.5 -104l-289 -817h-190z" />
    <glyph glyph-name="afii10050" unicode="&#x490;" 
d="M152 0v1470h776v281h172v-453h-752v-1298h-196z" />
    <glyph glyph-name="afii10098" unicode="&#x491;" horiz-adv-x="796" 
d="M135 0v1071h467v240h160v-400h-443v-911h-184z" />
    <glyph glyph-name="afii10846" unicode="&#x4d9;" 
d="M270 729h-178q11 71 48.5 137.5t96 119.5t142.5 85.5t180 32.5q109 0 199.5 -36t158 -105.5t105 -180.5t37.5 -254q0 -113 -30.5 -208t-80 -159t-113.5 -108.5t-130 -65t-130 -20.5q-227 0 -361 137.5t-134 403.5v92h782q-2 158 -82 251t-219 93q-68 0 -119.5 -18.5
t-84.5 -53.5t-51.5 -67t-35.5 -76zM862 453h-598q3 -155 83 -240.5t214 -85.5q125 0 208.5 92t92.5 234z" />
    <glyph glyph-name="endash" unicode="&#x2013;" 
d="M1139 641v-149h-1139v149h1139z" />
    <glyph glyph-name="emdash" unicode="&#x2014;" horiz-adv-x="2048" 
d="M2048 641v-149h-2048v149h2048z" />
    <glyph glyph-name="quoteleft" unicode="&#x2018;" horiz-adv-x="454" 
d="M346 1180v-217h-213v200q0 130 48 212t165 110v-96q-37 -6 -61 -28t-33 -58t-11.5 -61t-2.5 -62h108z" />
    <glyph glyph-name="quoteright" unicode="&#x2019;" horiz-adv-x="454" 
d="M109 1253v217h213v-200q0 -130 -48 -212t-165 -110v96q37 6 61 28t33 58t11.5 61t2.5 62h-108z" />
    <glyph glyph-name="quotesinglbase" unicode="&#x201a;" horiz-adv-x="454" 
d="M109 0v217h213v-201q0 -129 -48 -211t-165 -110v96q37 6 61 28t33 58t11.5 61t2.5 62h-108z" />
    <glyph glyph-name="quotedblleft" unicode="&#x201c;" horiz-adv-x="681" 
d="M629 1180v-217h-213v200q0 130 48 212t165 110v-96q-37 -6 -61 -28t-33.5 -58t-12 -61.5t-2.5 -61.5h109zM291 1180v-217h-213v200q0 130 48 212t165 110v-96q-37 -6 -61 -28t-33.5 -58t-12 -61.5t-2.5 -61.5h109z" />
    <glyph glyph-name="quotedblright" unicode="&#x201d;" horiz-adv-x="681" 
d="M53 1253v217h213v-200q0 -130 -48 -212t-165 -110v96q37 6 61 28t33.5 58t12 61.5t2.5 61.5h-109zM391 1253v217h213v-200q0 -130 -48 -212t-165 -110v96q37 6 61 28t33.5 58t12 61.5t2.5 61.5h-109z" />
    <glyph glyph-name="quotedblbase" unicode="&#x201e;" horiz-adv-x="681" 
d="M53 0v217h213v-201q0 -129 -48 -211t-165 -110v96q37 6 61 28t33.5 58t12 61.5t2.5 61.5h-109zM391 0v217h213v-201q0 -129 -48 -211t-165 -110v96q37 6 61 28t33.5 58t12 61.5t2.5 61.5h-109z" />
    <glyph glyph-name="dagger" unicode="&#x2020;" 
d="M668 883v-1209h-193v1209h-387v155h387v432h193v-432h385v-155h-385z" />
    <glyph glyph-name="daggerdbl" unicode="&#x2021;" 
d="M668 899v-655h385v-156h-385v-414h-193v414h-387v156h387v655h-387v156h387v415h193v-415h385v-156h-385z" />
    <glyph glyph-name="bullet" unicode="&#x2022;" horiz-adv-x="716" 
d="M682 735q0 -133 -95 -227t-229 -94t-227.5 93t-93.5 228q0 134 93.5 229t227.5 95t229 -95.5t95 -228.5z" />
    <glyph glyph-name="ellipsis" unicode="&#x2026;" horiz-adv-x="2048" 
d="M449 217v-217h-213v217h213zM1130 217v-217h-212v217h212zM1812 217v-217h-213v217h213z" />
    <glyph glyph-name="perthousand" unicode="&#x2030;" horiz-adv-x="2048" 
d="M14 1104q0 133 94 226t226 93t225.5 -93.5t93.5 -225.5t-93 -226t-226 -94t-226.5 93t-93.5 227zM143 1104q0 -79 55 -135t136 -56q78 0 134 56.5t56 134.5q0 79 -56 134.5t-134 55.5q-81 0 -136 -56t-55 -134zM653 305q0 133 94 226.5t226 93.5t225.5 -94t93.5 -226
t-93 -225.5t-226 -93.5t-226.5 92.5t-93.5 226.5zM782 305q0 -79 55 -134.5t136 -55.5q78 0 134 56t56 134q0 79 -56 135t-134 56q-81 0 -136 -56.5t-55 -134.5zM1397 305q0 133 93.5 226.5t225.5 93.5t226 -94t94 -226t-93.5 -225.5t-226.5 -93.5t-226 92.5t-93 226.5z
M1526 305q0 -79 54.5 -134.5t135.5 -55.5q78 0 134.5 56t56.5 134q0 79 -56.5 135t-134.5 56q-80 0 -135 -56.5t-55 -134.5zM1114 1440l-813 -1479h-113l813 1479h113z" />
    <glyph glyph-name="guilsinglleft" unicode="&#x2039;" horiz-adv-x="681" 
d="M502 401v-180l-322 252v189l322 251v-180l-215 -166z" />
    <glyph glyph-name="guilsinglright" unicode="&#x203a;" horiz-adv-x="681" 
d="M180 221v180l215 166l-215 166v180l322 -251v-189z" />
    <glyph glyph-name="fraction" unicode="&#x2044;" horiz-adv-x="342" 
d="M682 1440l-905 -1479h-117l905 1479h117z" />
    <glyph glyph-name="Euro" unicode="&#x20ac;" 
d="M1108 1286l-66 -192q-42 82 -124 133t-205 51q-76 0 -136 -32t-96.5 -86.5t-57 -117.5t-26.5 -133h584l-49 -147h-541v-146h490l-50 -147h-428q10 -154 95 -250t204 -96q104 0 206.5 49t133.5 96v-202q-15 -13 -52 -34t-116 -46t-157 -25q-217 0 -345.5 129.5
t-160.5 378.5h-162l51 147h99v146h-148l51 147h105q25 255 156 393t362 138q129 0 231 -43.5t152 -110.5z" />
    <glyph glyph-name="afii61289" unicode="&#x2113;" horiz-adv-x="1001" 
d="M877 303l79 -72q-137 -260 -389 -260q-86 0 -151.5 29.5t-105 81.5t-61 116.5t-26.5 141.5v27q-19 -15 -57 -47.5t-57 -47.5l-52 97q10 9 72.5 61t91.5 80v551q0 134 27.5 233t74.5 154.5t102.5 81.5t119.5 26q126 0 192 -94.5t66 -240.5q0 -182 -108 -364t-310 -380v-69
q1 -151 62.5 -226.5t154.5 -75.5q86 0 158 58.5t117 138.5zM385 1071v-428q303 335 303 576q0 211 -141 211q-65 0 -113.5 -86t-48.5 -273z" />
    <glyph glyph-name="afii61352" unicode="&#x2116;" horiz-adv-x="2048" 
d="M1438 776q0 -118 56.5 -193t152.5 -75t152 75t56 193t-56 193t-152 75t-152.5 -75t-56.5 -193zM1253 776q0 200 112.5 308t281.5 108t281 -108t112 -308t-112 -308t-281 -108t-281.5 108t-112.5 308zM1296 61v160h701v-160h-701zM25 0v1470h213l692 -1179h4v1179h184
v-1470h-213l-692 1180h-4v-1180h-184z" />
    <glyph glyph-name="trademark" unicode="&#x2122;" horiz-adv-x="2048" 
d="M1141 1470l241 -620l238 620h229v-843h-149v686h-4l-264 -686h-103l-264 686h-4v-686h-150v843h230zM764 1470v-122h-260v-721h-150v721h-260v122h670z" />
    <glyph glyph-name="Omega" unicode="&#x2126;" horiz-adv-x="1470" 
d="M397 141v4q-118 106 -195 266.5t-77 358.5q0 194 79.5 349t220 242t314.5 87q136 0 251 -56t190.5 -149t118 -213.5t42.5 -249.5q0 -205 -80 -371t-196 -264v-4h305v-141h-500v104q126 81 211.5 247.5t85.5 396.5q0 101 -28 198.5t-79.5 178.5t-135 130.5t-185.5 49.5
q-131 0 -232 -76t-154.5 -203.5t-53.5 -284.5q0 -216 87 -388.5t210 -248.5v-104h-500v141h301z" />
    <glyph glyph-name="estimated" unicode="&#x212e;" horiz-adv-x="1781" 
d="M1712 680h-1331q-10 0 -10 -8v-404q0 -27 18 -45q100 -103 229 -161t273 -58q156 0 293 65t237 179h117q-111 -131 -282.5 -208t-366.5 -77q-167 0 -318.5 58t-261 157t-174.5 235.5t-65 286.5t65 287t174.5 236.5t261 158t318.5 58.5q168 0 320.5 -58.5t262.5 -158
t175 -236.5t65 -287v-20zM1409 733v404q0 28 -18 49q-100 98 -228.5 153.5t-271.5 55.5q-142 0 -271 -58t-229 -159q-20 -17 -20 -50v-395q0 -14 10 -14h1020q8 0 8 14z" />
    <glyph glyph-name="partialdiff" unicode="&#x2202;" 
d="M209 1176l-105 127q55 41 96.5 66t112.5 47t150 22q157 0 274 -74t187 -199q96 -174 96 -454q0 -60 -3.5 -117t-17 -134.5t-35 -142.5t-61.5 -132t-93.5 -113t-133.5 -75.5t-178 -29.5q-93 0 -170.5 29t-128 76.5t-85.5 109.5t-50 125.5t-15 128.5q0 192 122 321.5
t321 129.5q85 0 172 -30t147 -107q2 75 -4.5 141t-28.5 137t-58 123t-99 89t-146 44q-82 0 -153.5 -33.5t-112.5 -74.5zM524 727q-78 0 -134.5 -27t-86.5 -72.5t-43.5 -96t-13.5 -107.5q0 -154 72.5 -225.5t189.5 -71.5q80 0 140.5 39t95.5 106t51 149t14 175
q-41 46 -118.5 88.5t-166.5 42.5z" />
    <glyph glyph-name="Delta" unicode="&#x2206;" horiz-adv-x="1228" 
d="M926 172l-342 866l-391 -866h733zM0 0l655 1438l574 -1438h-1229z" />
    <glyph glyph-name="product" unicode="&#x220f;" horiz-adv-x="1437" 
d="M1382 1270h-221v-1467h-168v1467h-551v-1467h-168v1467h-221v153h1329v-153z" />
    <glyph glyph-name="summation" unicode="&#x2211;" horiz-adv-x="1132" 
d="M1087 -197h-1040v113l541 696l-518 693v118h987v-145h-752v-8l477 -633l-518 -666v-6h823v-162z" />
    <glyph glyph-name="minus" unicode="&#x2212;" horiz-adv-x="1196" 
d="M1116 442h-1036v150h1036v-150z" />
    <glyph glyph-name="uni2215" unicode="&#x2215;" horiz-adv-x="342" 
d="M682 1440l-905 -1479h-117l905 1479h117z" />
    <glyph glyph-name="uni2219" unicode="&#x2219;" horiz-adv-x="569" 
d="M287 645q49 0 88 -37.5t39 -91.5q0 -51 -37.5 -89t-91.5 -38q-52 0 -89.5 38t-37.5 89q0 56 38.5 92.5t90.5 36.5z" />
    <glyph glyph-name="radical" unicode="&#x221a;" horiz-adv-x="1052" 
d="M141 154l-67 178l235 135l205 -541l246 1512h184l-311 -1860h-172l-240 623z" />
    <glyph glyph-name="infinity" unicode="&#x221e;" horiz-adv-x="1669" 
d="M836 406q-54 -56 -83 -83.5t-79.5 -65.5t-102.5 -54.5t-112 -16.5q-148 0 -243 96.5t-95 254.5q0 83 28 150.5t74.5 110t105.5 65t124 22.5q53 0 104 -16t86 -36t76 -57.5t61.5 -60.5t55.5 -64q43 52 77 86.5t83 72.5t105 57.5t118 19.5q60 0 116.5 -20.5t105 -61.5
t78 -110.5t29.5 -157.5q0 -154 -91 -253.5t-240 -99.5q-107 0 -194 56t-187 166zM948 530q78 -86 142 -123.5t127 -37.5q23 0 47.5 8t49.5 25t40.5 50.5t15.5 79.5q0 83 -47 126.5t-111 43.5q-49 0 -110.5 -36t-153.5 -136zM721 530q-48 53 -100 93q-91 77 -170 77
q-61 0 -106.5 -45t-45.5 -123q0 -76 44 -118.5t114 -42.5q51 0 108.5 31.5t91 62t64.5 65.5z" />
    <glyph glyph-name="integral" unicode="&#x222b;" horiz-adv-x="743" 
d="M707 1716l-25 -119q-32 21 -76 21q-66 0 -102 -49q-37 -43 -52.5 -128.5t-15.5 -232.5q0 -159 14.5 -502.5t14.5 -515.5q0 -277 -86 -409q-32 -56 -89 -84.5t-122 -28.5q-75 0 -139 33l28 123q52 -23 93 -23q58 0 94 45q67 88 67 347q0 172 -14 521.5t-14 510.5
q0 170 25.5 272t84.5 166q79 82 201 82q30 0 63 -9.5t50 -19.5z" />
    <glyph glyph-name="approxequal" unicode="&#x2248;" horiz-adv-x="1228" 
d="M215 569l-74 144q94 178 256 178q90 0 238 -72q146 -71 199 -71q30 0 57 12.5t51.5 40.5t36.5 44t35 52l73 -143q-31 -43 -52 -68t-53.5 -54.5t-69.5 -43t-81 -13.5q-38 0 -79 11.5t-66.5 24t-69.5 36.5q-42 23 -70.5 36t-72 24.5t-86.5 11.5q-61 0 -101.5 -41.5
t-70.5 -108.5zM215 139l-74 144q94 178 256 178q90 0 238 -72t199 -72q30 0 56.5 12.5t52 41t36.5 44t35 52.5l73 -143q-31 -43 -52 -68t-53.5 -54.5t-69.5 -43t-81 -13.5q-38 0 -79 11.5t-66.5 24t-69.5 36.5q-42 23 -70.5 36t-72 24.5t-86.5 11.5q-61 0 -101.5 -41.5
t-70.5 -108.5z" />
    <glyph glyph-name="notequal" unicode="&#x2260;" horiz-adv-x="1228" 
d="M96 217v172h353l133 258h-486v172h574l112 217h197l-113 -217h267v-172h-355l-133 -258h488v-172h-576l-111 -217h-196l110 217h-264z" />
    <glyph glyph-name="lessequal" unicode="&#x2264;" horiz-adv-x="1228" 
d="M1133 344v-172l-1037 385v172l1037 385v-172l-805 -299zM1133 74v-172h-1037v172h1037z" />
    <glyph glyph-name="greaterequal" unicode="&#x2265;" horiz-adv-x="1228" 
d="M96 172v172l805 299l-805 299v172l1037 -385v-172zM96 -98v172h1037v-172h-1037z" />
    <glyph glyph-name="lozenge" unicode="&#x25ca;" horiz-adv-x="1177" 
d="M1065 711l-412 -805h-137l-405 805l411 807h137zM911 707l-282 559q-30 74 -39 108h-6q-10 -41 -39 -108l-281 -551l285 -563q31 -79 35 -105h8q14 61 37 103z" />
    <glyph glyph-name="afii10066.ital" unicode="&#xf6c5;" 
d="M831 1481h140q-5 -33 -13.5 -59.5t-18 -46.5t-26.5 -35.5t-30 -25.5t-37.5 -17.5t-40 -11.5t-47 -7t-49 -4t-54.5 -2l-157 -6q-39 -1 -62 -2.5t-55 -7t-50 -16t-31 -30t-13 -47.5q0 -22 7 -38.5t24 -27t33 -16.5t47.5 -9t52 -3.5l61.5 -1.5q76 -1 115.5 -3.5t97.5 -13
t103.5 -34.5t89.5 -64q149 -141 149 -411q0 -79 -12.5 -153t-47 -153t-89 -137t-145.5 -95.5t-208 -37.5q-92 0 -167.5 24t-125.5 62t-88 90.5t-58.5 103.5t-33.5 108t-16.5 96.5t-3.5 76.5q0 83 17 153t38.5 112t56.5 80.5t54.5 53t48.5 33.5q-19 5 -31 9t-38 19t-42 34.5
t-29.5 55.5t-13.5 81q0 51 15.5 92t38 67.5t58 45.5t64.5 28.5t69.5 15.5t62 7t51.5 2l133 4q97 3 132.5 7.5t50 15t23.5 39.5zM883 545q0 25 -3.5 55t-13.5 76t-32 86.5t-54.5 78t-87 59.5t-123.5 22q-82 0 -142.5 -31.5t-92.5 -76t-51 -105t-24 -104t-5 -87.5
q0 -59 8.5 -112.5t30.5 -108.5t56 -94.5t90.5 -64.5t129.5 -25q74 0 130.5 25.5t90.5 66t55.5 98.5t29.5 116t8 126z" />
    <glyph glyph-name="acute.cap" unicode="&#xf6c9;" horiz-adv-x="569" 
d="M88 1567l182 295h224l-269 -295h-137z" />
    <glyph glyph-name="caron.cap" unicode="&#xf6ca;" horiz-adv-x="569" 
d="M190 1567l-202 295h162l135 -197l135 197h162l-203 -295h-189z" />
    <glyph glyph-name="dieresis.cap" unicode="&#xf6cb;" horiz-adv-x="569" 
d="M29 1567v209h184v-209h-184zM356 1567v209h185v-209h-185z" />
    <glyph glyph-name="space_uni0308_uni0301.cap" unicode="&#xf6cc;" horiz-adv-x="569" 
d="M-84 1567v209h172v-209h-172zM481 1567v209h172v-209h-172zM166 1567l80 295h223l-166 -295h-137z" />
    <glyph glyph-name="space_uni0308_uni0300.cap" unicode="&#xf6cd;" horiz-adv-x="569" 
d="M653 1776v-209h-172v209h172zM88 1776v-209h-172v209h172zM324 1862l79 -295h-137l-166 295h224z" />
    <glyph glyph-name="grave.cap" unicode="&#xf6ce;" horiz-adv-x="569" 
d="M229 1567l-268 295h223l183 -295h-138z" />
    <glyph glyph-name="hungarumlaut.cap" unicode="&#xf6cf;" horiz-adv-x="569" 
d="M260 1567l182 295h224l-269 -295h-137zM-72 1567l183 295h223l-268 -295h-138z" />
    <glyph glyph-name="macron.cap" unicode="&#xf6d0;" horiz-adv-x="569" 
d="M604 1683v-116h-639v116h639z" />
    <glyph glyph-name="breve.cyrcap" unicode="&#xf6d1;" horiz-adv-x="569" 
d="M-31 1849h101q35 -159 215 -159t215 159h100q-13 -124 -91.5 -203t-223.5 -79t-224 79t-92 203z" />
    <glyph glyph-name="circumflex.cyrcap" unicode="&#xf6d2;" horiz-adv-x="569" 
d="M70 1567h-101q13 124 92 203t224 79t223.5 -79t91.5 -203h-100q-35 159 -215 159t-215 -159z" />
    <glyph glyph-name="space_uni030F" unicode="&#xf6d3;" horiz-adv-x="454" 
d="M477 1212l-268 295h223l182 -295h-137zM109 1212l-269 295h223l183 -295h-137z" />
    <glyph glyph-name="breve.cyr" unicode="&#xf6d4;" horiz-adv-x="454" 
d="M-88 1495h100q36 -160 215 -160t215 160h101q-13 -124 -92 -203.5t-224 -79.5t-223.5 79.5t-91.5 203.5z" />
    <glyph glyph-name="circumflex.cyr" unicode="&#xf6d5;" horiz-adv-x="454" 
d="M12 1212h-100q13 124 91.5 203.5t223.5 79.5t224 -79.5t92 -203.5h-101q-36 160 -215 160t-215 -160z" />
    <glyph glyph-name="space_uni030F.cap" unicode="&#xf6d6;" horiz-adv-x="569" 
d="M535 1567l-269 295h223l183 -295h-137zM166 1567l-268 295h223l182 -295h-137z" />
    <glyph glyph-name="space_uni0308_uni0301" unicode="&#xf6d7;" horiz-adv-x="454" 
d="M-141 1212v209h172v-209h-172zM424 1212v209h172v-209h-172zM109 1212l79 295h224l-166 -295h-137z" />
    <glyph glyph-name="space_uni0308_uni0300" unicode="&#xf6d8;" horiz-adv-x="454" 
d="M596 1421v-209h-172v209h172zM31 1421v-209h-172v209h172zM266 1507l80 -295h-137l-166 295h223z" />
    <glyph glyph-name="f_i" unicode="&#xfb01;" horiz-adv-x="1024" 
d="M537 922h-181v-922h-180v922h-147v149h147v184q0 119 72 177.5t207 58.5q24 0 82 -4v-162q-46 4 -74 4q-58 0 -82.5 -29.5t-24.5 -95.5v-133h181v-149zM889 1071v-1071h-180v1071h180zM889 1266h-180v204h180v-204z" />
    <glyph glyph-name="f_l" unicode="&#xfb02;" horiz-adv-x="1024" 
d="M537 922h-181v-922h-180v922h-147v149h147v184q0 119 72 177.5t207 58.5q24 0 82 -4v-162q-46 4 -74 4q-58 0 -82.5 -29.5t-24.5 -95.5v-133h181v-149zM885 1470v-1470h-180v1470h180z" />
    </font>
</defs>
</svg>
