<?xml version="1.0" standalone="no"?>
<!DOCTYPE svg PUBLIC "-//W3C//DTD SVG 1.1//EN" "http://www.w3.org/Graphics/SVG/1.1/DTD/svg11.dtd" >
<svg xmlns="http://www.w3.org/2000/svg" xmlns:xlink="http://www.w3.org/1999/xlink" version="1.1">
<metadata>
Created by FontForge 20201107 at Wed Jun 18 20:41:09 2025
 By 
Copyright (c) 1985, 1987, 1989, 1990, 1997, 1998, 1999, 2002 Adobe Systems Incorporated.  All Rights Reserved. (c) 1981, 1999, 2002 Heidelberger Druckmaschinen AG. All rights reserved.
</metadata>
<defs>
<font id="HelveticaLTStd-Bold" horiz-adv-x="1138" >
  <font-face 
    font-family="Helvetica LT Std"
    font-weight="700"
    font-stretch="normal"
    units-per-em="2048"
    panose-1="2 11 7 4 2 2 2 3 2 4"
    ascent="1470"
    descent="-578"
    x-height="1090"
    cap-height="1470"
    bbox="-348 -467 2054 1970"
    underline-thickness="102"
    underline-position="-204"
    unicode-range="U+0020-FB02"
  />
<missing-glyph horiz-adv-x="1024" 
d="M0 0v1434h1024v-1434h-1024zM512 809l348 522h-696zM573 717l349 -522v1044zM164 102h696l-348 523zM102 1239v-1044l349 522z" />
    <glyph glyph-name=".notdef" horiz-adv-x="1024" 
d="M0 0v1434h1024v-1434h-1024zM512 809l348 522h-696zM573 717l349 -522v1044zM164 102h696l-348 523zM102 1239v-1044l349 522z" />
    <glyph glyph-name=".null" horiz-adv-x="0" 
 />
    <glyph glyph-name="nonmarkingreturn" horiz-adv-x="682" 
 />
    <glyph glyph-name="space" unicode=" " horiz-adv-x="569" 
 />
    <glyph glyph-name="exclam" unicode="!" horiz-adv-x="681" 
d="M492 289v-289h-299v289h299zM500 1096l-82 -688h-152l-82 688v374h316v-374z" />
    <glyph glyph-name="quotedbl" unicode="&#x22;" horiz-adv-x="970" 
d="M569 915v555h201v-555h-201zM201 915v555h200v-555h-200z" />
    <glyph glyph-name="numbersign" unicode="#" 
d="M1042 592l-24 -184h-199l-57 -408h-193l58 408h-199l-57 -408h-193l58 408h-199l24 184h199l35 246h-199l25 184h198l58 408h192l-57 -408h199l57 408h193l-58 -408h199l-25 -184h-198l-35 -246h198zM686 838h-199l-34 -246h198z" />
    <glyph glyph-name="dollar" unicode="$" 
d="M1049 1026h-265q-4 68 -19 112t-40 64.5t-49.5 27.5t-59.5 7v-383q258 -82 342 -162q113 -106 113 -286q0 -59 -14.5 -116.5t-49 -114.5t-85 -101t-129.5 -74t-177 -35v-201h-94v201q-247 20 -354 132t-107 343h269q5 -61 13 -98t28 -72.5t56.5 -56t94.5 -31.5v430
q-50 13 -87.5 25t-85 31.5t-81.5 40.5t-69.5 53t-57 69t-35.5 87.5t-14 109.5q0 85 27 160t78.5 134.5t135 95t189.5 36.5v133h94v-133q40 -4 71.5 -9.5t76.5 -18.5t79 -32t72 -51.5t64 -74.5t45 -104t25 -138zM522 883v354q-84 -4 -128 -53t-44 -107q0 -155 172 -194z
M616 578v-396q29 2 57.5 11.5t58 30.5t47.5 62t18 97q0 144 -181 195z" />
    <glyph glyph-name="percent" unicode="%" horiz-adv-x="1820" 
d="M268 1081q0 -67 48 -114t114 -47t114 47t48 114t-48 114.5t-114 47.5t-114 -47.5t-48 -114.5zM57 1081q0 155 109.5 264t263.5 109q153 0 263 -110t110 -263q0 -154 -110 -263t-263 -109q-155 0 -264 108t-109 264zM1389 1454l-816 -1493h-151l815 1493h152zM1018 348
q0 155 109.5 264t263.5 109q153 0 262.5 -109.5t109.5 -263.5q0 -155 -109.5 -264t-262.5 -109q-154 0 -263.5 108.5t-109.5 264.5zM1229 348q0 -67 48 -114.5t114 -47.5t113.5 47.5t47.5 114.5t-47.5 114.5t-113.5 47.5t-114 -47.5t-48 -114.5z" />
    <glyph glyph-name="ampersand" unicode="&#x26;" horiz-adv-x="1478" 
d="M795 1133q0 59 -34 89.5t-89 30.5q-50 0 -84.5 -31t-34.5 -87q0 -70 106 -185q136 85 136 183zM1169 322l267 -322h-346l-101 125q-77 -77 -173 -120.5t-247 -43.5q-102 0 -189.5 34.5t-145.5 92.5t-90.5 133.5t-32.5 157.5q0 59 10.5 107t38.5 103.5t86.5 110
t146.5 107.5l31 18q-133 153 -133 308q0 150 109.5 243.5t281.5 93.5q50 0 99.5 -12.5t97 -39.5t83.5 -66t58 -96.5t22 -125.5q0 -59 -21 -113t-46.5 -89t-66 -70t-60.5 -48t-49 -30l209 -258q62 96 75 242h254q-13 -144 -52 -242.5t-116 -199.5zM842 305l-271 338
q-55 -40 -80 -60.5t-51 -50.5t-34.5 -61t-8.5 -74q0 -25 10.5 -55t33 -63t68 -54.5t105.5 -21.5q117 0 228 102z" />
    <glyph glyph-name="quotesingle" unicode="'" horiz-adv-x="487" 
d="M143 915v555h201v-555h-201z" />
    <glyph glyph-name="parenleft" unicode="(" horiz-adv-x="681" 
d="M643 -426h-211q-76 102 -134.5 200.5t-112.5 220t-83.5 259.5t-29.5 281q0 144 28.5 281.5t81.5 259t112.5 222.5t137.5 205h211q-65 -110 -110.5 -207t-85.5 -216t-60 -255t-20 -290q0 -153 21 -289.5t62 -255.5t85 -212.5t108 -203.5z" />
    <glyph glyph-name="parenright" unicode=")" horiz-adv-x="681" 
d="M39 1503h211q76 -103 134.5 -200.5t112.5 -219t83.5 -259.5t29.5 -281q0 -144 -28.5 -281.5t-81.5 -259.5t-113 -223t-137 -205h-211q65 110 111 207t85.5 216.5t59.5 255.5t20 290q0 153 -21 289t-62 255.5t-85 212.5t-108 203z" />
    <glyph glyph-name="asterisk" unicode="*" horiz-adv-x="796" 
d="M692 1296l49 -149l-215 -66l142 -198l-129 -90l-140 186l-141 -186l-129 90l139 198l-213 66l47 149l209 -69v243h174v-243z" />
    <glyph glyph-name="plus" unicode="+" horiz-adv-x="1196" 
d="M483 633v403h230v-403h401v-230h-401v-403h-230v403h-401v230h401z" />
    <glyph glyph-name="comma" unicode="," horiz-adv-x="569" 
d="M438 299v-258q0 -92 -22.5 -160t-65.5 -112t-95 -70.5t-122 -42.5h-2v108q37 13 60 25t50.5 37.5t42.5 69t19 104.5h-172v299h307z" />
    <glyph glyph-name="hyphen" unicode="-" horiz-adv-x="681" 
d="M627 707v-267h-572v267h572z" />
    <glyph glyph-name="period" unicode="." horiz-adv-x="569" 
d="M438 299v-299h-307v299h307z" />
    <glyph glyph-name="slash" unicode="/" horiz-adv-x="569" 
d="M637 1509l-465 -1548h-240l465 1548h240z" />
    <glyph glyph-name="zero" unicode="0" 
d="M66 709q0 382 123 563.5t380 181.5t380.5 -181.5t123.5 -563.5t-123.5 -565t-380.5 -183t-380 183t-123 565zM360 709q0 -288 44.5 -403.5t164.5 -115.5t164.5 115.5t44.5 403.5q0 287 -44 401.5t-165 114.5t-165 -114.5t-44 -401.5z" />
    <glyph glyph-name="one" unicode="1" 
d="M141 1001v201h41q98 0 170.5 23.5t110.5 62.5t56 80t20 86h235v-1454h-287v1001h-346z" />
    <glyph glyph-name="two" unicode="2" 
d="M348 940h-278q0 97 20 177t51 132t75.5 91.5t87 60.5t91.5 33.5t82.5 16t67.5 3.5q141 0 253 -52.5t179 -158t67 -248.5q0 -72 -19 -136.5t-46 -110t-71.5 -91t-80 -73t-86.5 -62.5q-204 -142 -248 -180q-58 -49 -77 -88h631v-254h-994q3 47 5.5 74t11 74t21.5 79.5
t38 79.5t59 87t85.5 88t117.5 96q194 141 251 193q92 86 110 173q6 29 6 62q0 81 -52 143.5t-149 62.5q-42 0 -75 -10t-54 -24.5t-36.5 -39.5t-23.5 -46t-12.5 -52.5t-5.5 -50.5t-2 -49z" />
    <glyph glyph-name="three" unicode="3" 
d="M436 637v205h45q34 0 59.5 2t63 13t61.5 30.5t42 58t18 92.5q0 19 -3.5 40t-15.5 48.5t-30.5 48.5t-53 35.5t-79.5 14.5q-197 0 -197 -238h-266q0 103 29.5 187.5t87.5 147.5t151 97.5t213 34.5q62 0 122 -12t120.5 -42.5t106 -75t74 -116t28.5 -159.5
q0 -102 -51.5 -173.5t-122.5 -103.5v-4q20 -5 43 -16t56 -37.5t58 -62t43.5 -94t18.5 -128.5q0 -206 -138.5 -337.5t-357.5 -131.5q-37 0 -72 2.5t-88 14t-97.5 30.5t-92 56t-80.5 86.5t-54.5 125.5t-21.5 170h281l-2 -2q0 -29 3.5 -57t16.5 -65.5t34.5 -65t62.5 -47
t96 -19.5q92 0 153.5 62t61.5 178q0 36 -8 66t-24.5 50.5t-35 36.5t-46 25.5t-50.5 15.5t-55 8.5t-54.5 3.5t-52.5 1z" />
    <glyph glyph-name="four" unicode="4" 
d="M266 545h363q0 155 1.5 299.5t3 229.5t1.5 95h-4zM1077 545v-223h-162v-322h-286v322h-574v247l535 885h325v-909h162z" />
    <glyph glyph-name="five" unicode="5" 
d="M408 1188l-52 -316q35 24 61 38t79.5 28t119.5 14q77 0 152 -27.5t141 -81t107 -147.5t41 -213q0 -54 -10 -108.5t-32 -115t-62.5 -112.5t-96.5 -94.5t-140.5 -67t-187.5 -24.5q-87 0 -168 26.5t-148 77t-109.5 134.5t-47.5 190h287q9 -93 60 -146t143 -53
q100 0 158.5 76.5t58.5 196.5q0 108 -53.5 184t-159.5 76q-136 0 -193 -105l-256 13l101 799h798v-242h-591z" />
    <glyph glyph-name="six" unicode="6" 
d="M1036 1085h-284q-6 64 -48.5 102t-119.5 38q-219 0 -240 -402l4 -4q89 121 273 121q108 0 195.5 -39t140 -104t80.5 -143t28 -162q0 -237 -132 -384t-343 -147q-92 0 -167.5 22t-129.5 59.5t-95 93t-66.5 116.5t-41 137t-21.5 148t-6 155q0 71 3.5 130t16 140.5t34.5 146
t63 131.5t96 112t139.5 73.5t188.5 28.5q64 0 157 -23.5t140 -70.5q63 -61 89.5 -112.5t45.5 -162.5zM778 467q0 66 -19.5 115.5t-51.5 76t-67 39.5t-71 13q-92 0 -155.5 -61.5t-63.5 -188.5q0 -119 63 -195t165 -76q85 0 142.5 69t57.5 208z" />
    <glyph glyph-name="seven" unicode="7" 
d="M1081 1430v-222q-37 -41 -72 -82.5t-87.5 -113.5t-97 -146t-93.5 -175t-84.5 -204t-62 -230.5t-33.5 -256.5h-295q9 165 55 333t104.5 294.5t132.5 245.5t127 186.5t99 116.5h-723l6 254h1024z" />
    <glyph glyph-name="eight" unicode="8" 
d="M571 864q83 0 131 50t48 130q0 81 -48.5 131t-119.5 50q-94 0 -145.5 -49.5t-51.5 -131.5q0 -71 49.5 -125.5t136.5 -54.5zM1073 432q0 -59 -15 -120t-52 -125t-92.5 -113.5t-145 -81t-199.5 -31.5q-108 0 -195.5 27t-144 71t-94 102.5t-53.5 118.5t-16 123q0 28 1.5 47
t6.5 58t19.5 70.5t37.5 68t63 69t93 56.5q-176 87 -176 285q0 121 60 212t162 138t230 47q216 0 338.5 -110t122.5 -269q0 -205 -168 -293q111 -56 164 -135.5t53 -214.5zM778 420q0 41 -11 79t-35 72.5t-67 55t-100 20.5q-86 0 -145.5 -57t-59.5 -168q0 -105 57 -168.5
t154 -63.5q54 0 95.5 21.5t65 56.5t35 73.5t11.5 78.5z" />
    <glyph glyph-name="nine" unicode="9" 
d="M348 973q0 -79 17.5 -133.5t49.5 -82t67.5 -39t80.5 -11.5q39 0 75.5 14t67.5 42.5t49.5 76.5t18.5 110q0 127 -55.5 198t-163.5 71q-25 0 -50 -5t-54.5 -21.5t-51.5 -42.5t-36.5 -71.5t-14.5 -105.5zM90 336h285v-2q12 -73 56 -108.5t112 -35.5q37 0 70.5 12.5t64.5 43
t53.5 76t36 115.5t14.5 159l-4 4q-83 -123 -276 -123q-135 0 -237 63.5t-153 165.5t-51 226q0 130 37 231t104 164t157 95t198 32q81 0 150 -19.5t118 -50.5t88.5 -79t64.5 -94.5t43 -108.5t27 -109.5t14 -109.5t6 -96t1 -80q0 -163 -30 -293t-80 -213.5t-119 -138.5
t-143 -78t-156 -23q-187 0 -309.5 101.5t-141.5 273.5z" />
    <glyph glyph-name="colon" unicode=":" horiz-adv-x="681" 
d="M496 299v-299h-308v299h308zM496 1049v-299h-308v299h308z" />
    <glyph glyph-name="semicolon" unicode=";" horiz-adv-x="681" 
d="M496 299v-258q0 -92 -22.5 -160.5t-66 -112t-95.5 -70t-122 -42.5h-2v108q37 13 60 25t50.5 37.5t42.5 69t19 104.5h-172v299h308zM496 1049v-299h-308v299h308z" />
    <glyph glyph-name="less" unicode="&#x3c;" horiz-adv-x="1196" 
d="M1118 205v-221l-1040 442v184l1040 443v-222l-743 -313z" />
    <glyph glyph-name="equal" unicode="=" horiz-adv-x="1196" 
d="M1114 858v-229h-1032v229h1032zM1114 408v-230h-1032v230h1032z" />
    <glyph glyph-name="greater" unicode="&#x3e;" horiz-adv-x="1196" 
d="M78 205l743 313l-743 313v222l1040 -443v-184l-1040 -442v221z" />
    <glyph glyph-name="question" unicode="?" horiz-adv-x="1251" 
d="M766 426h-270q0 81 6 130.5t28 100.5t63 93t112 92q126 87 126 202q0 57 -18.5 98.5t-49 63.5t-63 31.5t-67.5 9.5q-53 0 -92.5 -16t-62 -38.5t-37.5 -57t-20 -61.5t-9 -62v-2h-289q0 103 30 186t78.5 136.5t113.5 90t132 51.5t137 15q33 0 68.5 -3t89 -13.5t101 -28.5
t98 -51.5t86.5 -77.5t59 -112t23 -150q0 -117 -59.5 -201t-188.5 -176q-49 -35 -73 -61t-38 -71.5t-14 -117.5zM786 289v-289h-299v289h299z" />
    <glyph glyph-name="at" unicode="@" horiz-adv-x="1996" 
d="M1190 770q0 75 -46 124.5t-118 49.5q-101 0 -170.5 -87.5t-69.5 -188.5q0 -81 43 -132t117 -51q104 0 174 89t70 196zM1251 1010l27 108h180l-119 -522q-14 -58 -14 -86q0 -43 31 -43q88 0 159.5 100.5t71.5 259.5q0 163 -74.5 282t-200 178t-284.5 59q-172 0 -306 -81
t-206 -221t-72 -313q0 -271 172.5 -438.5t440.5 -167.5q124 0 234.5 44t195.5 122h182q-107 -158 -270 -244t-355 -86q-219 0 -402.5 99.5t-291.5 278t-108 396.5q0 161 63 305t169.5 246.5t252 162.5t305.5 60q139 0 269 -45.5t230.5 -126t161 -201t60.5 -259.5
q0 -125 -41 -230t-102 -170.5t-134.5 -111.5t-136 -65t-108.5 -19q-48 0 -81 27.5t-36 80.5l-4 2q-43 -47 -100.5 -78.5t-114.5 -31.5q-134 0 -232 105.5t-98 250.5q0 129 53.5 244t156 188.5t229.5 73.5q165 0 247 -133z" />
    <glyph glyph-name="A" unicode="A" horiz-adv-x="1478" 
d="M467 303l-102 -303h-324l524 1470h355l518 -1470h-334l-94 303h-543zM737 1139l-188 -582h375l-183 582h-4z" />
    <glyph glyph-name="B" unicode="B" horiz-adv-x="1478" 
d="M156 0v1470h714q103 0 184.5 -25t131 -63.5t81.5 -90t44 -100t12 -97.5q0 -60 -14 -109.5t-31 -78.5t-46.5 -55t-45.5 -35t-43 -23q227 -86 227 -357q0 -87 -34 -166t-93 -137q-48 -47 -92 -72.5t-136.5 -43t-236.5 -17.5h-622zM451 647v-393h376q236 0 236 215
q0 90 -64 134t-157 44h-391zM451 1217v-322h360q97 0 157 40.5t60 123.5q0 87 -57 122.5t-168 35.5h-352z" />
    <glyph glyph-name="C" unicode="C" horiz-adv-x="1478" 
d="M1401 989h-307q-8 27 -13 42.5t-18 45.5t-27.5 49.5t-40 44t-56 38.5t-75 24t-96.5 10q-48 0 -94.5 -13t-97 -48.5t-88 -91t-61.5 -149t-24 -212.5q0 -102 21 -190t63.5 -159t114.5 -112t166 -41q128 0 213 71.5t113 205.5h307q-48 -250 -210 -396.5t-429 -146.5
q-148 0 -270.5 50t-212 145t-139.5 242.5t-50 334.5q0 188 52 337.5t144 244t214 144.5t266 50q127 0 233 -33.5t176.5 -87t121 -123t75 -139t29.5 -137.5z" />
    <glyph glyph-name="D" unicode="D" horiz-adv-x="1478" 
d="M156 0v1470h649q103 0 189 -24.5t146.5 -65t107.5 -98.5t76 -119.5t47 -132t25 -133.5t7 -127q0 -71 -8 -142t-28 -148t-51 -145.5t-79.5 -130.5t-110 -106.5t-147 -71t-186.5 -26.5h-637zM457 1217v-963h299q90 0 157 42.5t104.5 115t55 156.5t17.5 180q0 90 -12 162.5
t-31.5 120.5t-48.5 83.5t-57.5 54.5t-64.5 30.5t-63.5 14.5t-60.5 3h-295z" />
    <glyph glyph-name="E" unicode="E" horiz-adv-x="1366" 
d="M1237 1470v-260h-780v-309h717v-260h-717v-381h815v-260h-1116v1470h1081z" />
    <glyph glyph-name="F" unicode="F" horiz-adv-x="1251" 
d="M463 618v-618h-307v1470h1046v-260h-739v-331h647v-261h-647z" />
    <glyph glyph-name="G" unicode="G" horiz-adv-x="1593" 
d="M846 545v248h614v-793h-205l-30 184q-33 -39 -52.5 -59.5t-64.5 -56.5t-88 -55.5t-110 -35.5t-144 -16q-107 0 -206 30t-185 93t-149 152.5t-99.5 216.5t-36.5 278q0 122 26.5 234t83.5 212t139.5 173.5t202 116t263.5 42.5h4q109 0 203 -22.5t161.5 -61t120.5 -87.5
t86 -105.5t51.5 -111t22.5 -107.5h-307q0 18 -12 47t-39 62.5t-63.5 63t-91 49t-116.5 19.5q-85 0 -159 -30.5t-134 -91.5t-94.5 -165.5t-34.5 -240.5q0 -116 25 -206t65 -145.5t97 -91.5t115.5 -49.5t125.5 -13.5q27 0 57.5 4.5t78.5 24.5t88 52.5t77.5 95.5t55.5 147h-342
z" />
    <glyph glyph-name="H" unicode="H" horiz-adv-x="1478" 
d="M1026 659h-573v-659h-308v1470h308v-557h573v557h307v-1470h-307v659z" />
    <glyph glyph-name="I" unicode="I" horiz-adv-x="569" 
d="M438 1470v-1470h-307v1470h307z" />
    <glyph glyph-name="J" unicode="J" 
d="M991 1470v-1044q0 -231 -116.5 -347t-339.5 -116q-102 0 -181 19.5t-130 47t-87 80t-53.5 93t-26.5 114t-10.5 116t-1.5 122.5h287q0 -78 3 -125.5t13 -94t29.5 -71t52.5 -39t82 -14.5q57 0 93.5 16.5t52.5 50t21 65.5t5 83v1044h307z" />
    <glyph glyph-name="K" unicode="K" horiz-adv-x="1478" 
d="M485 498v-498h-307v1470h307v-598l562 598h397l-600 -602l635 -868h-396l-454 645z" />
    <glyph glyph-name="L" unicode="L" horiz-adv-x="1251" 
d="M463 1470v-1204h731v-266h-1038v1470h307z" />
    <glyph glyph-name="M" unicode="M" horiz-adv-x="1705" 
d="M1567 1470v-1470h-287v1229h-4l-275 -1229h-301l-268 1229h-4v-1229h-287v1470h449l266 -1159h4l262 1159h445z" />
    <glyph glyph-name="N" unicode="N" horiz-adv-x="1478" 
d="M1053 446v1024h286v-1470h-307l-600 1049h-4v-1049h-287v1470h324l584 -1024h4z" />
    <glyph glyph-name="O" unicode="O" horiz-adv-x="1593" 
d="M90 735q0 142 29.5 259.5t76 196t111.5 138.5t129 93t136 53.5t124 27t101 6.5t101 -6.5t123.5 -27t135.5 -53.5t129 -93t111.5 -138.5t76 -196t29.5 -259.5t-29.5 -259.5t-76 -196t-111.5 -138.5t-129 -93t-135.5 -53.5t-123.5 -27t-101 -6.5t-101 6.5t-124 27
t-136 53.5t-129 93t-111.5 138.5t-76 196t-29.5 259.5zM397 735q0 -118 26 -211t66.5 -148.5t95.5 -91.5t106.5 -49.5t105.5 -13.5t105.5 13.5t106 49.5t95 91.5t66.5 148.5t26 211t-26 211t-66.5 148.5t-95 91.5t-106 49.5t-105.5 13.5t-105.5 -13.5t-106.5 -49.5
t-95.5 -91.5t-66.5 -148.5t-26 -211z" />
    <glyph glyph-name="P" unicode="P" horiz-adv-x="1366" 
d="M463 530v-530h-307v1470h671q213 0 335 -126.5t122 -344.5q0 -47 -10 -100.5t-42 -121.5t-81 -121t-136.5 -89.5t-199.5 -36.5h-352zM463 784h285q47 0 84.5 10t61 23.5t40.5 36.5t25 41t12.5 45t5 40t0.5 34q0 107 -63.5 155t-206.5 48h-244v-433z" />
    <glyph glyph-name="Q" unicode="Q" horiz-adv-x="1593" 
d="M815 399l158 166l155 -145q68 126 68 315q0 118 -26 211t-66.5 148.5t-95 91.5t-106 49.5t-105.5 13.5t-105.5 -13.5t-106.5 -49.5t-95.5 -91.5t-66.5 -148.5t-26 -211t26 -211t66.5 -148.5t95.5 -91.5t106.5 -49.5t105.5 -13.5q92 0 166 39zM1509 59l-161 -165l-174 165
q-166 -98 -377 -98q-49 0 -101 6.5t-124 27t-136 53.5t-129 93t-111.5 138.5t-76 196t-29.5 259.5t29.5 259.5t76 196t111.5 138.5t129 93t136 53.5t124 27t101 6.5t101 -6.5t123.5 -27t135.5 -53.5t129 -93t111.5 -138.5t76 -196t29.5 -259.5q0 -328 -153 -524z" />
    <glyph glyph-name="R" unicode="R" horiz-adv-x="1478" 
d="M156 0v1470h743q111 0 197.5 -31.5t135 -77.5t79.5 -105.5t41 -108t10 -92.5q0 -124 -60 -219t-167 -131q42 -18 66.5 -33t50.5 -42t39 -64t21.5 -95t8.5 -139q0 -176 9 -225.5t56 -67.5v-39h-339q-33 116 -33 297q0 49 -1.5 79t-6.5 63.5t-15 52t-27 37t-43 27t-62 14
t-85 5.5h-317v-575h-301zM457 823h360q122 0 180 47t58 154q0 34 -9 64t-30.5 61t-66.5 49.5t-109 18.5h-383v-394z" />
    <glyph glyph-name="S" unicode="S" horiz-adv-x="1366" 
d="M80 453h295q1 -29 7 -56.5t26.5 -62t52.5 -59.5t90.5 -42.5t134.5 -17.5q47 0 88 4.5t82.5 18t70.5 34t47.5 55t18.5 79.5q0 34 -14 60t-33.5 43t-58.5 32.5t-71 24t-89 22.5l-158 37q-68 16 -102.5 24.5t-93 28t-89.5 38.5t-71.5 52t-61 71.5t-35 94t-14.5 123.5
q0 56 12.5 110.5t50 118.5t97.5 111.5t165 79.5t241 32q129 0 232 -32.5t165 -82.5t103 -115.5t56.5 -125.5t16.5 -119h-295q-3 28 -8 49t-24.5 56t-49 58t-86.5 40.5t-133 17.5q-64 0 -119 -15.5t-96 -56.5t-41 -104q0 -41 14.5 -70t42 -45t48 -23.5t51.5 -14.5l358 -88
q67 -16 118 -34.5t103.5 -50t86.5 -72t55.5 -101.5t21.5 -138q0 -91 -26 -165.5t-66 -123.5t-96 -86t-108.5 -56.5t-111.5 -31.5t-97.5 -15t-73.5 -3q-111 0 -203.5 18t-156.5 47.5t-113 71t-78 85t-47 93.5t-24.5 92t-6.5 85z" />
    <glyph glyph-name="T" unicode="T" horiz-adv-x="1251" 
d="M780 1210v-1210h-307v1210h-444v260h1196v-260h-445z" />
    <glyph glyph-name="U" unicode="U" horiz-adv-x="1478" 
d="M1333 1470v-956q0 -282 -158 -417.5t-446 -135.5q-125 0 -251.5 40t-215.5 138q-109 122 -115 357v974h314v-954q0 -146 73.5 -220.5t188.5 -74.5q154 0 225.5 71.5t71.5 209.5v968h313z" />
    <glyph glyph-name="V" unicode="V" horiz-adv-x="1366" 
d="M688 356l320 1114h319l-500 -1470h-292l-496 1470h330l315 -1114h4z" />
    <glyph glyph-name="W" unicode="W" horiz-adv-x="1933" 
d="M449 0l-416 1470h327q132 -564 172 -750t62 -325h4q80 457 205 1075h325q180 -844 220 -1075h4q44 245 239 1075h312l-414 -1470h-295q-159 754 -227 1147h-4q-12 -72 -23 -137t-19.5 -111.5t-30.5 -153.5t-34.5 -167t-53.5 -256t-67 -322h-286z" />
    <glyph glyph-name="X" unicode="X" horiz-adv-x="1366" 
d="M858 764l479 -764h-374l-279 502l-297 -502h-358l475 752l-449 718h367l262 -475l268 475h355z" />
    <glyph glyph-name="Y" unicode="Y" horiz-adv-x="1366" 
d="M846 551v-551h-307v555l-508 915h362l305 -639l291 639h348z" />
    <glyph glyph-name="Z" unicode="Z" horiz-adv-x="1251" 
d="M1200 260v-260h-1149v260l760 950h-739v260h1124v-241l-770 -969h774z" />
    <glyph glyph-name="bracketleft" unicode="[" horiz-adv-x="681" 
d="M379 1282v-1487h254v-196h-504v1880h504v-197h-254z" />
    <glyph glyph-name="backslash" unicode="\" horiz-adv-x="569" 
d="M397 -39l-465 1548h240l465 -1548h-240z" />
    <glyph glyph-name="bracketright" unicode="]" horiz-adv-x="681" 
d="M303 -205v1487h-254v197h504v-1880h-504v196h254z" />
    <glyph glyph-name="asciicircum" unicode="^" horiz-adv-x="1196" 
d="M350 662h-223l369 768h204l369 -768h-225l-246 538z" />
    <glyph glyph-name="underscore" unicode="_" 
d="M0 -154h1139v-102h-1139v102z" />
    <glyph glyph-name="grave" unicode="`" horiz-adv-x="681" 
d="M254 1237l-301 299h315l193 -299h-207z" />
    <glyph glyph-name="a" unicode="a" 
d="M1016 803v-590q0 -89 16 -124.5t47 -45.5v-43h-309q-21 66 -27 129q-33 -34 -57.5 -54.5t-68 -48.5t-100.5 -41.5t-126 -13.5q-64 0 -121.5 18.5t-105.5 55.5t-76.5 100t-28.5 144q0 153 86.5 240t231.5 108l258 39q100 13 100 86q0 35 -13 59.5t-31 37.5t-46.5 20
t-49 8.5t-48.5 1.5q-51 0 -86.5 -14t-53 -39.5t-25 -47.5t-11.5 -51h-277q10 97 43 167.5t78 111t109.5 64.5t123.5 31t134 7q53 0 105 -6.5t113.5 -27.5t107.5 -54t77 -91.5t31 -135.5zM735 391v139q-46 -37 -194 -59q-46 -8 -76 -17t-60 -26.5t-44.5 -47.5t-14.5 -73
q0 -68 41 -99.5t92 -31.5q101 0 178.5 60t77.5 155z" />
    <glyph glyph-name="b" unicode="b" horiz-adv-x="1251" 
d="M889 537q0 68 -13 125.5t-40.5 105t-76 75t-114.5 27.5q-71 0 -121 -29.5t-76 -81.5t-37.5 -110t-11.5 -129q0 -85 24.5 -153.5t83.5 -114t146 -45.5q53 0 95 22t68 56.5t43 80t23.5 87.5t6.5 84zM412 1470v-522h4q109 170 315 170q92 0 172.5 -35.5t143.5 -103
t100 -176.5t37 -246q0 -116 -27 -218.5t-80.5 -186t-144 -132.5t-207.5 -49q-98 0 -182 39.5t-133 126.5h-4v-137h-281v1470h287z" />
    <glyph glyph-name="c" unicode="c" 
d="M780 397h291q-2 -28 -9.5 -59.5t-24 -74t-40.5 -81.5t-63.5 -78.5t-88.5 -68t-119.5 -46.5t-152.5 -18q-85 0 -156.5 18.5t-122.5 49t-91 74t-64.5 91t-40.5 102.5t-22 105.5t-6 102.5q0 135 30 243.5t92 190t163.5 126t236.5 44.5q57 0 114 -10.5t121.5 -39.5
t114.5 -73.5t86.5 -121t44.5 -173.5h-291q-5 30 -15.5 57.5t-30 56.5t-53 46t-77.5 17h-14q-52 0 -92.5 -20t-65.5 -52t-41 -75t-22 -84t-6 -85q0 -34 0.5 -57.5t5 -64t13 -68.5t24.5 -61.5t39 -54t58.5 -34.5t80.5 -14q51 0 91 22t61 54.5t31.5 62t10.5 51.5z" />
    <glyph glyph-name="d" unicode="d" horiz-adv-x="1251" 
d="M1128 1470v-1470h-280v137h-4q-49 -86 -133.5 -126t-182.5 -40q-94 0 -171.5 32.5t-130 87.5t-88.5 130.5t-52 159.5t-16 176q0 137 36.5 246t99.5 176.5t143.5 103t172.5 35.5q207 0 316 -170h4v522h286zM365 537q0 -54 11.5 -107t36.5 -105.5t73.5 -85t113.5 -32.5
q87 0 146 45.5t83.5 114t24.5 153.5q0 71 -11.5 129t-37.5 110t-76 81.5t-121 29.5q-66 0 -114.5 -27.5t-75.5 -75.5t-40 -105t-13 -125z" />
    <glyph glyph-name="e" unicode="e" 
d="M774 319h295q-27 -94 -79.5 -164t-119.5 -109t-136.5 -57t-143.5 -18q-95 0 -174.5 18.5t-149 62t-117 111t-75 170t-27.5 234.5q0 35 3.5 72.5t17 93.5t34.5 106t61.5 102.5t93 90.5t133.5 62t179 24q71 0 136.5 -14t136 -54.5t121.5 -104.5t84.5 -174t33.5 -253v-51
h-747q3 -26 4.5 -41t9 -46.5t17.5 -52t29.5 -47t45 -42t64 -26.5t86.5 -11q63 0 115 31t69 87zM342 653h444q-6 63 -28 109.5t-54.5 72t-67 37t-71.5 11.5q-99 0 -155 -60t-68 -170z" />
    <glyph glyph-name="f" unicode="f" horiz-adv-x="681" 
d="M465 885v-885h-287v885h-158v205h158v88q0 311 320 311q97 0 147 -4v-232h-80q-30 0 -48.5 -4.5t-29 -11t-15.5 -24t-6 -33t-1 -47.5v-43h186v-205h-186z" />
    <glyph glyph-name="g" unicode="g" horiz-adv-x="1251" 
d="M858 1090h275v-1033q0 -39 -1 -67t-6.5 -71.5t-15.5 -75.5t-30 -72t-47 -68.5t-69.5 -58t-95.5 -47.5t-126 -29.5t-160 -11.5q-69 0 -134.5 11.5t-126.5 37.5t-107 63t-75.5 92.5t-32.5 122.5h312q6 -25 14 -41t27.5 -34t59.5 -26.5t99 -8.5q117 0 172.5 59.5t55.5 190.5
v131l-4 4q-42 -76 -108 -120t-183 -44q-100 0 -184 35t-148.5 103t-100.5 177t-36 248q0 137 37 246t100 176.5t143.5 103t172.5 35.5q227 0 319 -190h4v162zM377 539q0 -44 7 -85t24 -81.5t42.5 -70t65 -48t88.5 -18.5q70 0 120 27.5t75.5 75t37 99.5t11.5 113
q0 138 -65 228.5t-181 90.5q-43 0 -80.5 -16.5t-71 -53t-53.5 -103.5t-20 -158z" />
    <glyph glyph-name="h" unicode="h" horiz-adv-x="1251" 
d="M1118 754v-754h-287v662q0 27 -1.5 44.5t-6.5 46t-17 47.5t-31.5 38.5t-52.5 29t-77 9.5q-99 0 -162 -66t-63 -186v-625h-287v1470h287v-522h4q29 71 115.5 120.5t199.5 49.5q167 0 273 -95t106 -269z" />
    <glyph glyph-name="i" unicode="i" horiz-adv-x="569" 
d="M141 1090h287v-1090h-287v1090zM428 1485v-266h-287v266h287z" />
    <glyph glyph-name="j" unicode="j" horiz-adv-x="569" 
d="M428 1090v-1205q0 -70 -10 -122.5t-32.5 -88t-50 -58t-70 -34.5t-85 -16t-102.5 -4h-72v229h51q13 0 20.5 0.5t21 6t21.5 15t14.5 30t6.5 48.5v1199h287zM428 1485v-266h-287v266h287z" />
    <glyph glyph-name="k" unicode="k" 
d="M428 344v-344h-287v1470h287v-794l360 414h353l-385 -422l395 -668h-344l-260 467z" />
    <glyph glyph-name="l" unicode="l" horiz-adv-x="569" 
d="M428 1470v-1470h-287v1470h287z" />
    <glyph glyph-name="m" unicode="m" horiz-adv-x="1820" 
d="M1692 754v-754h-287v662q0 114 -43 164.5t-113 50.5q-194 0 -194 -224v-653h-287v655q0 27 -0.5 42t-3.5 42t-9.5 43t-19 36t-30 31.5t-45.5 19.5t-64 8q-178 0 -178 -213v-664h-287v1090h275v-160h4q97 188 309 188q113 0 178.5 -40.5t124.5 -133.5q18 26 28 39.5
t39.5 43.5t57 46.5t72.5 30.5t94 14q167 0 273 -95t106 -269z" />
    <glyph glyph-name="n" unicode="n" horiz-adv-x="1251" 
d="M1118 754v-754h-287v662q0 27 -1.5 44.5t-6.5 46t-17 47.5t-31.5 38.5t-52.5 29t-77 9.5q-99 0 -162 -66t-63 -186v-625h-287v1090h275v-160h4q15 26 29 45.5t43 48.5t61.5 47.5t83.5 32.5t110 14q167 0 273 -95t106 -269z" />
    <glyph glyph-name="o" unicode="o" horiz-adv-x="1251" 
d="M1184 545q0 -115 -30 -210.5t-82 -162t-122.5 -112.5t-152 -67.5t-170.5 -21.5t-170.5 21.5t-152 67.5t-122.5 112.5t-82 162t-30 210.5q0 143 45.5 254.5t123.5 180t177 103.5t211 35t211 -35t177 -103.5t123.5 -180t45.5 -254.5zM889 545q0 47 -5.5 88.5t-23 88
t-45.5 79.5t-76.5 54.5t-111.5 21.5t-111.5 -21.5t-76.5 -54.5t-45.5 -79.5t-23 -88t-5.5 -88.5t5.5 -88.5t23 -88t45.5 -79.5t76.5 -54.5t111.5 -21.5t111.5 21.5t76.5 54.5t45.5 79.5t23 88t5.5 88.5z" />
    <glyph glyph-name="p" unicode="p" horiz-adv-x="1251" 
d="M401 520q0 -86 24 -154t82.5 -113.5t145.5 -45.5q53 0 95 22t68 56.5t43 80t23.5 87.5t6.5 84q0 68 -13 125.5t-40.5 105t-76 75t-114.5 27.5q-244 0 -244 -350zM401 1090v-158h5q19 30 36 52.5t45.5 49.5t61 44t79.5 28.5t103 11.5q92 0 172.5 -35.5t143.5 -103
t100 -176.5t37 -246q0 -116 -27 -218.5t-80.5 -186t-144 -132.5t-207.5 -49q-57 0 -105.5 12.5t-79 29t-57.5 42.5t-39 43t-26 41h-4v-563h-287v1514h274z" />
    <glyph glyph-name="q" unicode="q" horiz-adv-x="1251" 
d="M856 1090h274v-1514h-286v559h-4q-87 -164 -310 -164q-98 0 -178.5 35.5t-131.5 92t-86 130t-49.5 147t-14.5 146.5q0 93 17 178.5t54 162t91.5 133t135.5 89.5t179 33q53 0 99 -13.5t76.5 -32t58 -47t41.5 -49.5t30 -48h4v162zM365 524q0 -311 245 -311q107 0 173.5 83
t66.5 243q0 85 -20.5 149.5t-48.5 97.5t-65.5 53.5t-63 25.5t-48.5 5q-45 0 -84.5 -16t-76 -52.5t-57.5 -107.5t-21 -170z" />
    <glyph glyph-name="r" unicode="r" horiz-adv-x="796" 
d="M131 0v1090h275v-189h4q21 40 37 66t43 57.5t55.5 50t71 31t92.5 12.5q19 0 55 -4v-291q-25 4 -82 4q-264 0 -264 -260v-567h-287z" />
    <glyph glyph-name="s" unicode="s" 
d="M1030 758h-280q-5 32 -13.5 53t-28 44t-57.5 34.5t-94 11.5q-104 0 -140 -30t-36 -76q0 -30 29.5 -52t77.5 -34t109 -26t125 -26.5t125 -37.5t109 -57.5t77.5 -88t29.5 -127.5q0 -91 -34 -160.5t-84.5 -109t-118 -64.5t-125 -33t-115.5 -8q-100 0 -187 19t-164.5 60
t-124 117.5t-49.5 180.5h295q0 -160 238 -160q98 0 140 36t42 77q0 36 -37.5 60.5t-97 38t-131.5 27t-144 35.5t-131.5 55t-97 93.5t-37.5 143.5q0 51 13 99.5t45 97.5t80.5 85.5t126.5 59t176 22.5q462 0 489 -360z" />
    <glyph glyph-name="t" unicode="t" horiz-adv-x="681" 
d="M455 1384v-294h178v-205h-178v-592q0 -29 2 -41.5t13 -25.5t35.5 -17t67.5 -4q20 0 60 4v-217q-90 -4 -135 -4h-37q-90 0 -150 16t-90 49.5t-41.5 72.5t-11.5 97v662h-148v205h148v294h287z" />
    <glyph glyph-name="u" unicode="u" horiz-adv-x="1251" 
d="M1116 1090v-1090h-274v154h-4q-103 -183 -332 -183q-169 0 -270 100.5t-101 301.5v717h287v-676q0 -201 186 -201q39 0 75 12t70.5 38.5t55 77.5t20.5 120v629h287z" />
    <glyph glyph-name="v" unicode="v" 
d="M1112 1090l-393 -1090h-301l-391 1090h319l225 -803h4l232 803h305z" />
    <glyph glyph-name="w" unicode="w" horiz-adv-x="1593" 
d="M1575 1090l-313 -1090h-295l-170 795h-4l-170 -795h-295l-308 1090h306l170 -783h4l153 783h289l164 -783h4l170 783h295z" />
    <glyph glyph-name="x" unicode="x" 
d="M737 555l371 -555h-354l-189 328l-188 -328h-346l370 555l-356 535h348l185 -318l180 318h338z" />
    <glyph glyph-name="y" unicode="y" 
d="M1104 1090l-375 -1072q-28 -83 -46.5 -135.5t-41 -105t-39.5 -81.5t-41 -56.5t-46 -40t-55.5 -22.5t-68 -12.5t-84.5 -2.5q-47 0 -129 4v229q24 -4 55 -4q44 0 70.5 4.5t52 21t41 50t25.5 88.5l-402 1135h320l233 -803h5l223 803h303z" />
    <glyph glyph-name="z" unicode="z" horiz-adv-x="1024" 
d="M963 854l-551 -618h571v-236h-942v223l559 637h-520v230h883v-236z" />
    <glyph glyph-name="braceleft" unicode="{" horiz-adv-x="796" 
d="M748 -221v-180h-170q-50 0 -99.5 17t-92 50t-69 88.5t-26.5 124.5v410q0 45 -21.5 77.5t-54.5 48t-62 22.5t-55 7v189q26 0 55 7t62 22.5t54.5 48t21.5 77.5v410q0 69 26.5 124.5t69 88.5t92 50.5t99.5 17.5h170v-181h-93q-30 0 -51.5 -8.5t-33.5 -21t-18.5 -32
t-8.5 -35.5t-2 -38v-401q-6 -50 -26 -89t-45.5 -62.5t-57.5 -39t-57 -22t-48 -8.5v-4q23 -2 48 -8.5t57 -22.5t57.5 -39t45.5 -62.5t26 -89.5v-401q0 -22 2 -38t8.5 -35.5t18.5 -32t33.5 -21t51.5 -8.5h93z" />
    <glyph glyph-name="bar" unicode="|" horiz-adv-x="573" 
d="M172 1587h229v-2048h-229v2048z" />
    <glyph glyph-name="braceright" unicode="}" horiz-adv-x="796" 
d="M698 633v-189q-26 0 -55 -7t-61.5 -22.5t-54 -48t-21.5 -77.5v-410q0 -69 -26.5 -124.5t-69 -88.5t-92 -50t-99.5 -17h-170v180h92q37 0 61.5 12t35.5 33.5t14.5 42t3.5 47.5v401q6 50 26 89.5t45.5 62.5t57 39t56.5 22.5t48 8.5v4q-23 2 -48 8.5t-56.5 22t-57 39
t-45.5 62.5t-26 89v401q0 27 -3.5 47.5t-14.5 42t-35.5 33.5t-61.5 12h-92v181h170q50 0 99.5 -17.5t92 -50.5t69 -88.5t26.5 -124.5v-410q0 -45 21.5 -77.5t54 -48t61.5 -22.5t55 -7z" />
    <glyph glyph-name="asciitilde" unicode="~" horiz-adv-x="1196" 
d="M997 702l74 -184q-23 -32 -38.5 -52t-41 -46.5t-49.5 -41t-57 -25.5t-70 -11q-84 0 -209 68q-130 73 -235 73q-104 0 -172 -149l-74 184q92 176 256 176q82 0 227 -65q16 -7 55 -25t59 -26.5t48 -16.5t47 -8q29 0 55 11.5t49.5 37.5t38 45t37.5 55z" />
    <glyph glyph-name="uni00A0" unicode="&#xa0;" horiz-adv-x="569" 
 />
    <glyph glyph-name="exclamdown" unicode="&#xa1;" horiz-adv-x="681" 
d="M193 801v289h299v-289h-299zM184 -6l82 688h152l82 -688v-375h-316v375z" />
    <glyph glyph-name="cent" unicode="&#xa2;" 
d="M442 264l174 613h-24q-52 0 -92.5 -20t-65.5 -52t-41 -75t-22 -84t-6 -85q0 -60 2.5 -100t21 -101t53.5 -96zM1073 700h-291q-18 96 -69 140l-178 -625q19 -8 51 -8q51 0 91 22t61 54.5t31.5 62t10.5 51.5h291q-2 -28 -9.5 -59.5t-24 -74t-40.5 -81.5t-63.5 -78.5
t-88.5 -68t-119.5 -46.5t-152.5 -18q-55 0 -104 9l-63 -222h-107l70 246q-85 31 -146.5 89.5t-93 131t-45.5 143.5t-14 146q0 135 30 243.5t92 190t163.5 126t236.5 44.5q42 0 92 -6l49 174h107l-58 -201q118 -40 198 -133.5t93 -251.5z" />
    <glyph glyph-name="sterling" unicode="&#xa3;" 
d="M770 780v-123h-244q11 -68 11 -108q0 -125 -88 -227q-29 -37 -121 -111l4 -4q133 53 231 53q72 0 146 -22q89 -29 108 -29q48 0 106 22.5t101 51.5l84 -224q-151 -92 -311 -92q-40 0 -99.5 11.5t-99.5 25.5q-128 45 -199 45q-39 0 -80 -13.5t-143 -58.5l-110 199
q15 6 49.5 32t75.5 66t71.5 95t30.5 106q0 41 -15 95t-32 87h-189v123h119q-52 111 -68 164t-16 127q0 47 15 98t52 105.5t91 97.5t140.5 70.5t191.5 27.5q69 0 133 -12.5t130 -45.5t115 -84.5t81 -136.5t34 -194h-268q-7 48 -14 79.5t-23 66t-39 53.5t-61 32t-90 13
q-56 0 -97.5 -20t-62.5 -51t-31 -60.5t-10 -56.5q0 -33 16 -80t82 -193h293z" />
    <glyph glyph-name="currency" unicode="&#xa4;" 
d="M569 500q94 0 153.5 66.5t59.5 164.5t-59.5 162.5t-153.5 64.5t-151.5 -64.5t-57.5 -162.5q0 -99 58 -165t151 -66zM-6 291l201 201q-64 103 -64 239q0 65 18 129t46 107l-201 200l135 136l201 -201q108 67 239 67q139 0 240 -67l201 201l135 -136l-201 -200
q68 -103 68 -236q0 -136 -68 -239l201 -201l-135 -135l-201 200q-101 -67 -240 -67q-131 0 -239 67l-201 -200z" />
    <glyph glyph-name="yen" unicode="&#xa5;" 
d="M1124 829v-122h-338l-77 -154h415v-123h-417v-430h-261v430h-415v123h415l-81 154h-334v122h268l-317 601h307l295 -603l282 603h291l-307 -601h274z" />
    <glyph glyph-name="brokenbar" unicode="&#xa6;" horiz-adv-x="573" 
d="M172 717v717h229v-717h-229zM172 -307v717h229v-717h-229z" />
    <glyph glyph-name="section" unicode="&#xa7;" 
d="M492 1049l331 -166q57 -29 96.5 -56t76 -66.5t55 -92.5t18.5 -119q0 -21 -10.5 -55t-32 -75.5t-61.5 -81.5t-91 -63q127 -105 127 -262q0 -94 -37 -170t-100 -122.5t-141 -71.5t-164 -25q-75 0 -138.5 16t-106.5 42t-76.5 61.5t-53.5 70.5t-32.5 73.5t-17.5 66.5t-5 53
h270q17 -166 181 -166q44 0 75.5 16.5t45.5 42t20 47t6 40.5q0 49 -28 77.5t-93 61.5l-313 160q-78 40 -123.5 79.5t-72.5 101t-27 148.5q0 165 190 271q-106 97 -106 237q0 71 27.5 136.5t78.5 117t130.5 82.5t176.5 31q61 0 116 -10.5t109 -37.5t94 -68t66 -107.5
t29 -151.5h-260q-5 74 -45 116t-115 42q-67 0 -107 -35.5t-40 -79.5q0 -68 78 -108zM698 633l-299 151q-42 -15 -65 -53t-23 -65q0 -44 24.5 -73.5t70.5 -53.5l321 -172q88 50 88 135q0 41 -31.5 72t-85.5 59z" />
    <glyph glyph-name="dieresis" unicode="&#xa8;" horiz-adv-x="681" 
d="M270 1493v-236h-258v236h258zM670 1493v-236h-258v236h258z" />
    <glyph glyph-name="copyright" unicode="&#xa9;" horiz-adv-x="1509" 
d="M1534 737q0 -178 -64 -326.5t-171.5 -245.5t-247.5 -150.5t-295 -53.5t-295 53.5t-248 150.5t-172 245.5t-64 326.5t64 326t172 244t248 149t295 53t295 -52.5t247.5 -149t171.5 -244.5t64 -326zM1311 737q0 130 -44.5 242.5t-120 188.5t-177 119.5t-213.5 43.5
q-114 0 -216 -43t-177 -120t-118.5 -188.5t-43.5 -242.5q0 -174 74 -311t199.5 -211t277.5 -74h4v-2q112 0 213.5 43.5t177 120.5t120 190t44.5 244zM969 621h184q-24 -151 -126.5 -236.5t-240.5 -85.5q-190 0 -308 126.5t-118 317.5q0 194 114.5 318.5t307.5 124.5
q142 0 240.5 -81.5t122.5 -232.5h-176q-13 67 -65 101.5t-122 34.5q-99 0 -155 -70t-56 -190q0 -115 60.5 -193t154.5 -78q78 0 127.5 37t55.5 107z" />
    <glyph glyph-name="ordfeminine" unicode="&#xaa;" horiz-adv-x="757" 
d="M668 1319v-354q0 -90 43 -101v-26h-201q-12 36 -16 77q-29 -27 -51.5 -44t-71 -33.5t-107.5 -16.5q-89 0 -154 48.5t-65 142.5q0 91 57.5 145.5t151.5 67.5l168 22q19 3 30.5 6t23 13.5t11.5 27.5q0 24 -11 39.5t-32.5 21.5t-37.5 7.5t-41 1.5q-61 0 -85 -23.5t-30 -60.5
h-178q6 58 27 100.5t50 67t71 38.5t80 18.5t87 4.5q34 0 68 -4t74 -16.5t69.5 -32.5t49.5 -55.5t20 -81.5zM487 1075v82q-35 -23 -127 -35q-60 -9 -91 -30t-31 -70q0 -39 25.5 -57.5t58.5 -18.5q65 0 115 36t50 93z" />
    <glyph glyph-name="guillemotleft" unicode="&#xab;" 
d="M522 754l-205 -181l205 -180v-237l-342 295v245l342 295v-237zM958 754l-204 -181l204 -180v-237l-342 295v245l342 295v-237z" />
    <glyph glyph-name="logicalnot" unicode="&#xac;" horiz-adv-x="1196" 
d="M885 221v408h-803v229h1032v-637h-229z" />
    <glyph glyph-name="uni00AD" unicode="&#xad;" horiz-adv-x="681" 
d="M627 707v-267h-572v267h572z" />
    <glyph glyph-name="registered" unicode="&#xae;" horiz-adv-x="1509" 
d="M627 670v-351h-178v834h311q170 0 256 -57.5t86 -194.5q0 -203 -201 -217l213 -365h-211l-192 351h-84zM627 811h157q66 0 96.5 22t30.5 87q0 30 -14 50t-41 28.5t-49.5 11t-54.5 2.5h-125v-201zM1532 735q0 -143 -41 -267.5t-114 -216.5t-170.5 -158t-212.5 -99
t-238 -33q-124 0 -239 33t-213 99t-171 158t-114.5 216.5t-41.5 267.5t41.5 267.5t114.5 216.5t171 158t213 99t239 33q123 0 238 -33t212.5 -99t170.5 -158t114 -216.5t41 -267.5zM1309 735q0 130 -44.5 242.5t-120 188.5t-176 119.5t-212.5 43.5q-114 0 -216 -43
t-177 -120t-118.5 -188.5t-43.5 -242.5q0 -130 43.5 -241.5t117.5 -188.5t175 -120.5t215 -43.5h4v-2q111 0 212 43.5t176.5 120.5t120 189.5t44.5 242.5z" />
    <glyph glyph-name="macron" unicode="&#xaf;" horiz-adv-x="681" 
d="M694 1389v-152h-706v152h706z" />
    <glyph glyph-name="degree" unicode="&#xb0;" horiz-adv-x="819" 
d="M117 1165q0 121 85.5 207t207.5 86q121 0 206.5 -85.5t85.5 -207.5t-85.5 -207.5t-206.5 -85.5q-122 0 -207.5 86t-85.5 207zM231 1165q0 -73 52.5 -125.5t126.5 -52.5t126 52.5t52 125.5t-52 125.5t-126 52.5t-126.5 -52.5t-52.5 -125.5z" />
    <glyph glyph-name="plusminus" unicode="&#xb1;" horiz-adv-x="1196" 
d="M483 780v256h230v-256h401v-229h-401v-258h-230v258h-401v229h401zM82 0v229h1032v-229h-1032z" />
    <glyph glyph-name="two.superior" unicode="&#xb2;" horiz-adv-x="681" 
d="M209 1143h-180q0 81 25 141.5t59 91.5t80.5 50t79 23.5t65.5 4.5q140 0 232 -74t92 -202q0 -177 -181 -285q-161 -98 -198 -145h381v-168h-646q3 47 10 81t27.5 80.5t64 93t109.5 91.5q65 44 91.5 62.5t63.5 48.5t50 48.5t23 44t10 54.5q0 2 1 5.5t1 4.5q0 35 -33 66.5
t-90 31.5q-37 0 -64 -11.5t-40.5 -26t-21 -38.5t-9 -37.5t-2.5 -35.5z" />
    <glyph glyph-name="three.superior" unicode="&#xb3;" horiz-adv-x="681" 
d="M207 1174h-174q0 128 79 204t234 76q51 0 100 -13t93.5 -39.5t72 -76t27.5 -115.5q0 -64 -33.5 -107.5t-79.5 -60.5v-4q17 -4 37 -14.5t46 -32.5t42.5 -62.5t16.5 -92.5q0 -123 -90 -202t-232 -79q-36 0 -70 3.5t-84.5 21t-86.5 46.5t-62.5 86t-26.5 134h183
q0 -137 137 -137q131 0 131 127q0 34 -13.5 57.5t-31.5 35.5t-49.5 18.5t-53 7.5t-55.5 1v131h31q24 0 37.5 0.5t37.5 6.5t38 16.5t25 32.5t11 53q0 16 -3.5 30t-13 33t-33.5 30t-60 11t-62 -11.5t-38 -25.5t-18.5 -35t-7.5 -31.5t-1 -22.5z" />
    <glyph glyph-name="acute" unicode="&#xb4;" horiz-adv-x="681" 
d="M729 1536l-301 -299h-207l193 299h315z" />
    <glyph glyph-name="mu" unicode="&#xb5;" horiz-adv-x="1251" 
d="M1118 0h-274v154h-4q-80 -183 -232 -183q-131 0 -188 117v-512h-287v1514h287v-635q0 -242 188 -242q39 0 75 13.5t71 44t56 90.5t21 141v588h287v-1090z" />
    <glyph glyph-name="paragraph" unicode="&#xb6;" 
d="M438 -391v1102q-216 0 -335 94t-119 260q0 106 37 180t107 114t156 57.5t199 17.5h621v-1825h-230v1651h-206v-1651h-230z" />
    <glyph glyph-name="periodcentered" unicode="&#xb7;" horiz-adv-x="569" 
d="M119 518q0 69 48.5 117.5t117.5 48.5t117.5 -48.5t48.5 -117.5t-47.5 -117.5t-118.5 -48.5t-118.5 48.5t-47.5 117.5z" />
    <glyph glyph-name="cedilla" unicode="&#xb8;" horiz-adv-x="681" 
d="M106 -172l117 172h117l-78 -113q38 9 62 9q25 0 52.5 -7.5t57.5 -24t49 -50t19 -78.5q0 -89 -71 -146t-183 -57q-58 0 -104.5 10t-131.5 41l45 99q109 -33 158 -33q36 0 66 22t30 58q0 34 -23.5 53.5t-56.5 19.5q-27 0 -81 -16z" />
    <glyph glyph-name="one.superior" unicode="&#xb9;" horiz-adv-x="681" 
d="M53 1176v127h27q122 0 174.5 45t56.5 106h174v-874h-206v596h-226z" />
    <glyph glyph-name="ordmasculine" unicode="&#xba;" horiz-adv-x="747" 
d="M737 1165q0 -49 -12.5 -96.5t-40.5 -92.5t-69 -79.5t-103 -55t-137 -20.5q-93 0 -165.5 31t-114 82t-62.5 110t-21 121t21 121t62.5 110t114 82t165.5 31q75 0 137 -20.5t103 -55t69 -79.5t40.5 -92.5t12.5 -96.5zM537 1165q0 83 -43.5 140t-118.5 57t-118.5 -57
t-43.5 -140t43.5 -139.5t118.5 -56.5t118.5 56.5t43.5 139.5z" />
    <glyph glyph-name="guillemotright" unicode="&#xbb;" 
d="M821 573l-205 181v237l342 -295v-245l-342 -295v237zM385 573l-205 181v237l342 -295v-245l-342 -295v237z" />
    <glyph glyph-name="onequarter" unicode="&#xbc;" horiz-adv-x="1708" 
d="M1044 322h236q0 93 1 179.5t2 137.5t1 57h-4zM1466 868v-542h103v-142h-103v-184h-194v184h-375v152l348 532h221zM279 -39l876 1493h160l-875 -1493h-161zM53 1176v127h27q122 0 174.5 45t56.5 106h174v-874h-206v596h-226z" />
    <glyph glyph-name="onehalf" unicode="&#xbd;" horiz-adv-x="1708" 
d="M279 -39l876 1493h160l-875 -1493h-161zM53 1176v127h27q122 0 174.5 45t56.5 106h174v-874h-206v596h-226zM1171 563h-180q0 81 25 141.5t59 91.5t80.5 50t79 23.5t65.5 4.5q140 0 232 -74t92 -202q0 -177 -180 -285q-163 -99 -199 -145h381v-168h-645q3 47 10 81
t27.5 80.5t64 93t109.5 91.5q65 44 91.5 62.5t63.5 48.5t50 48.5t23 44t10 54.5q0 2 1 5.5t1 4.5q0 35 -33 67t-90 32q-37 0 -64 -11.5t-40.5 -26.5t-21.5 -39t-9.5 -38t-2.5 -35z" />
    <glyph glyph-name="threequarters" unicode="&#xbe;" horiz-adv-x="1708" 
d="M1245 1454h160l-875 -1493h-161zM223 1174h-174q0 128 79 204t234 76q51 0 100 -13t93.5 -39.5t72 -76t27.5 -115.5q0 -64 -33.5 -107.5t-78.5 -60.5v-4q17 -4 36.5 -14.5t45.5 -32.5t42.5 -62.5t16.5 -92.5q0 -123 -90 -202t-232 -79q-36 0 -69.5 3.5t-84 21t-86.5 46.5
t-62.5 86t-26.5 134h182q0 -137 137 -137q131 0 131 127q0 34 -13.5 57.5t-31.5 35.5t-49 18.5t-52.5 7.5t-55.5 1v131h30q24 0 37.5 0.5t38 6.5t38.5 16.5t25 32.5t11 53q0 16 -3.5 30t-13.5 33t-34 30t-60 11t-62 -11.5t-38 -25.5t-18.5 -35t-7.5 -31.5t-1 -22.5z
M1313 868h221v-542h102v-142h-102v-184h-195v184h-374v152zM1110 326h229q0 92 1 177t2 134t1 51h-4z" />
    <glyph glyph-name="questiondown" unicode="&#xbf;" horiz-adv-x="1251" 
d="M485 664h271q0 -81 -6 -130.5t-28 -100.5t-63 -93t-112 -92q-127 -87 -127 -203q0 -57 18.5 -98.5t49 -63.5t63 -31.5t67.5 -9.5q53 0 93 16t62 38.5t37 57.5t20.5 62t9.5 62v2h288q0 -103 -30 -186t-78.5 -136.5t-113.5 -90t-132 -51.5t-137 -15q-33 0 -68.5 3t-89 13.5
t-101 28.5t-97.5 51.5t-86 77.5t-59 112t-23 150q0 81 30.5 147.5t81 117.5t135.5 112q49 35 73 61t38 71.5t14 117.5zM465 801v289h299v-289h-299z" />
    <glyph glyph-name="Agrave" unicode="&#xc0;" horiz-adv-x="1478" 
d="M467 303l-102 -303h-324l524 1470h355l518 -1470h-334l-94 303h-543zM737 1139l-188 -582h375l-183 582h-4zM653 1618l-301 299h316l192 -299h-207z" />
    <glyph glyph-name="Aacute" unicode="&#xc1;" horiz-adv-x="1478" 
d="M467 303l-102 -303h-324l524 1470h355l518 -1470h-334l-94 303h-543zM737 1139l-188 -582h375l-183 582h-4zM1128 1917l-301 -299h-206l192 299h315z" />
    <glyph glyph-name="Acircumflex" unicode="&#xc2;" horiz-adv-x="1478" 
d="M467 303l-102 -303h-324l524 1470h355l518 -1470h-334l-94 303h-543zM737 1139l-188 -582h375l-183 582h-4zM868 1917l234 -299h-232l-131 168l-129 -168h-231l233 299h256z" />
    <glyph glyph-name="Atilde" unicode="&#xc3;" horiz-adv-x="1478" 
d="M467 303l-102 -303h-324l524 1470h355l518 -1470h-334l-94 303h-543zM737 1139l-188 -582h375l-183 582h-4zM983 1890h133q-4 -25 -10.5 -49.5t-23.5 -62t-39.5 -65t-62 -48t-87.5 -20.5q-57 0 -156 32q-21 6 -55.5 18.5t-54 17.5t-35.5 5q-25 0 -44.5 -10t-29.5 -26
t-15 -28t-7 -24h-131q19 99 59 156q71 96 188 96q32 0 60 -8t88 -31q91 -35 127 -35q77 0 96 82z" />
    <glyph glyph-name="Adieresis" unicode="&#xc4;" horiz-adv-x="1478" 
d="M467 303l-102 -303h-324l524 1470h355l518 -1470h-334l-94 303h-543zM737 1139l-188 -582h375l-183 582h-4zM670 1874v-236h-258v236h258zM1069 1874v-236h-258v236h258z" />
    <glyph glyph-name="Aring" unicode="&#xc5;" horiz-adv-x="1478" 
d="M467 303l-102 -303h-324l524 1470h355l518 -1470h-334l-94 303h-543zM737 1139l-188 -582h375l-183 582h-4zM963 1757q0 -92 -70 -152.5t-152 -60.5t-151.5 60.5t-69.5 152.5t69.5 152.5t151.5 60.5t152 -60.5t70 -152.5zM848 1757q0 44 -31.5 75.5t-75.5 31.5t-75 -31.5
t-31 -75.5t31 -75t75 -31t75.5 31t31.5 75z" />
    <glyph glyph-name="AE" unicode="&#xc6;" horiz-adv-x="2048" 
d="M1180 641v-381h774v-260h-1075v313h-441l-106 -313h-322l537 1470h1392v-260h-759v-309h684v-260h-684zM518 555h361v655h-134z" />
    <glyph glyph-name="Ccedilla" unicode="&#xc7;" horiz-adv-x="1478" 
d="M1094 504h307q-46 -241 -198.5 -386t-403.5 -155l-54 -76q37 9 62 9t52.5 -7.5t57.5 -24t49 -50t19 -78.5q0 -89 -71 -146t-183 -57q-58 0 -104 10t-131 41l45 99q109 -33 157 -33q36 0 66.5 22t30.5 58q0 34 -23.5 53.5t-56.5 19.5q-28 0 -82 -16l-43 41l90 137
q-131 13 -238.5 68.5t-186 150.5t-122 235t-43.5 314q0 188 52 337.5t144 244t214 144.5t266 50q127 0 233 -33.5t176.5 -87t121 -123t75 -139t29.5 -137.5h-307q-8 27 -13 42.5t-18 45.5t-27.5 49.5t-40 44t-56 38.5t-75 24t-96.5 10q-48 0 -94.5 -13t-97 -48.5t-88 -91
t-61.5 -149t-24 -212.5q0 -102 21 -190t63.5 -159t114.5 -112t166 -41q128 0 213 71.5t113 205.5z" />
    <glyph glyph-name="Egrave" unicode="&#xc8;" horiz-adv-x="1366" 
d="M1237 1470v-260h-780v-309h717v-260h-717v-381h815v-260h-1116v1470h1081zM596 1618l-301 299h315l193 -299h-207z" />
    <glyph glyph-name="Eacute" unicode="&#xc9;" horiz-adv-x="1366" 
d="M1237 1470v-260h-780v-309h717v-260h-717v-381h815v-260h-1116v1470h1081zM1071 1917l-301 -299h-207l193 299h315z" />
    <glyph glyph-name="Ecircumflex" unicode="&#xca;" horiz-adv-x="1366" 
d="M1237 1470v-260h-780v-309h717v-260h-717v-381h815v-260h-1116v1470h1081zM811 1917l233 -299h-231l-131 168l-129 -168h-231l233 299h256z" />
    <glyph glyph-name="Edieresis" unicode="&#xcb;" horiz-adv-x="1366" 
d="M1237 1470v-260h-780v-309h717v-260h-717v-381h815v-260h-1116v1470h1081zM612 1874v-236h-258v236h258zM1012 1874v-236h-258v236h258z" />
    <glyph glyph-name="Igrave" unicode="&#xcc;" horiz-adv-x="569" 
d="M438 1470v-1470h-307v1470h307zM199 1618l-301 299h315l193 -299h-207z" />
    <glyph glyph-name="Iacute" unicode="&#xcd;" horiz-adv-x="569" 
d="M438 1470v-1470h-307v1470h307zM674 1917l-301 -299h-207l192 299h316z" />
    <glyph glyph-name="Icircumflex" unicode="&#xce;" horiz-adv-x="569" 
d="M438 1470v-1470h-307v1470h307zM414 1917l233 -299h-231l-131 168l-129 -168h-232l234 299h256z" />
    <glyph glyph-name="Idieresis" unicode="&#xcf;" horiz-adv-x="569" 
d="M438 1470v-1470h-307v1470h307zM215 1874v-236h-258v236h258zM614 1874v-236h-258v236h258z" />
    <glyph glyph-name="Eth" unicode="&#xd0;" horiz-adv-x="1478" 
d="M156 647h-166v254h166v569h649q103 0 189 -24.5t146.5 -65t107.5 -98.5t76 -119.5t47 -132t25 -133.5t7 -127q0 -71 -8 -142t-28 -148t-51 -145.5t-79.5 -130.5t-110 -106.5t-147 -71t-186.5 -26.5h-637v647zM457 1217v-316h340v-254h-340v-393h299q90 0 157 42.5
t104.5 115t55 156.5t17.5 180q0 90 -12 162.5t-31.5 120.5t-48.5 83.5t-57.5 54.5t-64.5 30.5t-63.5 14.5t-60.5 3h-295z" />
    <glyph glyph-name="Ntilde" unicode="&#xd1;" horiz-adv-x="1478" 
d="M1053 446v1024h286v-1470h-307l-600 1049h-4v-1049h-287v1470h324l584 -1024h4zM983 1890h133q-4 -25 -10.5 -49.5t-23.5 -62t-39.5 -65t-62 -48t-87.5 -20.5q-57 0 -156 32q-21 6 -55.5 18.5t-54 17.5t-35.5 5q-25 0 -44.5 -10t-29.5 -26t-15 -28t-7 -24h-131
q19 99 59 156q71 96 188 96q32 0 60 -8t88 -31q91 -35 127 -35q77 0 96 82z" />
    <glyph glyph-name="Ograve" unicode="&#xd2;" horiz-adv-x="1593" 
d="M90 735q0 142 29.5 259.5t76 196t111.5 138.5t129 93t136 53.5t124 27t101 6.5t101 -6.5t123.5 -27t135.5 -53.5t129 -93t111.5 -138.5t76 -196t29.5 -259.5t-29.5 -259.5t-76 -196t-111.5 -138.5t-129 -93t-135.5 -53.5t-123.5 -27t-101 -6.5t-101 6.5t-124 27
t-136 53.5t-129 93t-111.5 138.5t-76 196t-29.5 259.5zM397 735q0 -118 26 -211t66.5 -148.5t95.5 -91.5t106.5 -49.5t105.5 -13.5t105.5 13.5t106 49.5t95 91.5t66.5 148.5t26 211t-26 211t-66.5 148.5t-95 91.5t-106 49.5t-105.5 13.5t-105.5 -13.5t-106.5 -49.5
t-95.5 -91.5t-66.5 -148.5t-26 -211zM711 1618l-301 299h315l193 -299h-207z" />
    <glyph glyph-name="Oacute" unicode="&#xd3;" horiz-adv-x="1593" 
d="M90 735q0 142 29.5 259.5t76 196t111.5 138.5t129 93t136 53.5t124 27t101 6.5t101 -6.5t123.5 -27t135.5 -53.5t129 -93t111.5 -138.5t76 -196t29.5 -259.5t-29.5 -259.5t-76 -196t-111.5 -138.5t-129 -93t-135.5 -53.5t-123.5 -27t-101 -6.5t-101 6.5t-124 27
t-136 53.5t-129 93t-111.5 138.5t-76 196t-29.5 259.5zM397 735q0 -118 26 -211t66.5 -148.5t95.5 -91.5t106.5 -49.5t105.5 -13.5t105.5 13.5t106 49.5t95 91.5t66.5 148.5t26 211t-26 211t-66.5 148.5t-95 91.5t-106 49.5t-105.5 13.5t-105.5 -13.5t-106.5 -49.5
t-95.5 -91.5t-66.5 -148.5t-26 -211zM1186 1917l-301 -299h-207l192 299h316z" />
    <glyph glyph-name="Ocircumflex" unicode="&#xd4;" horiz-adv-x="1593" 
d="M90 735q0 142 29.5 259.5t76 196t111.5 138.5t129 93t136 53.5t124 27t101 6.5t101 -6.5t123.5 -27t135.5 -53.5t129 -93t111.5 -138.5t76 -196t29.5 -259.5t-29.5 -259.5t-76 -196t-111.5 -138.5t-129 -93t-135.5 -53.5t-123.5 -27t-101 -6.5t-101 6.5t-124 27
t-136 53.5t-129 93t-111.5 138.5t-76 196t-29.5 259.5zM397 735q0 -118 26 -211t66.5 -148.5t95.5 -91.5t106.5 -49.5t105.5 -13.5t105.5 13.5t106 49.5t95 91.5t66.5 148.5t26 211t-26 211t-66.5 148.5t-95 91.5t-106 49.5t-105.5 13.5t-105.5 -13.5t-106.5 -49.5
t-95.5 -91.5t-66.5 -148.5t-26 -211zM926 1917l233 -299h-231l-131 168l-129 -168h-232l234 299h256z" />
    <glyph glyph-name="Otilde" unicode="&#xd5;" horiz-adv-x="1593" 
d="M90 735q0 142 29.5 259.5t76 196t111.5 138.5t129 93t136 53.5t124 27t101 6.5t101 -6.5t123.5 -27t135.5 -53.5t129 -93t111.5 -138.5t76 -196t29.5 -259.5t-29.5 -259.5t-76 -196t-111.5 -138.5t-129 -93t-135.5 -53.5t-123.5 -27t-101 -6.5t-101 6.5t-124 27
t-136 53.5t-129 93t-111.5 138.5t-76 196t-29.5 259.5zM397 735q0 -118 26 -211t66.5 -148.5t95.5 -91.5t106.5 -49.5t105.5 -13.5t105.5 13.5t106 49.5t95 91.5t66.5 148.5t26 211t-26 211t-66.5 148.5t-95 91.5t-106 49.5t-105.5 13.5t-105.5 -13.5t-106.5 -49.5
t-95.5 -91.5t-66.5 -148.5t-26 -211zM1040 1890h134q-4 -24 -10.5 -49.5t-24 -62.5t-40 -65t-62 -48t-87.5 -20q-56 0 -155 32q-21 6 -56 18.5t-54.5 17.5t-35.5 5q-25 0 -44.5 -10t-29.5 -26t-15 -28t-7 -24h-131q19 99 59 156q71 96 189 96q32 0 59 -7.5t88 -31.5
q91 -35 127 -35q77 0 96 82z" />
    <glyph glyph-name="Odieresis" unicode="&#xd6;" horiz-adv-x="1593" 
d="M90 735q0 142 29.5 259.5t76 196t111.5 138.5t129 93t136 53.5t124 27t101 6.5t101 -6.5t123.5 -27t135.5 -53.5t129 -93t111.5 -138.5t76 -196t29.5 -259.5t-29.5 -259.5t-76 -196t-111.5 -138.5t-129 -93t-135.5 -53.5t-123.5 -27t-101 -6.5t-101 6.5t-124 27
t-136 53.5t-129 93t-111.5 138.5t-76 196t-29.5 259.5zM397 735q0 -118 26 -211t66.5 -148.5t95.5 -91.5t106.5 -49.5t105.5 -13.5t105.5 13.5t106 49.5t95 91.5t66.5 148.5t26 211t-26 211t-66.5 148.5t-95 91.5t-106 49.5t-105.5 13.5t-105.5 -13.5t-106.5 -49.5
t-95.5 -91.5t-66.5 -148.5t-26 -211zM727 1874v-236h-258v236h258zM1126 1874v-236h-258v236h258z" />
    <glyph glyph-name="multiply" unicode="&#xd7;" horiz-adv-x="1196" 
d="M436 518l-354 354l162 162l354 -354l354 354l162 -162l-354 -354l356 -354l-164 -162l-354 354l-352 -354l-164 162z" />
    <glyph glyph-name="Oslash" unicode="&#xd8;" horiz-adv-x="1593" 
d="M1524 1448l-172 -188q151 -196 151 -525q0 -142 -29.5 -259.5t-76 -196t-111.5 -138.5t-129 -93t-135.5 -53.5t-123.5 -27t-101 -6.5q-48 0 -99 6.5t-116.5 23t-134 52t-125.5 86.5l-168 -184l-86 78l174 190q-152 195 -152 522q0 142 29.5 259.5t76 196t111.5 138.5
t129 93t136 53.5t124 27t101 6.5q66 0 136 -11t166.5 -51t172.5 -104l166 183zM453 446l622 682q-110 121 -278 121q-54 0 -105.5 -13.5t-106.5 -49.5t-95.5 -91.5t-66.5 -148.5t-26 -211q0 -174 56 -289zM1139 1026l-623 -682q110 -123 281 -123q54 0 105.5 13.5t106 49.5
t95 91.5t66.5 148.5t26 211q0 183 -57 291z" />
    <glyph glyph-name="Ugrave" unicode="&#xd9;" horiz-adv-x="1478" 
d="M1333 1470v-956q0 -282 -158 -417.5t-446 -135.5q-125 0 -251.5 40t-215.5 138q-109 122 -115 357v974h314v-954q0 -146 73.5 -220.5t188.5 -74.5q154 0 225.5 71.5t71.5 209.5v968h313zM653 1618l-301 299h316l192 -299h-207z" />
    <glyph glyph-name="Uacute" unicode="&#xda;" horiz-adv-x="1478" 
d="M1333 1470v-956q0 -282 -158 -417.5t-446 -135.5q-125 0 -251.5 40t-215.5 138q-109 122 -115 357v974h314v-954q0 -146 73.5 -220.5t188.5 -74.5q154 0 225.5 71.5t71.5 209.5v968h313zM1128 1917l-301 -299h-206l192 299h315z" />
    <glyph glyph-name="Ucircumflex" unicode="&#xdb;" horiz-adv-x="1478" 
d="M1333 1470v-956q0 -282 -158 -417.5t-446 -135.5q-125 0 -251.5 40t-215.5 138q-109 122 -115 357v974h314v-954q0 -146 73.5 -220.5t188.5 -74.5q154 0 225.5 71.5t71.5 209.5v968h313zM868 1917l234 -299h-232l-131 168l-129 -168h-231l233 299h256z" />
    <glyph glyph-name="Udieresis" unicode="&#xdc;" horiz-adv-x="1478" 
d="M1333 1470v-956q0 -282 -158 -417.5t-446 -135.5q-125 0 -251.5 40t-215.5 138q-109 122 -115 357v974h314v-954q0 -146 73.5 -220.5t188.5 -74.5q154 0 225.5 71.5t71.5 209.5v968h313zM670 1874v-236h-258v236h258zM1069 1874v-236h-258v236h258z" />
    <glyph glyph-name="Yacute" unicode="&#xdd;" horiz-adv-x="1366" 
d="M846 551v-551h-307v555l-508 915h362l305 -639l291 639h348zM1071 1917l-301 -299h-207l193 299h315z" />
    <glyph glyph-name="Thorn" unicode="&#xde;" horiz-adv-x="1366" 
d="M156 0v1470h307v-200h364q213 0 335 -128.5t122 -346.5q0 -47 -10 -100.5t-42 -121.5t-81 -121t-136.5 -89.5t-199.5 -36.5h-352v-326h-307zM463 580h285q47 0 84.5 9.5t61 23.5t40.5 37t25 41t12.5 44.5t5 39.5t0.5 34q0 108 -64 157.5t-206 49.5h-244v-436z" />
    <glyph glyph-name="germandbls" unicode="&#xdf;" horiz-adv-x="1251" 
d="M571 -16v225q20 -2 60 -2q268 0 268 254q0 48 -11.5 85.5t-27.5 62.5t-44.5 44t-51.5 28.5t-60.5 16.5t-59 9t-58.5 4v198q32 1 48.5 2t45 5.5t44 11t35.5 19.5t30.5 31t18 46t7.5 63q0 51 -18.5 87.5t-42 54t-57.5 27.5t-51.5 11t-37.5 1q-31 0 -60.5 -9t-57.5 -29
t-45 -57.5t-17 -87.5v-1085h-287v1104q0 63 17.5 120t55.5 107t93 87t135 58t176 21q37 0 71.5 -2.5t85 -12t93 -25.5t87.5 -46.5t76 -71.5t51 -103.5t20 -139.5q0 -88 -43 -155.5t-107 -98.5q62 -28 107.5 -66t69 -74.5t37.5 -82.5t17 -78t3 -72q0 -73 -15.5 -141.5
t-53 -134.5t-93.5 -114.5t-143.5 -78t-196.5 -29.5q-33 0 -113 13z" />
    <glyph glyph-name="agrave" unicode="&#xe0;" 
d="M1016 803v-590q0 -89 16 -124.5t47 -45.5v-43h-309q-21 66 -27 129q-33 -34 -57.5 -54.5t-68 -48.5t-100.5 -41.5t-126 -13.5q-64 0 -121.5 18.5t-105.5 55.5t-76.5 100t-28.5 144q0 153 86.5 240t231.5 108l258 39q100 13 100 86q0 35 -13 59.5t-31 37.5t-46.5 20
t-49 8.5t-48.5 1.5q-51 0 -86.5 -14t-53 -39.5t-25 -47.5t-11.5 -51h-277q10 97 43 167.5t78 111t109.5 64.5t123.5 31t134 7q53 0 105 -6.5t113.5 -27.5t107.5 -54t77 -91.5t31 -135.5zM735 391v139q-46 -37 -194 -59q-46 -8 -76 -17t-60 -26.5t-44.5 -47.5t-14.5 -73
q0 -68 41 -99.5t92 -31.5q101 0 178.5 60t77.5 155zM483 1237l-301 299h316l192 -299h-207z" />
    <glyph glyph-name="aacute" unicode="&#xe1;" 
d="M1016 803v-590q0 -89 16 -124.5t47 -45.5v-43h-309q-21 66 -27 129q-33 -34 -57.5 -54.5t-68 -48.5t-100.5 -41.5t-126 -13.5q-64 0 -121.5 18.5t-105.5 55.5t-76.5 100t-28.5 144q0 153 86.5 240t231.5 108l258 39q100 13 100 86q0 35 -13 59.5t-31 37.5t-46.5 20
t-49 8.5t-48.5 1.5q-51 0 -86.5 -14t-53 -39.5t-25 -47.5t-11.5 -51h-277q10 97 43 167.5t78 111t109.5 64.5t123.5 31t134 7q53 0 105 -6.5t113.5 -27.5t107.5 -54t77 -91.5t31 -135.5zM735 391v139q-46 -37 -194 -59q-46 -8 -76 -17t-60 -26.5t-44.5 -47.5t-14.5 -73
q0 -68 41 -99.5t92 -31.5q101 0 178.5 60t77.5 155zM958 1536l-301 -299h-206l192 299h315z" />
    <glyph glyph-name="acircumflex" unicode="&#xe2;" 
d="M1016 803v-590q0 -89 16 -124.5t47 -45.5v-43h-309q-21 66 -27 129q-33 -34 -57.5 -54.5t-68 -48.5t-100.5 -41.5t-126 -13.5q-64 0 -121.5 18.5t-105.5 55.5t-76.5 100t-28.5 144q0 153 86.5 240t231.5 108l258 39q100 13 100 86q0 35 -13 59.5t-31 37.5t-46.5 20
t-49 8.5t-48.5 1.5q-51 0 -86.5 -14t-53 -39.5t-25 -47.5t-11.5 -51h-277q10 97 43 167.5t78 111t109.5 64.5t123.5 31t134 7q53 0 105 -6.5t113.5 -27.5t107.5 -54t77 -91.5t31 -135.5zM735 391v139q-46 -37 -194 -59q-46 -8 -76 -17t-60 -26.5t-44.5 -47.5t-14.5 -73
q0 -68 41 -99.5t92 -31.5q101 0 178.5 60t77.5 155zM698 1536l234 -299h-232l-131 168l-129 -168h-231l233 299h256z" />
    <glyph glyph-name="atilde" unicode="&#xe3;" 
d="M1016 803v-590q0 -89 16 -124.5t47 -45.5v-43h-309q-21 66 -27 129q-33 -34 -57.5 -54.5t-68 -48.5t-100.5 -41.5t-126 -13.5q-64 0 -121.5 18.5t-105.5 55.5t-76.5 100t-28.5 144q0 153 86.5 240t231.5 108l258 39q100 13 100 86q0 35 -13 59.5t-31 37.5t-46.5 20
t-49 8.5t-48.5 1.5q-51 0 -86.5 -14t-53 -39.5t-25 -47.5t-11.5 -51h-277q10 97 43 167.5t78 111t109.5 64.5t123.5 31t134 7q53 0 105 -6.5t113.5 -27.5t107.5 -54t77 -91.5t31 -135.5zM735 391v139q-46 -37 -194 -59q-46 -8 -76 -17t-60 -26.5t-44.5 -47.5t-14.5 -73
q0 -68 41 -99.5t92 -31.5q101 0 178.5 60t77.5 155zM813 1509h133q-4 -25 -10.5 -49.5t-23.5 -62t-39.5 -65t-62 -48t-87.5 -20.5q-57 0 -156 32q-21 6 -55.5 18.5t-54 17.5t-35.5 5q-25 0 -44.5 -10t-29.5 -26t-15 -28t-7 -24h-131q19 99 59 156q71 96 188 96q32 0 60 -8
t88 -31q91 -35 127 -35q77 0 96 82z" />
    <glyph glyph-name="adieresis" unicode="&#xe4;" 
d="M1016 803v-590q0 -89 16 -124.5t47 -45.5v-43h-309q-21 66 -27 129q-33 -34 -57.5 -54.5t-68 -48.5t-100.5 -41.5t-126 -13.5q-64 0 -121.5 18.5t-105.5 55.5t-76.5 100t-28.5 144q0 153 86.5 240t231.5 108l258 39q100 13 100 86q0 35 -13 59.5t-31 37.5t-46.5 20
t-49 8.5t-48.5 1.5q-51 0 -86.5 -14t-53 -39.5t-25 -47.5t-11.5 -51h-277q10 97 43 167.5t78 111t109.5 64.5t123.5 31t134 7q53 0 105 -6.5t113.5 -27.5t107.5 -54t77 -91.5t31 -135.5zM735 391v139q-46 -37 -194 -59q-46 -8 -76 -17t-60 -26.5t-44.5 -47.5t-14.5 -73
q0 -68 41 -99.5t92 -31.5q101 0 178.5 60t77.5 155zM500 1493v-236h-258v236h258zM899 1493v-236h-258v236h258z" />
    <glyph glyph-name="aring" unicode="&#xe5;" 
d="M1016 803v-590q0 -89 16 -124.5t47 -45.5v-43h-309q-21 66 -27 129q-33 -34 -57.5 -54.5t-68 -48.5t-100.5 -41.5t-126 -13.5q-64 0 -121.5 18.5t-105.5 55.5t-76.5 100t-28.5 144q0 153 86.5 240t231.5 108l258 39q100 13 100 86q0 35 -13 59.5t-31 37.5t-46.5 20
t-49 8.5t-48.5 1.5q-51 0 -86.5 -14t-53 -39.5t-25 -47.5t-11.5 -51h-277q10 97 43 167.5t78 111t109.5 64.5t123.5 31t134 7q53 0 105 -6.5t113.5 -27.5t107.5 -54t77 -91.5t31 -135.5zM735 391v139q-46 -37 -194 -59q-46 -8 -76 -17t-60 -26.5t-44.5 -47.5t-14.5 -73
q0 -68 41 -99.5t92 -31.5q101 0 178.5 60t77.5 155zM793 1376q0 -92 -70 -152.5t-152 -60.5t-151.5 60.5t-69.5 152.5t69.5 152.5t151.5 60.5t152 -60.5t70 -152.5zM678 1376q0 44 -31.5 75.5t-75.5 31.5t-75 -31.5t-31 -75.5t31 -75t75 -31t75.5 31t31.5 75z" />
    <glyph glyph-name="ae" unicode="&#xe6;" horiz-adv-x="1820" 
d="M1450 319h295q-27 -94 -79.5 -164t-119.5 -109t-136.5 -57t-143.5 -18h-15q-73 0 -134 12t-97.5 27t-71.5 43t-50.5 45.5t-39.5 48.5q-52 -82 -163 -129t-249 -47q-54 0 -101.5 7t-102 28.5t-93.5 56.5t-64.5 97.5t-25.5 144.5q0 112 65.5 198.5t211.5 112.5l268 46
q99 17 123.5 35t24.5 71q0 13 -0.5 20t-4.5 21.5t-11 23.5t-21.5 21t-35.5 18.5t-53.5 11.5t-74.5 5q-55 0 -92 -16.5t-53 -43t-21.5 -48.5t-5.5 -46h-281q30 383 492 383q200 0 336 -121q34 26 55 40t62 36t91.5 33t110.5 12q71 0 136.5 -14t136 -54.5t121.5 -104.5
t84.5 -174t33.5 -253v-51h-747q3 -26 4.5 -41t9 -46.5t17.5 -52t29.5 -47t45 -42t64 -26.5t86.5 -11q63 0 115 31t69 87zM745 385v137q-23 -19 -63.5 -32t-149.5 -29q-49 -7 -78 -15t-56.5 -24.5t-39.5 -45.5t-12 -73q0 -62 43.5 -94.5t118.5 -32.5q87 0 162 62t75 147z
M1018 653h444q-6 63 -28 109.5t-54.5 72t-67 37t-71.5 11.5q-99 0 -155 -60t-68 -170z" />
    <glyph glyph-name="ccedilla" unicode="&#xe7;" 
d="M330 -416l45 99q109 -33 157 -33q36 0 66.5 22t30.5 58q0 34 -23.5 53.5t-56.5 19.5q-28 0 -82 -16l-43 41l96 145q-105 8 -186.5 46t-130 92.5t-79.5 126t-42.5 138.5t-11.5 138q0 135 30 243.5t92 190t163.5 126t236.5 44.5q57 0 114 -10.5t121.5 -39.5t114.5 -73.5
t86.5 -121t44.5 -173.5h-291q-5 30 -15.5 57.5t-30 56.5t-53 46t-77.5 17h-14q-52 0 -92.5 -20t-65.5 -52t-41 -75t-22 -84t-6 -85q0 -34 0.5 -57.5t5 -64t13 -68.5t24.5 -61.5t39 -54t58.5 -34.5t80.5 -14q51 0 91 22t61 54.5t31.5 62t10.5 51.5h291q-4 -39 -15.5 -82
t-42.5 -102t-75.5 -106t-122 -85t-174.5 -47l-61 -88q38 9 61 9q25 0 52.5 -7.5t57.5 -24t49 -50t19 -78.5q0 -89 -71 -146t-183 -57q-58 0 -104 10t-131 41z" />
    <glyph glyph-name="egrave" unicode="&#xe8;" 
d="M774 319h295q-27 -94 -79.5 -164t-119.5 -109t-136.5 -57t-143.5 -18q-95 0 -174.5 18.5t-149 62t-117 111t-75 170t-27.5 234.5q0 35 3.5 72.5t17 93.5t34.5 106t61.5 102.5t93 90.5t133.5 62t179 24q71 0 136.5 -14t136 -54.5t121.5 -104.5t84.5 -174t33.5 -253v-51
h-747q3 -26 4.5 -41t9 -46.5t17.5 -52t29.5 -47t45 -42t64 -26.5t86.5 -11q63 0 115 31t69 87zM342 653h444q-6 63 -28 109.5t-54.5 72t-67 37t-71.5 11.5q-99 0 -155 -60t-68 -170zM483 1237l-301 299h316l192 -299h-207z" />
    <glyph glyph-name="eacute" unicode="&#xe9;" 
d="M774 319h295q-27 -94 -79.5 -164t-119.5 -109t-136.5 -57t-143.5 -18q-95 0 -174.5 18.5t-149 62t-117 111t-75 170t-27.5 234.5q0 35 3.5 72.5t17 93.5t34.5 106t61.5 102.5t93 90.5t133.5 62t179 24q71 0 136.5 -14t136 -54.5t121.5 -104.5t84.5 -174t33.5 -253v-51
h-747q3 -26 4.5 -41t9 -46.5t17.5 -52t29.5 -47t45 -42t64 -26.5t86.5 -11q63 0 115 31t69 87zM342 653h444q-6 63 -28 109.5t-54.5 72t-67 37t-71.5 11.5q-99 0 -155 -60t-68 -170zM958 1536l-301 -299h-206l192 299h315z" />
    <glyph glyph-name="ecircumflex" unicode="&#xea;" 
d="M774 319h295q-27 -94 -79.5 -164t-119.5 -109t-136.5 -57t-143.5 -18q-95 0 -174.5 18.5t-149 62t-117 111t-75 170t-27.5 234.5q0 35 3.5 72.5t17 93.5t34.5 106t61.5 102.5t93 90.5t133.5 62t179 24q71 0 136.5 -14t136 -54.5t121.5 -104.5t84.5 -174t33.5 -253v-51
h-747q3 -26 4.5 -41t9 -46.5t17.5 -52t29.5 -47t45 -42t64 -26.5t86.5 -11q63 0 115 31t69 87zM342 653h444q-6 63 -28 109.5t-54.5 72t-67 37t-71.5 11.5q-99 0 -155 -60t-68 -170zM698 1536l234 -299h-232l-131 168l-129 -168h-231l233 299h256z" />
    <glyph glyph-name="edieresis" unicode="&#xeb;" 
d="M774 319h295q-27 -94 -79.5 -164t-119.5 -109t-136.5 -57t-143.5 -18q-95 0 -174.5 18.5t-149 62t-117 111t-75 170t-27.5 234.5q0 35 3.5 72.5t17 93.5t34.5 106t61.5 102.5t93 90.5t133.5 62t179 24q71 0 136.5 -14t136 -54.5t121.5 -104.5t84.5 -174t33.5 -253v-51
h-747q3 -26 4.5 -41t9 -46.5t17.5 -52t29.5 -47t45 -42t64 -26.5t86.5 -11q63 0 115 31t69 87zM342 653h444q-6 63 -28 109.5t-54.5 72t-67 37t-71.5 11.5q-99 0 -155 -60t-68 -170zM500 1493v-236h-258v236h258zM899 1493v-236h-258v236h258z" />
    <glyph glyph-name="igrave" unicode="&#xec;" horiz-adv-x="569" 
d="M141 1090h287v-1090h-287v1090zM199 1237l-301 299h315l193 -299h-207z" />
    <glyph glyph-name="iacute" unicode="&#xed;" horiz-adv-x="569" 
d="M141 1090h287v-1090h-287v1090zM674 1536l-301 -299h-207l192 299h316z" />
    <glyph glyph-name="icircumflex" unicode="&#xee;" horiz-adv-x="569" 
d="M141 1090h287v-1090h-287v1090zM414 1536l233 -299h-231l-131 168l-129 -168h-232l234 299h256z" />
    <glyph glyph-name="idieresis" unicode="&#xef;" horiz-adv-x="569" 
d="M141 1090h287v-1090h-287v1090zM215 1493v-236h-258v236h258zM614 1493v-236h-258v236h258z" />
    <glyph glyph-name="eth" unicode="&#xf0;" horiz-adv-x="1251" 
d="M627 829q-62 0 -111 -23.5t-76.5 -57t-45 -76.5t-23.5 -76t-6 -61q0 -157 70.5 -239.5t193.5 -82.5q50 0 91 14.5t67.5 37t46 54.5t30 61.5t16.5 64t7.5 56t1.5 42.5q0 28 -5.5 60t-23 74t-44.5 74.5t-76.5 55t-112.5 22.5zM1073 1403l-207 -90q139 -131 228.5 -313.5
t89.5 -395.5q0 -135 -33 -244t-86.5 -180t-126 -119.5t-148.5 -69t-157 -20.5q-84 0 -162.5 18.5t-152 62t-128 107.5t-87.5 163t-33 221q0 229 140.5 378.5t364.5 149.5q33 0 69.5 -6.5t91.5 -33.5t91 -73l4 5q-58 124 -198 247l-221 -96l-129 107l221 96q-85 63 -150 92
l221 100q85 -35 162 -90l209 90z" />
    <glyph glyph-name="ntilde" unicode="&#xf1;" horiz-adv-x="1251" 
d="M1118 754v-754h-287v662q0 27 -1.5 44.5t-6.5 46t-17 47.5t-31.5 38.5t-52.5 29t-77 9.5q-99 0 -162 -66t-63 -186v-625h-287v1090h275v-160h4q15 26 29 45.5t43 48.5t61.5 47.5t83.5 32.5t110 14q167 0 273 -95t106 -269zM868 1509h133q-4 -25 -10.5 -49.5t-23.5 -62
t-39.5 -65t-62 -48t-87.5 -20.5q-56 0 -155 32q-21 6 -56 18.5t-54.5 17.5t-35.5 5q-25 0 -44.5 -10t-29.5 -26t-15 -28t-7 -24h-131q19 99 59 156q71 96 189 96q32 0 59 -7.5t88 -31.5q91 -35 127 -35q77 0 96 82z" />
    <glyph glyph-name="ograve" unicode="&#xf2;" horiz-adv-x="1251" 
d="M1184 545q0 -115 -30 -210.5t-82 -162t-122.5 -112.5t-152 -67.5t-170.5 -21.5t-170.5 21.5t-152 67.5t-122.5 112.5t-82 162t-30 210.5q0 143 45.5 254.5t123.5 180t177 103.5t211 35t211 -35t177 -103.5t123.5 -180t45.5 -254.5zM889 545q0 47 -5.5 88.5t-23 88
t-45.5 79.5t-76.5 54.5t-111.5 21.5t-111.5 -21.5t-76.5 -54.5t-45.5 -79.5t-23 -88t-5.5 -88.5t5.5 -88.5t23 -88t45.5 -79.5t76.5 -54.5t111.5 -21.5t111.5 21.5t76.5 54.5t45.5 79.5t23 88t5.5 88.5zM539 1237l-301 299h315l192 -299h-206z" />
    <glyph glyph-name="oacute" unicode="&#xf3;" horiz-adv-x="1251" 
d="M1184 545q0 -115 -30 -210.5t-82 -162t-122.5 -112.5t-152 -67.5t-170.5 -21.5t-170.5 21.5t-152 67.5t-122.5 112.5t-82 162t-30 210.5q0 143 45.5 254.5t123.5 180t177 103.5t211 35t211 -35t177 -103.5t123.5 -180t45.5 -254.5zM889 545q0 47 -5.5 88.5t-23 88
t-45.5 79.5t-76.5 54.5t-111.5 21.5t-111.5 -21.5t-76.5 -54.5t-45.5 -79.5t-23 -88t-5.5 -88.5t5.5 -88.5t23 -88t45.5 -79.5t76.5 -54.5t111.5 -21.5t111.5 21.5t76.5 54.5t45.5 79.5t23 88t5.5 88.5zM1014 1536l-301 -299h-207l192 299h316z" />
    <glyph glyph-name="ocircumflex" unicode="&#xf4;" horiz-adv-x="1251" 
d="M1184 545q0 -115 -30 -210.5t-82 -162t-122.5 -112.5t-152 -67.5t-170.5 -21.5t-170.5 21.5t-152 67.5t-122.5 112.5t-82 162t-30 210.5q0 143 45.5 254.5t123.5 180t177 103.5t211 35t211 -35t177 -103.5t123.5 -180t45.5 -254.5zM889 545q0 47 -5.5 88.5t-23 88
t-45.5 79.5t-76.5 54.5t-111.5 21.5t-111.5 -21.5t-76.5 -54.5t-45.5 -79.5t-23 -88t-5.5 -88.5t5.5 -88.5t23 -88t45.5 -79.5t76.5 -54.5t111.5 -21.5t111.5 21.5t76.5 54.5t45.5 79.5t23 88t5.5 88.5zM754 1536l233 -299h-231l-131 168l-129 -168h-232l234 299h256z" />
    <glyph glyph-name="otilde" unicode="&#xf5;" horiz-adv-x="1251" 
d="M1184 545q0 -115 -30 -210.5t-82 -162t-122.5 -112.5t-152 -67.5t-170.5 -21.5t-170.5 21.5t-152 67.5t-122.5 112.5t-82 162t-30 210.5q0 143 45.5 254.5t123.5 180t177 103.5t211 35t211 -35t177 -103.5t123.5 -180t45.5 -254.5zM889 545q0 47 -5.5 88.5t-23 88
t-45.5 79.5t-76.5 54.5t-111.5 21.5t-111.5 -21.5t-76.5 -54.5t-45.5 -79.5t-23 -88t-5.5 -88.5t5.5 -88.5t23 -88t45.5 -79.5t76.5 -54.5t111.5 -21.5t111.5 21.5t76.5 54.5t45.5 79.5t23 88t5.5 88.5zM868 1509h133q-4 -25 -10.5 -49.5t-23.5 -62t-39.5 -65t-62 -48
t-87.5 -20.5q-56 0 -155 32q-21 6 -56 18.5t-54.5 17.5t-35.5 5q-25 0 -44.5 -10t-29.5 -26t-15 -28t-7 -24h-131q19 99 59 156q71 96 189 96q32 0 59 -7.5t88 -31.5q91 -35 127 -35q77 0 96 82z" />
    <glyph glyph-name="odieresis" unicode="&#xf6;" horiz-adv-x="1251" 
d="M1184 545q0 -115 -30 -210.5t-82 -162t-122.5 -112.5t-152 -67.5t-170.5 -21.5t-170.5 21.5t-152 67.5t-122.5 112.5t-82 162t-30 210.5q0 143 45.5 254.5t123.5 180t177 103.5t211 35t211 -35t177 -103.5t123.5 -180t45.5 -254.5zM889 545q0 47 -5.5 88.5t-23 88
t-45.5 79.5t-76.5 54.5t-111.5 21.5t-111.5 -21.5t-76.5 -54.5t-45.5 -79.5t-23 -88t-5.5 -88.5t5.5 -88.5t23 -88t45.5 -79.5t76.5 -54.5t111.5 -21.5t111.5 21.5t76.5 54.5t45.5 79.5t23 88t5.5 88.5zM555 1493v-236h-258v236h258zM954 1493v-236h-258v236h258z" />
    <glyph glyph-name="divide" unicode="&#xf7;" horiz-adv-x="1196" 
d="M1114 403h-1032v230h1032v-230zM418 940q0 75 54 128.5t128 53.5q72 0 126 -54.5t54 -127.5q0 -68 -54 -124t-124 -56q-75 0 -129.5 53.5t-54.5 126.5zM418 94q0 75 54 128.5t128 53.5q72 0 126 -54.5t54 -127.5q0 -68 -54 -124t-124 -56q-75 0 -129.5 53.5t-54.5 126.5z
" />
    <glyph glyph-name="oslash" unicode="&#xf8;" horiz-adv-x="1251" 
d="M860 719l-414 -436q63 -70 181 -70q63 0 111.5 21.5t76.5 54.5t45.5 79.5t23 88t5.5 88.5q0 107 -29 174zM395 367l416 438q-69 72 -184 72q-63 0 -111.5 -21.5t-76.5 -54.5t-45.5 -79.5t-23 -88t-5.5 -88.5q0 -107 30 -178zM1206 1081l-145 -151q123 -149 123 -385
q0 -115 -30 -210.5t-82 -162t-122.5 -112.5t-152 -67.5t-170.5 -21.5q-217 0 -363 119l-141 -149l-78 59l150 158q-125 151 -125 387q0 143 45.5 254.5t123.5 180t177 103.5t211 35q215 0 366 -121l142 150z" />
    <glyph glyph-name="ugrave" unicode="&#xf9;" horiz-adv-x="1251" 
d="M1116 1090v-1090h-274v154h-4q-103 -183 -332 -183q-169 0 -270 100.5t-101 301.5v717h287v-676q0 -201 186 -201q39 0 75 12t70.5 38.5t55 77.5t20.5 120v629h287zM539 1237l-301 299h315l192 -299h-206z" />
    <glyph glyph-name="uacute" unicode="&#xfa;" horiz-adv-x="1251" 
d="M1116 1090v-1090h-274v154h-4q-103 -183 -332 -183q-169 0 -270 100.5t-101 301.5v717h287v-676q0 -201 186 -201q39 0 75 12t70.5 38.5t55 77.5t20.5 120v629h287zM1014 1536l-301 -299h-207l192 299h316z" />
    <glyph glyph-name="ucircumflex" unicode="&#xfb;" horiz-adv-x="1251" 
d="M1116 1090v-1090h-274v154h-4q-103 -183 -332 -183q-169 0 -270 100.5t-101 301.5v717h287v-676q0 -201 186 -201q39 0 75 12t70.5 38.5t55 77.5t20.5 120v629h287zM754 1536l233 -299h-231l-131 168l-129 -168h-232l234 299h256z" />
    <glyph glyph-name="udieresis" unicode="&#xfc;" horiz-adv-x="1251" 
d="M1116 1090v-1090h-274v154h-4q-103 -183 -332 -183q-169 0 -270 100.5t-101 301.5v717h287v-676q0 -201 186 -201q39 0 75 12t70.5 38.5t55 77.5t20.5 120v629h287zM555 1493v-236h-258v236h258zM954 1493v-236h-258v236h258z" />
    <glyph glyph-name="yacute" unicode="&#xfd;" 
d="M1104 1090l-375 -1072q-28 -83 -46.5 -135.5t-41 -105t-39.5 -81.5t-41 -56.5t-46 -40t-55.5 -22.5t-68 -12.5t-84.5 -2.5q-47 0 -129 4v229q24 -4 55 -4q44 0 70.5 4.5t52 21t41 50t25.5 88.5l-402 1135h320l233 -803h5l223 803h303zM958 1536l-301 -299h-206l192 299
h315z" />
    <glyph glyph-name="thorn" unicode="&#xfe;" horiz-adv-x="1251" 
d="M401 520q0 -86 24 -154t82.5 -113.5t145.5 -45.5q53 0 95 22t68 56.5t43 80t23.5 87.5t6.5 84q0 68 -13 125.5t-40.5 105t-76 75t-114.5 27.5q-244 0 -244 -350zM414 139v-565h-287v1896h287v-520h4q109 168 313 168q92 0 172.5 -35.5t143.5 -103t100 -176.5t37 -246
q0 -116 -27 -218.5t-80.5 -186t-144 -132.5t-207.5 -49q-57 0 -105.5 12.5t-79 29t-57.5 42.5t-39 43t-26 41h-4z" />
    <glyph glyph-name="ydieresis" unicode="&#xff;" 
d="M1104 1090l-375 -1072q-28 -83 -46.5 -135.5t-41 -105t-39.5 -81.5t-41 -56.5t-46 -40t-55.5 -22.5t-68 -12.5t-84.5 -2.5q-47 0 -129 4v229q24 -4 55 -4q44 0 70.5 4.5t52 21t41 50t25.5 88.5l-402 1135h320l233 -803h5l223 803h303zM500 1493v-236h-258v236h258z
M899 1493v-236h-258v236h258z" />
    <glyph glyph-name="dotlessi" unicode="&#x131;" horiz-adv-x="569" 
d="M141 1090h287v-1090h-287v1090z" />
    <glyph glyph-name="Lslash" unicode="&#x141;" horiz-adv-x="1251" 
d="M725 940l-262 -149v-525h731v-266h-1038v637l-197 -113v160l197 113v673h307v-520l262 150v-160z" />
    <glyph glyph-name="lslash" unicode="&#x142;" horiz-adv-x="569" 
d="M606 1071v-160l-178 -102v-809h-287v664l-178 -103v160l178 102v647h287v-501z" />
    <glyph glyph-name="OE" unicode="&#x152;" horiz-adv-x="2048" 
d="M1286 1210v-309h635v-260h-635v-381h682v-260h-962v102q-68 -76 -136 -108.5t-190 -32.5q-79 0 -157 20.5t-160.5 76t-144.5 139t-102 223t-40 315.5q0 94 14 183.5t42.5 178t77.5 162t115 130t159 88.5t204 32q66 0 120 -11.5t93 -33.5t59.5 -38.5t45.5 -41.5v86h962
v-260h-682zM985 401v666q0 52 -26 91t-66.5 59t-81.5 29t-80 9q-92 0 -162 -41.5t-111 -116t-61 -169t-20 -209.5q0 -69 11 -137t37.5 -135t65 -118t97.5 -82.5t131 -31.5q121 0 193.5 58t72.5 128z" />
    <glyph glyph-name="oe" unicode="&#x153;" horiz-adv-x="1933" 
d="M1561 319h294q-27 -94 -79.5 -164t-119.5 -109t-136.5 -57t-143.5 -18q-86 0 -153.5 13.5t-114 40.5t-70 46t-55.5 52q-123 -152 -356 -152q-89 0 -170.5 21.5t-152 67.5t-122.5 112.5t-82 162t-30 210.5q0 143 45.5 254.5t123.5 180t177 103.5t211 35q110 0 212 -46
t162 -118q36 37 63 60t71 50t99 40.5t122 13.5q71 0 136.5 -14t136 -54.5t121.5 -104.5t84.5 -174t33.5 -253v-51h-748q3 -26 4.5 -41t9 -46.5t17.5 -52t29.5 -47t45 -42t64 -26.5t86.5 -11q64 0 116.5 31t68.5 87zM889 545q0 47 -5.5 88.5t-23 88t-45.5 79.5t-76.5 54.5
t-111.5 21.5t-111.5 -21.5t-76.5 -54.5t-45.5 -79.5t-23 -88t-5.5 -88.5t5.5 -88.5t23 -88t45.5 -79.5t76.5 -54.5t111.5 -21.5t111.5 21.5t76.5 54.5t45.5 79.5t23 88t5.5 88.5zM1128 653h445q-6 63 -28 109.5t-54.5 72t-67 37t-71.5 11.5q-99 0 -155.5 -60t-68.5 -170z
" />
    <glyph glyph-name="Scaron" unicode="&#x160;" horiz-adv-x="1366" 
d="M80 453h295q1 -29 7 -56.5t26.5 -62t52.5 -59.5t90.5 -42.5t134.5 -17.5q47 0 88 4.5t82.5 18t70.5 34t47.5 55t18.5 79.5q0 34 -14 60t-33.5 43t-58.5 32.5t-71 24t-89 22.5l-158 37q-68 16 -102.5 24.5t-93 28t-89.5 38.5t-71.5 52t-61 71.5t-35 94t-14.5 123.5
q0 56 12.5 110.5t50 118.5t97.5 111.5t165 79.5t241 32q129 0 232 -32.5t165 -82.5t103 -115.5t56.5 -125.5t16.5 -119h-295q-3 28 -8 49t-24.5 56t-49 58t-86.5 40.5t-133 17.5q-64 0 -119 -15.5t-96 -56.5t-41 -104q0 -41 14.5 -70t42 -45t48 -23.5t51.5 -14.5l358 -88
q67 -16 118 -34.5t103.5 -50t86.5 -72t55.5 -101.5t21.5 -138q0 -91 -26 -165.5t-66 -123.5t-96 -86t-108.5 -56.5t-111.5 -31.5t-97.5 -15t-73.5 -3q-111 0 -203.5 18t-156.5 47.5t-113 71t-78 85t-47 93.5t-24.5 92t-6.5 85zM1044 1917l-233 -299h-256l-233 299h231
l129 -168l131 168h231z" />
    <glyph glyph-name="scaron" unicode="&#x161;" 
d="M1030 758h-280q-5 32 -13.5 53t-28 44t-57.5 34.5t-94 11.5q-104 0 -140 -30t-36 -76q0 -30 29.5 -52t77.5 -34t109 -26t125 -26.5t125 -37.5t109 -57.5t77.5 -88t29.5 -127.5q0 -91 -34 -160.5t-84.5 -109t-118 -64.5t-125 -33t-115.5 -8q-100 0 -187 19t-164.5 60
t-124 117.5t-49.5 180.5h295q0 -160 238 -160q98 0 140 36t42 77q0 36 -37.5 60.5t-97 38t-131.5 27t-144 35.5t-131.5 55t-97 93.5t-37.5 143.5q0 51 13 99.5t45 97.5t80.5 85.5t126.5 59t176 22.5q462 0 489 -360zM932 1536l-234 -299h-256l-233 299h231l129 -168l131 168
h232z" />
    <glyph glyph-name="Ydieresis" unicode="&#x178;" horiz-adv-x="1366" 
d="M846 551v-551h-307v555l-508 915h362l305 -639l291 639h348zM612 1874v-236h-258v236h258zM1012 1874v-236h-258v236h258z" />
    <glyph glyph-name="Zcaron" unicode="&#x17d;" horiz-adv-x="1251" 
d="M1200 260v-260h-1149v260l760 950h-739v260h1124v-241l-770 -969h774zM987 1917l-233 -299h-256l-234 299h232l129 -168l131 168h231z" />
    <glyph glyph-name="zcaron" unicode="&#x17e;" horiz-adv-x="1024" 
d="M963 854l-551 -618h571v-236h-942v223l559 637h-520v230h883v-236zM874 1536l-233 -299h-256l-233 299h231l129 -168l131 168h231z" />
    <glyph glyph-name="florin" unicode="&#x192;" 
d="M973 977v-199h-275l-120 -735q-7 -43 -14.5 -79t-23 -87t-34.5 -90.5t-49.5 -82t-67.5 -70.5t-89.5 -46t-113.5 -18q-48 0 -87.5 9t-118.5 34l49 227q38 -22 59 -28.5t51 -6.5q69 0 98 58t58 231l117 684h-250v199h280l39 178q7 33 11 50t18.5 59.5t30 69.5t45 63.5
t63.5 58t85.5 37.5t111.5 16q98 0 211 -39l-49 -221q-60 31 -113 31q-59 0 -93 -34.5t-44 -88.5l-31 -180h246z" />
    <glyph glyph-name="circumflex" unicode="&#x2c6;" horiz-adv-x="681" 
d="M469 1536l233 -299h-231l-131 168l-129 -168h-231l233 299h256z" />
    <glyph glyph-name="caron" unicode="&#x2c7;" horiz-adv-x="681" 
d="M702 1536l-233 -299h-256l-233 299h231l129 -168l131 168h231z" />
    <glyph glyph-name="uni02C9" unicode="&#x2c9;" horiz-adv-x="681" 
d="M694 1389v-152h-706v152h706z" />
    <glyph glyph-name="breve" unicode="&#x2d8;" horiz-adv-x="681" 
d="M553 1536h133q-3 -34 -11 -67t-33 -77.5t-62 -76.5t-104 -55t-154 -23q-78 0 -138.5 24t-93.5 57t-55 78t-29.5 77t-9.5 63h135q4 -21 8.5 -35.5t18 -37t33.5 -36t57 -24t86 -10.5q43 0 72 4t62.5 17t55 44t29.5 78z" />
    <glyph glyph-name="dotaccent" unicode="&#x2d9;" horiz-adv-x="681" 
d="M471 1493v-236h-258v236h258z" />
    <glyph glyph-name="ring" unicode="&#x2da;" horiz-adv-x="681" 
d="M563 1376q0 -92 -69.5 -152.5t-151.5 -60.5t-151.5 60.5t-69.5 152.5t69.5 152.5t151.5 60.5t151.5 -60.5t69.5 -152.5zM449 1376q0 44 -31.5 75.5t-75.5 31.5t-75 -31.5t-31 -75.5t31 -75t75 -31t75.5 31t31.5 75z" />
    <glyph glyph-name="ogonek" unicode="&#x2db;" horiz-adv-x="681" 
d="M586 -317l37 -101q-126 -49 -224 -49q-111 0 -182.5 55t-71.5 136q0 94 60.5 166t163.5 110h172v-8q-94 -50 -148.5 -122.5t-54.5 -123.5q0 -47 28.5 -72.5t65.5 -25.5q59 0 154 35z" />
    <glyph glyph-name="tilde" unicode="&#x2dc;" horiz-adv-x="681" 
d="M584 1509h133q-4 -25 -10.5 -49.5t-23.5 -62t-39.5 -65t-62 -48t-87.5 -20.5q-57 0 -156 32q-21 6 -55.5 18.5t-54 17.5t-35.5 5q-33 0 -56 -18.5t-30.5 -35.5t-10.5 -34h-131q19 97 60 156q71 96 188 96q32 0 59 -7.5t88 -31.5q91 -35 127 -35q78 0 97 82z" />
    <glyph glyph-name="hungarumlaut" unicode="&#x2dd;" horiz-adv-x="681" 
d="M526 1536l-301 -299h-207l193 299h315zM995 1536l-301 -299h-207l193 299h315z" />
    <glyph glyph-name="uni03A9" unicode="&#x3a9;" horiz-adv-x="1441" 
d="M354 207v6q-106 101 -177 251t-71 333q0 182 77 333t220 240.5t324 89.5q114 0 213 -38t169.5 -102t121.5 -148t75.5 -176.5t24.5 -186.5q0 -187 -72.5 -342.5t-179.5 -253.5v-6h281v-207h-535v152q107 71 178.5 223.5t71.5 380.5q0 97 -23 184.5t-65.5 156t-110.5 109.5
t-151 41q-162 0 -262.5 -141.5t-100.5 -360.5q0 -212 72.5 -370t177.5 -223v-152h-534v207h276z" />
    <glyph glyph-name="uni03BC" unicode="&#x3bc;" horiz-adv-x="1251" 
d="M1118 0h-274v154h-4q-80 -183 -232 -183q-131 0 -188 117v-512h-287v1514h287v-635q0 -242 188 -242q39 0 75 13.5t71 44t56 90.5t21 141v588h287v-1090z" />
    <glyph glyph-name="pi" unicode="&#x3c0;" horiz-adv-x="1222" 
d="M1176 862h-146v-557q0 -183 27 -305h-246q-35 65 -35 293v569h-284q-9 -191 -46.5 -452t-87.5 -410h-245q51 174 87.5 429.5t39.5 432.5q-140 0 -201 -20l-29 170q86 69 332 69h854z" />
    <glyph glyph-name="afii10023" unicode="&#x401;" horiz-adv-x="1366" 
d="M168 0v1470h1079v-253h-784v-326h721v-254h-721v-371h819v-266h-1114zM350 1597v242h266v-242h-266zM752 1597v242h266v-242h-266z" />
    <glyph glyph-name="afii10051" unicode="&#x402;" horiz-adv-x="1558" 
d="M1174 1470v-251h-472v-345q108 20 156 26.5t109 6.5q131 0 232 -45t163 -125t93.5 -184t31.5 -229q0 -448 -309 -643q-52 -32 -106.5 -54t-108 -32t-87 -13.5t-77.5 -5.5v248q171 17 266 119q115 125 115 364q0 348 -275 348q-96 0 -203 -26v-629h-307v1219h-379v251
h1158z" />
    <glyph glyph-name="afii10052" unicode="&#x403;" horiz-adv-x="1183" 
d="M168 0v1470h989v-253h-682v-1217h-307zM457 1597l190 295h318l-303 -295h-205z" />
    <glyph glyph-name="afii10053" unicode="&#x404;" horiz-adv-x="1478" 
d="M852 856v-242h-442q0 -174 97.5 -278t268.5 -107q222 0 303 246h307q-21 -109 -71.5 -200.5t-127.5 -162t-186.5 -110t-240.5 -39.5q-58 0 -116 9t-125.5 33t-127.5 61.5t-116 99.5t-96 141t-64.5 191.5t-24.5 246.5q0 122 26.5 234t82 208.5t134 167.5t189.5 111.5
t242 40.5q263 0 427 -130.5t198 -362.5h-308q-12 39 -31 74t-52 72t-87.5 59t-122.5 22q-79 0 -144.5 -27t-107 -68.5t-70 -94t-40.5 -102t-12 -93.5h438z" />
    <glyph glyph-name="afii10054" unicode="&#x405;" horiz-adv-x="1366" 
d="M672 1507q46 0 93 -5t104.5 -19t108.5 -36.5t100 -60t84.5 -85.5t57 -118t21.5 -153h-295q0 113 -82.5 168t-216.5 55q-67 0 -123.5 -16.5t-97.5 -58.5t-41 -105q0 -41 14 -69.5t43.5 -44.5t48 -21.5t54.5 -13.5l358 -88q41 -10 69.5 -18t72.5 -25.5t74 -36.5t64.5 -50.5
t55.5 -69t35 -90.5t14 -116q0 -73 -20 -139t-66 -127t-115.5 -105t-175 -70t-237.5 -26q-97 0 -183 17t-162.5 55t-131.5 94t-87 139t-32 185h295q0 -63 26.5 -110.5t72.5 -74t100.5 -39t117.5 -12.5q53 0 102 8.5t96.5 28.5t76 59t28.5 93q0 34 -15 60.5t-35.5 43.5
t-60.5 32.5t-70 23.5t-85 20l-158 37q-67 16 -101.5 24.5t-93 28t-89.5 38.5t-72 51.5t-61 71t-35 93t-15 121.5q0 97 31.5 175t84.5 129.5t127 86.5t155 50t172 15z" />
    <glyph glyph-name="afii10055" unicode="&#x406;" horiz-adv-x="569" 
d="M131 0v1470h307v-1470h-307z" />
    <glyph glyph-name="afii10056" unicode="&#x407;" horiz-adv-x="569" 
d="M131 0v1470h307v-1470h-307zM-49 1597v242h266v-242h-266zM352 1597v242h266v-242h-266z" />
    <glyph glyph-name="afii10057" unicode="&#x408;" 
d="M688 444v1026h307v-1064q0 -76 -17 -140.5t-45.5 -109t-68 -79.5t-82 -56t-90.5 -34.5t-90 -18.5t-84 -5q-74 0 -135.5 12t-107 31t-81 50.5t-59.5 63t-41 77t-26 83.5t-14 91t-6 91.5t-1 92.5h295q0 -78 1.5 -114.5t10 -89t26.5 -75.5t52.5 -41t85.5 -18q35 0 62.5 8
t45.5 18.5t30.5 31t18.5 36t9 43.5t3.5 44t0.5 46z" />
    <glyph glyph-name="afii10058" unicode="&#x409;" horiz-adv-x="2048" 
d="M20 0v256q70 -39 125 -39q29 0 51 9.5t36 33.5t22 39t13 54.5t5.5 49t2.5 51.5q1 12 1 17q12 227 23.5 586t13.5 413h959v-579h178q528 0 528 -447q0 -72 -14 -132.5t-36.5 -103t-56.5 -77t-66 -55.5t-74 -36.5t-72 -23t-69 -11.5t-55.5 -4.5t-39.5 -0.5h-530v1217h-363
l-12 -406q-3 -112 -5.5 -175t-8.5 -152t-14 -138t-22 -113.5t-33 -98t-46 -72.5t-62.5 -56.5t-82 -30t-103.5 -12.5q-71 0 -193 37zM1272 649v-395h145q49 0 87.5 6.5t79.5 25.5t64 60.5t23 104.5q0 53 -16.5 91t-40 58.5t-62 32t-70.5 14t-77 2.5h-133z" />
    <glyph glyph-name="afii10059" unicode="&#x40a;" horiz-adv-x="2025" 
d="M1253 649v-395h144q49 0 87.5 6.5t79.5 25.5t64 60.5t23 104.5q0 53 -16.5 91t-40 58.5t-62.5 32t-71 14t-77 2.5h-131zM143 0v1470h308v-579h495v579h307v-579h177q528 0 528 -447q0 -72 -14 -132.5t-36.5 -103t-56.5 -77t-66 -55.5t-74 -36.5t-72 -23t-69 -11.5
t-55.5 -4.5t-39.5 -0.5h-529v649h-495v-649h-308z" />
    <glyph glyph-name="afii10060" unicode="&#x40b;" horiz-adv-x="1636" 
d="M23 1217v253h1151v-253h-472v-326h330q89 0 153.5 -9.5t125 -35.5t97.5 -71.5t59 -119.5t22 -176v-479h-307v457q0 101 -50 140.5t-155 39.5h-275v-637h-307v1217h-372z" />
    <glyph glyph-name="afii10061" unicode="&#x40c;" horiz-adv-x="1478" 
d="M569 1597l191 295h317l-303 -295h-205zM178 0v1470h307v-598l562 598h397l-600 -602l635 -868h-389l-455 651l-150 -153v-498h-307z" />
    <glyph glyph-name="afii10062" unicode="&#x40e;" horiz-adv-x="1366" 
d="M238 0v299q100 -41 153 -41q71 0 109.5 34.5t38.5 86.5q0 30 -9 63t-18.5 55t-28.5 60l-434 913h344l334 -790l293 790h332l-469 -1085q-49 -114 -92.5 -188t-98 -129.5t-121.5 -80t-155 -24.5q-22 0 -43.5 2.5t-42.5 7.5t-34 8.5t-33 10t-25 8.5zM903 1892h115
q0 -152 -88.5 -223.5t-245.5 -71.5t-245.5 71.5t-88.5 223.5h115q13 -68 72 -101.5t147 -33.5t147 33.5t72 101.5z" />
    <glyph glyph-name="afii10145" unicode="&#x40f;" horiz-adv-x="1478" 
d="M143 0v1470h308v-1204h577v1204h307v-1470h-463v-315h-266v315h-463z" />
    <glyph glyph-name="afii10017" unicode="&#x410;" horiz-adv-x="1478" 
d="M41 0l526 1470h351l520 -1470h-334l-94 303h-543l-102 -303h-324zM737 1139l-188 -582h375l-183 582h-4z" />
    <glyph glyph-name="afii10018" unicode="&#x411;" horiz-adv-x="1478" 
d="M168 0v1470h1020v-253h-713v-326h385q529 0 529 -447q0 -72 -14.5 -132.5t-36.5 -103t-56 -77t-66 -55.5t-74.5 -36.5t-72.5 -23t-68.5 -11.5t-55.5 -4.5t-40 -0.5h-737zM475 649v-395h352q49 0 87.5 6.5t79.5 25.5t64 60.5t23 104.5q0 53 -16.5 91t-40 58.5t-62 32
t-70.5 14t-77 2.5h-340z" />
    <glyph glyph-name="afii10019" unicode="&#x412;" horiz-adv-x="1478" 
d="M168 0v1470h721q103 0 184.5 -24.5t130.5 -62.5t81 -89.5t44 -100t12 -99.5q0 -111 -42 -181.5t-138 -119.5q70 -26 118 -67.5t70.5 -91.5t31 -95t8.5 -99q0 -211 -147 -325.5t-400 -114.5h-674zM463 649v-395h383q106 0 170.5 50.5t64.5 148.5q0 49 -14 85.5t-36 57
t-55.5 33t-65.5 16.5t-72 4h-375zM463 1217v-326h379q88 0 146.5 41.5t58.5 126.5q0 158 -197 158h-387z" />
    <glyph glyph-name="afii10020" unicode="&#x413;" horiz-adv-x="1183" 
d="M168 0v1470h989v-253h-682v-1217h-307z" />
    <glyph glyph-name="afii10021" unicode="&#x414;" horiz-adv-x="1478" 
d="M25 -315v569h129q43 112 69 199.5t54.5 230t43.5 336.5t19 450h1001v-1216h113v-569h-266v315h-897v-315h-266zM1034 254v963h-424q-7 -591 -149 -963h573z" />
    <glyph glyph-name="afii10022" unicode="&#x415;" horiz-adv-x="1366" 
d="M168 0v1470h1079v-253h-784v-326h721v-254h-721v-371h819v-266h-1114z" />
    <glyph glyph-name="afii10024" unicode="&#x416;" horiz-adv-x="2048" 
d="M1176 1470v-589h59l438 589h350l-530 -671l530 -799h-366l-422 635h-59v-635h-297v635h-62l-426 -635h-366l538 799l-526 671h342l438 -589h62v589h297z" />
    <glyph glyph-name="afii10025" unicode="&#x417;" horiz-adv-x="1251" 
d="M571 655v219q60 -6 64 -6q91 0 151 50.5t60 142.5q0 58 -22 100.5t-57 64t-69 31t-67 9.5q-45 0 -81.5 -10t-60.5 -24.5t-43 -37.5t-29 -41t-17 -43t-9 -36t-4 -27h-283q4 37 8 64t19 78.5t37 89.5t64 83.5t97 75t139 49.5t187 20q108 0 194 -24.5t139.5 -64.5t89 -94
t49.5 -108.5t14 -113.5q0 -42 -10.5 -82t-34 -82.5t-70 -78t-111.5 -56.5v-4q26 -7 43.5 -12.5t49 -19.5t53.5 -30.5t48 -45.5t42.5 -64t27.5 -86t11 -111q0 -98 -34 -181t-101 -148t-178 -101.5t-256 -36.5q-71 0 -138 12.5t-137.5 45.5t-125.5 84t-98 134t-61 189h283
q9 -25 14 -37.5t19 -40t26.5 -43.5t35 -38t47.5 -34t60.5 -21t76.5 -9q127 0 193.5 67.5t66.5 163.5q0 65 -23 111t-61.5 68t-76 31t-79.5 9h-72z" />
    <glyph glyph-name="afii10026" unicode="&#x418;" horiz-adv-x="1478" 
d="M143 0v1470h295v-1001h4l582 1001h311v-1470h-295v995h-4l-581 -995h-312z" />
    <glyph glyph-name="afii10027" unicode="&#x419;" horiz-adv-x="1478" 
d="M143 0v1470h295v-1001h4l582 1001h311v-1470h-295v995h-4l-581 -995h-312zM958 1892h115q0 -152 -88.5 -223.5t-245.5 -71.5t-245 71.5t-88 223.5h114q13 -68 72 -101.5t147 -33.5t147 33.5t72 101.5z" />
    <glyph glyph-name="afii10028" unicode="&#x41a;" horiz-adv-x="1478" 
d="M178 0v1470h307v-598l562 598h397l-600 -602l635 -868h-389l-455 651l-150 -153v-498h-307z" />
    <glyph glyph-name="afii10029" unicode="&#x41b;" horiz-adv-x="1515" 
d="M1090 0v1217h-431l-12 -406q-12 -338 -26 -470t-60 -220q-25 -47 -61.5 -80.5t-77.5 -49t-76.5 -22t-71.5 -6.5q-70 0 -196 37v256q67 -39 121 -39q119 0 131 178q10 161 24 535.5t17 539.5h1026v-1470h-307z" />
    <glyph glyph-name="afii10030" unicode="&#x41c;" horiz-adv-x="1705" 
d="M143 0v1470h449l258 -1144h4l258 1144h451v-1470h-283v1229h-4l-279 -1229h-299l-268 1229h-4v-1229h-283z" />
    <glyph glyph-name="afii10031" unicode="&#x41d;" horiz-adv-x="1478" 
d="M143 0v1470h308v-559h577v559h307v-1470h-307v657h-577v-657h-308z" />
    <glyph glyph-name="afii10032" unicode="&#x41e;" horiz-adv-x="1593" 
d="M90 735q0 166 44.5 305.5t131 244.5t222.5 163.5t309 58.5q213 0 375 -102t246.5 -276.5t84.5 -393.5t-84.5 -393.5t-246.5 -276.5t-375 -102q-173 0 -309 58.5t-222.5 163.5t-131 244.5t-44.5 305.5zM797 229q184 0 291.5 141t107.5 365t-107.5 365t-291.5 141
t-292 -141t-108 -365t108 -365t292 -141z" />
    <glyph glyph-name="afii10033" unicode="&#x41f;" horiz-adv-x="1478" 
d="M143 0v1470h1192v-1470h-307v1217h-577v-1217h-308z" />
    <glyph glyph-name="afii10034" unicode="&#x420;" horiz-adv-x="1366" 
d="M168 0v1470h668q229 0 344.5 -122.5t115.5 -348.5q0 -209 -130.5 -340t-354.5 -131h-336v-528h-307zM475 1217v-435h291q223 0 223 217q0 218 -223 218h-291z" />
    <glyph glyph-name="afii10035" unicode="&#x421;" horiz-adv-x="1478" 
d="M1401 987h-307q-8 27 -13 42t-18.5 45.5t-28 49.5t-41 43.5t-58 39t-77 24.5t-100.5 10q-40 0 -81.5 -10t-94 -43t-91.5 -85t-66.5 -147.5t-27.5 -220.5q0 -237 96.5 -371.5t264.5 -134.5q53 0 98.5 11t76.5 26.5t58 42.5t42 47.5t29.5 53.5t20 49.5t13.5 44.5h305
q-48 -266 -218 -403.5t-413 -137.5q-215 0 -369 95.5t-232.5 268.5t-78.5 408q0 158 37.5 288t101 218.5t149.5 149.5t181.5 88.5t198.5 27.5q137 0 248.5 -36t181 -91t118 -127t69.5 -137.5t26 -128.5z" />
    <glyph glyph-name="afii10036" unicode="&#x422;" horiz-adv-x="1253" 
d="M25 1217v253h1204v-253h-449v-1217h-307v1217h-448z" />
    <glyph glyph-name="afii10037" unicode="&#x423;" horiz-adv-x="1366" 
d="M238 0v299q100 -41 153 -41q71 0 109.5 34.5t38.5 86.5q0 30 -9 63t-18.5 55t-28.5 60l-434 913h344l334 -790l293 790h332l-469 -1085q-49 -114 -92.5 -188t-98 -129.5t-121.5 -80t-155 -24.5q-22 0 -43.5 2.5t-42.5 7.5t-34 8.5t-33 10t-25 8.5z" />
    <glyph glyph-name="afii10038" unicode="&#x424;" horiz-adv-x="1708" 
d="M707 0v160q-194 9 -341 84.5t-226 203t-79 287.5q0 73 17 145t63 149.5t116 137t186 99.5t264 45v159h294v-159q148 -5 264 -45t186 -99.5t116 -137t63 -149.5t17 -145q0 -160 -79 -287.5t-226 -203t-341 -84.5v-160h-294zM707 373v725q-81 -2 -144 -25t-101.5 -58
t-63.5 -82t-34 -93t-8 -95q0 -96 32 -170.5t84 -117t112 -63.5t123 -21zM1001 1098v-723q63 0 123 21.5t112 64t84 117t32 170.5q0 49 -9.5 94.5t-34 92t-63 81t-101.5 57.5t-143 25z" />
    <glyph glyph-name="afii10039" unicode="&#x425;" horiz-adv-x="1366" 
d="M27 0l477 752l-451 718h367l264 -475l270 475h355l-451 -706l481 -764h-376l-279 502l-297 -502h-360z" />
    <glyph glyph-name="afii10040" unicode="&#x426;" horiz-adv-x="1478" 
d="M143 0v1470h308v-1216h577v1216h307v-1216h123v-569h-266v315h-1049z" />
    <glyph glyph-name="afii10041" unicode="&#x427;" horiz-adv-x="1366" 
d="M928 0v588q-224 -47 -387 -47q-90 0 -162 14t-118.5 35t-80 55.5t-50.5 65t-26.5 74.5t-11.5 73.5t-2 71.5v540h295v-466q0 -139 56.5 -186.5t203.5 -47.5q64 0 146.5 10.5t136.5 28.5v661h307v-1470h-307z" />
    <glyph glyph-name="afii10042" unicode="&#x428;" horiz-adv-x="1933" 
d="M143 0v1470h283v-1216h399v1216h283v-1216h399v1216h283v-1470h-1647z" />
    <glyph glyph-name="afii10043" unicode="&#x429;" horiz-adv-x="1933" 
d="M143 0v1470h283v-1216h399v1216h283v-1216h399v1216h283v-1216h123v-569h-266v315h-1504z" />
    <glyph glyph-name="afii10044" unicode="&#x42a;" horiz-adv-x="1705" 
d="M793 649v-395h262q49 0 87.5 6.5t79.5 25.5t64 60.5t23 104.5q0 53 -16.5 91t-40 58.5t-62.5 32t-71 14t-77 2.5h-249zM47 1217v253h746v-579h294q529 0 529 -447q0 -72 -14 -132.5t-36.5 -103t-56.5 -77t-66 -55.5t-74 -36.5t-72 -23t-69 -11.5t-55.5 -4.5t-39.5 -0.5
h-648v1217h-438z" />
    <glyph glyph-name="afii10045" unicode="&#x42b;" horiz-adv-x="1933" 
d="M1495 0v1470h307v-1470h-307zM475 649v-395h260q49 0 87.5 6.5t79.5 25.5t64 60.5t23 104.5q0 53 -16.5 91t-40 58.5t-62 32t-70.5 14t-77 2.5h-248zM168 0v1470h307v-579h293q528 0 528 -447q0 -72 -14 -132.5t-36.5 -103t-56.5 -77t-66 -55.5t-74 -36.5t-72 -23
t-69 -11.5t-55.5 -4.5t-39.5 -0.5h-645z" />
    <glyph glyph-name="afii10046" unicode="&#x42c;" horiz-adv-x="1366" 
d="M475 649v-395h260q49 0 87.5 6.5t79.5 25.5t64 60.5t23 104.5q0 53 -16.5 91t-40 58.5t-62 32t-70.5 14t-77 2.5h-248zM168 0v1470h307v-579h293q528 0 528 -447q0 -72 -14 -132.5t-36.5 -103t-56.5 -77t-66 -55.5t-74 -36.5t-72 -23t-69 -11.5t-55.5 -4.5t-39.5 -0.5
h-645z" />
    <glyph glyph-name="afii10047" unicode="&#x42d;" horiz-adv-x="1478" 
d="M627 614v242h438q0 44 -12 93.5t-41 102t-70.5 94t-107 68.5t-144.5 27q-68 0 -122.5 -22t-87.5 -59t-52 -72t-31 -74h-307q34 232 198 362.5t427 130.5q131 0 242 -40.5t189.5 -111.5t134 -167.5t82 -208.5t26.5 -234q0 -134 -24.5 -246.5t-64.5 -191.5t-96 -141
t-116 -99.5t-127.5 -61.5t-125.5 -33t-116 -9q-257 0 -420 143.5t-207 368.5h307q81 -246 303 -246q171 3 269 107t98 278h-442z" />
    <glyph glyph-name="afii10048" unicode="&#x42e;" horiz-adv-x="2048" 
d="M143 0v1470h295v-614h191q12 128 60.5 243t128.5 207t201.5 146.5t266.5 54.5q61 0 122 -9.5t129 -34t127.5 -62t114 -98t93.5 -137t62.5 -184t23.5 -234.5q0 -359 -184 -572t-488 -213q-124 0 -228 34t-177 93.5t-127 142.5t-84 178t-41 203h-191v-614h-295zM924 737
q0 -254 96.5 -381t265.5 -127q170 0 267.5 127t97.5 381q0 252 -97.5 378t-267.5 126q-169 0 -265.5 -126t-96.5 -378z" />
    <glyph glyph-name="afii10049" unicode="&#x42f;" horiz-adv-x="1482" 
d="M1339 1470v-1470h-297v580h-274q-72 0 -106 -2t-83.5 -14t-72.5 -36.5t-43.5 -72.5t-26.5 -119l-10 -139q-9 -121 -37 -197h-319q29 54 36.5 85t18.5 132l14 139q6 59 13 96t21.5 78t36.5 67.5t59 50.5t89 40q-28 10 -42.5 16t-41 23t-49.5 41q-104 104 -104 270
q0 99 41 185.5t108 142.5q35 30 81 50.5t84.5 31t97.5 16t93.5 6t98.5 0.5h614zM1042 821v391h-346q-106 0 -149 -16q-119 -45 -119 -184q0 -39 10.5 -70t26 -51t41 -34t46.5 -21t52 -10.5t48 -4t44 -0.5h346z" />
    <glyph glyph-name="afii10065" unicode="&#x430;" 
d="M1016 793v-578q0 -90 17 -125.5t48 -44.5v-45h-313q-27 68 -27 127q-35 -36 -52.5 -52.5t-51.5 -42t-64.5 -36.5t-77 -20t-102.5 -9q-151 0 -243.5 87.5t-92.5 248.5q0 135 80.5 225.5t218.5 110.5l277 41q21 3 33.5 6.5t30.5 12.5t27 27t9 44q0 123 -174 123
q-55 0 -91.5 -11t-55.5 -33.5t-27.5 -46t-13.5 -59.5h-283q1 21 5 46t16.5 63t33 73t56.5 71.5t82.5 63t117 44t154.5 18.5q463 0 463 -329zM733 422v110q-70 -36 -121 -45l-75 -14q-106 -20 -151.5 -55.5t-45.5 -114.5q0 -67 39.5 -101t103.5 -34q24 0 51.5 5t64.5 21.5
t65.5 42.5t48.5 74t20 111z" />
    <glyph glyph-name="afii10066" unicode="&#x431;" horiz-adv-x="1251" 
d="M801 1487h256q-13 -63 -39 -106.5t-53.5 -67t-80 -38t-87 -19t-105.5 -9.5q-49 -4 -77.5 -7t-67 -12t-61.5 -22t-49.5 -36.5t-42.5 -56t-29.5 -79.5t-20.5 -108q83 87 162 116t172 29q236 0 371 -145.5t135 -384.5q0 -261 -149.5 -418.5t-405.5 -157.5
q-190 0 -312.5 78.5t-187.5 249.5q-59 158 -59 407q0 86 8.5 167t32 172.5t61 164t101.5 132t147 85.5q108 33 291 33q36 0 55.5 5t24.5 10.5t10 17.5zM367 545q0 -66 14 -123.5t43.5 -106.5t82 -77.5t122.5 -28.5q60 0 106 18.5t75 49.5t47.5 75.5t26 91.5t7.5 101
t-7.5 101t-26 91.5t-47.5 75.5t-75 49.5t-106 18.5q-70 0 -122.5 -28.5t-82 -77.5t-43.5 -106.5t-14 -123.5z" />
    <glyph glyph-name="afii10067" unicode="&#x432;" horiz-adv-x="1251" 
d="M426 889v-227h248q93 0 128.5 28t35.5 88q0 111 -156 111h-256zM143 0v1090h594q383 0 383 -287q0 -90 -34.5 -140t-94.5 -79q81 -29 124.5 -92.5t43.5 -151.5q0 -154 -102 -247t-273 -93h-641zM426 473v-272h248q190 0 190 135q0 80 -42 108.5t-148 28.5h-248z" />
    <glyph glyph-name="afii10068" unicode="&#x433;" horiz-adv-x="909" 
d="M135 0v1090h733v-230h-450v-860h-283z" />
    <glyph glyph-name="afii10069" unicode="&#x434;" horiz-adv-x="1329" 
d="M31 -262v491h123q46 128 79 261.5t50.5 261t23.5 187.5t12 151h852v-861h127v-491h-266v262h-735v-262h-266zM438 229h451v631h-324q-39 -367 -127 -631z" />
    <glyph glyph-name="afii10070" unicode="&#x435;" 
d="M1085 457h-747q0 -23 4 -50t20 -66.5t42 -69.5t75.5 -52t114.5 -22q62 0 114.5 34.5t69.5 92.5h293q0 -38 -18 -83.5t-58 -94.5t-96 -88.5t-140 -65t-181 -25.5q-113 0 -205.5 33t-165.5 101.5t-113.5 184.5t-40.5 271q0 115 30 214t90.5 179t162 126t233.5 46
q114 0 202 -31t147 -87t96.5 -140t54 -183.5t16.5 -223.5zM348 645h443q0 69 -21 119.5t-55.5 77.5t-70.5 39t-75 12q-38 0 -74.5 -12t-70.5 -39t-55 -77.5t-21 -119.5z" />
    <glyph glyph-name="afii10072" unicode="&#x436;" horiz-adv-x="1708" 
d="M997 1090v-433h54l299 433h323l-366 -504l385 -586h-342l-299 463h-54v-463h-282v463h-62l-307 -463h-330l387 586l-362 504h324l297 -433h53v433h282z" />
    <glyph glyph-name="afii10073" unicode="&#x437;" horiz-adv-x="1024" 
d="M338 788h-266q19 125 94 207q120 127 362 127q99 0 179.5 -26t131 -69.5t77 -97.5t26.5 -114q0 -46 -9.5 -79.5t-33 -60.5t-42 -41.5t-58.5 -41.5v-4q95 -42 137.5 -107.5t42.5 -165.5q0 -71 -26.5 -129.5t-70.5 -98.5t-102.5 -67.5t-122 -40t-129.5 -12.5
q-202 0 -327 91.5t-156 283.5h270q26 -85 69 -129.5t122 -44.5q49 0 86 16.5t56 42.5t27.5 52.5t8.5 52.5q0 73 -49.5 107t-128.5 34q-26 0 -80 -8v197h59q77 0 125.5 34t48.5 95q0 131 -153 131q-75 0 -115.5 -32.5t-52.5 -101.5z" />
    <glyph glyph-name="afii10074" unicode="&#x438;" horiz-adv-x="1251" 
d="M135 0v1090h283v-672h4l397 672h297v-1090h-282v657h-5l-385 -657h-309z" />
    <glyph glyph-name="afii10075" unicode="&#x439;" horiz-adv-x="1251" 
d="M844 1546h114q0 -152 -88 -223.5t-245 -71.5t-245.5 71.5t-88.5 223.5h115q13 -68 72 -101.5t147 -33.5t147 33.5t72 101.5zM135 0v1090h283v-672h4l397 672h297v-1090h-282v657h-5l-385 -657h-309z" />
    <glyph glyph-name="afii10076" unicode="&#x43a;" horiz-adv-x="1251" 
d="M143 0v1090h283v-414l408 414h376l-450 -453l469 -637h-369l-313 432l-121 -117v-315h-283z" />
    <glyph glyph-name="afii10077" unicode="&#x43b;" horiz-adv-x="1366" 
d="M1204 1090v-1090h-282v860h-357l-12 -399q-1 -45 -2.5 -75t-6 -75t-11.5 -76t-19.5 -70t-29.5 -65t-42.5 -53t-57.5 -43t-75.5 -26.5t-95.5 -10.5q-89 0 -143 21v237q36 -16 88 -16q60 0 83.5 54t26.5 165l17 662h919z" />
    <glyph glyph-name="afii10078" unicode="&#x43c;" horiz-adv-x="1478" 
d="M135 0v1090h426l184 -791h5l180 791h413v-1090h-266v877h-4l-205 -877h-258l-204 877h-5v-877h-266z" />
    <glyph glyph-name="afii10079" unicode="&#x43d;" horiz-adv-x="1251" 
d="M135 0v1090h283v-394h416v394h282v-1090h-282v467h-416v-467h-283z" />
    <glyph glyph-name="afii10080" unicode="&#x43e;" horiz-adv-x="1253" 
d="M70 545q0 168 67 298.5t194 204.5t296 74q258 0 407.5 -160t149.5 -417t-149.5 -417.5t-407.5 -160.5q-254 0 -405.5 161t-151.5 417zM365 545q0 -66 14 -123.5t43.5 -106.5t82 -77.5t122.5 -28.5q60 0 106 18.5t75 49.5t47.5 75.5t26 91.5t7.5 101t-7.5 101t-26 91.5
t-47.5 75.5t-75 49.5t-106 18.5q-70 0 -122.5 -28.5t-82 -77.5t-43.5 -106.5t-14 -123.5z" />
    <glyph glyph-name="afii10081" unicode="&#x43f;" horiz-adv-x="1251" 
d="M135 0v1090h981v-1090h-282v860h-416v-860h-283z" />
    <glyph glyph-name="afii10082" unicode="&#x440;" horiz-adv-x="1251" 
d="M127 -422v1512h270v-156h4q60 100 134 144t192 44q63 0 124 -16.5t122 -58t106.5 -103t74 -159.5t28.5 -220q0 -179 -49.5 -311.5t-155.5 -209.5t-260 -77q-208 0 -303 168h-4v-557h-283zM643 868q-65 0 -114 -28.5t-76 -76t-40.5 -102.5t-13.5 -116q0 -42 5 -82.5
t21.5 -88.5t42 -83t71 -58.5t104.5 -23.5t104.5 23.5t71 58.5t42 83t21.5 88.5t5 82.5q0 61 -13.5 116t-40.5 102.5t-76 76t-114 28.5z" />
    <glyph glyph-name="afii10083" unicode="&#x441;" 
d="M1069 705h-295q-18 91 -61 133.5t-131 42.5q-217 0 -217 -336q0 -51 3 -90.5t16 -88.5t35.5 -81t64 -54t98.5 -22q89 0 140.5 62.5t51.5 127.5h295q0 -31 -10 -71t-31 -90t-59.5 -97t-89.5 -86.5t-128.5 -63.5t-168.5 -24q-248 0 -380 149.5t-132 428.5
q0 274 138.5 425.5t373.5 151.5q65 0 126 -11.5t124.5 -41.5t112 -75.5t82.5 -119.5t42 -169z" />
    <glyph glyph-name="afii10084" unicode="&#x442;" horiz-adv-x="1024" 
d="M371 0v860h-330v230h942v-230h-330v-860h-282z" />
    <glyph glyph-name="afii10085" unicode="&#x443;" 
d="M1110 1090l-375 -1072q-39 -114 -58.5 -166t-50.5 -116t-54.5 -86.5t-65.5 -47.5t-90 -30.5t-121 -5.5q-43 0 -111 6v229q69 -6 84 -6q43 0 76 16.5t50 41t25.5 48t8.5 42.5l-399 1147h317l234 -803h4l223 803h303z" />
    <glyph glyph-name="afii10086" unicode="&#x444;" horiz-adv-x="1703" 
d="M711 -422v528h-4q-35 -60 -97 -99.5t-149 -39.5q-78 0 -148 38t-124.5 109.5t-86.5 184t-32 250.5q0 132 26.5 236t68 165.5t96.5 102t105.5 55t102.5 14.5q163 0 238 -139h4v487h282v-487h4q75 139 240 139q51 0 101.5 -14.5t105.5 -55t96 -102t67.5 -165.5t26.5 -236
q0 -138 -32 -250.5t-86.5 -184t-124.5 -109.5t-148 -38q-87 0 -149 39.5t-97 99.5h-4v-528h-282zM1352 537q0 344 -205 344q-154 0 -154 -199v-258q0 -107 34 -161t124 -54q49 0 86.5 22.5t58.5 56t34.5 80t17.5 86.5t4 83zM352 537q0 -43 4 -83t17.5 -86.5t34.5 -80
t58.5 -56t86.5 -22.5q90 0 124 54t34 161v258q0 199 -154 199q-205 0 -205 -344z" />
    <glyph glyph-name="afii10087" unicode="&#x445;" 
d="M401 555l-354 535h348l178 -318l183 318h338l-357 -535l371 -555h-354l-181 328l-196 -328h-346z" />
    <glyph glyph-name="afii10088" unicode="&#x446;" horiz-adv-x="1251" 
d="M135 0v1090h283v-861h416v861h282v-861h113v-491h-262v262h-832z" />
    <glyph glyph-name="afii10089" unicode="&#x447;" 
d="M1004 1090v-1090h-283v430q-38 -8 -120 -16t-128 -8q-76 0 -135.5 8t-112 28t-87.5 52t-55 83t-20 119v394h283v-338q0 -38 7.5 -62t19.5 -39t39 -22t55 -9t78 -2q111 0 176 21v451h283z" />
    <glyph glyph-name="afii10090" unicode="&#x448;" horiz-adv-x="1708" 
d="M135 0v1090h283v-861h295v861h282v-861h295v861h283v-1090h-1438z" />
    <glyph glyph-name="afii10091" unicode="&#x449;" horiz-adv-x="1705" 
d="M135 0v1090h283v-861h295v861h282v-861h295v861h283v-861h110v-491h-258v262h-1290z" />
    <glyph glyph-name="afii10092" unicode="&#x44a;" horiz-adv-x="1366" 
d="M41 860v230h586v-379h262q207 0 317.5 -88t110.5 -269q0 -69 -18 -125t-46 -91.5t-67.5 -62.5t-75.5 -41t-77 -22t-65.5 -10t-47.5 -2h-576v860h-303zM627 498v-285h213q182 0 182 141q0 144 -207 144h-188z" />
    <glyph glyph-name="afii10093" unicode="&#x44b;" horiz-adv-x="1705" 
d="M1288 0v1090h283v-1090h-283zM135 0v1090h283v-379h287q207 0 317.5 -88t110.5 -269q0 -69 -18.5 -125t-46 -91.5t-67 -62.5t-75.5 -41t-77.5 -22t-66 -10t-47.5 -2h-600zM418 498v-285h237q183 0 183 141q0 144 -207 144h-213z" />
    <glyph glyph-name="afii10094" unicode="&#x44c;" horiz-adv-x="1183" 
d="M133 0v1090h283v-379h289q207 0 317.5 -88t110.5 -269q0 -69 -18.5 -125t-46 -91.5t-67 -62.5t-75.5 -41t-77.5 -22t-66 -10t-47.5 -2h-602zM416 498v-285h239q183 0 183 141q0 144 -207 144h-215z" />
    <glyph glyph-name="afii10095" unicode="&#x44d;" 
d="M504 444v189h270q-8 107 -59.5 177.5t-145.5 70.5q-88 0 -131 -42.5t-61 -133.5h-295q8 95 42 169t82.5 119.5t112 75.5t124.5 41.5t126 11.5q234 0 367 -150.5t133 -426.5q0 -279 -132 -428.5t-380 -149.5q-91 0 -168.5 24t-128.5 63.5t-89.5 86.5t-59.5 97t-31 90
t-10 71h295q0 -65 51.5 -127.5t140.5 -62.5q96 0 151.5 65.5t65.5 169.5h-270z" />
    <glyph glyph-name="afii10096" unicode="&#x44e;" horiz-adv-x="1705" 
d="M1352 545q0 153 -56 244.5t-174 91.5q-80 0 -133.5 -45.5t-76.5 -118.5t-23 -172t23 -172t76.5 -118.5t133.5 -45.5q118 0 174 91.5t56 244.5zM135 0v1090h283v-428h188q36 234 170.5 347t345.5 113q132 0 234 -44t165 -123t94.5 -182t31.5 -226q0 -86 -17 -166
t-56.5 -156.5t-98.5 -132.5t-149.5 -90.5t-203.5 -34.5q-103 0 -187.5 25.5t-155 80.5t-115.5 150.5t-58 225.5h-188v-449h-283z" />
    <glyph glyph-name="afii10097" unicode="&#x44f;" horiz-adv-x="1251" 
d="M1118 1090v-1090h-284v401h-185q-54 0 -86.5 -2.5t-63.5 -11.5t-47 -27t-26 -47t-12 -73l-4 -105q-6 -85 -25 -135h-299q16 28 26 58.5t12.5 48.5t6.5 57l14 131q10 95 37.5 136t116.5 67q-104 32 -152 112q-38 55 -38 152q0 195 157 280q88 48 266 48h586zM834 602v275
h-228q-38 0 -58.5 -1t-52 -8.5t-48 -21t-29 -41.5t-12.5 -68q0 -39 12.5 -66t28 -40t46 -20t50 -8t55.5 -1h236z" />
    <glyph glyph-name="afii10071" unicode="&#x451;" 
d="M1085 457h-747q0 -23 4 -50t20 -66.5t42 -69.5t75.5 -52t114.5 -22q62 0 114.5 34.5t69.5 92.5h293q0 -38 -18 -83.5t-58 -94.5t-96 -88.5t-140 -65t-181 -25.5q-113 0 -205.5 33t-165.5 101.5t-113.5 184.5t-40.5 271q0 115 30 214t90.5 179t162 126t233.5 46
q114 0 202 -31t147 -87t96.5 -140t54 -183.5t16.5 -223.5zM348 645h443q0 69 -21 119.5t-55.5 77.5t-70.5 39t-75 12q-38 0 -74.5 -12t-70.5 -39t-55 -77.5t-21 -119.5zM236 1251v242h266v-242h-266zM637 1251v242h266v-242h-266z" />
    <glyph glyph-name="afii10099" unicode="&#x452;" horiz-adv-x="1251" 
d="M233 0v997h-192v230h192v243h283v-243h475v-230h-475v-268q18 16 28.5 25t37.5 26.5t52 27.5t63.5 18t80.5 8q98 0 167.5 -43t103.5 -103q38 -65 57.5 -155t19.5 -261q0 -263 -71 -452q-29 -78 -95 -138t-163 -85q-70 -19 -144 -19v242q39 5 63.5 13.5t46 27.5t33.5 47
t20.5 76.5t11.5 113t3 158.5v53.5t-1.5 52.5t-4.5 53.5t-8.5 47.5t-13.5 45.5t-20.5 36.5t-28.5 30t-38.5 17.5t-49.5 7.5q-78 0 -114 -47t-36 -123v-430h-283z" />
    <glyph glyph-name="afii10100" unicode="&#x453;" horiz-adv-x="909" 
d="M135 0v1090h733v-230h-450v-860h-283zM285 1251l190 295h318l-304 -295h-204z" />
    <glyph glyph-name="afii10101" unicode="&#x454;" 
d="M635 633v-189h-270q10 -104 65.5 -169.5t151.5 -65.5q89 0 140.5 62.5t51.5 127.5h295q0 -31 -10 -71t-31 -90t-59.5 -97t-89.5 -86.5t-128.5 -63.5t-168.5 -24q-248 0 -380 149.5t-132 428.5q0 274 138.5 425.5t373.5 151.5q65 0 126 -11.5t124.5 -41.5t112 -75.5
t82.5 -119.5t42 -169h-295q-18 91 -61 133.5t-131 42.5q-95 0 -152 -71.5t-65 -176.5h270z" />
    <glyph glyph-name="afii10102" unicode="&#x455;" 
d="M1034 760h-282q-3 23 -6.5 37.5t-16 38t-30.5 37.5t-53.5 25t-82.5 11q-176 0 -176 -108q0 -16 5.5 -28.5t23 -24t39.5 -21t65 -22t88.5 -24t120.5 -28.5q63 -15 106 -28.5t91.5 -38.5t77 -56t48 -79.5t19.5 -110.5q0 -77 -24 -138t-58.5 -99t-87 -66t-95.5 -41t-100 -20
t-82.5 -8t-60.5 -1q-460 0 -495 381h294q0 -168 220 -168q36 0 67.5 5t61.5 16.5t47.5 34.5t17.5 55q0 53 -53.5 76t-237.5 65q-29 6 -45 10q-71 16 -124.5 37.5t-105 57t-79 90.5t-27.5 127q0 47 10.5 93t42 97t80 89.5t133 63.5t193.5 25q60 0 113.5 -6.5t118.5 -29
t112.5 -59.5t83.5 -106t43 -161z" />
    <glyph glyph-name="afii10103" unicode="&#x456;" horiz-adv-x="569" 
d="M143 0v1090h283v-1090h-283zM143 1251v267h283v-267h-283z" />
    <glyph glyph-name="afii10104" unicode="&#x457;" horiz-adv-x="569" 
d="M143 0v1090h283v-1090h-283zM-49 1251v242h266v-242h-266zM352 1251v242h266v-242h-266z" />
    <glyph glyph-name="afii10105" unicode="&#x458;" horiz-adv-x="569" 
d="M143 -104v1194h283v-1205q0 -97 -20 -161.5t-61.5 -98t-92 -46.5t-123.5 -13q-57 0 -125 6v223h68q35 0 53 23t18 78zM143 1251v267h283v-267h-283z" />
    <glyph glyph-name="afii10106" unicode="&#x459;" horiz-adv-x="1871" 
d="M881 0v860h-316l-12 -399q-1 -47 -2.5 -78t-6 -76.5t-11.5 -76t-20 -69t-30.5 -64.5t-43.5 -52.5t-58.5 -42t-76.5 -25.5t-97 -10q-79 0 -137 21v237q43 -16 82 -16q58 0 85.5 46t30.5 173l17 662h878v-379h232q207 0 317.5 -88t110.5 -269q0 -69 -18.5 -125t-46 -91.5
t-67 -62.5t-75.5 -41t-77.5 -22t-66 -10t-47.5 -2h-544zM1163 498v-285h183q182 0 182 141q0 144 -207 144h-158z" />
    <glyph glyph-name="afii10107" unicode="&#x45a;" horiz-adv-x="1806" 
d="M135 0v1090h283v-379h416v379h282v-379h213q207 0 317.5 -88t110.5 -269q0 -69 -18 -125t-46 -91.5t-67.5 -62.5t-75.5 -41t-77 -22t-65.5 -10t-47.5 -2h-526v498h-416v-498h-283zM1116 498v-285h164q182 0 182 141q0 144 -207 144h-139z" />
    <glyph glyph-name="afii10108" unicode="&#x45b;" horiz-adv-x="1251" 
d="M233 0v997h-192v230h192v243h283v-243h475v-230h-475v-268q18 18 33.5 30.5t49 32.5t81 31t104.5 11q164 0 244 -84t80 -213v-537h-283v467q0 154 -141 154q-84 0 -126 -54t-42 -133v-434h-283z" />
    <glyph glyph-name="afii10109" unicode="&#x45c;" horiz-adv-x="1251" 
d="M143 0v1090h283v-414l408 414h376l-450 -453l469 -637h-369l-313 432l-121 -117v-315h-283zM457 1251l190 295h318l-303 -295h-205z" />
    <glyph glyph-name="afii10110" unicode="&#x45e;" 
d="M1110 1090l-375 -1072q-39 -114 -58.5 -166t-50.5 -116t-54.5 -86.5t-65.5 -47.5t-90 -30.5t-121 -5.5q-43 0 -111 6v229q69 -6 84 -6q43 0 76 16.5t50 41t25.5 48t8.5 42.5l-399 1147h317l234 -803h4l223 803h303zM788 1546h115q0 -152 -88.5 -223.5t-245.5 -71.5
t-245 71.5t-88 223.5h114q13 -68 72 -101.5t147 -33.5t147 33.5t72 101.5z" />
    <glyph glyph-name="afii10193" unicode="&#x45f;" horiz-adv-x="1251" 
d="M133 0v1090h283v-861h418v861h282v-1090h-350v-262h-283v262h-350z" />
    <glyph glyph-name="afii10146" unicode="&#x462;" horiz-adv-x="1593" 
d="M492 0v1079h-312v242h312v149h307v-149h397v-242h-397v-188h196q529 0 529 -447q0 -72 -14.5 -132.5t-36.5 -103t-56 -77t-66 -55.5t-74.5 -36.5t-72.5 -23t-68.5 -11.5t-55.5 -4.5t-40 -0.5h-548zM799 649v-395h164q49 0 87.5 6.5t79.5 25.5t64 60.5t23 104.5
q0 53 -16.5 91t-40 58.5t-62.5 32t-71 14t-77 2.5h-151z" />
    <glyph glyph-name="afii10194" unicode="&#x463;" horiz-adv-x="1366" 
d="M602 498v-285h246q174 0 174 141q0 144 -174 144h-246zM319 0v877h-278v213h278v380h283v-380h367v-213h-367v-166h318q186 0 291.5 -89t105.5 -268q0 -69 -18 -125t-46 -91.5t-67.5 -62.5t-75.5 -41t-77 -22t-65.5 -10t-47.5 -2h-601z" />
    <glyph glyph-name="afii10147" unicode="&#x472;" horiz-adv-x="1593" 
d="M90 735q0 166 44.5 305.5t131 244.5t222.5 163.5t309 58.5q213 0 375 -102t246.5 -276.5t84.5 -393.5t-84.5 -393.5t-246.5 -276.5t-375 -102q-173 0 -309 58.5t-222.5 163.5t-131 244.5t-44.5 305.5zM1196 614h-799q0 -67 28 -134.5t77.5 -123.5t126.5 -91.5t166 -35.5
q91 0 168.5 35t127 91.5t77.5 124t28 134.5zM406 856h780q0 67 -27.5 134.5t-76.5 123.5t-124.5 91.5t-162.5 35.5q-86 0 -161 -35.5t-124 -91.5t-76.5 -123.5t-27.5 -134.5z" />
    <glyph glyph-name="afii10195" unicode="&#x473;" horiz-adv-x="1253" 
d="M627 -33q-254 0 -405.5 161t-151.5 417q0 168 67 298.5t194 204.5t296 74q258 0 407.5 -160t149.5 -417t-149.5 -417.5t-407.5 -160.5zM889 457h-524q20 -113 86.5 -180.5t175.5 -67.5q115 0 181 65t81 183zM365 645h524q-14 106 -81 171t-181 65q-108 0 -175.5 -67
t-86.5 -169z" />
    <glyph glyph-name="afii10148" unicode="&#x474;" horiz-adv-x="1478" 
d="M559 0l-502 1470h357l309 -1077h4l217 809q22 85 44 137t56.5 93t84.5 58t122 17q84 0 170 -24v-230q-43 13 -75 13q-30 0 -51 -9.5t-36.5 -33t-26 -50.5t-24.5 -75l-338 -1098h-311z" />
    <glyph glyph-name="afii10196" unicode="&#x475;" horiz-adv-x="1249" 
d="M401 0l-372 1090h317l234 -807h4l161 585q13 46 23 74.5t31.5 67t47 60t67 37t94.5 15.5q87 0 172 -20v-221q-36 12 -82 12q-26 0 -45.5 -10t-32 -32t-18.5 -39.5t-15 -49.5l-219 -762h-367z" />
    <glyph glyph-name="afii10050" unicode="&#x490;" horiz-adv-x="1251" 
d="M168 0v1470h809v259h242v-512h-744v-1217h-307z" />
    <glyph glyph-name="afii10098" unicode="&#x491;" horiz-adv-x="909" 
d="M135 0v1090h516v249h213v-479h-446v-860h-283z" />
    <glyph glyph-name="afii10846" unicode="&#x4d9;" 
d="M53 633h748q0 23 -4 50t-19 66.5t-38.5 69.5t-69 52t-105.5 22q-66 0 -123.5 -34t-81.5 -93h-292q10 51 30.5 97.5t60.5 95t94.5 83.5t138 57.5t186.5 22.5q90 0 166 -20t140 -65t108 -113t68.5 -167.5t24.5 -224.5q0 -115 -30 -214t-90.5 -179t-162 -126t-233.5 -46
q-142 0 -243.5 47t-160.5 137t-85.5 208t-26.5 274zM791 444h-443q0 -69 21 -119.5t55 -77t70 -38.5t75 -12t75 12t70.5 38.5t55.5 77t21 119.5z" />
    <glyph glyph-name="endash" unicode="&#x2013;" 
d="M1139 682v-217h-1139v217h1139z" />
    <glyph glyph-name="emdash" unicode="&#x2014;" horiz-adv-x="2048" 
d="M2048 682v-217h-2048v217h2048z" />
    <glyph glyph-name="quoteleft" unicode="&#x2018;" horiz-adv-x="569" 
d="M428 1190v-260h-287v209q0 74 18.5 133t46 95t67.5 62.5t74 38.5t75 21v-105q-39 -12 -67 -29.5t-43.5 -34.5t-25 -41t-12.5 -42.5t-4 -46.5h158z" />
    <glyph glyph-name="quoteright" unicode="&#x2019;" horiz-adv-x="569" 
d="M141 1210v260h287v-208q0 -291 -281 -351v105q39 12 67 29.5t43.5 34.5t25 41t12.5 42.5t4 46.5h-158z" />
    <glyph glyph-name="quotesinglbase" unicode="&#x201a;" horiz-adv-x="569" 
d="M141 0v260h287v-209q0 -74 -18.5 -133t-46 -95t-67.5 -62.5t-74 -38.5t-75 -21v104q48 15 79.5 36.5t46 49t19.5 51t7 58.5h-158z" />
    <glyph glyph-name="quotedblleft" unicode="&#x201c;" horiz-adv-x="1024" 
d="M418 1190v-260h-287v209q0 74 18.5 133t46 95t67.5 62.5t74 38.5t75 21v-105q-39 -12 -67 -29.5t-43.5 -34.5t-25 -41t-12.5 -42.5t-4 -46.5h158zM893 1190v-260h-287v209q0 74 18.5 133t46 95t67.5 62.5t74 38.5t75 21v-105q-39 -12 -67 -29.5t-43.5 -34.5t-25 -41
t-12.5 -42.5t-4 -46.5h158z" />
    <glyph glyph-name="quotedblright" unicode="&#x201d;" horiz-adv-x="1024" 
d="M131 1210v260h287v-208q0 -291 -281 -351v105q39 12 67 29.5t43.5 34.5t25 41t12.5 42.5t4 46.5h-158zM606 1210v260h287v-208q0 -291 -281 -351v105q39 12 67 29.5t43.5 34.5t25 41t12.5 42.5t4 46.5h-158z" />
    <glyph glyph-name="quotedblbase" unicode="&#x201e;" horiz-adv-x="1024" 
d="M131 0v260h287v-209q0 -74 -18.5 -133t-46 -95t-67.5 -62.5t-74 -38.5t-75 -21v104q48 15 79.5 36.5t46 49t19.5 51t7 58.5h-158zM606 0v260h287v-209q0 -74 -18.5 -133t-46 -95t-67.5 -62.5t-74 -38.5t-75 -21v104q48 15 79.5 36.5t46 49t19.5 51t7 58.5h-158z" />
    <glyph glyph-name="dagger" unicode="&#x2020;" 
d="M1065 1022v-229h-358v-1143h-275v1143h-358v229h358v448h275v-448h358z" />
    <glyph glyph-name="daggerdbl" unicode="&#x2021;" 
d="M1065 1042v-229h-360v-489h360v-230h-360v-444h-275v444h-356v230h356v489h-356v229h356v428h275v-428h360z" />
    <glyph glyph-name="bullet" unicode="&#x2022;" horiz-adv-x="716" 
d="M20 737q0 141 98.5 238.5t239.5 97.5q140 0 239 -98t99 -238q0 -142 -99 -241t-239 -99q-142 0 -240 98t-98 242z" />
    <glyph glyph-name="ellipsis" unicode="&#x2026;" horiz-adv-x="2048" 
d="M496 299v-299h-308v299h308zM1178 299v-299h-308v299h308zM1860 299v-299h-308v299h308z" />
    <glyph glyph-name="perthousand" unicode="&#x2030;" horiz-adv-x="2048" 
d="M199 1124q0 -53 36.5 -89t88.5 -36t88.5 36t36.5 89t-36.5 89t-88.5 36t-88.5 -36t-36.5 -89zM-6 1124q0 135 97 232.5t233 97.5q135 0 232 -97.5t97 -232.5t-96.5 -232t-232.5 -97q-137 0 -233.5 96.5t-96.5 232.5zM164 -39l815 1493h151l-815 -1493h-151zM647 305
q0 135 97 232.5t233 97.5q135 0 232.5 -97.5t97.5 -232.5t-97 -232.5t-233 -97.5q-137 0 -233.5 96.5t-96.5 233.5zM852 305q0 -53 36.5 -89t88.5 -36t88.5 36t36.5 89t-36.5 89t-88.5 36t-88.5 -36t-36.5 -89zM1395 305q0 135 96.5 232.5t232.5 97.5q135 0 232.5 -97.5
t97.5 -232.5t-97 -232.5t-233 -97.5t-232.5 96.5t-96.5 233.5zM1599 305q0 -53 36.5 -89t88.5 -36t88.5 36t36.5 89t-36.5 89t-88.5 36t-88.5 -36t-36.5 -89z" />
    <glyph glyph-name="guilsinglleft" unicode="&#x2039;" horiz-adv-x="681" 
d="M512 991v-237l-205 -181l205 -180v-237l-342 295v245z" />
    <glyph glyph-name="guilsinglright" unicode="&#x203a;" horiz-adv-x="681" 
d="M375 573l-205 181v237l342 -295v-245l-342 -295v237z" />
    <glyph glyph-name="fraction" unicode="&#x2044;" horiz-adv-x="342" 
d="M688 1454l-874 -1493h-162l876 1493h160z" />
    <glyph glyph-name="Euro" unicode="&#x20ac;" 
d="M1153 1272l-94 -230q-14 28 -64 78q-101 105 -252 105q-196 0 -243 -279h518l-82 -194h-453v-99h414l-82 -194h-311q7 -49 22 -93t41.5 -85.5t72 -66t103.5 -24.5q93 0 175.5 30t140.5 79v-262q-117 -76 -316 -76q-213 0 -352 124.5t-182 373.5h-184l81 194h84q0 9 -1 28
t-1 28v43h-163l79 194h103q37 245 174.5 376.5t361.5 131.5q141 0 252 -56.5t158 -125.5z" />
    <glyph glyph-name="afii61289" unicode="&#x2113;" horiz-adv-x="1044" 
d="M903 358l105 -104q-145 -285 -422 -285q-89 0 -158 27t-111.5 75t-66.5 107.5t-31 130.5q0 17 -2 23q-18 -13 -53 -41.5t-51 -40.5l-66 135q20 17 56 45.5t62.5 51t49.5 44.5v523q0 107 19 194.5t52.5 147.5t79.5 100.5t99 59t113 18.5q141 0 212.5 -101.5t71.5 -261.5
q0 -175 -102.5 -349.5t-298.5 -367.5v-86q1 -113 52.5 -172t131.5 -59q77 0 144 53.5t114 132.5zM461 1053v-328q241 277 241 489q0 84 -26 128t-86 44q-54 0 -91.5 -77.5t-37.5 -255.5z" />
    <glyph glyph-name="afii61352" unicode="&#x2116;" horiz-adv-x="2048" 
d="M1763 782q0 72 -28.5 126.5t-94.5 54.5q-36 0 -61 -16.5t-37.5 -45t-18 -57.5t-5.5 -62q0 -180 122 -180q123 0 123 180zM1640 373q-184 0 -286.5 110.5t-102.5 298.5q0 184 104.5 297t284.5 113q186 0 288 -112t102 -298q0 -190 -100 -299.5t-290 -109.5zM18 0v1470h310
l518 -978h4v978h283v-1470h-302l-526 981h-4v-981h-283zM1276 41v201h729v-201h-729z" />
    <glyph glyph-name="trademark" unicode="&#x2122;" horiz-adv-x="2048" 
d="M1262 1470l192 -512l191 512h313v-843h-217v575h-4l-201 -575h-166l-201 575h-4v-575h-217v843h314zM788 1470v-174h-235v-669h-229v669h-234v174h698z" />
    <glyph glyph-name="Omega" unicode="&#x2126;" horiz-adv-x="1441" 
d="M354 207v6q-106 101 -177 251t-71 333q0 182 77 333t220 240.5t324 89.5q114 0 213 -38t169.5 -102t121.5 -148t75.5 -176.5t24.5 -186.5q0 -187 -72.5 -342.5t-179.5 -253.5v-6h281v-207h-535v152q107 71 178.5 223.5t71.5 380.5q0 97 -23 184.5t-65.5 156t-110.5 109.5
t-151 41q-162 0 -262.5 -141.5t-100.5 -360.5q0 -212 72.5 -370t177.5 -223v-152h-534v207h276z" />
    <glyph glyph-name="estimated" unicode="&#x212e;" horiz-adv-x="1800" 
d="M1729 686h-1344q-10 0 -10 -8v-406q0 -28 16 -47q101 -104 231.5 -162.5t276.5 -58.5q158 0 297 66.5t238 181.5h120q-115 -133 -287.5 -211t-369.5 -78q-168 0 -321.5 59t-264 158.5t-176 237t-65.5 289.5t65.5 290.5t176 238.5t264 159t321.5 59q170 0 324 -59
t265.5 -159t177 -238t65.5 -291v-21zM1423 739v410q0 30 -20 47q-100 100 -230 156.5t-274 56.5q-143 0 -274 -58.5t-230 -160.5q-20 -17 -20 -51v-400q0 -12 10 -12h1030q8 0 8 12z" />
    <glyph glyph-name="partialdiff" unicode="&#x2202;" 
d="M227 1149l-123 154q55 41 96.5 66t112.5 47t150 22q123 0 220.5 -43.5t159.5 -114.5t102.5 -169t57.5 -201t17 -216q0 -56 -3.5 -111t-17 -130t-35 -139t-61.5 -130t-93.5 -112.5t-133.5 -75.5t-178 -29q-93 0 -170.5 29t-128 76.5t-85.5 109.5t-50 125.5t-15 128.5
q0 192 122 321.5t321 129.5q75 0 158 -26.5t122 -86.5q1 55 -4.5 112t-25.5 124t-51.5 118t-87.5 85t-128 34q-43 0 -82 -9t-71.5 -27t-51.5 -30.5t-43 -31.5zM508 152q66 0 119 38.5t84 100t46 134.5t13 146q-20 23 -37 39.5t-49 41t-73 37.5t-87 13q-63 0 -111.5 -26.5
t-75 -69t-39.5 -89t-13 -93.5q0 -135 67 -203.5t156 -68.5z" />
    <glyph glyph-name="Delta" unicode="&#x2206;" horiz-adv-x="1228" 
d="M877 229l-269 789l-346 -789h615zM0 0l655 1462l574 -1462h-1229z" />
    <glyph glyph-name="product" unicode="&#x220f;" horiz-adv-x="1470" 
d="M1417 1208h-207v-1407h-252v1407h-448v-1407h-252v1407h-207v230h1366v-230z" />
    <glyph glyph-name="summation" unicode="&#x2211;" horiz-adv-x="1136" 
d="M1098 -199h-1051v164l496 656l-477 641v176h999v-215h-659v-6l421 -553l-467 -621v-6h738v-236z" />
    <glyph glyph-name="minus" unicode="&#x2212;" horiz-adv-x="1196" 
d="M1114 403h-1032v230h1032v-230z" />
    <glyph glyph-name="uni2215" unicode="&#x2215;" horiz-adv-x="342" 
d="M688 1454l-874 -1493h-162l876 1493h160z" />
    <glyph glyph-name="uni2219" unicode="&#x2219;" horiz-adv-x="569" 
d="M119 518q0 69 48.5 117.5t117.5 48.5t117.5 -48.5t48.5 -117.5t-47.5 -117.5t-118.5 -48.5t-118.5 48.5t-47.5 117.5z" />
    <glyph glyph-name="radical" unicode="&#x221a;" 
d="M88 139l-86 174l305 131l264 -526l336 1544h230l-426 -1884h-207l-311 608z" />
    <glyph glyph-name="infinity" unicode="&#x221e;" horiz-adv-x="1669" 
d="M836 659q35 42 62 72t67.5 65.5t78.5 57t87.5 36.5t101.5 15q63 0 122 -21.5t109.5 -64t81.5 -115t31 -165.5q0 -164 -95.5 -268.5t-250.5 -104.5q-111 0 -201.5 57.5t-193.5 171.5q-45 -47 -68 -69.5t-66.5 -58.5t-78 -53.5t-82.5 -31.5t-99 -14q-153 0 -251.5 101.5
t-98.5 267.5q0 173 101 269.5t243 96.5q56 0 109 -17t89.5 -37.5t80 -60t64 -62.5t57.5 -67zM952 530q82 -89 148.5 -128.5t132.5 -39.5q25 0 50.5 8t51.5 26t42 53t16 83q0 86 -48.5 131.5t-115.5 45.5q-53 0 -117 -37t-160 -142zM717 530q-70 70 -105 97q-96 80 -178 80
q-63 0 -110.5 -47.5t-47.5 -127.5q0 -79 46 -123t118 -44q54 0 114 32.5t95.5 64.5t67.5 68z" />
    <glyph glyph-name="integral" unicode="&#x222b;" horiz-adv-x="806" 
d="M760 1753l-27 -174q-32 18 -71 18q-67 0 -103 -53q-32 -41 -44.5 -124.5t-12.5 -223.5q0 -163 15 -482.5t15 -508.5q0 -277 -75 -414q-39 -74 -109 -109.5t-151 -35.5q-98 0 -156 32l33 183q52 -23 88 -23q57 0 90 41q55 80 55 324q0 189 -14 517.5t-14 500.5
q0 181 27 287t93 175q41 47 104.5 71t133.5 24q75 0 123 -25z" />
    <glyph glyph-name="approxequal" unicode="&#x2248;" horiz-adv-x="1228" 
d="M1014 483l73 -198q-23 -32 -38.5 -52t-41 -46.5t-49.5 -41t-57 -25.5t-70 -11q-55 0 -112.5 21.5t-99 47t-98.5 47t-111 21.5q-129 0 -195 -148l-74 201q92 176 256 176q53 0 118 -21.5t115 -47t107.5 -47t96.5 -21.5q38 0 73.5 23.5t56 49.5t50.5 72zM1014 934l73 -199
q-23 -32 -38.5 -52t-41 -46.5t-49.5 -41t-57 -25.5t-70 -11q-55 0 -112.5 21.5t-99 47t-98.5 47t-111 21.5q-129 0 -195 -147l-74 201q92 176 256 176q53 0 118 -21.5t115 -47.5t107.5 -47.5t96.5 -21.5q29 0 55 11.5t49 35.5t38.5 44.5t37.5 54.5z" />
    <glyph glyph-name="notequal" unicode="&#x2260;" horiz-adv-x="1228" 
d="M96 178v230h338l135 221h-473v229h615l108 178h230l-109 -178h193v-229h-334l-135 -221h469v-230h-611l-110 -178h-230l111 178h-197z" />
    <glyph glyph-name="lessequal" unicode="&#x2264;" horiz-adv-x="1228" 
d="M1133 113v-230h-1037v230h1037zM1133 440v-213l-1037 373v172l1037 381v-213l-717 -252v-4z" />
    <glyph glyph-name="greaterequal" unicode="&#x2265;" horiz-adv-x="1228" 
d="M96 -117v230h1037v-230h-1037zM96 227v213l717 244v4l-717 252v213l1037 -381v-172z" />
    <glyph glyph-name="lozenge" unicode="&#x25ca;" horiz-adv-x="1208" 
d="M1106 719l-406 -819h-202l-396 819l406 819h203zM881 713l-234 493q-30 84 -39 125h-6q-11 -43 -39 -125l-237 -483l237 -502q26 -75 35 -117h8q21 76 37 113z" />
    <glyph glyph-name="afii10066.ital" unicode="&#xf6c5;" horiz-adv-x="1251" 
d="M817 1485h246q-9 -46 -21 -81t-34.5 -61.5t-40 -44.5t-57 -31t-65.5 -20.5t-84.5 -13t-94.5 -7.5t-115 -5q-31 -1 -46 -2t-41.5 -4t-40 -8.5t-29.5 -13.5t-22.5 -21.5t-6.5 -30.5q0 -22 11 -36.5t33 -20.5t40 -7.5t45 -1.5q201 -2 257 -6t121 -25q70 -23 125 -64.5
t89.5 -91.5t57 -110.5t31.5 -118.5t9 -118q0 -258 -152.5 -416t-404.5 -158q-118 0 -214 35t-158.5 92t-105.5 131.5t-61 150t-18 152.5q0 178 94 303q44 55 106 95q-43 14 -73 40.5t-43 58.5t-18 57.5t-5 52.5q0 35 6.5 68t26.5 71.5t51.5 68.5t86 53t126.5 31
q22 2 104.5 7.5t156 10t83.5 7.5q14 3 23.5 9t12.5 10t9 14zM367 545q0 -66 14 -123.5t43.5 -106.5t82 -77.5t122.5 -28.5q60 0 106 18.5t75 49.5t47.5 75.5t26 91.5t7.5 101t-7.5 101t-26 91.5t-47.5 75.5t-75 49.5t-106 18.5q-70 0 -122.5 -28.5t-82 -77.5t-43.5 -106.5
t-14 -123.5z" />
    <glyph glyph-name="acute.cap" unicode="&#xf6c9;" horiz-adv-x="569" 
d="M115 1597l190 295h318l-304 -295h-204z" />
    <glyph glyph-name="caron.cap" unicode="&#xf6ca;" horiz-adv-x="569" 
d="M156 1597l-232 295h230l131 -168l131 168h229l-233 -295h-256z" />
    <glyph glyph-name="dieresis.cap" unicode="&#xf6cb;" horiz-adv-x="569" 
d="M-49 1597v242h266v-242h-266zM352 1597v242h266v-242h-266z" />
    <glyph glyph-name="space_uni0308_uni0301.cap" unicode="&#xf6cc;" horiz-adv-x="569" 
d="M102 1597l166 295h256l-254 -295h-168zM526 1597v230h230v-230h-230zM-186 1597v230h229v-230h-229z" />
    <glyph glyph-name="space_uni0308_uni0300.cap" unicode="&#xf6cd;" horiz-adv-x="569" 
d="M301 1892l166 -295h-168l-254 295h256zM43 1827v-230h-229v230h229zM756 1827v-230h-230v230h230z" />
    <glyph glyph-name="grave.cap" unicode="&#xf6ce;" horiz-adv-x="569" 
d="M250 1597l-303 295h315l193 -295h-205z" />
    <glyph glyph-name="hungarumlaut.cap" unicode="&#xf6cf;" horiz-adv-x="569" 
d="M-139 1597l190 295h318l-303 -295h-205zM287 1597l190 295h318l-303 -295h-205z" />
    <glyph glyph-name="macron.cap" unicode="&#xf6d0;" horiz-adv-x="569" 
d="M637 1749v-152h-705v152h705z" />
    <glyph glyph-name="breve.cyrcap" unicode="&#xf6d1;" horiz-adv-x="569" 
d="M504 1892h114q0 -152 -88 -223.5t-245 -71.5t-245.5 71.5t-88.5 223.5h115q13 -68 72 -101.5t147 -33.5t147 33.5t72 101.5z" />
    <glyph glyph-name="circumflex.cyrcap" unicode="&#xf6d2;" horiz-adv-x="569" 
d="M618 1597h-114q-13 68 -72 102t-147 34t-147 -34t-72 -102h-115q0 152 88.5 223.5t245.5 71.5t245 -71.5t88 -223.5z" />
    <glyph glyph-name="space_uni030F" unicode="&#xf6d3;" horiz-adv-x="569" 
d="M518 1546l191 -295h-205l-303 295h317zM92 1546l191 -295h-205l-303 295h317z" />
    <glyph glyph-name="breve.cyr" unicode="&#xf6d4;" horiz-adv-x="569" 
d="M504 1546h114q0 -152 -88 -223.5t-245 -71.5t-245.5 71.5t-88.5 223.5h115q13 -68 72 -101.5t147 -33.5t147 33.5t72 101.5z" />
    <glyph glyph-name="circumflex.cyr" unicode="&#xf6d5;" horiz-adv-x="569" 
d="M618 1251h-114q-13 68 -72 101.5t-147 33.5t-147 -33.5t-72 -101.5h-115q0 152 88.5 223.5t245.5 71.5t245 -71.5t88 -223.5z" />
    <glyph glyph-name="space_uni030F.cap" unicode="&#xf6d6;" horiz-adv-x="569" 
d="M518 1892l191 -295h-205l-303 295h317zM92 1892l191 -295h-205l-303 295h317z" />
    <glyph glyph-name="space_uni0308_uni0301" unicode="&#xf6d7;" horiz-adv-x="569" 
d="M102 1251l166 295h256l-254 -295h-168zM526 1251v230h230v-230h-230zM-186 1251v230h229v-230h-229z" />
    <glyph glyph-name="space_uni0308_uni0300" unicode="&#xf6d8;" horiz-adv-x="569" 
d="M301 1546l166 -295h-168l-254 295h256zM43 1481v-230h-229v230h229zM756 1481v-230h-230v230h230z" />
    <glyph glyph-name="f_i" unicode="&#xfb01;" horiz-adv-x="1251" 
d="M465 885v-885h-287v885h-158v205h158v88q0 311 320 311q97 0 147 -4v-232h-80q-30 0 -48.5 -4.5t-29 -11t-15.5 -24t-6 -33t-1 -47.5v-43h186v-205h-186zM823 1090h287v-1090h-287v1090zM1110 1485v-266h-287v266h287z" />
    <glyph glyph-name="f_l" unicode="&#xfb02;" horiz-adv-x="1251" 
d="M465 885v-885h-287v885h-158v205h158v88q0 311 320 311q97 0 147 -4v-232h-80q-30 0 -48.5 -4.5t-29 -11t-15.5 -24t-6 -33t-1 -47.5v-43h186v-205h-186zM1110 1470v-1470h-287v1470h287z" />
    </font>
</defs>
</svg>
