<?xml version="1.0" standalone="no"?>
<!DOCTYPE svg PUBLIC "-//W3C//DTD SVG 1.1//EN" "http://www.w3.org/Graphics/SVG/1.1/DTD/svg11.dtd" >
<svg xmlns="http://www.w3.org/2000/svg" xmlns:xlink="http://www.w3.org/1999/xlink" version="1.1">
<metadata>
Created by FontForge 20201107 at Wed Jun 18 20:41:09 2025
 By 
Copyright (c) 1985, 1987, 1988, 1994, 1999, 2002 Adobe Systems Incorporated.  All Rights Reserved. (c) 1981, 1999, 2002 Heidelberger Druckmaschinen AG. All rights reserved.
</metadata>
<defs>
<font id="HelveticaLTStd-LightObl" horiz-adv-x="1138" >
  <font-face 
    font-family="Helvetica LT Std Light"
    font-weight="300"
    font-style="italic"
    font-stretch="normal"
    units-per-em="2048"
    panose-1="2 11 4 3 2 2 2 2 2 4"
    ascent="1470"
    descent="-578"
    x-height="1061"
    cap-height="1475"
    bbox="-342 -559 2273 2005"
    underline-thickness="102"
    underline-position="-204"
    slope="-12"
    unicode-range="U+0020-FB02"
  />
<missing-glyph horiz-adv-x="1327" 
d="M303 0v1434h1024v-1434h-1024zM815 809l348 522h-696zM877 717l348 -522v1044zM467 102h696l-348 523zM406 1239v-1044l348 522z" />
    <glyph glyph-name="fi" unicode="fi" horiz-adv-x="1024" 
d="M391 958h-162l23 103h162l37 168q57 274 282 274q60 0 101 -8l-25 -113q-42 11 -70 11q-45 0 -77 -16.5t-51 -50t-28 -61t-18 -73.5l-28 -131h200l-22 -103h-201l-203 -958h-123zM885 0h-123l225 1061h123zM1204 1475l-39 -183h-135l39 183h135z" />
    <glyph glyph-name="fl" unicode="fl" horiz-adv-x="1024" 
d="M391 958h-162l23 103h162l37 168q57 274 282 274q60 0 101 -8l-25 -113q-42 11 -70 11q-45 0 -77 -16.5t-51 -50t-28 -61t-18 -73.5l-28 -131h200l-22 -103h-201l-203 -958h-123zM885 0h-123l313 1475h123z" />
    <glyph glyph-name=".notdef" horiz-adv-x="1327" 
d="M303 0v1434h1024v-1434h-1024zM815 809l348 522h-696zM877 717l348 -522v1044zM467 102h696l-348 523zM406 1239v-1044l348 522z" />
    <glyph glyph-name=".null" horiz-adv-x="0" 
 />
    <glyph glyph-name="nonmarkingreturn" horiz-adv-x="682" 
 />
    <glyph glyph-name="space" unicode=" " horiz-adv-x="569" 
 />
    <glyph glyph-name="exclam" unicode="!" horiz-adv-x="681" 
d="M373 371l108 645l99 459h149l-98 -459l-166 -645h-92zM416 0h-150l39 180h150z" />
    <glyph glyph-name="quotedbl" unicode="&#x22;" horiz-adv-x="569" 
d="M332 1012l98 463h107l-99 -463h-106zM559 1012l98 463h107l-98 -463h-107z" />
    <glyph glyph-name="numbersign" unicode="#" 
d="M1157 588l-27 -121h-227l-164 -467h-121l162 467h-280l-168 -467h-121l168 467h-225l26 121h244l104 286h-229l25 121h245l158 435h123l-158 -435h279l155 435h121l-155 -435h204l-24 -121h-221l-103 -286h209zM930 874h-279l-106 -286h282z" />
    <glyph glyph-name="dollar" unicode="$" 
d="M694 807l111 526q-117 0 -211.5 -71.5t-118.5 -184.5q-7 -33 -8 -61.5t6 -51t16.5 -40.5t27 -33.5t34.5 -26.5t43 -22t47.5 -18.5t52.5 -16.5zM758 659l-125 -587q129 0 238.5 85t136.5 212q8 37 8.5 69t-6.5 57t-18 45t-30 36t-39.5 28t-49 22.5t-54.5 17.5t-61 15z
M610 -39l-32 -156h-95l33 156q-174 9 -268 98t-94 256q0 19 10 101h133q-30 -139 37.5 -238t202.5 -106l131 608q-44 11 -78.5 22t-71 26t-63 32t-51.5 39t-40 49.5t-24.5 60.5t-8.5 73.5t11 88.5q36 167 178 272.5t311 100.5l27 125h94l-26 -125q172 2 261.5 -94.5
t59.5 -266.5h-133q23 111 -39 180.5t-174 69.5l-115 -545q61 -15 103.5 -28t88 -33t74 -42.5t53.5 -55t35 -72t9.5 -93t-14.5 -118.5q-24 -115 -110 -204t-194.5 -133.5t-220.5 -47.5z" />
    <glyph glyph-name="percent" unicode="%" horiz-adv-x="1820" 
d="M1491 678q139 0 215 -99.5t47 -238.5q-29 -140 -147 -240t-258 -100t-219 100.5t-50 239.5q29 138 151.5 238t260.5 100zM1464 561q-92 0 -170 -66t-98 -159q-19 -88 33.5 -153.5t140.5 -65.5q89 0 168 66.5t98 156.5q20 89 -31.5 155t-140.5 66zM1047 1090
q-29 -139 -150.5 -238.5t-261.5 -99.5q-139 0 -217 100t-49 238q29 139 149.5 239.5t259.5 100.5q140 0 219 -100.5t50 -239.5zM659 868q89 0 170.5 66.5t100.5 155.5q19 90 -33.5 156.5t-142.5 66.5t-169.5 -66t-99.5 -157q-19 -91 33 -156.5t141 -65.5zM1675 1444
l-1126 -1473h-107l1127 1473h106z" />
    <glyph glyph-name="ampersand" unicode="&#x26;" horiz-adv-x="1366" 
d="M987 268l-313 500q-139 -59 -241.5 -161t-127.5 -218q-30 -144 45 -230.5t219 -86.5q212 0 418 196zM1010 1106q27 41 33 87t-7.5 83.5t-51.5 62.5t-93 25q-80 0 -149 -48.5t-87 -127.5q-20 -97 97 -277q51 27 73.5 40t64 39.5t70 54.5t50.5 61zM803 819l278 -438
q85 108 121 287h121q-64 -245 -184 -385l180 -283h-166l-106 174q-118 -114 -239 -163.5t-271 -49.5q-95 0 -173 31.5t-128 88.5t-69.5 138t1.5 180q17 80 60.5 151.5t105.5 127.5t132 99.5t152 78.5q-55 83 -80.5 162.5t-7.5 167.5q28 134 140.5 211.5t253.5 77.5
q134 0 204 -83t43 -202q-10 -48 -28 -88.5t-48 -75.5t-56.5 -60t-73 -54.5t-76.5 -46t-86 -46.5z" />
    <glyph glyph-name="quotesingle" unicode="'" horiz-adv-x="454" 
d="M389 1012l98 463h107l-98 -463h-107z" />
    <glyph glyph-name="parenleft" unicode="(" horiz-adv-x="681" 
d="M784 1513h105q-196 -218 -329.5 -462t-186.5 -496q-103 -474 110 -946h-104q-63 125 -101.5 228t-61.5 219t-18.5 241t35.5 268q57 269 191 491.5t360 456.5z" />
    <glyph glyph-name="parenright" unicode=")" horiz-adv-x="681" 
d="M135 -391h-104q196 217 330 461t188 497q101 479 -113 946h105q64 -124 102.5 -227.5t61 -219.5t18 -240.5t-34.5 -268.5q-57 -268 -191.5 -490.5t-361.5 -457.5z" />
    <glyph glyph-name="asterisk" unicode="*" horiz-adv-x="796" 
d="M408 1323l208 -88l52 240h86l-52 -240l252 86l13 -90l-250 -76l106 -217l-90 -49l-104 221l-205 -217l-62 55l203 207l-213 82z" />
    <glyph glyph-name="plus" unicode="+" horiz-adv-x="1351" 
d="M737 573l94 451h123l-94 -451h451l-27 -122h-450l-97 -451h-123l97 451h-451l27 122h450z" />
    <glyph glyph-name="comma" unicode="," horiz-adv-x="569" 
d="M397 180l-51 -241q-20 -86 -72 -142.5t-124 -77.5l16 76q78 42 98 135l15 70h-70l39 180h149z" />
    <glyph glyph-name="hyphen" unicode="-" horiz-adv-x="681" 
d="M209 596h518l-27 -127h-518z" />
    <glyph glyph-name="period" unicode="." horiz-adv-x="569" 
d="M358 0h-149l39 180h149z" />
    <glyph glyph-name="slash" unicode="/" horiz-adv-x="569" 
d="M911 1513l-841 -1697h-115l842 1697h114z" />
    <glyph glyph-name="zero" unicode="0" 
d="M1077 711q18 84 27 154.5t10.5 144t-13 129.5t-43.5 101t-82.5 69t-127.5 24q-354 0 -490 -637q-24 -115 -32.5 -206.5t0.5 -169.5t39 -129.5t86 -80t137 -28.5q90 0 164.5 38.5t124.5 98t91 147t64.5 167.5t44.5 178zM877 1444q89 0 156.5 -24.5t108.5 -64.5t65.5 -100
t33 -123t5 -141.5t-14 -147t-27.5 -147.5q-26 -123 -59.5 -223.5t-86.5 -196.5t-120.5 -161t-163 -104.5t-211.5 -39.5q-97 0 -169 26.5t-114 77t-65 116t-25 152t8 175t33 193.5q18 84 38.5 156t51 148.5t66.5 137.5t85.5 117t108 93t134 59t162.5 22z" />
    <glyph glyph-name="one" unicode="1" 
d="M618 0l228 1073h-373l19 86q65 4 106 9t90 16t82.5 30t68.5 49t62 75t51 106h105l-307 -1444h-132z" />
    <glyph glyph-name="two" unicode="2" 
d="M487 971h-139q44 214 200 343.5t370 129.5q141 0 231.5 -54.5t120.5 -143.5t6 -202q-19 -91 -68 -169t-109.5 -131t-142 -104t-152.5 -84.5t-155 -77t-137 -77.5q-101 -65 -164 -131t-88 -159h805l-23 -111h-944q26 113 67 195.5t122 156.5q85 79 187 147.5t183.5 109.5
t164.5 87.5t142.5 88.5t105 106t63.5 145q28 137 -45 217t-211 80q-139 0 -252 -107t-138 -255z" />
    <glyph glyph-name="three" unicode="3" 
d="M600 696l23 107q97 -1 171.5 11.5t138 42.5t105 85.5t58.5 136.5q28 126 -46 190t-208 64q-137 0 -241.5 -86.5t-133.5 -222.5h-131q44 195 209 324q73 56 158 76t190 20q117 0 200 -38t122 -120t14 -199q-52 -235 -275 -321q239 -80 183 -356q-40 -185 -190.5 -309
t-368.5 -130q-255 0 -352 99.5t-68 347.5h131q-33 -161 46 -248.5t243 -87.5q154 0 279.5 98t146.5 228q16 85 -8 145.5t-81.5 93t-136 44.5t-178.5 5z" />
    <glyph glyph-name="four" unicode="4" 
d="M733 0l76 356h-659l24 113l875 961h118l-204 -963h200l-22 -111h-201l-76 -356h-131zM995 1233l-694 -766h530z" />
    <glyph glyph-name="five" unicode="5" 
d="M152 375h131q-10 -143 70 -218t225 -75q157 0 273.5 105.5t149.5 263.5q34 163 -41.5 264.5t-238.5 101.5q-200 0 -346 -149l-105 14l275 748h717l-23 -111h-606l-193 -485q94 55 165 74.5t171 19.5q202 0 302.5 -129t54.5 -348q-48 -218 -210 -349t-350 -131
q-106 0 -187 21.5t-140.5 68t-84 126t-9.5 188.5z" />
    <glyph glyph-name="six" unicode="6" 
d="M1262 1090h-136q2 114 -54.5 178.5t-168.5 64.5q-73 0 -137.5 -23.5t-111 -56.5t-89.5 -93t-69.5 -107.5t-56 -126t-43 -123t-36.5 -123.5q40 43 65 67.5t68.5 58.5t82.5 52.5t94 32.5t116 14q217 0 312 -123.5t49 -341.5q-46 -219 -195 -344t-368 -125q-89 0 -159 22.5
t-123.5 74t-81 130.5t-27.5 196.5t32 267.5q16 78 38.5 151.5t56 153t74 147.5t95 129.5t117 105.5t142 69.5t167.5 25.5q174 0 269 -92t78 -262zM758 795q-148 0 -259 -104t-143 -255q-8 -49 -9.5 -99t15.5 -96t45.5 -81t81 -56.5t121.5 -21.5q88 0 160.5 31.5t121 85
t79 115t45.5 130.5q36 170 -28 260.5t-230 90.5z" />
    <glyph glyph-name="seven" unicode="7" 
d="M397 1298l27 132h919l-24 -123q-183 -166 -339 -358.5t-259 -367t-169 -320.5t-97 -261h-144q56 201 193 444t307 462t348 392h-762z" />
    <glyph glyph-name="eight" unicode="8" 
d="M721 707q-103 0 -187 -32.5t-145.5 -103.5t-83.5 -174q-28 -136 52 -225.5t241 -89.5q144 0 260 90.5t146 233.5q31 146 -50 223.5t-233 77.5zM848 1333q-127 0 -224 -68.5t-124 -191.5q-26 -126 49 -191t205 -65q127 0 217 69.5t121 215.5q24 111 -36.5 171t-207.5 60z
M508 776q-41 30 -65 51t-45 48.5t-28.5 57t-7.5 69t11 90.5q21 98 94 180.5t178 129t215 42.5q68 0 127.5 -13t110.5 -39.5t82.5 -68.5t44.5 -99.5t-4 -131.5q-24 -114 -88 -194t-177 -130q110 -43 158.5 -138t22.5 -220q-45 -209 -206.5 -324t-395.5 -115q-64 0 -123.5 17
t-111 51.5t-85.5 85.5t-46.5 119t5.5 153q28 131 115.5 231.5t218.5 147.5z" />
    <glyph glyph-name="nine" unicode="9" 
d="M176 317h133q-3 -235 232 -235q71 0 134 22.5t110 58t89 90.5t71 108t56 122t43 122t33 118l-4 4q-185 -225 -436 -225q-202 0 -297 127t-51 338q46 214 193 345.5t374 131.5q506 0 350 -729q-76 -357 -262 -550.5t-422 -193.5q-176 0 -271 87.5t-75 258.5zM831 1333
q-163 -3 -269 -100.5t-142 -269.5q-35 -165 33.5 -258t226.5 -93q149 0 258 103.5t141 255.5q34 162 -31.5 260.5t-216.5 101.5z" />
    <glyph glyph-name="colon" unicode=":" horiz-adv-x="569" 
d="M358 0h-149l39 180h149zM535 827h-150l39 181h149z" />
    <glyph glyph-name="semicolon" unicode=";" horiz-adv-x="569" 
d="M397 180l-51 -241q-20 -86 -72 -142.5t-124 -77.5l16 76q78 42 98 135l15 70h-70l39 180h149zM535 827h-150l39 181h149z" />
    <glyph glyph-name="less" unicode="&#x3c;" horiz-adv-x="1351" 
d="M436 522l776 -403l-26 -131l-922 481l23 109l1120 456l-27 -131z" />
    <glyph glyph-name="equal" unicode="=" horiz-adv-x="1351" 
d="M1352 774l-25 -123h-1024l25 123h1024zM1268 377l-27 -123h-1024l27 123h1024z" />
    <glyph glyph-name="greater" unicode="&#x3e;" horiz-adv-x="1351" 
d="M1311 578l-23 -109l-1126 -481l26 131l949 403l-781 381l27 131z" />
    <glyph glyph-name="question" unicode="?" horiz-adv-x="1024" 
d="M641 373h-119q25 130 64.5 216.5t128.5 164.5q32 28 88.5 72t93.5 75t78.5 71.5t67 82t34.5 84.5q24 114 -45 189t-217 75t-254 -98t-133 -248h-125q18 133 96 238t194 161.5t249 56.5q207 0 304 -105t60 -280q-14 -67 -52 -125t-91 -105t-107 -88t-116.5 -93
t-104.5 -101q-28 -34 -47.5 -79t-28 -78t-18.5 -86zM580 0h-150l39 180h149z" />
    <glyph glyph-name="at" unicode="@" horiz-adv-x="1638" 
d="M1473 342h120q-132 -176 -335.5 -278.5t-407.5 -102.5q-215 0 -371.5 105t-220 284.5t-18.5 392.5q33 157 125 299.5t217.5 245.5t280.5 164t308 61q146 0 266 -49t197 -133.5t106.5 -205.5t0.5 -259q-34 -156 -137.5 -296.5t-230.5 -221t-236 -80.5q-59 0 -103.5 27.5
t-50.5 79.5q-57 -47 -129 -75t-137 -28q-128 0 -187 89t-32 219q18 82 60 169.5t104.5 167.5t136.5 143.5t163 101.5t177 38q74 0 128.5 -35.5t71.5 -99.5l50 94h137l-338 -618q-21 -39 -32.5 -64.5t-16.5 -51t7 -38t42 -12.5q81 0 175 79t164 194.5t93 223.5q26 125 0 225
t-91.5 169.5t-162.5 107t-213 37.5q-139 0 -272.5 -54.5t-237.5 -147t-179 -217.5t-104 -263q-39 -183 14 -336t185 -241.5t313 -88.5q160 0 321 74t280 205zM776 401q66 1 142.5 57.5t138 139t107.5 172.5t61 160q14 61 -16.5 105t-92.5 44q-77 0 -157 -50t-140.5 -125
t-104 -158.5t-59.5 -155.5q-16 -78 15.5 -133.5t105.5 -55.5z" />
    <glyph glyph-name="A" unicode="A" horiz-adv-x="1366" 
d="M174 0h-143l893 1475h157l252 -1475h-143l-72 463h-672zM973 1356l-455 -774h578z" />
    <glyph glyph-name="B" unicode="B" horiz-adv-x="1366" 
d="M455 705l-125 -586h354q99 0 167 6.5t130.5 24.5t102 51t69 86t45.5 129q7 46 9.5 82.5t-9.5 65.5t-26.5 50.5t-42.5 37.5t-57.5 26t-70.5 16t-82.5 8.5t-93.5 2.5h-370zM594 1356l-115 -533h352q107 0 186.5 18.5t132 55.5t83 87.5t45.5 119.5q29 138 -52.5 195
t-310.5 57h-321zM768 0h-602l313 1475h533q249 0 345.5 -98.5t59.5 -272.5q-31 -143 -115.5 -222t-187.5 -96l-2 -4q144 -23 200.5 -119.5t24.5 -246.5q-89 -416 -569 -416z" />
    <glyph glyph-name="C" unicode="C" horiz-adv-x="1478" 
d="M1579 1047h-143q-3 184 -100.5 266t-291.5 82q-129 0 -240 -52.5t-191 -144.5t-135 -207.5t-83 -249.5q-22 -104 -26 -196t15 -179t64 -149t128.5 -99.5t199.5 -37.5q184 0 327.5 111t225.5 294h146q-49 -112 -115.5 -203t-157 -165t-212.5 -115t-265 -41
q-133 0 -231.5 41t-156.5 111.5t-85.5 170t-25.5 212.5t30 241q43 205 127 357.5t197 242.5t244 133t282 43q231 0 358 -120.5t115 -345.5z" />
    <glyph glyph-name="D" unicode="D" horiz-adv-x="1478" 
d="M670 0h-504l313 1475h504q148 0 250 -21.5t182 -89.5q58 -50 92 -127.5t41.5 -165.5t2 -169.5t-22.5 -162.5q-34 -162 -107.5 -309t-189.5 -250q-116 -105 -253.5 -142.5t-307.5 -37.5zM594 1356l-264 -1237h334q109 0 191.5 13t168.5 54q78 36 142.5 99t107 141
t70 154.5t45.5 158.5q89 424 -136 561q-93 56 -325 56h-334z" />
    <glyph glyph-name="E" unicode="E" horiz-adv-x="1251" 
d="M1167 0h-1001l313 1475h981l-24 -119h-842l-115 -533h760l-25 -118h-759l-125 -586h862z" />
    <glyph glyph-name="F" unicode="F" 
d="M291 0h-139l313 1475h950l-24 -119h-811l-115 -533h737l-24 -118h-738z" />
    <glyph glyph-name="G" unicode="G" horiz-adv-x="1593" 
d="M1427 643h-497l24 119h631l-162 -762h-118l53 252q-111 -141 -258 -216t-355 -75q-190 0 -314.5 87t-172.5 261t8 436q35 165 106.5 303t176 242.5t249 163.5t314.5 59q240 0 379.5 -118.5t138.5 -347.5h-143q-1 108 -53 187.5t-139 120t-197 40.5q-143 0 -261 -51
t-204 -145.5t-145 -221.5t-93 -287q-19 -99 -17.5 -188.5t32 -167t81 -134t130 -88.5t178.5 -32q134 0 268.5 62.5t230.5 195.5q82 111 129 305z" />
    <glyph glyph-name="H" unicode="H" horiz-adv-x="1478" 
d="M303 0h-139l313 1475h139l-135 -633h873l135 633h139l-313 -1475h-139l153 723h-872z" />
    <glyph glyph-name="I" unicode="I" horiz-adv-x="569" 
d="M354 0h-139l313 1475h140z" />
    <glyph glyph-name="J" unicode="J" horiz-adv-x="1024" 
d="M143 467h140q-11 -47 -16.5 -79.5t-9.5 -75.5t0.5 -72t17.5 -60t37 -49.5t63.5 -30.5t93.5 -12q139 0 217 80t111 240l227 1067h139l-227 -1072q-95 -442 -510 -442q-70 0 -123 14.5t-88 39.5t-57 63t-31.5 79.5t-9.5 95t6.5 104t19.5 110.5z" />
    <glyph glyph-name="K" unicode="K" horiz-adv-x="1366" 
d="M313 0h-139l313 1475h140l-162 -764l917 764h158l-706 -588l495 -887h-170l-444 801l-281 -232z" />
    <glyph glyph-name="L" unicode="L" 
d="M1096 0h-930l313 1475h139l-288 -1356h790z" />
    <glyph glyph-name="M" unicode="M" horiz-adv-x="1705" 
d="M299 0h-139l313 1475h213l207 -1301h4l752 1301h211l-314 -1475h-139l279 1315h-5l-761 -1315h-132l-206 1315h-4z" />
    <glyph glyph-name="N" unicode="N" horiz-adv-x="1478" 
d="M1153 0l-575 1286h-5l-272 -1286h-139l313 1475h158l577 -1289h4l275 1289h139l-313 -1475h-162z" />
    <glyph glyph-name="O" unicode="O" horiz-adv-x="1593" 
d="M264 735q34 162 109 303t182 247t250.5 167t304.5 61q113 0 205.5 -27.5t157 -78t108.5 -121.5t63.5 -157.5t18 -185.5t-24.5 -208q-34 -161 -108 -300t-180.5 -245.5t-252 -167.5t-311.5 -61q-112 0 -203 28t-155 78.5t-107.5 121.5t-62.5 157t-18 184t24 205zM813 80
q112 0 211.5 35t175.5 96t136.5 145t100.5 179t62 200q66 307 -44 483.5t-365 176.5q-110 0 -209.5 -36t-175.5 -98t-137 -146.5t-101.5 -179.5t-63.5 -200q-23 -107 -23.5 -202t25 -178.5t76 -144t135.5 -95.5t197 -35z" />
    <glyph glyph-name="P" unicode="P" horiz-adv-x="1251" 
d="M299 0h-139l313 1475h539q112 0 192.5 -21.5t124.5 -59.5t68 -90.5t22 -113t-14 -127.5q-20 -95 -69 -169t-111.5 -119t-144.5 -73.5t-160.5 -39.5t-165.5 -11h-316zM463 770h319q105 0 179.5 12.5t139.5 45t106.5 93t60.5 152.5q31 140 -47.5 211.5t-272.5 71.5h-360z
" />
    <glyph glyph-name="Q" unicode="Q" horiz-adv-x="1593" 
d="M1280 139l166 -151l-98 -94l-183 167q-179 -100 -389 -100q-112 0 -203 28t-155 78.5t-107.5 121.5t-62.5 157t-18 184t24 205q34 157 106 295t177 247t250.5 172.5t312.5 63.5q317 0 461.5 -204t66.5 -574q-37 -181 -126.5 -335.5t-221.5 -260.5zM1028 371l168 -152
q110 87 185 222t108 294q47 220 5.5 366.5t-148.5 220t-267 73.5q-137 0 -255.5 -54.5t-202.5 -148.5t-141.5 -210t-86.5 -247q-23 -107 -23.5 -202.5t25 -179t76 -144t135.5 -95t197 -34.5q148 0 272 65l-141 129z" />
    <glyph glyph-name="R" unicode="R" horiz-adv-x="1366" 
d="M471 788h434q165 0 281 72.5t147 220.5q9 55 7 97t-22.5 72.5t-47 51t-66 32.5t-80.5 17t-90 5h-442zM885 670h-439l-143 -670h-139l313 1475h578q248 0 355 -94t65 -294q-29 -138 -103 -220t-215 -140q39 -14 66 -38t39.5 -58t18.5 -66t2.5 -78t-8 -78t-13.5 -81
q-30 -162 -30.5 -230t23.5 -84l-2 -14h-153q-20 55 4 240q5 31 15 89.5t15 96.5t5 63q0 47 -13.5 80.5t-35 52.5t-56.5 30t-68.5 14.5t-80.5 3.5z" />
    <glyph glyph-name="S" unicode="S" horiz-adv-x="1251" 
d="M182 440h135q-13 -96 7.5 -167t69 -112.5t116 -61t154.5 -19.5q187 0 299.5 86.5t140.5 218.5q14 66 -1 116t-51.5 80t-89 54t-114.5 38.5t-126.5 32t-125.5 35.5t-111.5 49.5t-85 72.5t-46 106t6.5 149q16 78 63.5 148.5t120 126t176.5 88t224 32.5q97 0 174 -22.5
t126 -63t79 -96t33.5 -120.5t-10.5 -138h-134q16 84 1.5 145t-58.5 100.5t-103 58t-132 18.5q-102 0 -185 -29t-134.5 -77t-80 -104.5t-31.5 -115.5q-3 -55 20 -96t63.5 -66t95 -45t115 -32t123 -28.5t120.5 -34.5t106 -49.5t79 -73t41.5 -106t-7.5 -147.5
q-43 -203 -209.5 -316.5t-421.5 -113.5q-239 0 -360 123.5t-72 355.5z" />
    <glyph glyph-name="T" unicode="T" 
d="M322 1356l24 119h1073l-24 -119h-467l-289 -1356h-139l288 1356h-466z" />
    <glyph glyph-name="U" unicode="U" horiz-adv-x="1478" 
d="M287 555l194 920h140l-187 -879q-58 -273 18.5 -394.5t303.5 -121.5q233 0 359 124.5t183 391.5l187 879h139l-194 -920q-62 -290 -239 -442t-460 -152q-285 0 -395.5 153.5t-48.5 440.5z" />
    <glyph glyph-name="V" unicode="V" horiz-adv-x="1251" 
d="M549 0l-199 1475h146l166 -1311l720 1311h146l-826 -1475h-153z" />
    <glyph glyph-name="W" unicode="W" horiz-adv-x="1820" 
d="M1300 1475l64 -1278h4l594 1278h143l-700 -1475h-154l-65 1303h-4l-619 -1303h-153l-68 1475h139l45 -1278h4l615 1278h155z" />
    <glyph glyph-name="X" unicode="X" horiz-adv-x="1251" 
d="M1053 0l-291 651l-567 -651h-158l670 758l-336 717h161l273 -621l536 621h162l-635 -717l344 -758h-159z" />
    <glyph glyph-name="Y" unicode="Y" horiz-adv-x="1251" 
d="M498 1475l282 -711l596 711h162l-711 -832l-137 -643h-139l135 633l-348 842h160z" />
    <glyph glyph-name="Z" unicode="Z" horiz-adv-x="1251" 
d="M1186 0h-1123l25 117l1208 1239h-864l25 119h1036l-25 -117l-1208 -1239h950z" />
    <glyph glyph-name="bracketleft" unicode="[" horiz-adv-x="681" 
d="M489 -391h-387l406 1904h391l-22 -102h-261l-360 -1700h256z" />
    <glyph glyph-name="backslash" unicode="\" horiz-adv-x="569" 
d="M422 -184l-121 1697h115l121 -1697h-115z" />
    <glyph glyph-name="bracketright" unicode="]" horiz-adv-x="681" 
d="M817 1513l-405 -1904h-392l23 102h260l361 1700h-256l22 102h387z" />
    <glyph glyph-name="asciicircum" unicode="^" horiz-adv-x="1351" 
d="M375 502h-119l668 928h106l277 -928h-117l-242 803z" />
    <glyph glyph-name="underscore" unicode="_" horiz-adv-x="1024" 
d="M-33 -154h1024l-22 -102h-1024z" />
    <glyph glyph-name="grave" unicode="`" horiz-adv-x="681" 
d="M625 1176l-222 284h160l166 -284h-104z" />
    <glyph glyph-name="a" unicode="a" 
d="M926 391l35 166q-54 -20 -116 -32.5t-102 -17t-112 -9.5q-304 -22 -348 -226q-19 -91 38 -140.5t152 -49.5q102 0 193.5 31t164.5 103t95 175zM592 596l174 22q105 9 170 35q48 19 68 111q21 100 -30.5 157.5t-187.5 57.5q-137 0 -227 -54.5t-133 -185.5h-125
q35 121 113.5 201.5t177.5 115t219 34.5q84 0 147 -17t110 -56t60.5 -102t-2.5 -155l-122 -578q-15 -74 6 -91t104 9l-20 -96q-60 -20 -101 -20q-26 0 -53 6q-38 6 -55.5 30t-16.5 56.5t6 70.5q-194 -176 -432 -176q-149 0 -234.5 79.5t-53.5 225.5q56 271 438 320z" />
    <glyph glyph-name="b" unicode="b" horiz-adv-x="1251" 
d="M397 535q-41 -199 28 -326t237 -127q159 0 283 110.5t167 305.5q27 100 23 187.5t-33 153t-93 103t-157 37.5q-162 0 -288.5 -129t-166.5 -315zM324 186l-39 -186h-123l313 1475h123l-125 -584q78 94 192 146.5t230 52.5q95 0 167.5 -30t115.5 -82.5t67 -123.5
t22.5 -153.5t-18.5 -172.5q-26 -121 -74.5 -219.5t-121 -175.5t-175 -119.5t-227.5 -42.5q-107 0 -199.5 57.5t-123.5 157.5h-4z" />
    <glyph glyph-name="c" unicode="c" 
d="M1178 727h-125q-6 120 -72.5 186t-187.5 66q-91 0 -170 -39t-134 -104.5t-93 -143.5t-56 -164q-21 -84 -14.5 -164t32.5 -142.5t89 -101t155 -38.5q135 0 235 75.5t150 209.5h131q-72 -184 -209.5 -290t-330.5 -106q-99 0 -174.5 28t-121 78t-70.5 119.5t-23.5 153
t20.5 178.5q23 112 76.5 212.5t130 179t180.5 124.5t219 46q186 0 280.5 -91t82.5 -272z" />
    <glyph glyph-name="d" unicode="d" horiz-adv-x="1251" 
d="M1079 535q21 90 12 170.5t-40 141.5t-92 96.5t-142 35.5q-183 0 -306.5 -136t-158.5 -345q-40 -195 37.5 -305.5t237.5 -110.5q168 0 289.5 127t162.5 326zM1155 891l125 584h123l-313 -1475h-123l39 186h-5q-72 -100 -189 -157.5t-224 -57.5q-100 0 -175 28t-119.5 77.5
t-67 120t-21.5 153t22 178.5q19 91 54.5 173t88.5 153.5t118.5 123.5t150.5 82t180 30q116 0 208 -52.5t128 -146.5z" />
    <glyph glyph-name="e" unicode="e" 
d="M352 604h692q34 163 -31.5 269t-224.5 106q-154 0 -267.5 -106t-168.5 -269zM1153 502h-823q-22 -86 -13 -162.5t39.5 -133.5t93 -90.5t148.5 -33.5q122 0 221.5 64t151.5 180h137q-184 -355 -535 -355q-100 0 -175.5 27.5t-120.5 77.5t-69.5 119.5t-23 152.5t20.5 178
q25 116 80.5 218.5t133 179.5t179.5 121.5t213 44.5q221 0 312.5 -153t29.5 -435z" />
    <glyph glyph-name="f" unicode="f" horiz-adv-x="569" 
d="M401 958h-157l22 103h158l37 168q57 274 282 274q60 0 101 -8l-25 -113q-42 11 -69 11q-37 0 -65.5 -12.5t-45.5 -30t-30.5 -47t-20 -53t-13.5 -58.5l-28 -131h205l-23 -103h-205l-202 -958h-123z" />
    <glyph glyph-name="g" unicode="g" horiz-adv-x="1251" 
d="M1079 526q24 131 7 231.5t-87 161t-182 60.5q-159 0 -284 -110.5t-168 -305.5q-27 -100 -22.5 -187.5t33.5 -152.5t93.5 -103t157.5 -38q162 0 287 128.5t165 315.5zM1153 874l39 187h123l-203 -959q-20 -91 -48.5 -165.5t-77.5 -145.5t-114 -119t-160 -77t-212 -29
q-111 0 -193 29.5t-123.5 76t-58 97.5t-8.5 102h131q1 -58 22.5 -97.5t61.5 -60t85.5 -29t104.5 -8.5q97 0 174.5 29t127 74t87 113t57.5 132t36 146q-78 -94 -192 -146.5t-230 -52.5q-95 0 -167.5 30t-115.5 82t-67.5 123t-23 153.5t18.5 172.5q26 121 74.5 220t121 176
t175 119.5t227.5 42.5q107 0 200 -58t124 -158h4z" />
    <glyph glyph-name="h" unicode="h" 
d="M270 0h-123l314 1475h123l-119 -562q102 88 189.5 132.5t189.5 44.5q221 0 291 -152q16 -36 19 -80t-1.5 -76t-15.5 -88l-148 -694h-123l148 692q31 146 -18.5 216.5t-194.5 70.5q-108 0 -199.5 -59.5t-140.5 -147.5q-43 -74 -70 -201z" />
    <glyph glyph-name="i" unicode="i" horiz-adv-x="454" 
d="M289 0h-123l225 1061h123zM569 1292h-135l39 183h135z" />
    <glyph glyph-name="j" unicode="j" horiz-adv-x="454" 
d="M406 1061h122l-256 -1202q-13 -61 -23.5 -98.5t-30.5 -75.5t-47 -58t-69 -32.5t-100 -12.5q-44 0 -80 8l25 109q98 -13 139 20.5t61 122.5zM623 1475l-39 -183h-135l38 183h136z" />
    <glyph glyph-name="k" unicode="k" horiz-adv-x="1024" 
d="M262 0h-123l314 1475h122l-194 -918l627 504h168l-480 -383l301 -678h-137l-272 592l-240 -191z" />
    <glyph glyph-name="l" unicode="l" horiz-adv-x="454" 
d="M289 0h-123l313 1475h123z" />
    <glyph glyph-name="m" unicode="m" horiz-adv-x="1705" 
d="M375 571l-121 -571h-123l225 1061h123l-33 -160h5q65 89 163.5 139t202.5 50q71 0 121.5 -15.5t79.5 -45.5t44 -63.5t23 -80.5q72 101 173 153t217 52q84 0 140 -24t83 -61.5t35.5 -95.5t3 -112.5t-20.5 -126.5l-143 -670h-123l156 733q26 121 -12 183.5t-162 62.5
q-149 0 -267 -121q-47 -48 -81 -129t-50 -158l-121 -571h-122l155 733q26 121 -12 183.5t-162 62.5q-148 0 -266 -121q-47 -48 -81 -129t-50 -158z" />
    <glyph glyph-name="n" unicode="n" 
d="M391 571l-121 -571h-123l226 1061h123l-31 -148q102 88 189.5 132.5t189.5 44.5q221 0 291 -152q16 -36 19 -80t-1.5 -76t-15.5 -88l-148 -694h-123l148 692q31 146 -18.5 216.5t-194.5 70.5q-108 0 -199.5 -59.5t-140.5 -147.5q-43 -74 -70 -201z" />
    <glyph glyph-name="o" unicode="o" 
d="M563 -29q-103 2 -183.5 37t-133.5 105t-68.5 174t12.5 243q25 117 77.5 218t129 177.5t180.5 120.5t224 44q97 0 172.5 -28.5t121.5 -79t72 -121t25.5 -154t-18.5 -177.5q-54 -252 -221.5 -405.5t-389.5 -153.5zM1042 530q16 77 17.5 143t-13.5 123t-47.5 97t-88.5 63
t-132 23q-93 0 -172.5 -37.5t-134.5 -102t-92.5 -142.5t-56.5 -167q-42 -204 25.5 -326t240.5 -122q93 0 172 37.5t134 102t92 142t56 166.5z" />
    <glyph glyph-name="p" unicode="p" horiz-adv-x="1251" 
d="M397 526q-21 -90 -11.5 -170.5t41 -141.5t93 -96.5t142.5 -35.5q123 0 221.5 65.5t158 172.5t82.5 243q40 195 -36.5 305.5t-235.5 110.5q-169 0 -291.5 -127.5t-163.5 -325.5zM322 170l-125 -588h-123l313 1479h123l-39 -187h4q72 100 189.5 158t224.5 58q100 0 175 -28
t119.5 -78t66.5 -120.5t21 -153t-22 -178.5q-24 -114 -74 -213.5t-123 -178t-175 -124t-220 -45.5q-116 0 -207.5 52.5t-127.5 146.5z" />
    <glyph glyph-name="q" unicode="q" horiz-adv-x="1251" 
d="M1079 535q21 90 12 170.5t-40 141.5t-92 96.5t-142 35.5q-183 0 -306.5 -136t-158.5 -345q-40 -195 37.5 -305.5t237.5 -110.5q168 0 289.5 127t162.5 326zM1153 874l39 187h123l-314 -1479h-122l125 588q-78 -94 -192 -146.5t-230 -52.5q-95 0 -167.5 30t-115.5 82
t-67.5 123t-23 153.5t18.5 172.5q26 121 74.5 220t121 176t175 119.5t227.5 42.5q107 0 200 -58t124 -158h4z" />
    <glyph glyph-name="r" unicode="r" horiz-adv-x="681" 
d="M387 520l-111 -520h-122l225 1061h123l-43 -199h4q77 125 168 176.5t227 51.5l-29 -134q-347 8 -442 -436z" />
    <glyph glyph-name="s" unicode="s" horiz-adv-x="1024" 
d="M164 332h125q1 -135 63.5 -192.5t202.5 -57.5q126 0 205 57t98 140q11 49 -5 84.5t-51 55t-83 35.5t-102 25.5t-107.5 24.5t-100 33t-79.5 51.5t-45 80t2 117.5q28 135 145.5 219.5t290.5 84.5q178 0 265.5 -80t72.5 -254h-125q9 118 -53.5 170.5t-184.5 52.5
q-115 0 -187.5 -49t-90.5 -133q-9 -42 3.5 -74t40.5 -51.5t68 -36t86.5 -27.5t95 -24.5t94.5 -28t84.5 -38t64.5 -54t35.5 -76.5t-3.5 -106q-31 -148 -167 -229t-330 -81q-181 0 -266.5 102t-61.5 259z" />
    <glyph glyph-name="t" unicode="t" horiz-adv-x="569" 
d="M541 96l-21 -100q-6 -1 -35.5 -8.5t-57.5 -12t-54 -4.5q-95 0 -131.5 48.5t-12.5 162.5l164 776h-149l22 103h150l63 295h123l-63 -295h198l-22 -103h-199l-154 -727q-22 -78 -9 -113.5t85 -35.5q42 0 103 14z" />
    <glyph glyph-name="u" unicode="u" 
d="M969 483l123 578h122l-225 -1061h-123l31 147q-41 -38 -69.5 -60.5t-78 -53.5t-107.5 -46.5t-124 -15.5q-376 0 -293 391l148 699h123l-148 -696q-30 -140 20.5 -211.5t192.5 -71.5q150 0 260.5 111.5t147.5 289.5z" />
    <glyph glyph-name="v" unicode="v" horiz-adv-x="1024" 
d="M440 0l-180 1061h133l152 -909l536 909h133l-636 -1061h-138z" />
    <glyph glyph-name="w" unicode="w" horiz-adv-x="1478" 
d="M1036 1061l43 -897l469 897h125l-569 -1061h-131l-43 891h-4l-424 -891h-148l-98 1061h123l82 -905l438 905h137z" />
    <glyph glyph-name="x" unicode="x" horiz-adv-x="1024" 
d="M838 0l-224 459l-428 -459h-149l524 549l-266 512h151l203 -422l391 422h156l-491 -512l280 -549h-147z" />
    <glyph glyph-name="y" unicode="y" horiz-adv-x="1024" 
d="M53 -403l25 114q62 -12 100 -12q39 0 74 20.5t62 57t48 72t45 78.5t39 65l-184 1069h137l148 -911l532 911h133l-618 -1047q-42 -71 -64.5 -109t-57.5 -92t-58 -82t-55.5 -61.5t-60 -49.5t-61 -27t-69.5 -11q-57 0 -115 15z" />
    <glyph glyph-name="z" unicode="z" horiz-adv-x="1024" 
d="M956 0h-888l22 109l885 849h-658l23 103h815l-22 -109l-885 -850h731z" />
    <glyph glyph-name="braceleft" unicode="{" horiz-adv-x="681" 
d="M432 809l80 373q39 186 117.5 259.5t249.5 67.5q-180 -58 -220 -247l-84 -394q-13 -65 -29 -110t-42.5 -86t-66 -68t-95.5 -41v-4q92 -22 115 -92t-6 -184l-89 -422q-23 -103 6.5 -161.5t120.5 -86.5l-2 -4q-177 -3 -229.5 65t-17.5 230l88 418q13 63 11.5 111t-33 80.5
t-95.5 45.5v4q60 16 98.5 36.5t62.5 53t36 66t24 90.5z" />
    <glyph glyph-name="bar" unicode="|" horiz-adv-x="823" 
d="M512 1679h104v-2238h-104v2238z" />
    <glyph glyph-name="braceright" unicode="}" horiz-adv-x="681" 
d="M676 1227l-88 -418q-13 -63 -11.5 -111t33 -81t95.5 -46v-4q-60 -16 -98.5 -36.5t-62.5 -52.5t-36.5 -66t-24.5 -90l-77 -373q-39 -187 -117.5 -260.5t-249.5 -67.5q176 57 217 248l84 393q11 52 23 89.5t30.5 74.5t42 62.5t58 46.5t79.5 32v4q-63 15 -92.5 51.5
t-30.5 92.5t15 133l90 422q22 104 -7.5 162t-119.5 86v4q177 3 230 -65t18 -230z" />
    <glyph glyph-name="asciitilde" unicode="~" horiz-adv-x="1351" 
d="M594 664q79 0 223 -74q118 -59 160 -69q20 -5 37 -5q107 0 239 178l68 -69q-165 -224 -334 -224q-71 0 -258 86q-9 4 -45.5 24t-62 29t-52.5 9q-39 0 -76.5 -17t-73.5 -51.5t-57.5 -59t-54.5 -65.5l-47 97q40 45 67 72t72.5 64.5t94.5 56t100 18.5z" />
    <glyph glyph-name="uni00A0" unicode="&#xa0;" horiz-adv-x="569" 
 />
    <glyph glyph-name="exclamdown" unicode="&#xa1;" horiz-adv-x="681" 
d="M449 721h92l-109 -645l-98 -459h-150l99 459zM610 911h-149l37 179h149z" />
    <glyph glyph-name="cent" unicode="&#xa2;" 
d="M420 139l450 830q-34 10 -82 10q-91 0 -169.5 -39t-134 -104.5t-93 -143.5t-55.5 -164q-28 -114 -7.5 -224.5t91.5 -164.5zM950 934l-454 -838q54 -14 102 -14q135 0 235 75.5t150 209.5h131q-61 -169 -204.5 -282.5t-336.5 -113.5q-65 0 -135 17l-151 -277h-97l166 307
q-116 63 -153.5 201t2.5 309q56 263 223.5 412.5t382.5 149.5q55 0 119 -11l135 246h98l-149 -274q175 -81 160 -324h-125q-6 139 -99 207z" />
    <glyph glyph-name="sterling" unicode="&#xa3;" 
d="M537 748h340l-19 -86h-309q4 -86 -8 -140q-40 -187 -279 -385l4 -4q116 55 195 55q102 0 194 -43t162 -43q45 0 91.5 19t75 38.5t79.5 59.5l47 -104q-111 -85 -188.5 -114.5t-198.5 -29.5q-48 0 -152 45q-108 45 -192 45q-19 0 -40 -3.5t-36 -6.5t-40.5 -12t-35.5 -13
t-40 -16.5t-37 -15.5l-46 119q111 70 191.5 165t103.5 203q21 93 -4 181h-202l18 86h166q-4 16 -15 45.5t-18.5 54t-14 58.5t-5 75t11.5 88q35 167 175.5 271t360.5 104q206 0 311 -121.5t60 -323.5h-135q27 160 -41.5 247t-216.5 87q-85 0 -164 -28.5t-140.5 -91.5
t-80.5 -150q-5 -44 -5.5 -70t10 -64t19.5 -60.5t24.5 -59.5t23.5 -61z" />
    <glyph glyph-name="currency" unicode="&#xa4;" 
d="M113 225l106 86q-67 143 -33 303q35 170 164 310l-69 88l129 108l71 -88q153 101 338 101q152 0 277 -101l108 88l84 -108l-106 -88q68 -144 30 -320q-18 -83 -56.5 -151t-104.5 -142l69 -86l-129 -108l-71 88q-161 -103 -338 -103q-149 0 -277 103l-108 -88zM786 985
q-159 3 -290 -104.5t-162 -266.5q-23 -97 8 -182t105 -134.5t171 -49.5q155 0 287 108.5t164 264.5q21 96 -9 181t-103 135t-171 48z" />
    <glyph glyph-name="yen" unicode="&#xa5;" 
d="M477 1475l252 -711l565 711h150l-475 -586h227l-22 -111h-295l-107 -135l-18 -86h372l-24 -111h-373l-94 -446h-131l94 446h-373l25 111h373l18 86l-49 135h-295l22 111h228l-225 586h155z" />
    <glyph glyph-name="brokenbar" unicode="&#xa6;" horiz-adv-x="821" 
d="M512 1511h102v-782h-102v782zM512 391h102v-780h-102v780z" />
    <glyph glyph-name="section" unicode="&#xa7;" 
d="M891 698l-307 217q-198 -75 -226 -213q-8 -37 -0.5 -71t30 -63t43 -48.5t52.5 -44.5l316 -235q91 45 152.5 99.5t78.5 131.5q8 39 -1 73.5t-34 63.5t-47.5 48t-56.5 42zM621 209l-234 168q-90 66 -127 138t-16 171t99 177t183 118q-42 61 -57.5 114t-1.5 122
q28 126 144 211t290 85q169 0 241.5 -98t35.5 -268h-111q25 129 -22.5 192.5t-176.5 63.5q-102 0 -176.5 -51t-95.5 -148q-9 -45 6 -86.5t48.5 -76t78.5 -67.5t96.5 -65.5t102.5 -65.5t95.5 -71t76 -79t44.5 -92.5t1 -108.5q-10 -46 -31.5 -87t-46.5 -70.5t-64 -61
t-70.5 -52t-80.5 -49.5q43 -51 59 -87q27 -65 11 -138q-31 -151 -151 -234.5t-275 -83.5q-172 0 -251.5 100.5t-51.5 272.5h124q-26 -127 25 -194.5t178 -67.5q93 0 171 51t97 141q4 19 5 37.5t-4 36t-8.5 31.5t-16 31.5t-18 27t-23.5 27t-23.5 23.5t-27 23t-25.5 20t-26 20
z" />
    <glyph glyph-name="dieresis" unicode="&#xa8;" horiz-adv-x="681" 
d="M377 1196l45 209h133l-45 -209h-133zM702 1196l46 209h133l-45 -209h-134z" />
    <glyph glyph-name="copyright" unicode="&#xa9;" horiz-adv-x="1638" 
d="M813 -39q-127 0 -237.5 39.5t-190 110.5t-132.5 168.5t-65 213.5t13 246q44 210 186 388t343.5 282t412.5 104q126 0 236.5 -39.5t189 -110t131.5 -168t65 -212.5t-12 -244q-45 -212 -187 -391t-342 -283t-411 -104zM836 63q185 0 353 89t284 243.5t157 343.5
q40 187 -11.5 340.5t-182.5 242.5t-316 89q-186 0 -355 -89t-285 -242.5t-156 -340.5q-41 -188 10.5 -343t183.5 -244t318 -89zM1231 598h110q-42 -136 -162.5 -218.5t-258.5 -82.5q-192 0 -284 127t-52 321q42 196 183 320.5t335 124.5q142 0 226 -78t77 -215h-111
q3 91 -56 147t-153 56q-147 0 -247.5 -99.5t-132.5 -252.5q-18 -70 -9.5 -135t35 -115t80.5 -80.5t127 -30.5q93 0 177.5 58.5t115.5 152.5z" />
    <glyph glyph-name="ordfeminine" unicode="&#xaa;" horiz-adv-x="684" 
d="M735 1094l21 100q-68 -25 -215 -37q-203 -13 -228 -135q-11 -55 28 -87t101 -32q103 0 187.5 50t105.5 141zM514 1217l115 14q74 5 110 20q10 4 17.5 11t12.5 18t7.5 17.5t5.5 19.5q13 61 -21 98t-122 37q-181 0 -233 -149h-82q32 107 120 158.5t209 51.5q114 0 172 -47
t35 -151l-72 -346q-9 -44 4.5 -54.5t67.5 5.5l-12 -58q-49 -16 -100 -10q-35 5 -43 30t-3 66q-121 -106 -278 -106q-97 0 -153 47t-38 135q37 163 281 193z" />
    <glyph glyph-name="guillemotleft" unicode="&#xab;" 
d="M707 467l28 129l348 231l-28 -129l-248 -168l178 -163l-27 -127zM330 467l28 129l349 231l-29 -129l-248 -168l178 -163l-26 -127z" />
    <glyph glyph-name="logicalnot" unicode="&#xac;" horiz-adv-x="1351" 
d="M1106 229l90 422h-893l25 123h1024l-115 -545h-131z" />
    <glyph glyph-name="uni00AD" unicode="&#xad;" horiz-adv-x="681" 
d="M209 596h518l-27 -127h-518z" />
    <glyph glyph-name="registered" unicode="&#xae;" horiz-adv-x="1638" 
d="M813 -39q-127 0 -237.5 39.5t-190 110.5t-132.5 168.5t-65 213.5t13 246q44 210 186 388t343.5 282t412.5 104q126 0 236.5 -39.5t189 -110t131.5 -168t65 -212.5t-12 -244q-45 -212 -187 -391t-342 -283t-411 -104zM836 63q185 0 353 89t284 243.5t157 343.5
q40 187 -11.5 340.5t-182.5 242.5t-316 89q-186 0 -355 -89t-285 -242.5t-156 -340.5q-41 -188 10.5 -343t183.5 -244t318 -89zM1096 705l178 -400h-127l-164 400h-195l-83 -400h-107l184 866h379q165 0 223.5 -58t34.5 -171q-50 -230 -323 -237zM807 788h162q11 0 38 -0.5
t41 -0.5t40.5 1.5t42 4t38.5 7.5t37.5 13t32.5 20t29 27.5t21.5 36.5t15.5 47q10 48 -1 80t-42 47t-63.5 20t-78.5 5h-248z" />
    <glyph glyph-name="macron" unicode="&#xaf;" horiz-adv-x="681" 
d="M313 1253l21 93h606l-20 -93h-607z" />
    <glyph glyph-name="degree" unicode="&#xb0;" horiz-adv-x="819" 
d="M958 1137q-28 -127 -137 -217.5t-235 -90.5q-128 0 -199 90.5t-43 217.5q25 126 135 216.5t238 90.5q126 0 196.5 -90.5t44.5 -216.5zM877 1137q20 92 -33.5 158.5t-147.5 66.5q-92 0 -171.5 -66.5t-98.5 -158.5q-20 -94 32 -160t146 -66q92 0 172.5 66t100.5 160z" />
    <glyph glyph-name="plusminus" unicode="&#xb1;" horiz-adv-x="1351" 
d="M758 676l73 348h123l-73 -348h450l-26 -123h-451l-74 -348h-123l74 348h-450l26 123h451zM164 0l26 123h1024l-26 -123h-1024z" />
    <glyph glyph-name="twosuperior" unicode="&#xb2;" horiz-adv-x="681" 
d="M410 1229h-91q26 129 126.5 206.5t238.5 77.5q136 0 198.5 -67.5t39.5 -171.5q-14 -65 -53 -117.5t-96 -90t-112 -64.5t-123 -58.5t-106 -54.5q-64 -39 -104 -79t-56 -97h523l-15 -66h-612q15 69 40 118t77 93q64 56 144 102.5t141 75t117.5 60t93 74t48.5 100.5
q17 82 -32 130t-138 48q-91 0 -162.5 -64.5t-86.5 -154.5z" />
    <glyph glyph-name="threesuperior" unicode="&#xb3;" horiz-adv-x="681" 
d="M500 1065l12 63q131 0 207.5 36.5t95.5 129.5q16 75 -32.5 114.5t-133.5 39.5q-90 0 -157 -52t-84 -134h-84q24 116 131 194q81 57 225 57q117 0 181 -55t42 -158q-28 -139 -174 -194q154 -47 121 -213q-24 -111 -121 -185t-240 -77q-166 0 -229.5 59t-46.5 207h86
q-21 -96 31 -148.5t159 -52.5q100 0 181 59.5t92 135.5q19 100 -54 141t-208 33z" />
    <glyph glyph-name="acute" unicode="&#xb4;" horiz-adv-x="681" 
d="M578 1176h-105l289 284h158z" />
    <glyph glyph-name="mu" unicode="&#xb5;" 
d="M969 483l123 578h122l-225 -1061h-123l31 147q-41 -38 -69.5 -60.5t-78 -53.5t-107.5 -46.5t-124 -15.5q-149 0 -239 66l-97 -455h-123l314 1479h123l-148 -696q-30 -140 20.5 -211.5t192.5 -71.5q150 0 260.5 111.5t147.5 289.5z" />
    <glyph glyph-name="paragraph" unicode="&#xb6;" horiz-adv-x="1331" 
d="M465 -299l209 987q-103 -1 -182 52t-114 143.5t-13 193.5q40 190 182 294t358 104h445l-377 -1774h-123l348 1636h-262l-348 -1636h-123z" />
    <glyph glyph-name="periodcentered" unicode="&#xb7;" horiz-adv-x="569" 
d="M459 815q40 0 62.5 -29t13.5 -69q-8 -40 -43 -70.5t-76 -30.5t-64.5 30.5t-15.5 70.5q9 39 46.5 68.5t76.5 29.5z" />
    <glyph glyph-name="cedilla" unicode="&#xb8;" horiz-adv-x="681" 
d="M29 -385l43 61q88 -30 125 -30q52 0 98.5 24t56.5 72q8 39 -17 59.5t-67 20.5q-24 0 -94 -17l-24 27l157 168h80l-123 -121q54 12 78 12q64 0 100.5 -32.5t34.5 -73.5q-4 -103 -83 -156t-187 -53q-85 0 -178 39z" />
    <glyph glyph-name="onesuperior" unicode="&#xb9;" horiz-adv-x="681" 
d="M557 647l137 643h-241l10 53q52 3 82 6.5t67 13.5t60.5 27.5t47 48t40.5 74.5h67l-184 -866h-86z" />
    <glyph glyph-name="ordmasculine" unicode="&#xba;" horiz-adv-x="684" 
d="M520 842q-138 3 -210 90t-38 246q32 147 135.5 241t256.5 94q155 0 217 -94t30 -241q-32 -151 -139.5 -243.5t-251.5 -92.5zM352 1178q-25 -122 22.5 -198.5t160.5 -76.5q117 0 194.5 81t101.5 194q14 56 9.5 106t-23.5 87.5t-61.5 59t-104.5 21.5q-118 0 -196.5 -80.5
t-102.5 -193.5z" />
    <glyph glyph-name="guillemotright" unicode="&#xbb;" 
d="M1034 600l-26 -129l-349 -231l27 129l250 168l-178 163l26 127zM657 600l-26 -129l-348 -231l26 129l250 168l-178 163l27 127z" />
    <glyph glyph-name="onequarter" unicode="&#xbc;" horiz-adv-x="1708" 
d="M1411 0l45 213h-428l14 68l560 577h77l-123 -577h130l-15 -68h-129l-45 -213h-86zM1569 739l-443 -458h344zM442 -29h-104l1223 1473h104zM461 647l137 643h-242l11 53q52 3 82 6.5t67 13.5t60.5 27.5t47 48t40.5 74.5h67l-184 -866h-86z" />
    <glyph glyph-name="onehalf" unicode="&#xbd;" horiz-adv-x="1708" 
d="M360 -29h-104l1223 1473h104zM461 647l137 643h-242l11 53q52 3 82 6.5t67 13.5t60.5 27.5t47 48t40.5 74.5h67l-184 -866h-86zM1245 582h-90q28 129 128.5 206.5t238.5 77.5q136 0 198 -67.5t39 -171.5q-14 -65 -53 -117.5t-96 -90t-111.5 -64.5t-122.5 -58.5
t-106 -54.5q-64 -39 -104 -79t-56 -97h522l-14 -66h-612q15 70 40 118.5t76 92.5q64 56 144 102.5t141 75t117.5 60t93 74t49.5 100.5q17 82 -32 130t-138 48q-91 0 -164 -65t-88 -154z" />
    <glyph glyph-name="threequarters" unicode="&#xbe;" horiz-adv-x="1708" 
d="M1569 739l-443 -458h344zM1411 0l45 213h-428l14 68l560 577h77l-123 -577h130l-15 -68h-129l-45 -213h-86zM559 1065l12 63q131 0 207.5 36.5t95.5 129.5q16 75 -32 114.5t-133 39.5q-90 0 -157.5 -52t-84.5 -134h-84q24 116 131 194q81 57 225 57q117 0 181.5 -55
t42.5 -158q-28 -138 -175 -194q154 -47 121 -213q-24 -111 -120.5 -185t-239.5 -77q-166 0 -230 59t-47 207h86q-21 -96 31.5 -148.5t159.5 -52.5q100 0 180.5 59.5t91.5 135.5q19 100 -54 141t-208 33zM524 -29h-104l1222 1473h105z" />
    <glyph glyph-name="questiondown" unicode="&#xbf;" horiz-adv-x="1024" 
d="M827 33h125q-18 -133 -95.5 -238t-194 -162t-248.5 -57q-207 0 -304.5 105t-60.5 280q12 57 42 108t67.5 88.5t86.5 78t94 73.5t95 77.5t86 86.5q28 33 48 80t27.5 77t18.5 87h119q-26 -133 -64 -218.5t-128 -162.5q-29 -25 -74 -61t-78 -61.5t-71 -59.5t-64 -63.5
t-47 -66.5t-29 -73q-24 -114 45 -189t217 -75t254 98t133 248zM676 1090h149l-39 -181h-149z" />
    <glyph glyph-name="Agrave" unicode="&#xc0;" horiz-adv-x="1366" 
d="M174 0h-143l893 1475h157l252 -1475h-143l-72 463h-672zM973 1356l-455 -774h578zM1055 1589l-224 285h160l168 -285h-104z" />
    <glyph glyph-name="Aacute" unicode="&#xc1;" horiz-adv-x="1366" 
d="M174 0h-143l893 1475h157l252 -1475h-143l-72 463h-672zM973 1356l-455 -774h578zM1008 1589h-105l287 285h158z" />
    <glyph glyph-name="Acircumflex" unicode="&#xc2;" horiz-adv-x="1366" 
d="M174 0h-143l893 1475h157l252 -1475h-143l-72 463h-672zM973 1356l-455 -774h578zM1075 1798l-213 -209h-133l293 285h137l172 -285h-133z" />
    <glyph glyph-name="Atilde" unicode="&#xc3;" horiz-adv-x="1366" 
d="M174 0h-143l893 1475h157l252 -1475h-143l-72 463h-672zM973 1356l-455 -774h578zM791 1614h-74q21 65 67 121q41 44 94 64.5t103 8.5q30 -6 112 -47t121 -41q69 0 111 103h78q-7 -24 -33 -78q-80 -123 -178 -123q-59 0 -146.5 46t-132.5 46q-41 0 -68 -26t-54 -74z" />
    <glyph glyph-name="Adieresis" unicode="&#xc4;" horiz-adv-x="1366" 
d="M174 0h-143l893 1475h157l252 -1475h-143l-72 463h-672zM973 1356l-455 -774h578zM807 1610l45 209h133l-45 -209h-133zM1133 1610l45 209h133l-45 -209h-133z" />
    <glyph glyph-name="Aring" unicode="&#xc5;" horiz-adv-x="1366" 
d="M174 0h-143l893 1475h157l252 -1475h-143l-72 463h-672zM973 1356l-455 -774h578zM1065 1597q-84 0 -132.5 60t-29.5 143q17 82 91.5 143.5t156.5 61.5q83 0 130 -61.5t30 -143.5q-19 -84 -91 -143.5t-155 -59.5zM1079 1665q54 0 103 40.5t61 94.5q11 55 -20 96t-86 41
q-56 0 -106 -41t-60 -96q-12 -55 20.5 -95t87.5 -40z" />
    <glyph glyph-name="AE" unicode="&#xc6;" horiz-adv-x="2048" 
d="M150 0h-140l955 1475h1290l-25 -119h-835l-115 -533h760l-25 -118h-760l-125 -586h861l-25 -119h-999l98 463h-621zM1022 1356l-496 -774h564l165 774h-233z" />
    <glyph glyph-name="Ccedilla" unicode="&#xc7;" horiz-adv-x="1478" 
d="M1579 1047h-143q-3 184 -100.5 266t-291.5 82q-129 0 -240 -52.5t-191 -144.5t-135 -207.5t-83 -249.5q-22 -104 -26 -196t15 -179t64 -149t128.5 -99.5t199.5 -37.5q184 0 327.5 111t225.5 294h146q-49 -110 -113 -199t-151.5 -162.5t-205 -115.5t-255.5 -45l-86 -84
q54 12 77 12q64 0 101 -32.5t35 -73.5q-3 -70 -44 -119t-99.5 -69.5t-127.5 -20.5q-85 0 -178 39l43 61q88 -30 125 -30q52 0 99 24t57 72q8 39 -17 59.5t-67 20.5q-25 0 -95 -17l-24 27l123 131q-120 8 -208.5 52.5t-140 116t-76 168t-21 205.5t29.5 232q43 205 127 357.5
t197 242.5t244 133t282 43q231 0 358 -120.5t115 -345.5z" />
    <glyph glyph-name="Egrave" unicode="&#xc8;" horiz-adv-x="1251" 
d="M1167 0h-1001l313 1475h981l-24 -119h-842l-115 -533h760l-25 -118h-759l-125 -586h862zM997 1589l-223 285h160l168 -285h-105z" />
    <glyph glyph-name="Eacute" unicode="&#xc9;" horiz-adv-x="1251" 
d="M1167 0h-1001l313 1475h981l-24 -119h-842l-115 -533h760l-25 -118h-759l-125 -586h862zM950 1589h-104l287 285h157z" />
    <glyph glyph-name="Ecircumflex" unicode="&#xca;" horiz-adv-x="1251" 
d="M1167 0h-1001l313 1475h981l-24 -119h-842l-115 -533h760l-25 -118h-759l-125 -586h862zM1018 1798l-213 -209h-133l293 285h137l172 -285h-133z" />
    <glyph glyph-name="Edieresis" unicode="&#xcb;" horiz-adv-x="1251" 
d="M1167 0h-1001l313 1475h981l-24 -119h-842l-115 -533h760l-25 -118h-759l-125 -586h862zM750 1610l45 209h133l-45 -209h-133zM1075 1610l45 209h133l-45 -209h-133z" />
    <glyph glyph-name="Igrave" unicode="&#xcc;" horiz-adv-x="569" 
d="M354 0h-139l313 1475h140zM657 1589l-223 285h160l168 -285h-105z" />
    <glyph glyph-name="Iacute" unicode="&#xcd;" horiz-adv-x="569" 
d="M354 0h-139l313 1475h140zM567 1589h-104l287 285h157z" />
    <glyph glyph-name="Icircumflex" unicode="&#xce;" horiz-adv-x="569" 
d="M354 0h-139l313 1475h140zM635 1798l-213 -209h-133l293 285h137l172 -285h-133z" />
    <glyph glyph-name="Idieresis" unicode="&#xcf;" horiz-adv-x="569" 
d="M354 0h-139l313 1475h140zM367 1610l45 209h133l-45 -209h-133zM692 1610l45 209h133l-45 -209h-133z" />
    <glyph glyph-name="Eth" unicode="&#xd0;" horiz-adv-x="1478" 
d="M594 1356l-111 -514h330l-25 -119h-329l-129 -604h334q109 0 191.5 13t168.5 54q78 36 142.5 99t107 141t70 154.5t45.5 158.5q89 424 -136 561q-93 56 -325 56h-334zM344 842l135 633h504q148 0 250 -21.5t182 -89.5q58 -50 92 -127.5t41.5 -165.5t2 -169.5
t-22.5 -162.5q-34 -162 -107.5 -309t-189.5 -250q-116 -105 -253.5 -142.5t-307.5 -37.5h-504l153 723h-145l25 119h145z" />
    <glyph glyph-name="Ntilde" unicode="&#xd1;" horiz-adv-x="1478" 
d="M1153 0l-575 1286h-5l-272 -1286h-139l313 1475h158l577 -1289h4l275 1289h139l-313 -1475h-162zM848 1614h-74q21 63 68 121q41 44 93.5 64.5t102.5 8.5q30 -6 112 -47t122 -41q68 0 110 103h78q-7 -24 -33 -78q-80 -123 -178 -123q-59 0 -146 46t-132 46
q-41 0 -68.5 -26t-54.5 -74z" />
    <glyph glyph-name="Ograve" unicode="&#xd2;" horiz-adv-x="1593" 
d="M264 735q34 162 109 303t182 247t250.5 167t304.5 61q113 0 205.5 -27.5t157 -78t108.5 -121.5t63.5 -157.5t18 -185.5t-24.5 -208q-34 -161 -108 -300t-180.5 -245.5t-252 -167.5t-311.5 -61q-112 0 -203 28t-155 78.5t-107.5 121.5t-62.5 157t-18 184t24 205zM813 80
q112 0 211.5 35t175.5 96t136.5 145t100.5 179t62 200q66 307 -44 483.5t-365 176.5q-110 0 -209.5 -36t-175.5 -98t-137 -146.5t-101.5 -179.5t-63.5 -200q-23 -107 -23.5 -202t25 -178.5t76 -144t135.5 -95.5t197 -35zM1169 1589l-223 285h160l168 -285h-105z" />
    <glyph glyph-name="Oacute" unicode="&#xd3;" horiz-adv-x="1593" 
d="M264 735q34 162 109 303t182 247t250.5 167t304.5 61q113 0 205.5 -27.5t157 -78t108.5 -121.5t63.5 -157.5t18 -185.5t-24.5 -208q-34 -161 -108 -300t-180.5 -245.5t-252 -167.5t-311.5 -61q-112 0 -203 28t-155 78.5t-107.5 121.5t-62.5 157t-18 184t24 205zM813 80
q112 0 211.5 35t175.5 96t136.5 145t100.5 179t62 200q66 307 -44 483.5t-365 176.5q-110 0 -209.5 -36t-175.5 -98t-137 -146.5t-101.5 -179.5t-63.5 -200q-23 -107 -23.5 -202t25 -178.5t76 -144t135.5 -95.5t197 -35zM1122 1589h-104l287 285h157z" />
    <glyph glyph-name="Ocircumflex" unicode="&#xd4;" horiz-adv-x="1593" 
d="M264 735q34 162 109 303t182 247t250.5 167t304.5 61q113 0 205.5 -27.5t157 -78t108.5 -121.5t63.5 -157.5t18 -185.5t-24.5 -208q-34 -161 -108 -300t-180.5 -245.5t-252 -167.5t-311.5 -61q-112 0 -203 28t-155 78.5t-107.5 121.5t-62.5 157t-18 184t24 205zM813 80
q112 0 211.5 35t175.5 96t136.5 145t100.5 179t62 200q66 307 -44 483.5t-365 176.5q-110 0 -209.5 -36t-175.5 -98t-137 -146.5t-101.5 -179.5t-63.5 -200q-23 -107 -23.5 -202t25 -178.5t76 -144t135.5 -95.5t197 -35zM1190 1798l-213 -209h-133l293 285h137l172 -285
h-133z" />
    <glyph glyph-name="Otilde" unicode="&#xd5;" horiz-adv-x="1593" 
d="M264 735q34 162 109 303t182 247t250.5 167t304.5 61q113 0 205.5 -27.5t157 -78t108.5 -121.5t63.5 -157.5t18 -185.5t-24.5 -208q-34 -161 -108 -300t-180.5 -245.5t-252 -167.5t-311.5 -61q-112 0 -203 28t-155 78.5t-107.5 121.5t-62.5 157t-18 184t24 205zM813 80
q112 0 211.5 35t175.5 96t136.5 145t100.5 179t62 200q66 307 -44 483.5t-365 176.5q-110 0 -209.5 -36t-175.5 -98t-137 -146.5t-101.5 -179.5t-63.5 -200q-23 -107 -23.5 -202t25 -178.5t76 -144t135.5 -95.5t197 -35zM905 1614h-74q21 63 68 121q41 44 94 64.5t103 8.5
q30 -6 112 -47t121 -41q69 0 111 103h78q-7 -24 -33 -78q-80 -123 -178 -123q-59 0 -146.5 46t-132.5 46q-41 0 -68.5 -26t-54.5 -74z" />
    <glyph glyph-name="Odieresis" unicode="&#xd6;" horiz-adv-x="1593" 
d="M264 735q34 162 109 303t182 247t250.5 167t304.5 61q113 0 205.5 -27.5t157 -78t108.5 -121.5t63.5 -157.5t18 -185.5t-24.5 -208q-34 -161 -108 -300t-180.5 -245.5t-252 -167.5t-311.5 -61q-112 0 -203 28t-155 78.5t-107.5 121.5t-62.5 157t-18 184t24 205zM813 80
q112 0 211.5 35t175.5 96t136.5 145t100.5 179t62 200q66 307 -44 483.5t-365 176.5q-110 0 -209.5 -36t-175.5 -98t-137 -146.5t-101.5 -179.5t-63.5 -200q-23 -107 -23.5 -202t25 -178.5t76 -144t135.5 -95.5t197 -35zM922 1610l45 209h133l-45 -209h-133zM1247 1610
l45 209h133l-45 -209h-133z" />
    <glyph glyph-name="multiply" unicode="&#xd7;" horiz-adv-x="1351" 
d="M772 442l-524 -430l-60 74l525 432l-340 432l90 74l342 -430l520 430l61 -74l-522 -432l338 -432l-92 -74z" />
    <glyph glyph-name="Oslash" unicode="&#xd8;" horiz-adv-x="1593" 
d="M420 301l1014 936q-108 158 -351 158q-137 0 -255.5 -54.5t-202.5 -148.5t-141.5 -210t-86.5 -247q-54 -254 23 -434zM1481 1147l-1010 -928q110 -139 336 -139q139 0 257.5 53t202.5 145.5t140.5 207.5t85.5 249q52 242 -12 412zM1542 1335l211 195l64 -72l-222 -205
q48 -72 60.5 -200.5t-23.5 -317.5q-34 -161 -108 -300t-180.5 -245.5t-252 -167.5t-311.5 -61q-270 0 -413 162l-217 -199l-66 70l227 207q-121 202 -53 534q35 164 112 305.5t184.5 247t249.5 165.5t300 60q296 0 438 -178z" />
    <glyph glyph-name="Ugrave" unicode="&#xd9;" horiz-adv-x="1478" 
d="M287 555l194 920h140l-187 -879q-58 -273 18.5 -394.5t303.5 -121.5q233 0 359 124.5t183 391.5l187 879h139l-194 -920q-62 -290 -239 -442t-460 -152q-285 0 -395.5 153.5t-48.5 440.5zM1112 1589l-223 285h160l168 -285h-105z" />
    <glyph glyph-name="Uacute" unicode="&#xda;" horiz-adv-x="1478" 
d="M287 555l194 920h140l-187 -879q-58 -273 18.5 -394.5t303.5 -121.5q233 0 359 124.5t183 391.5l187 879h139l-194 -920q-62 -290 -239 -442t-460 -152q-285 0 -395.5 153.5t-48.5 440.5zM1065 1589h-104l286 285h158z" />
    <glyph glyph-name="Ucircumflex" unicode="&#xdb;" horiz-adv-x="1478" 
d="M287 555l194 920h140l-187 -879q-58 -273 18.5 -394.5t303.5 -121.5q233 0 359 124.5t183 391.5l187 879h139l-194 -920q-62 -290 -239 -442t-460 -152q-285 0 -395.5 153.5t-48.5 440.5zM1133 1798l-213 -209h-134l293 285h138l172 -285h-134z" />
    <glyph glyph-name="Udieresis" unicode="&#xdc;" horiz-adv-x="1478" 
d="M287 555l194 920h140l-187 -879q-58 -273 18.5 -394.5t303.5 -121.5q233 0 359 124.5t183 391.5l187 879h139l-194 -920q-62 -290 -239 -442t-460 -152q-285 0 -395.5 153.5t-48.5 440.5zM864 1610l45 209h133l-45 -209h-133zM1190 1610l45 209h133l-45 -209h-133z" />
    <glyph glyph-name="Yacute" unicode="&#xdd;" horiz-adv-x="1251" 
d="M498 1475l282 -711l596 711h162l-711 -832l-137 -643h-139l135 633l-348 842h160zM950 1589h-104l287 285h157z" />
    <glyph glyph-name="Thorn" unicode="&#xde;" horiz-adv-x="1251" 
d="M299 0h-139l313 1475h139l-65 -308h399q93 0 165 -15t118 -43t75 -64.5t39.5 -84t9 -97t-13.5 -107.5q-20 -95 -69 -169t-111.5 -119t-144.5 -73.5t-160.5 -39.5t-165.5 -11h-315zM397 463h320q83 0 146 7.5t122 27.5t100 53.5t71.5 87t45.5 127.5q31 140 -47 211.5
t-272 71.5h-361z" />
    <glyph glyph-name="germandbls" unicode="&#xdf;" horiz-adv-x="1024" 
d="M596 768l20 102q323 7 377 254q26 122 -22 195.5t-178 73.5q-70 0 -123 -15t-86.5 -38.5t-58 -64.5t-38 -81.5t-26.5 -101.5l-232 -1092h-123l238 1114q82 389 465 389q179 0 265 -102t48 -279q-19 -94 -78 -165t-155 -132q101 -38 138 -140.5t11 -225.5
q-51 -236 -191.5 -362t-344.5 -126q-45 0 -74 11l23 108q99 -19 190 10.5t160 109.5t94 198q41 192 -30.5 276t-268.5 84z" />
    <glyph glyph-name="agrave" unicode="&#xe0;" 
d="M926 391l35 166q-54 -20 -116 -32.5t-102 -17t-112 -9.5q-304 -22 -348 -226q-19 -91 38 -140.5t152 -49.5q102 0 193.5 31t164.5 103t95 175zM592 596l174 22q105 9 170 35q48 19 68 111q21 100 -30.5 157.5t-187.5 57.5q-137 0 -227 -54.5t-133 -185.5h-125
q35 121 113.5 201.5t177.5 115t219 34.5q84 0 147 -17t110 -56t60.5 -102t-2.5 -155l-122 -578q-15 -74 6 -91t104 9l-20 -96q-60 -20 -101 -20q-26 0 -53 6q-38 6 -55.5 30t-16.5 56.5t6 70.5q-194 -176 -432 -176q-149 0 -234.5 79.5t-53.5 225.5q56 271 438 320z
M854 1176l-221 284h160l165 -284h-104z" />
    <glyph glyph-name="aacute" unicode="&#xe1;" 
d="M926 391l35 166q-54 -20 -116 -32.5t-102 -17t-112 -9.5q-304 -22 -348 -226q-19 -91 38 -140.5t152 -49.5q102 0 193.5 31t164.5 103t95 175zM592 596l174 22q105 9 170 35q48 19 68 111q21 100 -30.5 157.5t-187.5 57.5q-137 0 -227 -54.5t-133 -185.5h-125
q35 121 113.5 201.5t177.5 115t219 34.5q84 0 147 -17t110 -56t60.5 -102t-2.5 -155l-122 -578q-15 -74 6 -91t104 9l-20 -96q-60 -20 -101 -20q-26 0 -53 6q-38 6 -55.5 30t-16.5 56.5t6 70.5q-194 -176 -432 -176q-149 0 -234.5 79.5t-53.5 225.5q56 271 438 320z
M807 1176h-105l289 284h158z" />
    <glyph glyph-name="acircumflex" unicode="&#xe2;" 
d="M926 391l35 166q-54 -20 -116 -32.5t-102 -17t-112 -9.5q-304 -22 -348 -226q-19 -91 38 -140.5t152 -49.5q102 0 193.5 31t164.5 103t95 175zM592 596l174 22q105 9 170 35q48 19 68 111q21 100 -30.5 157.5t-187.5 57.5q-137 0 -227 -54.5t-133 -185.5h-125
q35 121 113.5 201.5t177.5 115t219 34.5q84 0 147 -17t110 -56t60.5 -102t-2.5 -155l-122 -578q-15 -74 6 -91t104 9l-20 -96q-60 -20 -101 -20q-26 0 -53 6q-38 6 -55.5 30t-16.5 56.5t6 70.5q-194 -176 -432 -176q-149 0 -234.5 79.5t-53.5 225.5q56 271 438 320z
M874 1384l-212 -208h-134l295 284h138l169 -284h-133z" />
    <glyph glyph-name="atilde" unicode="&#xe3;" 
d="M926 391l35 166q-54 -20 -116 -32.5t-102 -17t-112 -9.5q-304 -22 -348 -226q-19 -91 38 -140.5t152 -49.5q102 0 193.5 31t164.5 103t95 175zM592 596l174 22q105 9 170 35q48 19 68 111q21 100 -30.5 157.5t-187.5 57.5q-137 0 -227 -54.5t-133 -185.5h-125
q35 121 113.5 201.5t177.5 115t219 34.5q84 0 147 -17t110 -56t60.5 -102t-2.5 -155l-122 -578q-15 -74 6 -91t104 9l-20 -96q-60 -20 -101 -20q-26 0 -53 6q-38 6 -55.5 30t-16.5 56.5t6 70.5q-194 -176 -432 -176q-149 0 -234.5 79.5t-53.5 225.5q56 271 438 320z
M592 1200h-74q18 62 66 121q41 44 93.5 65t102.5 9q30 -6 112 -47t122 -41q68 0 110 102h78q-7 -24 -33 -78q-80 -123 -178 -123q-59 0 -146 46t-132 46q-41 0 -68.5 -26.5t-52.5 -73.5z" />
    <glyph glyph-name="adieresis" unicode="&#xe4;" 
d="M926 391l35 166q-54 -20 -116 -32.5t-102 -17t-112 -9.5q-304 -22 -348 -226q-19 -91 38 -140.5t152 -49.5q102 0 193.5 31t164.5 103t95 175zM592 596l174 22q105 9 170 35q48 19 68 111q21 100 -30.5 157.5t-187.5 57.5q-137 0 -227 -54.5t-133 -185.5h-125
q35 121 113.5 201.5t177.5 115t219 34.5q84 0 147 -17t110 -56t60.5 -102t-2.5 -155l-122 -578q-15 -74 6 -91t104 9l-20 -96q-60 -20 -101 -20q-26 0 -53 6q-38 6 -55.5 30t-16.5 56.5t6 70.5q-194 -176 -432 -176q-149 0 -234.5 79.5t-53.5 225.5q56 271 438 320z
M606 1196l45 209h133l-45 -209h-133zM932 1196l45 209h133l-45 -209h-133z" />
    <glyph glyph-name="aring" unicode="&#xe5;" 
d="M926 391l35 166q-54 -20 -116 -32.5t-102 -17t-112 -9.5q-304 -22 -348 -226q-19 -91 38 -140.5t152 -49.5q102 0 193.5 31t164.5 103t95 175zM592 596l174 22q105 9 170 35q48 19 68 111q21 100 -30.5 157.5t-187.5 57.5q-137 0 -227 -54.5t-133 -185.5h-125
q35 121 113.5 201.5t177.5 115t219 34.5q84 0 147 -17t110 -56t60.5 -102t-2.5 -155l-122 -578q-15 -74 6 -91t104 9l-20 -96q-60 -20 -101 -20q-26 0 -53 6q-38 6 -55.5 30t-16.5 56.5t6 70.5q-194 -176 -432 -176q-149 0 -234.5 79.5t-53.5 225.5q56 271 438 320z
M823 1184q-84 0 -132 59.5t-29 142.5q17 82 91 143.5t156 61.5q83 0 130 -61.5t30 -143.5q-19 -83 -91 -142.5t-155 -59.5zM838 1251q54 0 102.5 40.5t60.5 94.5q11 55 -20 96.5t-86 41.5t-104.5 -41t-61.5 -97q-12 -55 21 -95t88 -40z" />
    <glyph glyph-name="ae" unicode="&#xe6;" horiz-adv-x="1820" 
d="M893 418l31 143q-48 -23 -118 -37t-133.5 -19.5t-132.5 -18t-121.5 -31.5t-92.5 -61t-54 -105q-21 -101 27 -154t152 -53q181 0 295.5 91t146.5 245zM1065 604h668q34 161 -28 268t-216 107q-74 0 -140 -25t-112.5 -64t-83 -89.5t-57.5 -99.5t-31 -97zM578 604l118 12
q109 12 162.5 27t75 37.5t31.5 67.5q27 133 -19.5 182t-189.5 49q-268 0 -346 -234h-127q32 116 107 195t172 114.5t212 35.5q57 0 107.5 -8t99.5 -26.5t83 -54.5t44 -86q87 98 183 136.5t225 38.5q103 0 176 -30.5t112 -82t54.5 -128t10 -160.5t-27.5 -187h-799
q-15 -70 -15.5 -131.5t15.5 -115t48.5 -91.5t87.5 -60t129 -22q119 0 211 64.5t149 181.5h129q-77 -171 -212 -264t-312 -93q-138 0 -226 57t-135 177q-38 -40 -65.5 -66t-75.5 -61t-95 -56t-115 -36t-144 -15q-151 0 -230.5 76t-48.5 223q30 140 142 227t299 107z" />
    <glyph glyph-name="ccedilla" unicode="&#xe7;" 
d="M1178 727h-125q-6 120 -72.5 186t-187.5 66q-91 0 -170 -39t-134 -104.5t-93 -143.5t-56 -164q-21 -84 -14.5 -164t32.5 -142.5t89 -101t155 -38.5q135 0 235 75.5t150 209.5h131q-72 -181 -206 -286.5t-324 -109.5l-94 -92q54 12 77 12q64 0 101 -32.5t35 -73.5
q-3 -70 -44 -119t-99.5 -69.5t-127.5 -20.5q-85 0 -178 39l43 61q88 -30 125 -30q52 0 99 24t57 72q8 39 -17 59.5t-67 20.5q-25 0 -95 -17l-24 27l137 145q-106 10 -179 56.5t-106.5 119.5t-40.5 169t19 206q23 112 76.5 212.5t130 179t180.5 124.5t219 46q186 0 280.5 -91
t82.5 -272z" />
    <glyph glyph-name="egrave" unicode="&#xe8;" 
d="M352 604h692q34 163 -31.5 269t-224.5 106q-154 0 -267.5 -106t-168.5 -269zM1153 502h-823q-22 -86 -13 -162.5t39.5 -133.5t93 -90.5t148.5 -33.5q122 0 221.5 64t151.5 180h137q-184 -355 -535 -355q-100 0 -175.5 27.5t-120.5 77.5t-69.5 119.5t-23 152.5t20.5 178
q25 116 80.5 218.5t133 179.5t179.5 121.5t213 44.5q221 0 312.5 -153t29.5 -435zM854 1176l-221 284h160l165 -284h-104z" />
    <glyph glyph-name="eacute" unicode="&#xe9;" 
d="M352 604h692q34 163 -31.5 269t-224.5 106q-154 0 -267.5 -106t-168.5 -269zM1153 502h-823q-22 -86 -13 -162.5t39.5 -133.5t93 -90.5t148.5 -33.5q122 0 221.5 64t151.5 180h137q-184 -355 -535 -355q-100 0 -175.5 27.5t-120.5 77.5t-69.5 119.5t-23 152.5t20.5 178
q25 116 80.5 218.5t133 179.5t179.5 121.5t213 44.5q221 0 312.5 -153t29.5 -435zM807 1176h-105l289 284h158z" />
    <glyph glyph-name="ecircumflex" unicode="&#xea;" 
d="M352 604h692q34 163 -31.5 269t-224.5 106q-154 0 -267.5 -106t-168.5 -269zM1153 502h-823q-22 -86 -13 -162.5t39.5 -133.5t93 -90.5t148.5 -33.5q122 0 221.5 64t151.5 180h137q-184 -355 -535 -355q-100 0 -175.5 27.5t-120.5 77.5t-69.5 119.5t-23 152.5t20.5 178
q25 116 80.5 218.5t133 179.5t179.5 121.5t213 44.5q221 0 312.5 -153t29.5 -435zM874 1384l-212 -208h-134l295 284h138l169 -284h-133z" />
    <glyph glyph-name="edieresis" unicode="&#xeb;" 
d="M352 604h692q34 163 -31.5 269t-224.5 106q-154 0 -267.5 -106t-168.5 -269zM1153 502h-823q-22 -86 -13 -162.5t39.5 -133.5t93 -90.5t148.5 -33.5q122 0 221.5 64t151.5 180h137q-184 -355 -535 -355q-100 0 -175.5 27.5t-120.5 77.5t-69.5 119.5t-23 152.5t20.5 178
q25 116 80.5 218.5t133 179.5t179.5 121.5t213 44.5q221 0 312.5 -153t29.5 -435zM606 1196l45 209h133l-45 -209h-133zM932 1196l45 209h133l-45 -209h-133z" />
    <glyph glyph-name="igrave" unicode="&#xec;" horiz-adv-x="454" 
d="M283 0h-123l225 1061h123zM512 1176l-221 284h160l165 -284h-104z" />
    <glyph glyph-name="iacute" unicode="&#xed;" horiz-adv-x="454" 
d="M283 0h-123l225 1061h123zM422 1176h-105l289 284h158z" />
    <glyph glyph-name="icircumflex" unicode="&#xee;" horiz-adv-x="454" 
d="M283 0h-123l225 1061h123zM489 1384l-213 -208h-133l295 284h137l170 -284h-133z" />
    <glyph glyph-name="idieresis" unicode="&#xef;" horiz-adv-x="454" 
d="M283 0h-123l225 1061h123zM221 1196l45 209h133l-45 -209h-133zM547 1196l45 209h133l-45 -209h-133z" />
    <glyph glyph-name="eth" unicode="&#xf0;" 
d="M1042 530q16 77 17.5 143t-13.5 123t-47.5 97t-88.5 63t-132 23q-93 0 -172.5 -37.5t-134.5 -102t-92.5 -142.5t-56.5 -167q-42 -204 25.5 -326t240.5 -122q93 0 172 37.5t134 102t92 142t56 166.5zM950 1300l-145 -100l-68 49l156 107q-55 44 -145 90l98 67
q87 -41 143 -92l131 92l66 -51l-142 -98q116 -138 151 -349t-21 -485q-54 -252 -221.5 -405.5t-389.5 -153.5q-103 2 -183.5 37t-133.5 105t-68.5 174t12.5 243q18 86 52.5 165.5t88 152t120 126t155 85t187.5 31.5q104 0 161 -19t117 -76q-26 201 -121 305z" />
    <glyph glyph-name="ntilde" unicode="&#xf1;" 
d="M391 571l-121 -571h-123l226 1061h123l-31 -148q102 88 189.5 132.5t189.5 44.5q221 0 291 -152q16 -36 19 -80t-1.5 -76t-15.5 -88l-148 -694h-123l148 692q31 146 -18.5 216.5t-194.5 70.5q-108 0 -199.5 -59.5t-140.5 -147.5q-43 -74 -70 -201zM592 1200h-74
q18 62 66 121q41 44 93.5 65t102.5 9q30 -6 112 -47t122 -41q68 0 110 102h78q-7 -24 -33 -78q-80 -123 -178 -123q-59 0 -146 46t-132 46q-41 0 -68.5 -26.5t-52.5 -73.5z" />
    <glyph glyph-name="ograve" unicode="&#xf2;" 
d="M563 -29q-103 2 -183.5 37t-133.5 105t-68.5 174t12.5 243q25 117 77.5 218t129 177.5t180.5 120.5t224 44q97 0 172.5 -28.5t121.5 -79t72 -121t25.5 -154t-18.5 -177.5q-54 -252 -221.5 -405.5t-389.5 -153.5zM1042 530q16 77 17.5 143t-13.5 123t-47.5 97t-88.5 63
t-132 23q-93 0 -172.5 -37.5t-134.5 -102t-92.5 -142.5t-56.5 -167q-42 -204 25.5 -326t240.5 -122q93 0 172 37.5t134 102t92 142t56 166.5zM854 1176l-221 284h160l165 -284h-104z" />
    <glyph glyph-name="oacute" unicode="&#xf3;" 
d="M563 -29q-103 2 -183.5 37t-133.5 105t-68.5 174t12.5 243q25 117 77.5 218t129 177.5t180.5 120.5t224 44q97 0 172.5 -28.5t121.5 -79t72 -121t25.5 -154t-18.5 -177.5q-54 -252 -221.5 -405.5t-389.5 -153.5zM1042 530q16 77 17.5 143t-13.5 123t-47.5 97t-88.5 63
t-132 23q-93 0 -172.5 -37.5t-134.5 -102t-92.5 -142.5t-56.5 -167q-42 -204 25.5 -326t240.5 -122q93 0 172 37.5t134 102t92 142t56 166.5zM807 1176h-105l289 284h158z" />
    <glyph glyph-name="ocircumflex" unicode="&#xf4;" 
d="M563 -29q-103 2 -183.5 37t-133.5 105t-68.5 174t12.5 243q25 117 77.5 218t129 177.5t180.5 120.5t224 44q97 0 172.5 -28.5t121.5 -79t72 -121t25.5 -154t-18.5 -177.5q-54 -252 -221.5 -405.5t-389.5 -153.5zM1042 530q16 77 17.5 143t-13.5 123t-47.5 97t-88.5 63
t-132 23q-93 0 -172.5 -37.5t-134.5 -102t-92.5 -142.5t-56.5 -167q-42 -204 25.5 -326t240.5 -122q93 0 172 37.5t134 102t92 142t56 166.5zM874 1384l-212 -208h-134l295 284h138l169 -284h-133z" />
    <glyph glyph-name="otilde" unicode="&#xf5;" 
d="M563 -29q-103 2 -183.5 37t-133.5 105t-68.5 174t12.5 243q25 117 77.5 218t129 177.5t180.5 120.5t224 44q97 0 172.5 -28.5t121.5 -79t72 -121t25.5 -154t-18.5 -177.5q-54 -252 -221.5 -405.5t-389.5 -153.5zM1042 530q16 77 17.5 143t-13.5 123t-47.5 97t-88.5 63
t-132 23q-93 0 -172.5 -37.5t-134.5 -102t-92.5 -142.5t-56.5 -167q-42 -204 25.5 -326t240.5 -122q93 0 172 37.5t134 102t92 142t56 166.5zM592 1200h-74q18 62 66 121q41 44 93.5 65t102.5 9q30 -6 112 -47t122 -41q68 0 110 102h78q-7 -24 -33 -78q-80 -123 -178 -123
q-59 0 -146 46t-132 46q-41 0 -68.5 -26.5t-52.5 -73.5z" />
    <glyph glyph-name="odieresis" unicode="&#xf6;" 
d="M563 -29q-103 2 -183.5 37t-133.5 105t-68.5 174t12.5 243q25 117 77.5 218t129 177.5t180.5 120.5t224 44q97 0 172.5 -28.5t121.5 -79t72 -121t25.5 -154t-18.5 -177.5q-54 -252 -221.5 -405.5t-389.5 -153.5zM1042 530q16 77 17.5 143t-13.5 123t-47.5 97t-88.5 63
t-132 23q-93 0 -172.5 -37.5t-134.5 -102t-92.5 -142.5t-56.5 -167q-42 -204 25.5 -326t240.5 -122q93 0 172 37.5t134 102t92 142t56 166.5zM606 1196l45 209h133l-45 -209h-133zM932 1196l45 209h133l-45 -209h-133z" />
    <glyph glyph-name="divide" unicode="&#xf7;" horiz-adv-x="1351" 
d="M260 451l27 122h1024l-27 -122h-1024zM752 0h-150l39 180h150zM932 844h-150l37 180h150z" />
    <glyph glyph-name="oslash" unicode="&#xf8;" 
d="M330 254l667 633q-62 92 -215 92q-93 0 -172.5 -37.5t-134.5 -102.5t-92.5 -143.5t-56.5 -167.5q-37 -175 4 -274zM1042 813l-673 -639q36 -44 96 -68t127 -24q93 0 172 37t134.5 101t92.5 142t56 166q39 178 -5 285zM274 84l-139 -131l-61 59l149 140q-79 143 -28 376
q25 118 77.5 218.5t128.5 178t180 121.5t224 44q190 0 293 -109l133 127l57 -64l-139 -133q77 -149 29 -383q-53 -252 -216.5 -404.5t-394.5 -152.5q-105 0 -178.5 32.5t-114.5 80.5z" />
    <glyph glyph-name="ugrave" unicode="&#xf9;" 
d="M969 483l123 578h122l-225 -1061h-123l31 147q-41 -38 -69.5 -60.5t-78 -53.5t-107.5 -46.5t-124 -15.5q-376 0 -293 391l148 699h123l-148 -696q-30 -140 20.5 -211.5t192.5 -71.5q150 0 260.5 111.5t147.5 289.5zM854 1176l-221 284h160l165 -284h-104z" />
    <glyph glyph-name="uacute" unicode="&#xfa;" 
d="M969 483l123 578h122l-225 -1061h-123l31 147q-41 -38 -69.5 -60.5t-78 -53.5t-107.5 -46.5t-124 -15.5q-376 0 -293 391l148 699h123l-148 -696q-30 -140 20.5 -211.5t192.5 -71.5q150 0 260.5 111.5t147.5 289.5zM807 1176h-105l289 284h158z" />
    <glyph glyph-name="ucircumflex" unicode="&#xfb;" 
d="M969 483l123 578h122l-225 -1061h-123l31 147q-41 -38 -69.5 -60.5t-78 -53.5t-107.5 -46.5t-124 -15.5q-376 0 -293 391l148 699h123l-148 -696q-30 -140 20.5 -211.5t192.5 -71.5q150 0 260.5 111.5t147.5 289.5zM874 1384l-212 -208h-134l295 284h138l169 -284h-133z
" />
    <glyph glyph-name="udieresis" unicode="&#xfc;" 
d="M969 483l123 578h122l-225 -1061h-123l31 147q-41 -38 -69.5 -60.5t-78 -53.5t-107.5 -46.5t-124 -15.5q-376 0 -293 391l148 699h123l-148 -696q-30 -140 20.5 -211.5t192.5 -71.5q150 0 260.5 111.5t147.5 289.5zM606 1196l45 209h133l-45 -209h-133zM932 1196l45 209
h133l-45 -209h-133z" />
    <glyph glyph-name="yacute" unicode="&#xfd;" horiz-adv-x="1024" 
d="M53 -403l25 114q62 -12 100 -12q39 0 74 20.5t62 57t48 72t45 78.5t39 65l-184 1069h137l148 -911l532 911h133l-618 -1047q-42 -71 -64.5 -109t-57.5 -92t-58 -82t-55.5 -61.5t-60 -49.5t-61 -27t-69.5 -11q-57 0 -115 15zM750 1176h-105l289 284h158z" />
    <glyph glyph-name="thorn" unicode="&#xfe;" horiz-adv-x="1251" 
d="M397 526q-21 -90 -11.5 -170.5t41 -141.5t93 -96.5t142.5 -35.5q123 0 221.5 65.5t158 172.5t82.5 243q40 195 -36.5 305.5t-235.5 110.5q-169 0 -291.5 -127.5t-163.5 -325.5zM322 170l-125 -588h-123l401 1893h123l-127 -601h4q72 100 189.5 158t224.5 58
q100 0 175 -28t119.5 -78t66.5 -120.5t21 -153t-22 -178.5q-24 -114 -74 -213.5t-123 -178t-175 -124t-220 -45.5q-116 0 -207.5 52.5t-127.5 146.5z" />
    <glyph glyph-name="ydieresis" unicode="&#xff;" horiz-adv-x="1024" 
d="M53 -403l25 114q62 -12 100 -12q39 0 74 20.5t62 57t48 72t45 78.5t39 65l-184 1069h137l148 -911l532 911h133l-618 -1047q-42 -71 -64.5 -109t-57.5 -92t-58 -82t-55.5 -61.5t-60 -49.5t-61 -27t-69.5 -11q-57 0 -115 15zM549 1196l45 209h133l-45 -209h-133zM874 1196
l46 209h133l-45 -209h-134z" />
    <glyph glyph-name="dotlessi" unicode="&#x131;" horiz-adv-x="454" 
d="M283 0h-123l225 1061h123z" />
    <glyph glyph-name="Lslash" unicode="&#x141;" 
d="M1096 0h-930l158 737l-185 -82l27 123l182 82l131 615h139l-108 -512l182 81l-24 -122l-185 -82l-153 -721h790z" />
    <glyph glyph-name="lslash" unicode="&#x142;" horiz-adv-x="454" 
d="M289 0h-123l147 696l-161 -82l26 123l162 82l139 656h123l-117 -553l162 82l-26 -123l-162 -82z" />
    <glyph glyph-name="OE" unicode="&#x152;" horiz-adv-x="2048" 
d="M1217 453l120 567q38 181 -49.5 278t-281.5 97q-234 0 -395.5 -167.5t-229.5 -488.5q-25 -117 -28 -216.5t18.5 -182t67 -140t122 -89t180.5 -31.5q76 0 163.5 30t156.5 80t103 112.5t53 150.5zM1126 0l31 147q-105 -88 -209.5 -137t-240.5 -49q-131 0 -229 42
t-155 114.5t-84.5 172t-26 210.5t27.5 235q35 165 101.5 303t163 246t231.5 168.5t294 60.5q145 0 239.5 -42.5t137.5 -151.5l33 156h833l-24 -119h-701l-114 -533h655l-25 -118h-655l-125 -586h721l-25 -119h-854z" />
    <glyph glyph-name="oe" unicode="&#x153;" horiz-adv-x="1933" 
d="M1958 502h-805q-15 -48 -18 -102.5t11.5 -111t45.5 -102.5t91 -75t140 -29q116 0 213.5 67.5t145.5 178.5h125q-73 -171 -208 -264t-304 -93q-144 0 -237.5 71t-127.5 187q-89 -126 -217.5 -192t-271.5 -66q-213 0 -311 151.5t-44 405.5q25 119 75 219t123 177.5
t176.5 121.5t225.5 44q151 0 243 -62t130 -194q186 256 473 256q108 0 182.5 -32.5t112 -86t51.5 -131.5t7.5 -159t-27.5 -179zM313 510q-22 -87 -14 -164.5t37 -136t90.5 -93t148.5 -34.5q171 0 291.5 128t165.5 341q41 193 -29 310.5t-249 117.5q-165 0 -283 -126
t-158 -343zM1176 604h673q19 81 12.5 149.5t-33 118.5t-84 78.5t-140.5 28.5q-152 0 -269.5 -108t-158.5 -267z" />
    <glyph glyph-name="Scaron" unicode="&#x160;" horiz-adv-x="1251" 
d="M182 440h135q-13 -96 7.5 -167t69 -112.5t116 -61t154.5 -19.5q187 0 299.5 86.5t140.5 218.5q14 66 -1 116t-51.5 80t-89 54t-114.5 38.5t-126.5 32t-125.5 35.5t-111.5 49.5t-85 72.5t-46 106t6.5 149q16 78 63.5 148.5t120 126t176.5 88t224 32.5q97 0 174 -22.5
t126 -63t79 -96t33.5 -120.5t-10.5 -138h-134q16 84 1.5 145t-58.5 100.5t-103 58t-132 18.5q-102 0 -185 -29t-134.5 -77t-80 -104.5t-31.5 -115.5q-3 -55 20 -96t63.5 -66t95 -45t115 -32t123 -28.5t120.5 -34.5t106 -49.5t79 -73t41.5 -106t-7.5 -147.5
q-43 -203 -209.5 -316.5t-421.5 -113.5q-239 0 -360 123.5t-72 355.5zM989 1665l211 209h133l-291 -285h-137l-174 285h133z" />
    <glyph glyph-name="scaron" unicode="&#x161;" horiz-adv-x="1024" 
d="M164 332h125q1 -135 63.5 -192.5t202.5 -57.5q126 0 205 57t98 140q11 49 -5 84.5t-51 55t-83 35.5t-102 25.5t-107.5 24.5t-100 33t-79.5 51.5t-45 80t2 117.5q28 135 145.5 219.5t290.5 84.5q178 0 265.5 -80t72.5 -254h-125q9 118 -53.5 170.5t-184.5 52.5
q-115 0 -187.5 -49t-90.5 -133q-9 -42 3.5 -74t40.5 -51.5t68 -36t86.5 -27.5t95 -24.5t94.5 -28t84.5 -38t64.5 -54t35.5 -76.5t-3.5 -106q-31 -148 -167 -229t-330 -81q-181 0 -266.5 102t-61.5 259zM788 1251l213 209h134l-293 -284h-137l-173 284h134z" />
    <glyph glyph-name="Ydieresis" unicode="&#x178;" horiz-adv-x="1251" 
d="M498 1475l282 -711l596 711h162l-711 -832l-137 -643h-139l135 633l-348 842h160zM750 1610l45 209h133l-45 -209h-133zM1075 1610l45 209h133l-45 -209h-133z" />
    <glyph glyph-name="Zcaron" unicode="&#x17d;" horiz-adv-x="1251" 
d="M1186 0h-1123l25 117l1208 1239h-864l25 119h1036l-25 -117l-1208 -1239h950zM989 1665l211 209h133l-291 -285h-137l-174 285h133z" />
    <glyph glyph-name="zcaron" unicode="&#x17e;" horiz-adv-x="1024" 
d="M956 0h-888l22 109l885 849h-658l23 103h815l-22 -109l-885 -850h731zM788 1251l213 209h134l-293 -284h-137l-173 284h134z" />
    <glyph glyph-name="florin" unicode="&#x192;" 
d="M1415 1462l-63 -100q-27 18 -62 27q-37 7 -90 -3q-39 -6 -74 -32t-60 -60t-51 -84.5t-44 -94t-42 -102t-42 -95.5h235l-20 -99h-252l-277 -688q-39 -95 -75 -167t-84.5 -144t-99.5 -118t-118 -74.5t-143 -28.5q-49 0 -106 22l63 117q25 -18 44 -22.5t57 -4.5
q34 0 67.5 18.5t63.5 48t64.5 86t63 111.5t68.5 146t71 167.5t79 198.5l129 332h-232l21 99h248q12 26 39.5 89t44 99.5t47.5 95.5t56.5 95t64.5 79.5t77.5 68t89.5 41.5t107 17q73 0 135 -41z" />
    <glyph glyph-name="circumflex" unicode="&#x2c6;" horiz-adv-x="681" 
d="M645 1384l-213 -208h-133l295 284h137l170 -284h-133z" />
    <glyph glyph-name="caron" unicode="&#x2c7;" horiz-adv-x="681" 
d="M616 1251l213 209h134l-293 -284h-138l-172 284h134z" />
    <glyph glyph-name="uni02C9" unicode="&#x2c9;" horiz-adv-x="681" 
d="M313 1253l21 93h606l-20 -93h-607z" />
    <glyph glyph-name="breve" unicode="&#x2d8;" horiz-adv-x="681" 
d="M365 1446h79q-1 -83 46.5 -124.5t134.5 -41.5q177 0 254 166h75q-40 -126 -135.5 -192t-224.5 -66q-122 0 -184 68.5t-45 189.5z" />
    <glyph glyph-name="dotaccent" unicode="&#x2d9;" horiz-adv-x="681" 
d="M528 1196l45 209h134l-45 -209h-134z" />
    <glyph glyph-name="ring" unicode="&#x2da;" horiz-adv-x="681" 
d="M594 1184q-84 0 -132.5 59.5t-29.5 142.5q17 82 91.5 143.5t156.5 61.5q83 0 130 -61.5t30 -143.5q-19 -83 -91 -142.5t-155 -59.5zM608 1251q54 0 103 40.5t61 94.5q11 55 -20 96.5t-86 41.5t-104.5 -41t-61.5 -97q-12 -55 20.5 -95t87.5 -40z" />
    <glyph glyph-name="ogonek" unicode="&#x2db;" horiz-adv-x="681" 
d="M305 0h103v-4q-182 -81 -203 -178q-11 -57 22 -87t90 -30q45 0 91 18l-19 -90q-59 -18 -110 -18q-86 0 -138.5 47.5t-34.5 130.5q14 67 70 122t129 89z" />
    <glyph glyph-name="tilde" unicode="&#x2dc;" horiz-adv-x="681" 
d="M362 1200h-73q18 64 65 121q41 44 94 65t103 9q30 -6 112 -47t121 -41q69 0 111 102h78q-7 -24 -33 -78q-80 -123 -178 -123q-59 0 -146.5 46t-132.5 46q-41 0 -68.5 -26.5t-52.5 -73.5z" />
    <glyph glyph-name="hungarumlaut" unicode="&#x2dd;" horiz-adv-x="681" 
d="M578 1176h-105l289 284h158zM909 1176h-104l289 284h157z" />
    <glyph glyph-name="uni03A9" unicode="&#x3a9;" horiz-adv-x="1484" 
d="M444 98l2 6q-102 107 -147 275t-2 375q43 202 159 360.5t273 243t328 84.5q105 0 192 -35.5t144.5 -98t93.5 -148.5t39.5 -186.5t-17.5 -211.5q-46 -214 -167.5 -388t-262.5 -270l-2 -6h320l-21 -98h-477l14 72q74 43 145 106t136 146.5t116 192t76 226.5q14 68 15 138
t-11 137t-41 125.5t-71.5 102.5t-105.5 69.5t-140 25.5q-147 0 -277 -81.5t-218 -217.5t-123 -303q-47 -218 11.5 -400.5t174.5 -266.5l-14 -72h-477l20 98h315z" />
    <glyph glyph-name="uni03BC" unicode="&#x3bc;" 
d="M969 483l123 578h122l-225 -1061h-123l31 147q-41 -38 -69.5 -60.5t-78 -53.5t-107.5 -46.5t-124 -15.5q-149 0 -239 66l-97 -455h-123l314 1479h123l-148 -696q-30 -140 20.5 -211.5t192.5 -71.5q150 0 260.5 111.5t147.5 289.5z" />
    <glyph glyph-name="pi" unicode="&#x3c0;" horiz-adv-x="1148" 
d="M1294 950h-172l-139 -651q-44 -208 -33 -299h-114q-24 62 26 285l142 665h-402q-59 -227 -168 -523t-190 -427h-117q89 152 194 435.5t164 514.5q-169 0 -245 -26l-4 77q102 52 290 52h801z" />
    <glyph glyph-name="endash" unicode="&#x2013;" horiz-adv-x="1024" 
d="M1147 578l-19 -91h-1024l19 91h1024z" />
    <glyph glyph-name="emdash" unicode="&#x2014;" horiz-adv-x="2048" 
d="M2152 487h-2048l19 91h2048z" />
    <glyph glyph-name="quoteleft" unicode="&#x2018;" horiz-adv-x="454" 
d="M356 1014l52 241q20 86 72 142.5t124 77.5l-16 -76q-79 -43 -99 -135l-14 -70h70l-39 -180h-150z" />
    <glyph glyph-name="quoteright" unicode="&#x2019;" horiz-adv-x="454" 
d="M627 1475l-52 -242q-18 -86 -70.5 -142t-125.5 -77l16 76q81 44 99 135l14 69h-70l39 181h150z" />
    <glyph glyph-name="quotesinglbase" unicode="&#x201a;" horiz-adv-x="454" 
d="M352 180l-51 -241q-20 -86 -72.5 -142.5t-124.5 -77.5l17 76q78 42 98 135l14 70h-69l39 180h149z" />
    <glyph glyph-name="quotedblleft" unicode="&#x201c;" horiz-adv-x="796" 
d="M700 1014l52 241q20 86 72 142.5t124 77.5l-16 -76q-78 -42 -98 -135l-15 -70h70l-39 -180h-150zM391 1014l51 241q20 86 72.5 142.5t124.5 77.5l-16 -76q-79 -43 -99 -135l-14 -70h70l-39 -180h-150z" />
    <glyph glyph-name="quotedblright" unicode="&#x201d;" horiz-adv-x="796" 
d="M934 1475l-51 -242q-18 -86 -71 -142t-126 -77l16 76q81 44 99 135l14 69h-70l39 181h150zM625 1475l-52 -242q-18 -86 -70.5 -142t-125.5 -77l16 76q81 44 99 135l14 69h-70l39 181h150z" />
    <glyph glyph-name="quotedblbase" unicode="&#x201e;" horiz-adv-x="796" 
d="M659 180l-51 -241q-20 -86 -72 -142.5t-124 -77.5l16 76q78 42 98 135l15 70h-70l39 180h149zM350 180l-51 -241q-20 -86 -72.5 -142.5t-124.5 -77.5l17 76q78 42 98 135l14 70h-69l39 180h149z" />
    <glyph glyph-name="dagger" unicode="&#x2020;" 
d="M436 -340l262 1233h-432l23 111h432l100 471h123l-100 -471h432l-23 -111h-432l-262 -1233h-123z" />
    <glyph glyph-name="daggerdbl" unicode="&#x2021;" 
d="M555 223l145 684h-432l25 111h432l96 457h123l-96 -457h432l-25 -111h-432l-145 -684h432l-23 -110h-432l-96 -453h-123l96 453h-432l23 110h432z" />
    <glyph glyph-name="bullet" unicode="&#x2022;" horiz-adv-x="1024" 
d="M1036 735q-32 -151 -163.5 -258.5t-284.5 -107.5q-151 0 -236 107.5t-53 258.5q34 154 164.5 262.5t281.5 108.5q154 0 239.5 -108.5t51.5 -262.5z" />
    <glyph glyph-name="ellipsis" unicode="&#x2026;" horiz-adv-x="2048" 
d="M418 0h-150l39 180h150zM1100 0h-150l39 180h150zM1782 0h-150l39 180h150z" />
    <glyph glyph-name="perthousand" unicode="&#x2030;" horiz-adv-x="2048" 
d="M1843 612q125 0 195.5 -91t44.5 -216q-28 -126 -136.5 -215.5t-234.5 -89.5t-198 89.5t-44 215.5q26 124 137 215.5t236 91.5zM1737 117q73 0 142.5 57t86.5 131q15 75 -29.5 133t-119.5 58q-77 0 -146 -57.5t-84 -133.5q-17 -75 29 -131.5t121 -56.5zM637 1430
q125 0 197.5 -90.5t46.5 -215.5q-28 -127 -137.5 -217t-235.5 -90t-197 91t-43 216q26 125 135.5 215.5t233.5 90.5zM612 1313q-76 0 -144 -57t-83 -132q-17 -75 27.5 -132.5t119.5 -57.5t145 57.5t87 132.5q17 74 -29.5 131.5t-122.5 57.5zM1100 612q125 0 196 -90.5
t45 -216.5q-28 -127 -137 -216t-235 -89t-197 90t-43 215q26 125 136.5 216t234.5 91zM993 117q74 0 144.5 56.5t87.5 131.5q15 75 -30.5 133t-121.5 58t-144 -57.5t-83 -133.5q-17 -74 28 -131t119 -57zM279 -29h-109l1147 1473h108z" />
    <glyph glyph-name="guilsinglleft" unicode="&#x2039;" horiz-adv-x="796" 
d="M346 467l29 129l348 231l-29 -129l-248 -168l179 -163l-27 -127z" />
    <glyph glyph-name="guilsinglright" unicode="&#x203a;" horiz-adv-x="796" 
d="M676 600l-27 -129l-348 -231l27 129l250 168l-179 163l27 127z" />
    <glyph glyph-name="fraction" unicode="&#x2044;" horiz-adv-x="342" 
d="M-238 -29h-104l1223 1473h104z" />
    <glyph glyph-name="Euro" unicode="&#x20ac;" 
d="M141 483l66 111h125q6 53 18 113q4 14 10.5 43t10.5 45h-160l63 110h132q49 148 118.5 255.5t149.5 168t162 88t170 27.5q290 0 346 -238l-90 -155q-4 145 -80.5 213.5t-200.5 68.5q-154 0 -264.5 -114.5t-179.5 -313.5h637l-66 -110h-606q-3 -15 -9.5 -43t-9.5 -43
q-16 -78 -20 -115h530l-65 -111h-477q-20 -401 266 -401q202 0 389 223l-37 -172q-74 -74 -174 -118t-203 -44q-68 0 -125.5 16t-108 53.5t-83.5 95t-49 146t-9 201.5h-176z" />
    <glyph glyph-name="afii61289" unicode="&#x2113;" horiz-adv-x="972" 
d="M920 279l51 -50q-184 -247 -420 -247q-84 0 -141.5 31.5t-83 85t-33 124t9.5 148.5l6 26q-71 -48 -141 -100l-27 74q148 103 193 141l121 571q23 108 59 192.5t76 137t87 87t90 48t87 13.5q119 0 162 -90t14 -230q-39 -186 -190 -371.5t-402 -388.5l-12 -61
q-27 -124 -7 -200.5t64 -110t109 -33.5q92 0 178.5 60.5t149.5 142.5zM569 1096l-106 -494q199 173 321.5 327t155.5 306q50 235 -106 235q-33 0 -68.5 -20t-72.5 -61.5t-70 -117t-54 -175.5z" />
    <glyph glyph-name="trademark" unicode="&#x2122;" horiz-adv-x="1925" 
d="M2073 1475l-183 -863h-106l164 772h-4l-461 -772h-70l-133 772h-4l-164 -772h-106l182 863h196l111 -637h4l377 637h197zM1028 1475l-16 -82h-275l-166 -781h-106l166 781h-275l17 82h655z" />
    <glyph glyph-name="Omega" unicode="&#x2126;" horiz-adv-x="1484" 
d="M444 98l2 6q-102 107 -147 275t-2 375q43 202 159 360.5t273 243t328 84.5q105 0 192 -35.5t144.5 -98t93.5 -148.5t39.5 -186.5t-17.5 -211.5q-46 -214 -167.5 -388t-262.5 -270l-2 -6h320l-21 -98h-477l14 72q74 43 145 106t136 146.5t116 192t76 226.5q14 68 15 138
t-11 137t-41 125.5t-71.5 102.5t-105.5 69.5t-140 25.5q-147 0 -277 -81.5t-218 -217.5t-123 -303q-47 -218 11.5 -400.5t174.5 -266.5l-14 -72h-477l20 98h315z" />
    <glyph glyph-name="estimated" unicode="&#x212e;" horiz-adv-x="2080" 
d="M2011 686h-1325q-10 0 -10 -8v-402q0 -23 16 -45q99 -102 228.5 -159.5t273.5 -57.5q154 0 290 65t236 179h119q-112 -131 -283 -208t-364 -77q-166 0 -317.5 58t-261 156.5t-174 234t-64.5 285.5q0 201 109.5 370.5t297.5 268t410 98.5q167 0 318.5 -58t261 -157
t174.5 -235.5t65 -286.5v-21zM1710 739v404q0 30 -20 47q-98 98 -226.5 153.5t-269.5 55.5q-143 0 -272 -57t-228 -158q-18 -18 -18 -51v-394q0 -12 10 -12h1016q8 0 8 12z" />
    <glyph glyph-name="partialdiff" unicode="&#x2202;" horiz-adv-x="1099" 
d="M502 1389l-27 84q162 110 352 110q98 0 176 -46t131 -140.5t62.5 -238.5t-29.5 -341q-37 -176 -102 -326.5t-152.5 -265t-202 -180t-241.5 -65.5q-76 0 -134.5 26t-92.5 70.5t-54 103.5t-18.5 126t14.5 138q25 115 81.5 213t130 163t159.5 101.5t170 36.5
q56 0 105.5 -15.5t83.5 -38.5t60 -52.5t40 -54t20 -45.5h2q10 35 23 96q40 198 16 339.5t-98 219.5t-180 78q-150 0 -295 -96zM498 78h4q101 0 198.5 76.5t171 198t121.5 270.5q-6 38 -25.5 78t-51.5 77t-83.5 60.5t-111.5 23.5q-135 0 -259 -121.5t-159 -291.5
q-36 -163 18 -267t177 -104z" />
    <glyph glyph-name="Delta" unicode="&#x2206;" horiz-adv-x="1323" 
d="M68 0l18 88l819 1370h133l236 -1368l-19 -90h-1187zM205 96h944l-145 840q-5 42 -32 185.5t-30 197.5h-8q-20 -43 -98 -173t-103 -177z" />
    <glyph glyph-name="product" unicode="&#x220f;" horiz-adv-x="1718" 
d="M1663 1311h-231v-1508h-115v1508h-617v-1508h-116v1508h-230v106h1309v-106z" />
    <glyph glyph-name="summation" unicode="&#x2211;" horiz-adv-x="1427" 
d="M1382 -197h-1036v82l569 723l-542 727v82h979v-102h-811v-8l512 -684l-549 -699v-8h878v-113z" />
    <glyph glyph-name="minus" unicode="&#x2212;" horiz-adv-x="1351" 
d="M260 451l27 122h1024l-27 -122h-1024z" />
    <glyph glyph-name="uni2215" unicode="&#x2215;" horiz-adv-x="342" 
d="M-238 -29h-104l1223 1473h104z" />
    <glyph glyph-name="uni2219" unicode="&#x2219;" horiz-adv-x="569" 
d="M459 815q40 0 62.5 -29t13.5 -69q-8 -40 -43 -70.5t-76 -30.5t-64.5 30.5t-15.5 70.5q9 39 46.5 68.5t76.5 29.5z" />
    <glyph glyph-name="radical" unicode="&#x221a;" horiz-adv-x="1458" 
d="M1456 1681l-452 -1990h-111l-336 958l-154 -57l-26 78l256 98l278 -795q18 -67 33 -137h2q3 17 13 64.5t14 70.5l391 1710h92z" />
    <glyph glyph-name="infinity" unicode="&#x221e;" horiz-adv-x="1773" 
d="M1669 592v-4q0 -138 -91 -226t-216 -88q-92 0 -174.5 57.5t-202.5 188.5q-44 -49 -67.5 -73.5t-67 -64t-77.5 -58.5t-81.5 -34.5t-95.5 -15.5q-124 0 -212.5 90t-88.5 218q0 135 89 225t224 90q45 0 90 -15t80.5 -36t76.5 -57.5t69 -66.5t67 -75q101 112 144 149
q117 101 243 101q131 0 211 -85t80 -220zM608 354h2q32 0 66 11.5t59 26.5t58 43.5t50.5 46t50.5 52.5t44 46q-91 110 -136 150q-101 89 -208 89q-97 0 -154 -70t-57 -169q2 -95 64 -160.5t161 -65.5zM1368 819h-2q-40 0 -80 -15.5t-77.5 -46t-63.5 -55t-61.5 -63.5
t-47.5 -51q121 -131 188.5 -182.5t145.5 -51.5q96 0 153.5 69.5t57.5 160.5q0 110 -60 172.5t-153 62.5z" />
    <glyph glyph-name="integral" unicode="&#x222b;" horiz-adv-x="1007" 
d="M981 1698l-25 -84q-29 22 -75 22q-69 0 -105 -47q-41 -47 -57.5 -132t-16.5 -238q0 -155 13.5 -515t13.5 -522q0 -280 -92 -409q-30 -45 -78.5 -68.5t-103.5 -23.5q-34 0 -70.5 11t-56.5 23l24 86q54 -24 94 -24q61 0 99 47q73 94 73 362q0 162 -13 526t-13 519
q0 167 23.5 265t80.5 157q70 73 176 73q62 0 109 -28z" />
    <glyph glyph-name="approxequal" unicode="&#x2248;" horiz-adv-x="1343" 
d="M1192 862l51 -45q-94 -188 -258 -188q-40 0 -81 12t-71 27t-92 49q-41 23 -65 35t-61 23t-70 11q-66 0 -114 -40.5t-93 -112.5l-55 43q46 90 117.5 140t158.5 50q35 0 73.5 -11t56.5 -19.5t60 -32.5t44 -25q9 -5 33.5 -17.5t33.5 -17t29 -13.5t33 -12t31.5 -6t37.5 -3
q62 0 108.5 36.5t92.5 116.5zM1192 524l51 -45q-97 -186 -258 -186q-40 0 -82 12.5t-69.5 26t-92.5 47.5q-42 24 -66.5 36t-60.5 23t-69 11q-46 0 -86.5 -23.5t-65.5 -53.5t-55 -77l-55 43q46 91 117.5 140.5t158.5 49.5q35 0 72 -10t58.5 -20t57.5 -29.5t46 -24.5
q47 -27 67 -37.5t57.5 -22t75.5 -11.5q61 0 107 36t92 115z" />
    <glyph glyph-name="notequal" unicode="&#x2260;" horiz-adv-x="1384" 
d="M1038 1020l-96 -207h336v-84h-371l-143 -305h514v-82h-549l-115 -246l-65 33l98 213h-317v82h354l141 305h-495v84h530l111 240z" />
    <glyph glyph-name="lessequal" unicode="&#x2264;" horiz-adv-x="1415" 
d="M1303 193l-930 460v86l930 461v-100l-838 -400v-4l838 -403v-100zM1309 20h-949v86h949v-86z" />
    <glyph glyph-name="greaterequal" unicode="&#x2265;" horiz-adv-x="1415" 
d="M373 1200l932 -461v-86l-930 -460v100l835 401v4l-837 402v100zM1307 20h-945v86h945v-86z" />
    <glyph glyph-name="lozenge" unicode="&#x25ca;" horiz-adv-x="1460" 
d="M1348 709l-418 -799h-96l-414 799l418 800h96zM1235 705l-311 600q-21 42 -39 100h-4q-19 -54 -41 -100l-310 -594l314 -602q31 -63 37 -99h8q11 44 37 99z" />
    </font>
</defs>
</svg>
